%TF.GenerationSoftware,KiCad,Pcbnew,(6.0.10)*%
%TF.CreationDate,2023-04-24T22:32:33-04:00*%
%TF.ProjectId,waterwheel_synth_v2,77617465-7277-4686-9565-6c5f73796e74,rev?*%
%TF.SameCoordinates,Original*%
%TF.FileFunction,Copper,L1,Top*%
%TF.FilePolarity,Positive*%
%FSLAX46Y46*%
G04 Gerber Fmt 4.6, Leading zero omitted, Abs format (unit mm)*
G04 Created by KiCad (PCBNEW (6.0.10)) date 2023-04-24 22:32:33*
%MOMM*%
%LPD*%
G01*
G04 APERTURE LIST*
G04 Aperture macros list*
%AMRoundRect*
0 Rectangle with rounded corners*
0 $1 Rounding radius*
0 $2 $3 $4 $5 $6 $7 $8 $9 X,Y pos of 4 corners*
0 Add a 4 corners polygon primitive as box body*
4,1,4,$2,$3,$4,$5,$6,$7,$8,$9,$2,$3,0*
0 Add four circle primitives for the rounded corners*
1,1,$1+$1,$2,$3*
1,1,$1+$1,$4,$5*
1,1,$1+$1,$6,$7*
1,1,$1+$1,$8,$9*
0 Add four rect primitives between the rounded corners*
20,1,$1+$1,$2,$3,$4,$5,0*
20,1,$1+$1,$4,$5,$6,$7,0*
20,1,$1+$1,$6,$7,$8,$9,0*
20,1,$1+$1,$8,$9,$2,$3,0*%
%AMHorizOval*
0 Thick line with rounded ends*
0 $1 width*
0 $2 $3 position (X,Y) of the first rounded end (center of the circle)*
0 $4 $5 position (X,Y) of the second rounded end (center of the circle)*
0 Add line between two ends*
20,1,$1,$2,$3,$4,$5,0*
0 Add two circle primitives to create the rounded ends*
1,1,$1,$2,$3*
1,1,$1,$4,$5*%
%AMRotRect*
0 Rectangle, with rotation*
0 The origin of the aperture is its center*
0 $1 length*
0 $2 width*
0 $3 Rotation angle, in degrees counterclockwise*
0 Add horizontal line*
21,1,$1,$2,0,0,$3*%
G04 Aperture macros list end*
%TA.AperFunction,SMDPad,CuDef*%
%ADD10R,1.220000X0.650000*%
%TD*%
%TA.AperFunction,ComponentPad*%
%ADD11RoundRect,0.250000X1.555635X0.636396X0.636396X1.555635X-1.555635X-0.636396X-0.636396X-1.555635X0*%
%TD*%
%TA.AperFunction,ComponentPad*%
%ADD12HorizOval,1.800000X0.636396X0.636396X-0.636396X-0.636396X0*%
%TD*%
%TA.AperFunction,ComponentPad*%
%ADD13RoundRect,0.250000X-0.498392X1.605181X-1.494250X0.769557X0.498392X-1.605181X1.494250X-0.769557X0*%
%TD*%
%TA.AperFunction,ComponentPad*%
%ADD14HorizOval,1.800000X-0.578509X0.689440X0.578509X-0.689440X0*%
%TD*%
%TA.AperFunction,ComponentPad*%
%ADD15C,7.500000*%
%TD*%
%TA.AperFunction,SMDPad,CuDef*%
%ADD16RoundRect,0.200000X-0.308109X0.143853X-0.231786X-0.248798X0.308109X-0.143853X0.231786X0.248798X0*%
%TD*%
%TA.AperFunction,SMDPad,CuDef*%
%ADD17RotRect,1.220000X0.650000X185.000000*%
%TD*%
%TA.AperFunction,SMDPad,CuDef*%
%ADD18RotRect,0.600000X0.450000X262.000000*%
%TD*%
%TA.AperFunction,SMDPad,CuDef*%
%ADD19RotRect,0.600000X0.450000X226.000000*%
%TD*%
%TA.AperFunction,SMDPad,CuDef*%
%ADD20RotRect,1.220000X0.650000X175.000000*%
%TD*%
%TA.AperFunction,SMDPad,CuDef*%
%ADD21RoundRect,0.200000X0.291552X0.174993X-0.076650X0.331285X-0.291552X-0.174993X0.076650X-0.331285X0*%
%TD*%
%TA.AperFunction,SMDPad,CuDef*%
%ADD22RotRect,0.600000X0.450000X214.000000*%
%TD*%
%TA.AperFunction,SMDPad,CuDef*%
%ADD23RoundRect,0.200000X-0.236092X0.244715X-0.305552X-0.149208X0.236092X-0.244715X0.305552X0.149208X0*%
%TD*%
%TA.AperFunction,SMDPad,CuDef*%
%ADD24RotRect,0.600000X0.450000X316.000000*%
%TD*%
%TA.AperFunction,SMDPad,CuDef*%
%ADD25RoundRect,0.200000X-0.339988X-0.005772X-0.099262X-0.325226X0.339988X0.005772X0.099262X0.325226X0*%
%TD*%
%TA.AperFunction,SMDPad,CuDef*%
%ADD26RoundRect,0.200000X0.200000X0.275000X-0.200000X0.275000X-0.200000X-0.275000X0.200000X-0.275000X0*%
%TD*%
%TA.AperFunction,SMDPad,CuDef*%
%ADD27RoundRect,0.150000X-0.825000X-0.150000X0.825000X-0.150000X0.825000X0.150000X-0.825000X0.150000X0*%
%TD*%
%TA.AperFunction,SMDPad,CuDef*%
%ADD28RoundRect,0.200000X-0.302901X0.154518X-0.240327X-0.240557X0.302901X-0.154518X0.240327X0.240557X0*%
%TD*%
%TA.AperFunction,SMDPad,CuDef*%
%ADD29RoundRect,0.200000X-0.315216X0.127531X-0.218447X-0.260588X0.315216X-0.127531X0.218447X0.260588X0*%
%TD*%
%TA.AperFunction,SMDPad,CuDef*%
%ADD30RoundRect,0.200000X-0.256522X0.223207X-0.291385X-0.175271X0.256522X-0.223207X0.291385X0.175271X0*%
%TD*%
%TA.AperFunction,SMDPad,CuDef*%
%ADD31RotRect,0.600000X0.450000X285.000000*%
%TD*%
%TA.AperFunction,SMDPad,CuDef*%
%ADD32RotRect,1.220000X0.650000X218.000000*%
%TD*%
%TA.AperFunction,SMDPad,CuDef*%
%ADD33RoundRect,0.200000X-0.300158X0.159781X-0.244489X-0.236326X0.300158X-0.159781X0.244489X0.236326X0*%
%TD*%
%TA.AperFunction,SMDPad,CuDef*%
%ADD34RotRect,1.220000X0.650000X170.000000*%
%TD*%
%TA.AperFunction,SMDPad,CuDef*%
%ADD35RoundRect,0.200000X-0.011705X0.339835X-0.326909X0.093571X0.011705X-0.339835X0.326909X-0.093571X0*%
%TD*%
%TA.AperFunction,SMDPad,CuDef*%
%ADD36RoundRect,0.200000X-0.005772X0.339988X-0.325226X0.099262X0.005772X-0.339988X0.325226X-0.099262X0*%
%TD*%
%TA.AperFunction,SMDPad,CuDef*%
%ADD37RotRect,1.220000X0.650000X217.000000*%
%TD*%
%TA.AperFunction,SMDPad,CuDef*%
%ADD38RoundRect,0.250000X-0.306024X-0.440992X0.190249X-0.501927X0.306024X0.440992X-0.190249X0.501927X0*%
%TD*%
%TA.AperFunction,SMDPad,CuDef*%
%ADD39RoundRect,0.200000X0.317393X-0.122010X0.213866X0.264360X-0.317393X0.122010X-0.213866X-0.264360X0*%
%TD*%
%TA.AperFunction,SMDPad,CuDef*%
%ADD40RoundRect,0.250000X0.415723X0.339557X-0.044529X0.534923X-0.415723X-0.339557X0.044529X-0.534923X0*%
%TD*%
%TA.AperFunction,SMDPad,CuDef*%
%ADD41RoundRect,0.200000X0.275000X-0.200000X0.275000X0.200000X-0.275000X0.200000X-0.275000X-0.200000X0*%
%TD*%
%TA.AperFunction,SMDPad,CuDef*%
%ADD42RoundRect,0.250000X-0.250000X-0.475000X0.250000X-0.475000X0.250000X0.475000X-0.250000X0.475000X0*%
%TD*%
%TA.AperFunction,SMDPad,CuDef*%
%ADD43RoundRect,0.200000X0.339982X-0.006097X0.110552X0.321564X-0.339982X0.006097X-0.110552X-0.321564X0*%
%TD*%
%TA.AperFunction,SMDPad,CuDef*%
%ADD44RoundRect,0.250000X-0.512652X-0.159099X-0.159099X-0.512652X0.512652X0.159099X0.159099X0.512652X0*%
%TD*%
%TA.AperFunction,SMDPad,CuDef*%
%ADD45RoundRect,0.200000X-0.338157X0.035705X-0.138157X-0.310705X0.338157X-0.035705X0.138157X0.310705X0*%
%TD*%
%TA.AperFunction,SMDPad,CuDef*%
%ADD46RotRect,1.220000X0.650000X189.000000*%
%TD*%
%TA.AperFunction,SMDPad,CuDef*%
%ADD47RoundRect,0.200000X-0.291385X0.175271X-0.256522X-0.223207X0.291385X-0.175271X0.256522X0.223207X0*%
%TD*%
%TA.AperFunction,SMDPad,CuDef*%
%ADD48RoundRect,0.200000X0.213866X-0.264360X0.317393X0.122010X-0.213866X0.264360X-0.317393X-0.122010X0*%
%TD*%
%TA.AperFunction,SMDPad,CuDef*%
%ADD49RoundRect,0.200000X-0.339835X-0.011705X-0.093571X-0.326909X0.339835X0.011705X0.093571X0.326909X0*%
%TD*%
%TA.AperFunction,SMDPad,CuDef*%
%ADD50RoundRect,0.200000X-0.213866X0.264360X-0.317393X-0.122010X0.213866X-0.264360X0.317393X0.122010X0*%
%TD*%
%TA.AperFunction,SMDPad,CuDef*%
%ADD51RoundRect,0.150000X-0.837500X-0.150000X0.837500X-0.150000X0.837500X0.150000X-0.837500X0.150000X0*%
%TD*%
%TA.AperFunction,SMDPad,CuDef*%
%ADD52RoundRect,0.250000X0.250000X0.475000X-0.250000X0.475000X-0.250000X-0.475000X0.250000X-0.475000X0*%
%TD*%
%TA.AperFunction,SMDPad,CuDef*%
%ADD53R,0.600000X0.450000*%
%TD*%
%TA.AperFunction,SMDPad,CuDef*%
%ADD54RoundRect,0.150000X-0.849538X-0.046816X0.812977X-0.250947X0.849538X0.046816X-0.812977X0.250947X0*%
%TD*%
%TA.AperFunction,SMDPad,CuDef*%
%ADD55RoundRect,0.200000X-0.317393X0.122010X-0.213866X-0.264360X0.317393X-0.122010X0.213866X0.264360X0*%
%TD*%
%TA.AperFunction,SMDPad,CuDef*%
%ADD56RoundRect,0.250000X-0.689429X-0.229810X-0.229810X-0.689429X0.689429X0.229810X0.229810X0.689429X0*%
%TD*%
%TA.AperFunction,SMDPad,CuDef*%
%ADD57RotRect,0.600000X0.450000X345.000000*%
%TD*%
%TA.AperFunction,SMDPad,CuDef*%
%ADD58RoundRect,0.200000X0.310705X0.138157X-0.035705X0.338157X-0.310705X-0.138157X0.035705X-0.338157X0*%
%TD*%
%TA.AperFunction,SMDPad,CuDef*%
%ADD59RoundRect,0.200000X0.236092X-0.244715X0.305552X0.149208X-0.236092X0.244715X-0.305552X-0.149208X0*%
%TD*%
%TA.AperFunction,SMDPad,CuDef*%
%ADD60RotRect,1.220000X0.650000X191.000000*%
%TD*%
%TA.AperFunction,SMDPad,CuDef*%
%ADD61RoundRect,0.150000X-0.689429X0.477297X0.477297X-0.689429X0.689429X-0.477297X-0.477297X0.689429X0*%
%TD*%
%TA.AperFunction,SMDPad,CuDef*%
%ADD62RoundRect,0.200000X-0.200000X-0.275000X0.200000X-0.275000X0.200000X0.275000X-0.200000X0.275000X0*%
%TD*%
%TA.AperFunction,SMDPad,CuDef*%
%ADD63RotRect,1.220000X0.650000X195.000000*%
%TD*%
%TA.AperFunction,SMDPad,CuDef*%
%ADD64RotRect,1.220000X0.650000X194.000000*%
%TD*%
%TA.AperFunction,SMDPad,CuDef*%
%ADD65RotRect,1.220000X0.650000X188.000000*%
%TD*%
%TA.AperFunction,SMDPad,CuDef*%
%ADD66RoundRect,0.243750X0.513547X0.062026X0.233929X0.461363X-0.513547X-0.062026X-0.233929X-0.461363X0*%
%TD*%
%TA.AperFunction,SMDPad,CuDef*%
%ADD67RoundRect,0.200000X0.339988X0.005772X0.099262X0.325226X-0.339988X-0.005772X-0.099262X-0.325226X0*%
%TD*%
%TA.AperFunction,SMDPad,CuDef*%
%ADD68RoundRect,0.250000X-0.536362X-0.020994X-0.286362X-0.454006X0.536362X0.020994X0.286362X0.454006X0*%
%TD*%
%TA.AperFunction,SMDPad,CuDef*%
%ADD69RoundRect,0.150000X-0.650000X-0.150000X0.650000X-0.150000X0.650000X0.150000X-0.650000X0.150000X0*%
%TD*%
%TA.AperFunction,ComponentPad*%
%ADD70RoundRect,0.250000X-1.642510X-0.356595X-0.896861X-1.421492X1.642510X0.356595X0.896861X1.421492X0*%
%TD*%
%TA.AperFunction,ComponentPad*%
%ADD71HorizOval,1.800000X-0.737237X-0.516219X0.737237X0.516219X0*%
%TD*%
%TA.AperFunction,ComponentPad*%
%ADD72RoundRect,0.250000X-0.226682X-1.665417X1.029021X-1.328953X0.226682X1.665417X-1.029021X1.328953X0*%
%TD*%
%TA.AperFunction,ComponentPad*%
%ADD73HorizOval,1.800000X-0.232937X0.869333X0.232937X-0.869333X0*%
%TD*%
%TA.AperFunction,ComponentPad*%
%ADD74RoundRect,0.250000X1.550000X-0.650000X1.550000X0.650000X-1.550000X0.650000X-1.550000X-0.650000X0*%
%TD*%
%TA.AperFunction,ComponentPad*%
%ADD75O,3.600000X1.800000*%
%TD*%
%TA.AperFunction,ComponentPad*%
%ADD76RoundRect,0.250000X-1.629065X-0.413700X-0.846705X-1.451926X1.629065X0.413700X0.846705X1.451926X0*%
%TD*%
%TA.AperFunction,ComponentPad*%
%ADD77HorizOval,1.800000X-0.718772X-0.541634X0.718772X0.541634X0*%
%TD*%
%TA.AperFunction,ComponentPad*%
%ADD78RoundRect,0.250000X-1.678837X0.080669X-1.234210X-1.140931X1.678837X-0.080669X1.234210X1.140931X0*%
%TD*%
%TA.AperFunction,ComponentPad*%
%ADD79HorizOval,1.800000X-0.845723X-0.307818X0.845723X0.307818X0*%
%TD*%
%TA.AperFunction,ComponentPad*%
%ADD80RoundRect,0.250000X0.663449X-1.544291X1.566505X-0.609150X-0.663449X1.544291X-1.566505X0.609150X0*%
%TD*%
%TA.AperFunction,ComponentPad*%
%ADD81HorizOval,1.800000X-0.647406X0.625193X0.647406X-0.625193X0*%
%TD*%
%TA.AperFunction,ComponentPad*%
%ADD82C,1.900000*%
%TD*%
%TA.AperFunction,ComponentPad*%
%ADD83C,1.600000*%
%TD*%
%TA.AperFunction,ComponentPad*%
%ADD84RotRect,1.600000X1.600000X67.000000*%
%TD*%
%TA.AperFunction,ComponentPad*%
%ADD85RotRect,2.300000X2.300000X127.000000*%
%TD*%
%TA.AperFunction,ComponentPad*%
%ADD86C,2.300000*%
%TD*%
%TA.AperFunction,ComponentPad*%
%ADD87HorizOval,1.800000X-0.602218X0.668830X0.602218X-0.668830X0*%
%TD*%
%TA.AperFunction,ComponentPad*%
%ADD88RoundRect,0.250000X-0.554108X1.586809X-1.520197X0.716940X0.554108X-1.586809X1.520197X-0.716940X0*%
%TD*%
%TA.AperFunction,ComponentPad*%
%ADD89RoundRect,0.250000X0.650000X1.550000X-0.650000X1.550000X-0.650000X-1.550000X0.650000X-1.550000X0*%
%TD*%
%TA.AperFunction,ComponentPad*%
%ADD90O,1.800000X3.600000*%
%TD*%
%TA.AperFunction,ComponentPad*%
%ADD91HorizOval,1.800000X-0.125256X-0.891241X0.125256X0.891241X0*%
%TD*%
%TA.AperFunction,ComponentPad*%
%ADD92RoundRect,0.250000X-0.859393X-1.444453X0.427956X-1.625378X0.859393X1.444453X-0.427956X1.625378X0*%
%TD*%
%TA.AperFunction,ComponentPad*%
%ADD93HorizOval,1.800000X-0.828454X0.351658X0.828454X-0.351658X0*%
%TD*%
%TA.AperFunction,ComponentPad*%
%ADD94RoundRect,0.250000X-1.172807X1.203961X-1.680758X0.007305X1.172807X-1.203961X1.680758X-0.007305X0*%
%TD*%
%TA.AperFunction,ComponentPad*%
%ADD95RoundRect,0.250000X-1.532477X-0.690299X-0.581718X-1.576897X1.532477X0.690299X0.581718X1.576897X0*%
%TD*%
%TA.AperFunction,ComponentPad*%
%ADD96HorizOval,1.800000X-0.613799X-0.658218X0.613799X0.658218X0*%
%TD*%
%TA.AperFunction,ViaPad*%
%ADD97C,0.800000*%
%TD*%
%TA.AperFunction,Conductor*%
%ADD98C,0.381000*%
%TD*%
%TA.AperFunction,Conductor*%
%ADD99C,0.762000*%
%TD*%
%TA.AperFunction,Conductor*%
%ADD100C,0.254000*%
%TD*%
%TA.AperFunction,Conductor*%
%ADD101C,0.601000*%
%TD*%
G04 APERTURE END LIST*
D10*
%TO.P,Q14,1,B*%
%TO.N,Net-(R32-Pad1)*%
X166290000Y-77790000D03*
%TO.P,Q14,2,E*%
%TO.N,GND*%
X166290000Y-79690000D03*
%TO.P,Q14,3,C*%
%TO.N,Net-(D38-Pad2)*%
X168910000Y-78740000D03*
%TD*%
D11*
%TO.P,J12,1,Pin_1*%
%TO.N,volca_audio*%
X73560077Y-152300077D03*
D12*
%TO.P,J12,2,Pin_2*%
%TO.N,volca_audio_gated*%
X70866000Y-149606000D03*
%TO.P,J12,3,Pin_3*%
%TO.N,big_button_trig*%
X68171923Y-146911923D03*
%TD*%
D13*
%TO.P,J13,1,Pin_1*%
%TO.N,relay-NO*%
X165100000Y-170180000D03*
D14*
%TO.P,J13,2,Pin_2*%
%TO.N,relay-com*%
X162181371Y-172629021D03*
%TO.P,J13,3,Pin_3*%
%TO.N,relay-NC*%
X159262741Y-175078042D03*
%TD*%
D15*
%TO.P,REF\u002A\u002A,1*%
%TO.N,N/C*%
X96520000Y-85598000D03*
%TD*%
%TO.P,REF\u002A\u002A,1*%
%TO.N,N/C*%
X59182000Y-141986000D03*
%TD*%
%TO.P,REF\u002A\u002A,1*%
%TO.N,N/C*%
X135636000Y-148082000D03*
%TD*%
%TO.P,REF\u002A\u002A,1*%
%TO.N,N/C*%
X176276000Y-63500000D03*
%TD*%
%TO.P,REF\u002A\u002A,1*%
%TO.N,N/C*%
X60198000Y-61976000D03*
%TD*%
D16*
%TO.P,R16,1*%
%TO.N,Net-(Q8-Pad3)*%
X63232183Y-78162558D03*
%TO.P,R16,2*%
%TO.N,LED2_14*%
X63547017Y-79782242D03*
%TD*%
D17*
%TO.P,Q21,1,B*%
%TO.N,Net-(Q21-Pad1)*%
X68269913Y-93030711D03*
%TO.P,Q21,2,E*%
%TO.N,GND*%
X68104317Y-91137941D03*
%TO.P,Q21,3,C*%
%TO.N,Net-(Q21-Pad3)*%
X65577085Y-92312674D03*
%TD*%
D18*
%TO.P,D5,2,A*%
%TO.N,1_2*%
X134982968Y-33808481D03*
%TO.P,D5,1,K*%
%TO.N,B_2*%
X135275232Y-31728919D03*
%TD*%
D19*
%TO.P,D30,1,K*%
%TO.N,A_4*%
X170824991Y-46199993D03*
%TO.P,D30,2,A*%
%TO.N,1_4*%
X169366209Y-47710607D03*
%TD*%
D20*
%TO.P,Q15,1,B*%
%TO.N,Net-(Q15-Pad1)*%
X68002117Y-113074059D03*
%TO.P,Q15,2,E*%
%TO.N,GND*%
X68167713Y-111181289D03*
%TO.P,Q15,3,C*%
%TO.N,Net-(Q15-Pad3)*%
X65474885Y-111899326D03*
%TD*%
D21*
%TO.P,R64,2*%
%TO.N,BINARY_6*%
X190688683Y-128504947D03*
%TO.P,R64,1*%
%TO.N,LED_BIN_6*%
X192207517Y-129149653D03*
%TD*%
D22*
%TO.P,D40,1,K*%
%TO.N,Volca_step_6*%
X128689389Y-95357447D03*
%TO.P,D40,2,A*%
%TO.N,2_6*%
X126948411Y-96531753D03*
%TD*%
D23*
%TO.P,R54,1*%
%TO.N,2_1*%
X70041660Y-134547934D03*
%TO.P,R54,2*%
%TO.N,Net-(Q23-Pad1)*%
X69755140Y-136172866D03*
%TD*%
D24*
%TO.P,D25,1,K*%
%TO.N,D_6*%
X86088793Y-45871909D03*
%TO.P,D25,2,A*%
%TO.N,1_6*%
X87599407Y-47330691D03*
%TD*%
D23*
%TO.P,R55,1*%
%TO.N,Net-(Q22-Pad3)*%
X63805560Y-119193934D03*
%TO.P,R55,2*%
%TO.N,LED2_4*%
X63519040Y-120818866D03*
%TD*%
D25*
%TO.P,R1,1*%
%TO.N,Net-(Q3-Pad3)*%
X102576303Y-53523826D03*
%TO.P,R1,2*%
%TO.N,LED1_3*%
X103569297Y-54841574D03*
%TD*%
D18*
%TO.P,D16,2,A*%
%TO.N,1_4*%
X142237468Y-34800181D03*
%TO.P,D16,1,K*%
%TO.N,B_4*%
X142529732Y-32720619D03*
%TD*%
%TO.P,D7,2,A*%
%TO.N,1_1*%
X131061468Y-33276181D03*
%TO.P,D7,1,K*%
%TO.N,B_1*%
X131353732Y-31196619D03*
%TD*%
D26*
%TO.P,R48,1*%
%TO.N,Net-(R48-Pad1)*%
X169288600Y-110044400D03*
%TO.P,R48,2*%
%TO.N,clock*%
X167638600Y-110044400D03*
%TD*%
D23*
%TO.P,R56,1*%
%TO.N,Net-(Q25-Pad3)*%
X63355260Y-127824634D03*
%TO.P,R56,2*%
%TO.N,LED2_2*%
X63068740Y-129449566D03*
%TD*%
D27*
%TO.P,U2,14,VDD*%
%TO.N,+5V*%
X86184600Y-77448400D03*
%TO.P,U2,13*%
%TO.N,N/C*%
X86184600Y-78718400D03*
%TO.P,U2,12*%
X86184600Y-79988400D03*
%TO.P,U2,11*%
X86184600Y-81258400D03*
%TO.P,U2,10*%
X86184600Y-82528400D03*
%TO.P,U2,9*%
X86184600Y-83798400D03*
%TO.P,U2,8*%
X86184600Y-85068400D03*
%TO.P,U2,7,VSS*%
%TO.N,GND*%
X81234600Y-85068400D03*
%TO.P,U2,6*%
%TO.N,N/C*%
X81234600Y-83798400D03*
%TO.P,U2,5*%
X81234600Y-82528400D03*
%TO.P,U2,4*%
%TO.N,sel_trig_inv*%
X81234600Y-81258400D03*
%TO.P,U2,3*%
%TO.N,selected_trig*%
X81234600Y-79988400D03*
%TO.P,U2,2*%
%TO.N,Net-(U2-Pad2)*%
X81234600Y-78718400D03*
%TO.P,U2,1*%
%TO.N,Net-(U2-Pad1)*%
X81234600Y-77448400D03*
%TD*%
D28*
%TO.P,R20,1*%
%TO.N,Net-(Q12-Pad3)*%
X63389642Y-82528357D03*
%TO.P,R20,2*%
%TO.N,LED2_13*%
X63647758Y-84158043D03*
%TD*%
D22*
%TO.P,D41,1,K*%
%TO.N,Volca_step_7*%
X130829889Y-98286347D03*
%TO.P,D41,2,A*%
%TO.N,2_7*%
X129088911Y-99460653D03*
%TD*%
D21*
%TO.P,R70,2*%
%TO.N,BINARY_8*%
X187936683Y-135613247D03*
%TO.P,R70,1*%
%TO.N,LED_BIN_8*%
X189455517Y-136257953D03*
%TD*%
D22*
%TO.P,D36,1,K*%
%TO.N,Volca_step_1*%
X117762789Y-79726047D03*
%TO.P,D36,2,A*%
%TO.N,2_1*%
X116021811Y-80900353D03*
%TD*%
D24*
%TO.P,D23,1,K*%
%TO.N,D_1*%
X72880793Y-59587909D03*
%TO.P,D23,2,A*%
%TO.N,1_1*%
X74391407Y-61046691D03*
%TD*%
D29*
%TO.P,R23,1*%
%TO.N,2_16*%
X69105214Y-66830006D03*
%TO.P,R23,2*%
%TO.N,Net-(Q10-Pad1)*%
X69504386Y-68430994D03*
%TD*%
D21*
%TO.P,R71,2*%
%TO.N,BINARY_11*%
X183544183Y-146165547D03*
%TO.P,R71,1*%
%TO.N,LED_BIN_11*%
X185063017Y-146810253D03*
%TD*%
D30*
%TO.P,R35,1*%
%TO.N,2_8*%
X70236603Y-103838639D03*
%TO.P,R35,2*%
%TO.N,Net-(Q19-Pad1)*%
X70092797Y-105482361D03*
%TD*%
D31*
%TO.P,D10,1,K*%
%TO.N,C_5*%
X113917840Y-33508178D03*
%TO.P,D10,2,A*%
%TO.N,1_5*%
X114461360Y-35536622D03*
%TD*%
D32*
%TO.P,Q4,1,B*%
%TO.N,Net-(Q4-Pad1)*%
X113241672Y-60009894D03*
%TO.P,Q4,2,E*%
%TO.N,GND*%
X112071916Y-58512673D03*
%TO.P,Q4,3,C*%
%TO.N,Net-(Q4-Pad3)*%
X110592206Y-60874317D03*
%TD*%
D19*
%TO.P,D32,1,K*%
%TO.N,A_2*%
X165464991Y-40879093D03*
%TO.P,D32,2,A*%
%TO.N,1_2*%
X164006209Y-42389707D03*
%TD*%
D24*
%TO.P,D20,1,K*%
%TO.N,D_4*%
X80754793Y-51459909D03*
%TO.P,D20,2,A*%
%TO.N,1_4*%
X82265407Y-52918691D03*
%TD*%
D33*
%TO.P,R36,1*%
%TO.N,2_10*%
X69896082Y-94707229D03*
%TO.P,R36,2*%
%TO.N,Net-(Q16-Pad1)*%
X70125718Y-96341171D03*
%TD*%
D23*
%TO.P,R59,1*%
%TO.N,Net-(Q23-Pad3)*%
X63160560Y-133257334D03*
%TO.P,R59,2*%
%TO.N,LED2_1*%
X62874040Y-134882266D03*
%TD*%
D34*
%TO.P,Q23,1,B*%
%TO.N,Net-(Q23-Pad1)*%
X67573832Y-135991746D03*
%TO.P,Q23,2,E*%
%TO.N,GND*%
X67903764Y-134120612D03*
%TO.P,Q23,3,C*%
%TO.N,Net-(Q23-Pad3)*%
X65158602Y-134601221D03*
%TD*%
D35*
%TO.P,R11,1*%
%TO.N,1_5*%
X115757109Y-56869079D03*
%TO.P,R11,2*%
%TO.N,Net-(Q4-Pad1)*%
X114456891Y-57884921D03*
%TD*%
D22*
%TO.P,D43,1,K*%
%TO.N,Volca_step_5*%
X126324289Y-92467047D03*
%TO.P,D43,2,A*%
%TO.N,2_5*%
X124583311Y-93641353D03*
%TD*%
D31*
%TO.P,D3,1,K*%
%TO.N,C_2*%
X102754240Y-36301778D03*
%TO.P,D3,2,A*%
%TO.N,1_2*%
X103297760Y-38330222D03*
%TD*%
D36*
%TO.P,R7,1*%
%TO.N,1_8*%
X129921174Y-55491803D03*
%TO.P,R7,2*%
%TO.N,Net-(Q7-Pad1)*%
X128603426Y-56484797D03*
%TD*%
D30*
%TO.P,R45,1*%
%TO.N,Net-(Q15-Pad3)*%
X63400503Y-110939339D03*
%TO.P,R45,2*%
%TO.N,LED2_6*%
X63256697Y-112583061D03*
%TD*%
D37*
%TO.P,Q5,1,B*%
%TO.N,Net-(Q5-Pad1)*%
X116412537Y-63861126D03*
%TO.P,Q5,2,E*%
%TO.N,GND*%
X115269088Y-62343719D03*
%TO.P,Q5,3,C*%
%TO.N,Net-(Q5-Pad3)*%
X113748387Y-64679178D03*
%TD*%
D38*
%TO.P,C7,1*%
%TO.N,GND*%
X185709681Y-100751624D03*
%TO.P,C7,2*%
%TO.N,+5V*%
X187595519Y-100983176D03*
%TD*%
D39*
%TO.P,R49,1*%
%TO.N,GND*%
X171003126Y-100646289D03*
%TO.P,R49,2*%
%TO.N,TT_Trig_long*%
X170576074Y-99052511D03*
%TD*%
D22*
%TO.P,D35,1,K*%
%TO.N,Volca_step_2*%
X119886089Y-83211247D03*
%TO.P,D35,2,A*%
%TO.N,2_2*%
X118145111Y-84385553D03*
%TD*%
D21*
%TO.P,R51,2*%
%TO.N,BINARY_2*%
X196721583Y-114508747D03*
%TO.P,R51,1*%
%TO.N,LED_BIN_2*%
X198240417Y-115153453D03*
%TD*%
D40*
%TO.P,C13,1*%
%TO.N,GND*%
X95832980Y-174888995D03*
%TO.P,C13,2*%
%TO.N,+5V*%
X94084020Y-174146605D03*
%TD*%
D18*
%TO.P,D14,2,A*%
%TO.N,1_6*%
X149857468Y-35816181D03*
%TO.P,D14,1,K*%
%TO.N,B_6*%
X150149732Y-33736619D03*
%TD*%
D41*
%TO.P,R28,2*%
%TO.N,Net-(R32-Pad2)*%
X154829600Y-78464400D03*
%TO.P,R28,1*%
%TO.N,GND*%
X154829600Y-80114400D03*
%TD*%
D23*
%TO.P,R58,1*%
%TO.N,2_4*%
X70607760Y-120474834D03*
%TO.P,R58,2*%
%TO.N,Net-(Q22-Pad1)*%
X70321240Y-122099766D03*
%TD*%
D22*
%TO.P,D48,1,K*%
%TO.N,Volca_step_14*%
X145794089Y-120803247D03*
%TO.P,D48,2,A*%
%TO.N,2_14*%
X144053111Y-121977553D03*
%TD*%
D30*
%TO.P,R43,1*%
%TO.N,2_7*%
X70326303Y-107545639D03*
%TO.P,R43,2*%
%TO.N,Net-(Q20-Pad1)*%
X70182497Y-109189361D03*
%TD*%
D27*
%TO.P,U6,1*%
%TO.N,Net-(R48-Pad1)*%
X161498600Y-98530400D03*
%TO.P,U6,2*%
%TO.N,BD_Trig_long*%
X161498600Y-99800400D03*
%TO.P,U6,3*%
%TO.N,BD_Trig_short*%
X161498600Y-101070400D03*
%TO.P,U6,4*%
%TO.N,SD_trig_short*%
X161498600Y-102340400D03*
%TO.P,U6,5*%
%TO.N,Net-(R48-Pad1)*%
X161498600Y-103610400D03*
%TO.P,U6,6*%
%TO.N,SD_trig_long*%
X161498600Y-104880400D03*
%TO.P,U6,7,VSS*%
%TO.N,GND*%
X161498600Y-106150400D03*
%TO.P,U6,8*%
%TO.N,Net-(R48-Pad1)*%
X166448600Y-106150400D03*
%TO.P,U6,9*%
%TO.N,HH_Trig_long*%
X166448600Y-104880400D03*
%TO.P,U6,10*%
%TO.N,HH_Trig_short*%
X166448600Y-103610400D03*
%TO.P,U6,11*%
%TO.N,TT_Trig_short*%
X166448600Y-102340400D03*
%TO.P,U6,12*%
%TO.N,Net-(R48-Pad1)*%
X166448600Y-101070400D03*
%TO.P,U6,13*%
%TO.N,TT_Trig_long*%
X166448600Y-99800400D03*
%TO.P,U6,14,VDD*%
%TO.N,+5V*%
X166448600Y-98530400D03*
%TD*%
D42*
%TO.P,C2,1*%
%TO.N,GND*%
X82505600Y-75416400D03*
%TO.P,C2,2*%
%TO.N,+5V*%
X84405600Y-75416400D03*
%TD*%
D22*
%TO.P,D47,1,K*%
%TO.N,Volca_step_16*%
X150366089Y-126899247D03*
%TO.P,D47,2,A*%
%TO.N,2_16*%
X148625111Y-128073553D03*
%TD*%
D43*
%TO.P,R62,1*%
%TO.N,Net-(D51-Pad2)*%
X160856301Y-137622000D03*
%TO.P,R62,2*%
%TO.N,clock*%
X159909899Y-136270400D03*
%TD*%
D44*
%TO.P,C8,1*%
%TO.N,GND*%
X83291849Y-141800649D03*
%TO.P,C8,2*%
%TO.N,+5V*%
X84635351Y-143144151D03*
%TD*%
D31*
%TO.P,D4,1,K*%
%TO.N,C_1*%
X99185840Y-37318178D03*
%TO.P,D4,2,A*%
%TO.N,1_1*%
X99729360Y-39346622D03*
%TD*%
D32*
%TO.P,Q13,1,B*%
%TO.N,Net-(Q13-Pad1)*%
X119237872Y-67663894D03*
%TO.P,Q13,2,E*%
%TO.N,GND*%
X118068116Y-66166673D03*
%TO.P,Q13,3,C*%
%TO.N,Net-(Q13-Pad3)*%
X116588406Y-68528317D03*
%TD*%
D36*
%TO.P,R15,1*%
%TO.N,1_1*%
X118971174Y-41983503D03*
%TO.P,R15,2*%
%TO.N,Net-(Q6-Pad1)*%
X117653426Y-42976497D03*
%TD*%
D45*
%TO.P,R30,2*%
%TO.N,Net-(C3-Pad1)*%
X157274100Y-78416871D03*
%TO.P,R30,1*%
%TO.N,Net-(R32-Pad2)*%
X156449100Y-76987929D03*
%TD*%
D46*
%TO.P,Q12,1,B*%
%TO.N,Net-(Q12-Pad1)*%
X68405584Y-83456375D03*
%TO.P,Q12,2,E*%
%TO.N,GND*%
X68108359Y-81579767D03*
%TO.P,Q12,3,C*%
%TO.N,Net-(Q12-Pad3)*%
X65669228Y-82927929D03*
%TD*%
D37*
%TO.P,Q7,1,B*%
%TO.N,Net-(Q7-Pad1)*%
X127535137Y-58498926D03*
%TO.P,Q7,2,E*%
%TO.N,GND*%
X126391688Y-56981519D03*
%TO.P,Q7,3,C*%
%TO.N,Net-(Q7-Pad3)*%
X124870987Y-59316978D03*
%TD*%
D22*
%TO.P,D46,1,K*%
%TO.N,Volca_step_10*%
X137342689Y-108157947D03*
%TO.P,D46,2,A*%
%TO.N,2_10*%
X135601711Y-109332253D03*
%TD*%
D21*
%TO.P,R67,2*%
%TO.N,BINARY_3*%
X195257483Y-118026147D03*
%TO.P,R67,1*%
%TO.N,LED_BIN_3*%
X196776317Y-118670853D03*
%TD*%
D37*
%TO.P,Q1,1,B*%
%TO.N,Net-(Q1-Pad1)*%
X104268937Y-47644126D03*
%TO.P,Q1,2,E*%
%TO.N,GND*%
X103125488Y-46126719D03*
%TO.P,Q1,3,C*%
%TO.N,Net-(Q1-Pad3)*%
X101604787Y-48462178D03*
%TD*%
%TO.P,Q6,1,B*%
%TO.N,Net-(Q6-Pad1)*%
X116493437Y-45059526D03*
%TO.P,Q6,2,E*%
%TO.N,GND*%
X115349988Y-43542119D03*
%TO.P,Q6,3,C*%
%TO.N,Net-(Q6-Pad3)*%
X113829287Y-45877578D03*
%TD*%
D24*
%TO.P,D22,1,K*%
%TO.N,D_2*%
X75420793Y-56793909D03*
%TO.P,D22,2,A*%
%TO.N,1_2*%
X76931407Y-58252691D03*
%TD*%
D47*
%TO.P,R21,1*%
%TO.N,2_11*%
X70299497Y-91096739D03*
%TO.P,R21,2*%
%TO.N,Net-(Q21-Pad1)*%
X70443303Y-92740461D03*
%TD*%
D22*
%TO.P,D34,1,K*%
%TO.N,Volca_step_4*%
X124369789Y-89454447D03*
%TO.P,D34,2,A*%
%TO.N,2_4*%
X122628811Y-90628753D03*
%TD*%
D42*
%TO.P,C4,1*%
%TO.N,GND*%
X99683100Y-115675400D03*
%TO.P,C4,2*%
%TO.N,+5V*%
X101583100Y-115675400D03*
%TD*%
D48*
%TO.P,R46,1*%
%TO.N,GND*%
X156820074Y-100173289D03*
%TO.P,R46,2*%
%TO.N,BD_Trig_long*%
X157247126Y-98579511D03*
%TD*%
D49*
%TO.P,R2,1*%
%TO.N,Net-(Q4-Pad3)*%
X108347679Y-61558291D03*
%TO.P,R2,2*%
%TO.N,LED1_5*%
X109363521Y-62858509D03*
%TD*%
D23*
%TO.P,R57,1*%
%TO.N,Net-(Q24-Pad3)*%
X63438760Y-123509034D03*
%TO.P,R57,2*%
%TO.N,LED2_3*%
X63152240Y-125133966D03*
%TD*%
D31*
%TO.P,D11,1,K*%
%TO.N,C_6*%
X117473840Y-32492178D03*
%TO.P,D11,2,A*%
%TO.N,1_6*%
X118017360Y-34520622D03*
%TD*%
D47*
%TO.P,R22,1*%
%TO.N,2_12*%
X70002297Y-86954239D03*
%TO.P,R22,2*%
%TO.N,Net-(Q11-Pad1)*%
X70146103Y-88597961D03*
%TD*%
D36*
%TO.P,R3,1*%
%TO.N,1_2*%
X106753774Y-44643703D03*
%TO.P,R3,2*%
%TO.N,Net-(Q1-Pad1)*%
X105436026Y-45636697D03*
%TD*%
D30*
%TO.P,R33,1*%
%TO.N,Net-(Q18-Pad3)*%
X63141303Y-114664739D03*
%TO.P,R33,2*%
%TO.N,LED2_5*%
X62997497Y-116308461D03*
%TD*%
D42*
%TO.P,C5,1*%
%TO.N,GND*%
X88441100Y-94593400D03*
%TO.P,C5,2*%
%TO.N,+5V*%
X90341100Y-94593400D03*
%TD*%
D50*
%TO.P,R50,1*%
%TO.N,GND*%
X171217126Y-103920511D03*
%TO.P,R50,2*%
%TO.N,HH_Trig_long*%
X170790074Y-105514289D03*
%TD*%
D51*
%TO.P,U7,1,Q5*%
%TO.N,2_6*%
X97358600Y-118088400D03*
%TO.P,U7,2,Q1*%
%TO.N,2_2*%
X97358600Y-119358400D03*
%TO.P,U7,3,Q0*%
%TO.N,2_1*%
X97358600Y-120628400D03*
%TO.P,U7,4,Q2*%
%TO.N,2_3*%
X97358600Y-121898400D03*
%TO.P,U7,5,Q6*%
%TO.N,2_7*%
X97358600Y-123168400D03*
%TO.P,U7,6,Q7*%
%TO.N,2_8*%
X97358600Y-124438400D03*
%TO.P,U7,7,Q3*%
%TO.N,2_4*%
X97358600Y-125708400D03*
%TO.P,U7,8,VSS*%
%TO.N,GND*%
X97358600Y-126978400D03*
%TO.P,U7,9,Q8*%
%TO.N,Net-(U2-Pad1)*%
X104283600Y-126978400D03*
%TO.P,U7,10,Q4*%
%TO.N,2_5*%
X104283600Y-125708400D03*
%TO.P,U7,11,Q9*%
%TO.N,unconnected-(U7-Pad11)*%
X104283600Y-124438400D03*
%TO.P,U7,12,Cout*%
%TO.N,unconnected-(U7-Pad12)*%
X104283600Y-123168400D03*
%TO.P,U7,13,CKEN*%
%TO.N,Net-(U2-Pad1)*%
X104283600Y-121898400D03*
%TO.P,U7,14,CLK*%
%TO.N,clock*%
X104283600Y-120628400D03*
%TO.P,U7,15,Reset*%
%TO.N,Net-(U4-Pad11)*%
X104283600Y-119358400D03*
%TO.P,U7,16,VDD*%
%TO.N,+5V*%
X104283600Y-118088400D03*
%TD*%
D52*
%TO.P,C1,1*%
%TO.N,GND*%
X137774600Y-41384400D03*
%TO.P,C1,2*%
%TO.N,+5V*%
X135874600Y-41384400D03*
%TD*%
D21*
%TO.P,R72,2*%
%TO.N,BINARY_12*%
X182138183Y-149707147D03*
%TO.P,R72,1*%
%TO.N,LED_BIN_12*%
X183657017Y-150351853D03*
%TD*%
D19*
%TO.P,D27,1,K*%
%TO.N,A_6*%
X176386991Y-51039093D03*
%TO.P,D27,2,A*%
%TO.N,1_6*%
X174928209Y-52549707D03*
%TD*%
D53*
%TO.P,D38,2,A*%
%TO.N,Net-(D38-Pad2)*%
X164515600Y-81766400D03*
%TO.P,D38,1,K*%
%TO.N,+5V*%
X162415600Y-81766400D03*
%TD*%
D33*
%TO.P,R39,1*%
%TO.N,Net-(Q16-Pad3)*%
X63078082Y-95763929D03*
%TO.P,R39,2*%
%TO.N,LED2_10*%
X63307718Y-97397871D03*
%TD*%
D39*
%TO.P,R47,1*%
%TO.N,GND*%
X156993126Y-106884289D03*
%TO.P,R47,2*%
%TO.N,SD_trig_long*%
X156566074Y-105290511D03*
%TD*%
D47*
%TO.P,R24,1*%
%TO.N,Net-(Q11-Pad3)*%
X63082297Y-87608439D03*
%TO.P,R24,2*%
%TO.N,LED2_12*%
X63226103Y-89252161D03*
%TD*%
D51*
%TO.P,U4,1,Q5*%
%TO.N,2_13*%
X85928600Y-96498400D03*
%TO.P,U4,2,Q1*%
%TO.N,2_9*%
X85928600Y-97768400D03*
%TO.P,U4,3,Q0*%
%TO.N,GND*%
X85928600Y-99038400D03*
%TO.P,U4,4,Q2*%
%TO.N,2_10*%
X85928600Y-100308400D03*
%TO.P,U4,5,Q6*%
%TO.N,2_14*%
X85928600Y-101578400D03*
%TO.P,U4,6,Q7*%
%TO.N,2_15*%
X85928600Y-102848400D03*
%TO.P,U4,7,Q3*%
%TO.N,2_11*%
X85928600Y-104118400D03*
%TO.P,U4,8,VSS*%
%TO.N,GND*%
X85928600Y-105388400D03*
%TO.P,U4,9,Q8*%
%TO.N,2_16*%
X92853600Y-105388400D03*
%TO.P,U4,10,Q4*%
%TO.N,2_12*%
X92853600Y-104118400D03*
%TO.P,U4,11,Q9*%
%TO.N,Net-(U4-Pad11)*%
X92853600Y-102848400D03*
%TO.P,U4,12,Cout*%
%TO.N,unconnected-(U4-Pad12)*%
X92853600Y-101578400D03*
%TO.P,U4,13,CKEN*%
%TO.N,Net-(U2-Pad2)*%
X92853600Y-100308400D03*
%TO.P,U4,14,CLK*%
%TO.N,clock*%
X92853600Y-99038400D03*
%TO.P,U4,15,Reset*%
%TO.N,2_1*%
X92853600Y-97768400D03*
%TO.P,U4,16,VDD*%
%TO.N,+5V*%
X92853600Y-96498400D03*
%TD*%
D54*
%TO.P,U5,1,Q11*%
%TO.N,BINARY_12*%
X182922618Y-102840560D03*
%TO.P,U5,2,Q5*%
%TO.N,BINARY_6*%
X182767844Y-104101093D03*
%TO.P,U5,3,Q4*%
%TO.N,BINARY_5*%
X182613070Y-105361627D03*
%TO.P,U5,4,Q6*%
%TO.N,BINARY_7*%
X182458296Y-106622161D03*
%TO.P,U5,5,Q3*%
%TO.N,BINARY_4*%
X182303522Y-107882694D03*
%TO.P,U5,6,Q2*%
%TO.N,BINARY_3*%
X182148748Y-109143228D03*
%TO.P,U5,7,Q1*%
%TO.N,BINARY_2*%
X181993974Y-110403761D03*
%TO.P,U5,8,VSS*%
%TO.N,GND*%
X181839200Y-111664295D03*
%TO.P,U5,9,Q0*%
%TO.N,BINARY_1*%
X188712582Y-112508240D03*
%TO.P,U5,10,CLK*%
%TO.N,clock*%
X188867356Y-111247707D03*
%TO.P,U5,11,Reset*%
%TO.N,unconnected-(U5-Pad11)*%
X189022130Y-109987173D03*
%TO.P,U5,12,Q8*%
%TO.N,BINARY_9*%
X189176904Y-108726639D03*
%TO.P,U5,13,Q7*%
%TO.N,BINARY_8*%
X189331678Y-107466106D03*
%TO.P,U5,14,Q9*%
%TO.N,BINARY_10*%
X189486452Y-106205572D03*
%TO.P,U5,15,Q10*%
%TO.N,BINARY_11*%
X189641226Y-104945039D03*
%TO.P,U5,16,VDD*%
%TO.N,+5V*%
X189796000Y-103684505D03*
%TD*%
D21*
%TO.P,R68,2*%
%TO.N,BINARY_4*%
X193793283Y-121543547D03*
%TO.P,R68,1*%
%TO.N,LED_BIN_4*%
X195312117Y-122188253D03*
%TD*%
D42*
%TO.P,C12,1*%
%TO.N,GND*%
X115459600Y-130788400D03*
%TO.P,C12,2*%
%TO.N,+5V*%
X117359600Y-130788400D03*
%TD*%
D34*
%TO.P,Q24,1,B*%
%TO.N,Net-(Q24-Pad1)*%
X67836832Y-126036846D03*
%TO.P,Q24,2,E*%
%TO.N,GND*%
X68166764Y-124165712D03*
%TO.P,Q24,3,C*%
%TO.N,Net-(Q24-Pad3)*%
X65421602Y-124646321D03*
%TD*%
D21*
%TO.P,R69,2*%
%TO.N,BINARY_5*%
X192329183Y-125061047D03*
%TO.P,R69,1*%
%TO.N,LED_BIN_5*%
X193848017Y-125705753D03*
%TD*%
%TO.P,R52,2*%
%TO.N,BINARY_1*%
X198009583Y-110917847D03*
%TO.P,R52,1*%
%TO.N,LED_BIN_1*%
X199528417Y-111562553D03*
%TD*%
D55*
%TO.P,R26,1*%
%TO.N,Net-(Q9-Pad3)*%
X63176074Y-73603511D03*
%TO.P,R26,2*%
%TO.N,LED2_15*%
X63603126Y-75197289D03*
%TD*%
D24*
%TO.P,D1,1,K*%
%TO.N,D_8*%
X91422793Y-40283909D03*
%TO.P,D1,2,A*%
%TO.N,1_8*%
X92933407Y-41742691D03*
%TD*%
D47*
%TO.P,R37,1*%
%TO.N,2_9*%
X70501597Y-98524739D03*
%TO.P,R37,2*%
%TO.N,Net-(Q17-Pad1)*%
X70645403Y-100168461D03*
%TD*%
D19*
%TO.P,D28,1,K*%
%TO.N,A_3*%
X168030991Y-43405993D03*
%TO.P,D28,2,A*%
%TO.N,1_3*%
X166572209Y-44916607D03*
%TD*%
D48*
%TO.P,R31,2*%
%TO.N,selected_trig2*%
X163720126Y-77448511D03*
%TO.P,R31,1*%
%TO.N,GND*%
X163293074Y-79042289D03*
%TD*%
D18*
%TO.P,D12,2,A*%
%TO.N,1_8*%
X157731468Y-36832181D03*
%TO.P,D12,1,K*%
%TO.N,B_8*%
X158023732Y-34752619D03*
%TD*%
D56*
%TO.P,C11,1*%
%TO.N,hold_pot*%
X123052617Y-135841417D03*
%TO.P,C11,2*%
%TO.N,GND*%
X125138583Y-137927383D03*
%TD*%
D21*
%TO.P,R63,2*%
%TO.N,BINARY_10*%
X185008383Y-142648147D03*
%TO.P,R63,1*%
%TO.N,LED_BIN_10*%
X186527217Y-143292853D03*
%TD*%
D57*
%TO.P,D37,2,A*%
%TO.N,GND*%
X161431822Y-79752160D03*
%TO.P,D37,1,K*%
%TO.N,Net-(C3-Pad1)*%
X159403378Y-79208640D03*
%TD*%
D21*
%TO.P,R66,2*%
%TO.N,BINARY_7*%
X189224483Y-132022447D03*
%TO.P,R66,1*%
%TO.N,LED_BIN_7*%
X190743317Y-132667153D03*
%TD*%
D58*
%TO.P,R32,2*%
%TO.N,Net-(R32-Pad2)*%
X167323129Y-73987900D03*
%TO.P,R32,1*%
%TO.N,Net-(R32-Pad1)*%
X168752071Y-74812900D03*
%TD*%
D51*
%TO.P,U1,1,Q5*%
%TO.N,1_6*%
X133587100Y-43539400D03*
%TO.P,U1,2,Q1*%
%TO.N,1_2*%
X133587100Y-44809400D03*
%TO.P,U1,3,Q0*%
%TO.N,1_1*%
X133587100Y-46079400D03*
%TO.P,U1,4,Q2*%
%TO.N,1_3*%
X133587100Y-47349400D03*
%TO.P,U1,5,Q6*%
%TO.N,1_7*%
X133587100Y-48619400D03*
%TO.P,U1,6,Q7*%
%TO.N,1_8*%
X133587100Y-49889400D03*
%TO.P,U1,7,Q3*%
%TO.N,1_4*%
X133587100Y-51159400D03*
%TO.P,U1,8,VSS*%
%TO.N,GND*%
X133587100Y-52429400D03*
%TO.P,U1,9,Q8*%
%TO.N,Net-(U1-Pad15)*%
X140512100Y-52429400D03*
%TO.P,U1,10,Q4*%
%TO.N,1_5*%
X140512100Y-51159400D03*
%TO.P,U1,11,Q9*%
%TO.N,unconnected-(U1-Pad11)*%
X140512100Y-49889400D03*
%TO.P,U1,12,Cout*%
%TO.N,unconnected-(U1-Pad12)*%
X140512100Y-48619400D03*
%TO.P,U1,13,CKEN*%
%TO.N,GND*%
X140512100Y-47349400D03*
%TO.P,U1,14,CLK*%
%TO.N,clock*%
X140512100Y-46079400D03*
%TO.P,U1,15,Reset*%
%TO.N,Net-(U1-Pad15)*%
X140512100Y-44809400D03*
%TO.P,U1,16,VDD*%
%TO.N,+5V*%
X140512100Y-43539400D03*
%TD*%
D18*
%TO.P,D17,2,A*%
%TO.N,1_3*%
X138681468Y-34292181D03*
%TO.P,D17,1,K*%
%TO.N,B_3*%
X138973732Y-32212619D03*
%TD*%
D34*
%TO.P,Q22,1,B*%
%TO.N,Net-(Q22-Pad1)*%
X68156032Y-121768046D03*
%TO.P,Q22,2,E*%
%TO.N,GND*%
X68485964Y-119896912D03*
%TO.P,Q22,3,C*%
%TO.N,Net-(Q22-Pad3)*%
X65740802Y-120377521D03*
%TD*%
D59*
%TO.P,R53,1*%
%TO.N,2_3*%
X69794240Y-126154466D03*
%TO.P,R53,2*%
%TO.N,Net-(Q24-Pad1)*%
X70080760Y-124529534D03*
%TD*%
D47*
%TO.P,R41,1*%
%TO.N,Net-(Q17-Pad3)*%
X63585297Y-99203139D03*
%TO.P,R41,2*%
%TO.N,LED2_9*%
X63729103Y-100846861D03*
%TD*%
D20*
%TO.P,Q19,1,B*%
%TO.N,Net-(Q19-Pad1)*%
X67853917Y-105361059D03*
%TO.P,Q19,2,E*%
%TO.N,GND*%
X68019513Y-103468289D03*
%TO.P,Q19,3,C*%
%TO.N,Net-(Q19-Pad3)*%
X65326685Y-104186326D03*
%TD*%
D19*
%TO.P,D26,1,K*%
%TO.N,A_7*%
X178926991Y-53579093D03*
%TO.P,D26,2,A*%
%TO.N,1_7*%
X177468209Y-55089707D03*
%TD*%
D30*
%TO.P,R44,1*%
%TO.N,2_5*%
X70062203Y-115297039D03*
%TO.P,R44,2*%
%TO.N,Net-(Q18-Pad1)*%
X69918397Y-116940761D03*
%TD*%
D23*
%TO.P,R60,1*%
%TO.N,2_2*%
X70244860Y-129064934D03*
%TO.P,R60,2*%
%TO.N,Net-(Q25-Pad1)*%
X69958340Y-130689866D03*
%TD*%
D20*
%TO.P,Q20,1,B*%
%TO.N,Net-(Q20-Pad1)*%
X68051417Y-109102159D03*
%TO.P,Q20,2,E*%
%TO.N,GND*%
X68217013Y-107209389D03*
%TO.P,Q20,3,C*%
%TO.N,Net-(Q20-Pad3)*%
X65524185Y-107927426D03*
%TD*%
D49*
%TO.P,R27,1*%
%TO.N,Net-(Q13-Pad3)*%
X114322679Y-69102691D03*
%TO.P,R27,2*%
%TO.N,LED1_7*%
X115338521Y-70402909D03*
%TD*%
D42*
%TO.P,C9,1*%
%TO.N,sel_trig_inv*%
X107905600Y-134090400D03*
%TO.P,C9,2*%
%TO.N,Net-(C9-Pad2)*%
X109805600Y-134090400D03*
%TD*%
D22*
%TO.P,D44,1,K*%
%TO.N,Volca_step_12*%
X141476089Y-114199247D03*
%TO.P,D44,2,A*%
%TO.N,2_12*%
X139735111Y-115373553D03*
%TD*%
D60*
%TO.P,Q8,1,B*%
%TO.N,Net-(Q8-Pad1)*%
X68234100Y-78897286D03*
%TO.P,Q8,2,E*%
%TO.N,GND*%
X67871563Y-77032194D03*
%TO.P,Q8,3,C*%
%TO.N,Net-(Q8-Pad3)*%
X65480968Y-78464660D03*
%TD*%
D31*
%TO.P,D2,1,K*%
%TO.N,C_3*%
X106564240Y-35285778D03*
%TO.P,D2,2,A*%
%TO.N,1_3*%
X107107760Y-37314222D03*
%TD*%
D61*
%TO.P,U9,14,VDD*%
%TO.N,+5V*%
X84262466Y-145644812D03*
%TO.P,U9,13*%
%TO.N,volca_gate_control*%
X83364441Y-146542838D03*
%TO.P,U9,12*%
%TO.N,N/C*%
X82466415Y-147440864D03*
%TO.P,U9,11*%
X81568389Y-148338889D03*
%TO.P,U9,10*%
X80670364Y-149236915D03*
%TO.P,U9,9*%
X79772338Y-150134941D03*
%TO.P,U9,8*%
X78874312Y-151032966D03*
%TO.P,U9,7,VSS*%
%TO.N,GND*%
X75374134Y-147532788D03*
%TO.P,U9,6*%
%TO.N,N/C*%
X76272159Y-146634762D03*
%TO.P,U9,5*%
X77170185Y-145736736D03*
%TO.P,U9,4*%
X78068211Y-144838711D03*
%TO.P,U9,3*%
X78966236Y-143940685D03*
%TO.P,U9,2*%
%TO.N,volca_audio_gated*%
X79864262Y-143042659D03*
%TO.P,U9,1*%
%TO.N,volca_audio*%
X80762288Y-142144634D03*
%TD*%
D22*
%TO.P,D33,1,K*%
%TO.N,Volca_step_3*%
X122121889Y-86259247D03*
%TO.P,D33,2,A*%
%TO.N,2_3*%
X120380911Y-87433553D03*
%TD*%
D19*
%TO.P,D31,1,K*%
%TO.N,A_5*%
X173592991Y-48499093D03*
%TO.P,D31,2,A*%
%TO.N,1_5*%
X172134209Y-50009707D03*
%TD*%
D42*
%TO.P,C6,1*%
%TO.N,GND*%
X162903600Y-96760400D03*
%TO.P,C6,2*%
%TO.N,+5V*%
X164803600Y-96760400D03*
%TD*%
D22*
%TO.P,D42,1,K*%
%TO.N,Volca_step_9*%
X134933789Y-104880947D03*
%TO.P,D42,2,A*%
%TO.N,2_9*%
X133192811Y-106055253D03*
%TD*%
D62*
%TO.P,R61,1*%
%TO.N,GND*%
X108030600Y-136376400D03*
%TO.P,R61,2*%
%TO.N,Net-(C9-Pad2)*%
X109680600Y-136376400D03*
%TD*%
D63*
%TO.P,Q9,1,B*%
%TO.N,Net-(Q9-Pad1)*%
X68165541Y-74027877D03*
%TO.P,Q9,2,E*%
%TO.N,GND*%
X67673785Y-72192618D03*
%TO.P,Q9,3,C*%
%TO.N,Net-(Q9-Pad3)*%
X65388937Y-73788353D03*
%TD*%
D25*
%TO.P,R9,1*%
%TO.N,Net-(Q5-Pad3)*%
X111478803Y-65240026D03*
%TO.P,R9,2*%
%TO.N,LED1_6*%
X112471797Y-66557774D03*
%TD*%
D64*
%TO.P,Q10,1,B*%
%TO.N,Net-(Q10-Pad1)*%
X67446813Y-69226863D03*
%TO.P,Q10,2,E*%
%TO.N,GND*%
X66987162Y-67383301D03*
%TO.P,Q10,3,C*%
%TO.N,Net-(Q10-Pad3)*%
X64674813Y-68938918D03*
%TD*%
D36*
%TO.P,R8,1*%
%TO.N,1_4*%
X112887874Y-53124303D03*
%TO.P,R8,2*%
%TO.N,Net-(Q2-Pad1)*%
X111570126Y-54117297D03*
%TD*%
D22*
%TO.P,D39,1,K*%
%TO.N,Volca_step_8*%
X132840089Y-101465047D03*
%TO.P,D39,2,A*%
%TO.N,2_8*%
X131099111Y-102639353D03*
%TD*%
D31*
%TO.P,D9,1,K*%
%TO.N,C_7*%
X121283840Y-31476178D03*
%TO.P,D9,2,A*%
%TO.N,1_7*%
X121827360Y-33504622D03*
%TD*%
D42*
%TO.P,C3,2*%
%TO.N,selected_trig2*%
X161809600Y-76940400D03*
%TO.P,C3,1*%
%TO.N,Net-(C3-Pad1)*%
X159909600Y-76940400D03*
%TD*%
D31*
%TO.P,D8,1,K*%
%TO.N,C_8*%
X124839840Y-30714178D03*
%TO.P,D8,2,A*%
%TO.N,1_8*%
X125383360Y-32742622D03*
%TD*%
D21*
%TO.P,R65,2*%
%TO.N,BINARY_9*%
X186472483Y-139130647D03*
%TO.P,R65,1*%
%TO.N,LED_BIN_9*%
X187991317Y-139775353D03*
%TD*%
D65*
%TO.P,Q16,1,B*%
%TO.N,Net-(Q16-Pad1)*%
X67988866Y-96867538D03*
%TO.P,Q16,2,E*%
%TO.N,GND*%
X67724437Y-94986029D03*
%TO.P,Q16,3,C*%
%TO.N,Net-(Q16-Pad3)*%
X65262149Y-96291417D03*
%TD*%
D66*
%TO.P,D51,1,K*%
%TO.N,GND*%
X163200028Y-141827555D03*
%TO.P,D51,2,A*%
%TO.N,Net-(D51-Pad2)*%
X162124572Y-140291645D03*
%TD*%
D19*
%TO.P,D18,1,K*%
%TO.N,A_1*%
X162696991Y-38325993D03*
%TO.P,D18,2,A*%
%TO.N,1_1*%
X161238209Y-39836607D03*
%TD*%
D29*
%TO.P,R17,1*%
%TO.N,Net-(Q10-Pad3)*%
X62373614Y-68558406D03*
%TO.P,R17,2*%
%TO.N,LED2_16*%
X62772786Y-70159394D03*
%TD*%
D24*
%TO.P,D19,1,K*%
%TO.N,D_3*%
X77960793Y-53999909D03*
%TO.P,D19,2,A*%
%TO.N,1_3*%
X79471407Y-55458691D03*
%TD*%
D25*
%TO.P,R10,1*%
%TO.N,Net-(Q7-Pad3)*%
X122578103Y-59995526D03*
%TO.P,R10,2*%
%TO.N,LED1_8*%
X123571097Y-61313274D03*
%TD*%
D67*
%TO.P,R4,1*%
%TO.N,Net-(Q2-Pad3)*%
X106636897Y-58869774D03*
%TO.P,R4,2*%
%TO.N,LED1_4*%
X105643903Y-57552026D03*
%TD*%
D28*
%TO.P,R18,1*%
%TO.N,2_13*%
X70266442Y-81213157D03*
%TO.P,R18,2*%
%TO.N,Net-(Q12-Pad1)*%
X70524558Y-82842843D03*
%TD*%
D35*
%TO.P,R14,1*%
%TO.N,1_7*%
X121614409Y-64630079D03*
%TO.P,R14,2*%
%TO.N,Net-(Q13-Pad1)*%
X120314191Y-65645921D03*
%TD*%
D68*
%TO.P,C10,1*%
%TO.N,Net-(C10-Pad1)*%
X121334600Y-138855676D03*
%TO.P,C10,2*%
%TO.N,GND*%
X122284600Y-140501124D03*
%TD*%
D67*
%TO.P,R13,1*%
%TO.N,Net-(Q6-Pad3)*%
X112596197Y-47854774D03*
%TO.P,R13,2*%
%TO.N,LED1_1*%
X111603203Y-46537026D03*
%TD*%
D22*
%TO.P,D45,1,K*%
%TO.N,Volca_step_11*%
X139444089Y-111151247D03*
%TO.P,D45,2,A*%
%TO.N,2_11*%
X137703111Y-112325553D03*
%TD*%
D34*
%TO.P,Q25,1,B*%
%TO.N,Net-(Q25-Pad1)*%
X67816732Y-130514446D03*
%TO.P,Q25,2,E*%
%TO.N,GND*%
X68146664Y-128643312D03*
%TO.P,Q25,3,C*%
%TO.N,Net-(Q25-Pad3)*%
X65401502Y-129123921D03*
%TD*%
D30*
%TO.P,R40,1*%
%TO.N,Net-(Q20-Pad3)*%
X63354903Y-106909139D03*
%TO.P,R40,2*%
%TO.N,LED2_7*%
X63211097Y-108552861D03*
%TD*%
D16*
%TO.P,R25,1*%
%TO.N,2_14*%
X70347883Y-76616358D03*
%TO.P,R25,2*%
%TO.N,Net-(Q8-Pad1)*%
X70662717Y-78236042D03*
%TD*%
D69*
%TO.P,U8,1,GND*%
%TO.N,GND*%
X112875600Y-132947400D03*
%TO.P,U8,2,TR*%
%TO.N,Net-(C9-Pad2)*%
X112875600Y-134217400D03*
%TO.P,U8,3,Q*%
%TO.N,ambient_trigger_to_teensy*%
X112875600Y-135487400D03*
%TO.P,U8,4,R*%
%TO.N,+5V*%
X112875600Y-136757400D03*
%TO.P,U8,5,CV*%
%TO.N,Net-(C10-Pad1)*%
X120075600Y-136757400D03*
%TO.P,U8,6,THR*%
%TO.N,hold_pot*%
X120075600Y-135487400D03*
%TO.P,U8,7,DIS*%
X120075600Y-134217400D03*
%TO.P,U8,8,VCC*%
%TO.N,+5V*%
X120075600Y-132947400D03*
%TD*%
D30*
%TO.P,R38,1*%
%TO.N,2_6*%
X70326603Y-111521339D03*
%TO.P,R38,2*%
%TO.N,Net-(Q15-Pad1)*%
X70182797Y-113165061D03*
%TD*%
D36*
%TO.P,R12,1*%
%TO.N,1_6*%
X118892774Y-60830603D03*
%TO.P,R12,2*%
%TO.N,Net-(Q5-Pad1)*%
X117575026Y-61823597D03*
%TD*%
%TO.P,R6,1*%
%TO.N,1_3*%
X109929474Y-49284103D03*
%TO.P,R6,2*%
%TO.N,Net-(Q3-Pad1)*%
X108611726Y-50277097D03*
%TD*%
D37*
%TO.P,Q3,1,B*%
%TO.N,Net-(Q3-Pad1)*%
X107401537Y-52101126D03*
%TO.P,Q3,2,E*%
%TO.N,GND*%
X106258088Y-50583719D03*
%TO.P,Q3,3,C*%
%TO.N,Net-(Q3-Pad3)*%
X104737387Y-52919178D03*
%TD*%
D55*
%TO.P,R19,1*%
%TO.N,2_15*%
X69876474Y-71757911D03*
%TO.P,R19,2*%
%TO.N,Net-(Q9-Pad1)*%
X70303526Y-73351689D03*
%TD*%
D20*
%TO.P,Q18,1,B*%
%TO.N,Net-(Q18-Pad1)*%
X67728617Y-116848559D03*
%TO.P,Q18,2,E*%
%TO.N,GND*%
X67894213Y-114955789D03*
%TO.P,Q18,3,C*%
%TO.N,Net-(Q18-Pad3)*%
X65201385Y-115673826D03*
%TD*%
D37*
%TO.P,Q2,1,B*%
%TO.N,Net-(Q2-Pad1)*%
X110501737Y-56130026D03*
%TO.P,Q2,2,E*%
%TO.N,GND*%
X109358288Y-54612619D03*
%TO.P,Q2,3,C*%
%TO.N,Net-(Q2-Pad3)*%
X107837587Y-56948078D03*
%TD*%
D47*
%TO.P,R42,1*%
%TO.N,Net-(Q21-Pad3)*%
X63320797Y-91656439D03*
%TO.P,R42,2*%
%TO.N,LED2_11*%
X63464603Y-93300161D03*
%TD*%
D18*
%TO.P,D13,2,A*%
%TO.N,1_5*%
X146158968Y-35332481D03*
%TO.P,D13,1,K*%
%TO.N,B_5*%
X146451232Y-33252919D03*
%TD*%
D19*
%TO.P,D29,1,K*%
%TO.N,A_8*%
X181720991Y-56373093D03*
%TO.P,D29,2,A*%
%TO.N,1_8*%
X180262209Y-57883707D03*
%TD*%
D31*
%TO.P,D6,1,K*%
%TO.N,C_4*%
X110361840Y-34524178D03*
%TO.P,D6,2,A*%
%TO.N,1_4*%
X110905360Y-36552622D03*
%TD*%
D18*
%TO.P,D15,2,A*%
%TO.N,1_7*%
X153667468Y-36324181D03*
%TO.P,D15,1,K*%
%TO.N,B_7*%
X153959732Y-34244619D03*
%TD*%
D17*
%TO.P,Q11,1,B*%
%TO.N,Net-(Q11-Pad1)*%
X67969913Y-88863511D03*
%TO.P,Q11,2,E*%
%TO.N,GND*%
X67804317Y-86970741D03*
%TO.P,Q11,3,C*%
%TO.N,Net-(Q11-Pad3)*%
X65277085Y-88145474D03*
%TD*%
D24*
%TO.P,D21,1,K*%
%TO.N,D_5*%
X83548793Y-48411909D03*
%TO.P,D21,2,A*%
%TO.N,1_5*%
X85059407Y-49870691D03*
%TD*%
D22*
%TO.P,D49,1,K*%
%TO.N,Volca_step_13*%
X143762089Y-117501247D03*
%TO.P,D49,2,A*%
%TO.N,2_13*%
X142021111Y-118675553D03*
%TD*%
D17*
%TO.P,Q17,1,B*%
%TO.N,Net-(Q17-Pad1)*%
X68479313Y-100532711D03*
%TO.P,Q17,2,E*%
%TO.N,GND*%
X68313717Y-98639941D03*
%TO.P,Q17,3,C*%
%TO.N,Net-(Q17-Pad3)*%
X65786485Y-99814674D03*
%TD*%
D25*
%TO.P,R5,1*%
%TO.N,Net-(Q1-Pad3)*%
X99341603Y-49262626D03*
%TO.P,R5,2*%
%TO.N,LED1_2*%
X100334597Y-50580374D03*
%TD*%
D22*
%TO.P,D50,1,K*%
%TO.N,Volca_step_15*%
X148080089Y-123851247D03*
%TO.P,D50,2,A*%
%TO.N,2_15*%
X146339111Y-125025553D03*
%TD*%
D30*
%TO.P,R34,1*%
%TO.N,Net-(Q19-Pad3)*%
X63266603Y-103177239D03*
%TO.P,R34,2*%
%TO.N,LED2_8*%
X63122797Y-104820961D03*
%TD*%
D24*
%TO.P,D24,1,K*%
%TO.N,D_7*%
X88882793Y-43077909D03*
%TO.P,D24,2,A*%
%TO.N,1_7*%
X90393407Y-44536691D03*
%TD*%
D70*
%TO.P,J7,1,Pin_1*%
%TO.N,Volca_step_1*%
X113159700Y-82957900D03*
D71*
%TO.P,J7,2,Pin_2*%
%TO.N,Volca_step_2*%
X115345026Y-86078869D03*
%TO.P,J7,3,Pin_3*%
%TO.N,Volca_step_3*%
X117530352Y-89199839D03*
%TO.P,J7,4,Pin_4*%
%TO.N,Volca_step_4*%
X119715679Y-92320808D03*
%TO.P,J7,5,Pin_5*%
%TO.N,Volca_step_5*%
X121901005Y-95441777D03*
%TO.P,J7,6,Pin_6*%
%TO.N,Volca_step_6*%
X124086331Y-98562746D03*
%TO.P,J7,7,Pin_7*%
%TO.N,Volca_step_7*%
X126271657Y-101683716D03*
%TO.P,J7,8,Pin_8*%
%TO.N,Volca_step_8*%
X128456984Y-104804685D03*
%TO.P,J7,9,Pin_9*%
%TO.N,Volca_step_9*%
X130642310Y-107925654D03*
%TO.P,J7,10,Pin_10*%
%TO.N,Volca_step_10*%
X132827636Y-111046624D03*
%TO.P,J7,11,Pin_11*%
%TO.N,Volca_step_11*%
X135012962Y-114167593D03*
%TO.P,J7,12,Pin_12*%
%TO.N,Volca_step_12*%
X137198288Y-117288562D03*
%TO.P,J7,13,Pin_13*%
%TO.N,Volca_step_13*%
X139383615Y-120409531D03*
%TO.P,J7,14,Pin_14*%
%TO.N,Volca_step_14*%
X141568941Y-123530501D03*
%TO.P,J7,15,Pin_15*%
%TO.N,Volca_step_15*%
X143754267Y-126651470D03*
%TO.P,J7,16,Pin_16*%
%TO.N,Volca_step_16*%
X145939593Y-129772439D03*
%TD*%
D72*
%TO.P,J3,1,Pin_1*%
%TO.N,C_1*%
X98331400Y-34223900D03*
D73*
%TO.P,J3,2,Pin_2*%
%TO.N,C_2*%
X102011577Y-33237799D03*
%TO.P,J3,3,Pin_3*%
%TO.N,C_3*%
X105691755Y-32251699D03*
%TO.P,J3,4,Pin_4*%
%TO.N,C_4*%
X109371932Y-31265598D03*
%TO.P,J3,5,Pin_5*%
%TO.N,C_5*%
X113052110Y-30279498D03*
%TO.P,J3,6,Pin_6*%
%TO.N,C_6*%
X116732287Y-29293397D03*
%TO.P,J3,7,Pin_7*%
%TO.N,C_7*%
X120412464Y-28307297D03*
%TO.P,J3,8,Pin_8*%
%TO.N,C_8*%
X124092642Y-27321196D03*
%TD*%
D74*
%TO.P,J10,1,Pin_1*%
%TO.N,LED2_1*%
X59718100Y-130352400D03*
D75*
%TO.P,J10,2,Pin_2*%
%TO.N,LED2_2*%
X59718100Y-126542400D03*
%TO.P,J10,3,Pin_3*%
%TO.N,LED2_3*%
X59718100Y-122732400D03*
%TO.P,J10,4,Pin_4*%
%TO.N,LED2_4*%
X59718100Y-118922400D03*
%TO.P,J10,5,Pin_5*%
%TO.N,LED2_5*%
X59718100Y-115112400D03*
%TO.P,J10,6,Pin_6*%
%TO.N,LED2_6*%
X59718100Y-111302400D03*
%TO.P,J10,7,Pin_7*%
%TO.N,LED2_7*%
X59718100Y-107492400D03*
%TO.P,J10,8,Pin_8*%
%TO.N,LED2_8*%
X59718100Y-103682400D03*
%TO.P,J10,9,Pin_9*%
%TO.N,LED2_9*%
X59718100Y-99872400D03*
%TO.P,J10,10,Pin_10*%
%TO.N,LED2_10*%
X59718100Y-96062400D03*
%TO.P,J10,11,Pin_11*%
%TO.N,LED2_11*%
X59718100Y-92252400D03*
%TO.P,J10,12,Pin_12*%
%TO.N,LED2_12*%
X59718100Y-88442400D03*
%TO.P,J10,13,Pin_13*%
%TO.N,LED2_13*%
X59718100Y-84632400D03*
%TO.P,J10,14,Pin_14*%
%TO.N,LED2_14*%
X59718100Y-80822400D03*
%TO.P,J10,15,Pin_15*%
%TO.N,LED2_15*%
X59718100Y-77012400D03*
%TO.P,J10,16,Pin_16*%
%TO.N,LED2_16*%
X59718100Y-73202400D03*
%TD*%
D76*
%TO.P,J5,1,Pin_1*%
%TO.N,LED1_1*%
X96186000Y-52278800D03*
D77*
%TO.P,J5,2,Pin_2*%
%TO.N,LED1_2*%
X98478915Y-55321601D03*
%TO.P,J5,3,Pin_3*%
%TO.N,LED1_3*%
X100771830Y-58364403D03*
%TO.P,J5,4,Pin_4*%
%TO.N,LED1_4*%
X103064746Y-61407204D03*
%TO.P,J5,5,Pin_5*%
%TO.N,LED1_5*%
X105357661Y-64450005D03*
%TO.P,J5,6,Pin_6*%
%TO.N,LED1_6*%
X107650576Y-67492806D03*
%TO.P,J5,7,Pin_7*%
%TO.N,LED1_7*%
X109943491Y-70535608D03*
%TO.P,J5,8,Pin_8*%
%TO.N,LED1_8*%
X112236407Y-73578409D03*
%TD*%
D78*
%TO.P,J4,1,Pin_1*%
%TO.N,BINARY_1*%
X189815742Y-59375024D03*
D79*
%TO.P,J4,2,Pin_2*%
%TO.N,BINARY_2*%
X191118839Y-62955253D03*
%TO.P,J4,3,Pin_3*%
%TO.N,BINARY_3*%
X192421935Y-66535482D03*
%TO.P,J4,4,Pin_4*%
%TO.N,BINARY_4*%
X193725032Y-70115711D03*
%TO.P,J4,5,Pin_5*%
%TO.N,BINARY_5*%
X195028129Y-73695940D03*
%TO.P,J4,6,Pin_6*%
%TO.N,BINARY_6*%
X196331226Y-77276168D03*
%TO.P,J4,7,Pin_7*%
%TO.N,BINARY_7*%
X197634322Y-80856397D03*
%TO.P,J4,8,Pin_8*%
%TO.N,BINARY_8*%
X198937419Y-84436626D03*
%TO.P,J4,9,Pin_9*%
%TO.N,BINARY_9*%
X200240516Y-88016855D03*
%TO.P,J4,10,Pin_10*%
%TO.N,BINARY_10*%
X201543613Y-91597084D03*
%TO.P,J4,11,Pin_11*%
%TO.N,BINARY_11*%
X202846709Y-95177313D03*
%TO.P,J4,12,Pin_12*%
%TO.N,BINARY_12*%
X204149806Y-98757542D03*
%TO.P,J4,13,Pin_13*%
%TO.N,selected_trig*%
X205452903Y-102337771D03*
%TO.P,J4,14,Pin_14*%
%TO.N,selected_trig2*%
X206756000Y-105918000D03*
%TD*%
D80*
%TO.P,J6,1,Pin_1*%
%TO.N,D_1*%
X70323700Y-57380200D03*
D81*
%TO.P,J6,2,Pin_2*%
%TO.N,D_2*%
X72970348Y-54639515D03*
%TO.P,J6,3,Pin_3*%
%TO.N,D_3*%
X75616997Y-51898831D03*
%TO.P,J6,4,Pin_4*%
%TO.N,D_4*%
X78263645Y-49158146D03*
%TO.P,J6,5,Pin_5*%
%TO.N,D_5*%
X80910294Y-46417461D03*
%TO.P,J6,6,Pin_6*%
%TO.N,D_6*%
X83556942Y-43676777D03*
%TO.P,J6,7,Pin_7*%
%TO.N,D_7*%
X86203590Y-40936092D03*
%TO.P,J6,8,Pin_8*%
%TO.N,D_8*%
X88850239Y-38195408D03*
%TD*%
D82*
%TO.P,U10,52*%
%TO.N,N/C*%
X99262457Y-167367606D03*
X97773772Y-170874729D03*
D83*
%TO.P,U10,37,A11*%
%TO.N,unconnected-(U10-Pad37)*%
X104931079Y-167014438D03*
%TO.P,U10,36,A10*%
%TO.N,unconnected-(U10-Pad36)*%
X103938622Y-169352520D03*
%TO.P,U10,35,AREF*%
%TO.N,unconnected-(U10-Pad35)*%
X102946165Y-171690602D03*
%TO.P,U10,34,VUSB*%
%TO.N,unconnected-(U10-Pad34)*%
X100961251Y-176366767D03*
%TO.P,U10,33,Vin*%
%TO.N,+5V*%
X102306876Y-179697306D03*
%TO.P,U10,32,AGND*%
%TO.N,unconnected-(U10-Pad32)*%
X103299333Y-177359224D03*
%TO.P,U10,31,3.3V*%
%TO.N,+3V3*%
X104291790Y-175021142D03*
%TO.P,U10,30,23_A9_Touch_PWM*%
%TO.N,unconnected-(U10-Pad30)*%
X105284247Y-172683059D03*
%TO.P,U10,29,22_A8_Touch_PWM*%
%TO.N,unconnected-(U10-Pad29)*%
X106276704Y-170344977D03*
%TO.P,U10,28,21_A7_RX1_CS_PWM*%
%TO.N,unconnected-(U10-Pad28)*%
X107269161Y-168006895D03*
%TO.P,U10,27,20_A6_CS_PWM*%
%TO.N,unconnected-(U10-Pad27)*%
X108261618Y-165668812D03*
%TO.P,U10,26,19_A5_SCL0_Touch*%
%TO.N,big_button_sound_vol*%
X109254076Y-163330730D03*
%TO.P,U10,25,18_A4_SDA0_Touch*%
%TO.N,synth_vol*%
X110246533Y-160992648D03*
%TO.P,U10,24,17_A3_SDA0_Touch*%
%TO.N,TT_vol*%
X111238990Y-158654565D03*
%TO.P,U10,23,16_A2_SCL0_Touch*%
%TO.N,HH_vol*%
X112231447Y-156316483D03*
%TO.P,U10,22,15_A1_CS_Touch*%
%TO.N,SD_vol*%
X113223904Y-153978401D03*
%TO.P,U10,21,14_A0_SCK*%
%TO.N,BD_vol*%
X114216361Y-151640318D03*
%TO.P,U10,20,13_LED_SCK*%
%TO.N,unconnected-(U10-Pad20)*%
X115208818Y-149302236D03*
%TO.P,U10,19,A14/DAC*%
%TO.N,unconnected-(U10-Pad19)*%
X112870736Y-148309779D03*
%TO.P,U10,18,Program*%
%TO.N,unconnected-(U10-Pad18)*%
X110532653Y-147317322D03*
%TO.P,U10,17,GND*%
%TO.N,unconnected-(U10-Pad17)*%
X108194571Y-146324865D03*
%TO.P,U10,16,3.3V*%
%TO.N,unconnected-(U10-Pad16)*%
X105856489Y-145332408D03*
%TO.P,U10,15,VBat*%
%TO.N,unconnected-(U10-Pad15)*%
X103518406Y-144339951D03*
%TO.P,U10,14,12_DIN*%
%TO.N,unconnected-(U10-Pad14)*%
X101180324Y-143347494D03*
%TO.P,U10,13,11_DOUT*%
%TO.N,unconnected-(U10-Pad13)*%
X100187867Y-145685576D03*
%TO.P,U10,12,10_TX2_CS_PWM*%
%TO.N,unconnected-(U10-Pad12)*%
X99195410Y-148023658D03*
%TO.P,U10,11,9_RX2_CS_PWM*%
%TO.N,unconnected-(U10-Pad11)*%
X98202953Y-150361741D03*
%TO.P,U10,10,8_TX3_DIN*%
%TO.N,unconnected-(U10-Pad10)*%
X97210496Y-152699823D03*
%TO.P,U10,9,7_RX3_DOUT*%
%TO.N,unconnected-(U10-Pad9)*%
X96218039Y-155037905D03*
%TO.P,U10,8,6_PWM*%
%TO.N,unconnected-(U10-Pad8)*%
X95225582Y-157375988D03*
%TO.P,U10,7,5_TX1_PWM*%
%TO.N,ambient_trigger_to_teensy*%
X94233124Y-159714070D03*
%TO.P,U10,6,4_RX_PWM*%
%TO.N,big_button_trig*%
X93240667Y-162052152D03*
%TO.P,U10,5,3_TX_PWM*%
%TO.N,HH_Trig_short*%
X92248210Y-164390235D03*
%TO.P,U10,4,2*%
%TO.N,TT_Trig_short*%
X91255753Y-166728317D03*
%TO.P,U10,3,1_TX1_Touch*%
%TO.N,BD_Trig_short*%
X90263296Y-169066399D03*
%TO.P,U10,2,0_RX1_Touch*%
%TO.N,SD_trig_short*%
X89270839Y-171404482D03*
D84*
%TO.P,U10,1,GND*%
%TO.N,GND*%
X88278382Y-173742564D03*
%TD*%
D85*
%TO.P,K1,1*%
%TO.N,Net-(D38-Pad2)*%
X150003600Y-148314400D03*
D86*
%TO.P,K1,2*%
%TO.N,relay-com*%
X156118041Y-156428537D03*
%TO.P,K1,3*%
%TO.N,relay-NO*%
X160703871Y-162514139D03*
%TO.P,K1,4*%
%TO.N,relay-NC*%
X153089658Y-165071436D03*
%TO.P,K1,5*%
%TO.N,+5V*%
X143917997Y-152900230D03*
%TD*%
D70*
%TO.P,J9,1,Pin_1*%
%TO.N,clock*%
X154955700Y-139929200D03*
D71*
%TO.P,J9,2,Pin_2*%
%TO.N,GND*%
X157141026Y-143050169D03*
%TO.P,J9,3,Pin_3*%
%TO.N,+5V*%
X159326352Y-146171139D03*
%TD*%
D87*
%TO.P,J11,4,Pin_4*%
%TO.N,TT_Trig_long*%
X171327355Y-165873563D03*
%TO.P,J11,3,Pin_3*%
%TO.N,HH_Trig_long*%
X174158736Y-163324175D03*
%TO.P,J11,2,Pin_2*%
%TO.N,SD_trig_long*%
X176990118Y-160774788D03*
D88*
%TO.P,J11,1,Pin_1*%
%TO.N,BD_Trig_long*%
X179821500Y-158225400D03*
%TD*%
D89*
%TO.P,J14,1,Pin_1*%
%TO.N,GND*%
X151599600Y-175607900D03*
D90*
%TO.P,J14,2,Pin_2*%
%TO.N,+3V3*%
X147789600Y-175607900D03*
%TO.P,J14,3,Pin_3*%
%TO.N,+5V*%
X143979600Y-175607900D03*
%TO.P,J14,4,Pin_4*%
%TO.N,BD_vol*%
X140169600Y-175607900D03*
%TO.P,J14,5,Pin_5*%
%TO.N,SD_vol*%
X136359600Y-175607900D03*
%TO.P,J14,6,Pin_6*%
%TO.N,HH_vol*%
X132549600Y-175607900D03*
%TO.P,J14,7,Pin_7*%
%TO.N,TT_vol*%
X128739600Y-175607900D03*
%TO.P,J14,8,Pin_8*%
%TO.N,synth_vol*%
X124929600Y-175607900D03*
%TO.P,J14,9,Pin_9*%
%TO.N,big_button_sound_vol*%
X121119600Y-175607900D03*
%TO.P,J14,10,Pin_10*%
%TO.N,hold_pot*%
X117309600Y-175607900D03*
%TO.P,J14,11,Pin_11*%
%TO.N,volca_gate_control*%
X113499600Y-175607900D03*
%TO.P,J14,12,Pin_12*%
%TO.N,unconnected-(J14-Pad12)*%
X109689600Y-175607900D03*
%TD*%
D91*
%TO.P,J2,8,Pin_8*%
%TO.N,B_8*%
X158242949Y-31612047D03*
%TO.P,J2,7,Pin_7*%
%TO.N,B_7*%
X154470028Y-31081797D03*
%TO.P,J2,6,Pin_6*%
%TO.N,B_6*%
X150697107Y-30551548D03*
%TO.P,J2,5,Pin_5*%
%TO.N,B_5*%
X146924185Y-30021298D03*
%TO.P,J2,4,Pin_4*%
%TO.N,B_4*%
X143151264Y-29491049D03*
%TO.P,J2,3,Pin_3*%
%TO.N,B_3*%
X139378343Y-28960799D03*
%TO.P,J2,2,Pin_2*%
%TO.N,B_2*%
X135605421Y-28430550D03*
D92*
%TO.P,J2,1,Pin_1*%
%TO.N,B_1*%
X131832500Y-27900300D03*
%TD*%
D93*
%TO.P,J8,12,Pin_12*%
%TO.N,LED_BIN_12*%
X186657058Y-151701658D03*
%TO.P,J8,11,Pin_11*%
%TO.N,LED_BIN_11*%
X188145744Y-148194535D03*
%TO.P,J8,10,Pin_10*%
%TO.N,LED_BIN_10*%
X189634430Y-144687411D03*
%TO.P,J8,9,Pin_9*%
%TO.N,LED_BIN_9*%
X191123115Y-141180288D03*
%TO.P,J8,8,Pin_8*%
%TO.N,LED_BIN_8*%
X192611801Y-137673164D03*
%TO.P,J8,7,Pin_7*%
%TO.N,LED_BIN_7*%
X194100486Y-134166041D03*
%TO.P,J8,6,Pin_6*%
%TO.N,LED_BIN_6*%
X195589172Y-130658917D03*
%TO.P,J8,5,Pin_5*%
%TO.N,LED_BIN_5*%
X197077858Y-127151794D03*
%TO.P,J8,4,Pin_4*%
%TO.N,LED_BIN_4*%
X198566543Y-123644670D03*
%TO.P,J8,3,Pin_3*%
%TO.N,LED_BIN_3*%
X200055229Y-120137547D03*
%TO.P,J8,2,Pin_2*%
%TO.N,LED_BIN_2*%
X201543914Y-116630423D03*
D94*
%TO.P,J8,1,Pin_1*%
%TO.N,LED_BIN_1*%
X203032600Y-113123300D03*
%TD*%
D95*
%TO.P,J1,1,Pin_1*%
%TO.N,A_1*%
X164887200Y-35633200D03*
D96*
%TO.P,J1,2,Pin_2*%
%TO.N,A_2*%
X167673658Y-38231614D03*
%TO.P,J1,3,Pin_3*%
%TO.N,A_3*%
X170460115Y-40830028D03*
%TO.P,J1,4,Pin_4*%
%TO.N,A_4*%
X173246573Y-43428441D03*
%TO.P,J1,5,Pin_5*%
%TO.N,A_5*%
X176033030Y-46026855D03*
%TO.P,J1,6,Pin_6*%
%TO.N,A_6*%
X178819488Y-48625269D03*
%TO.P,J1,7,Pin_7*%
%TO.N,A_7*%
X181605946Y-51223683D03*
%TO.P,J1,8,Pin_8*%
%TO.N,A_8*%
X184392403Y-53822096D03*
%TD*%
D97*
%TO.N,+5V*%
X81408600Y-120882400D03*
%TO.N,GND*%
X107417800Y-43343300D03*
X163330900Y-94745500D03*
X69037200Y-118470400D03*
X168802123Y-80316800D03*
X182781100Y-113033600D03*
X66507900Y-113979600D03*
X66507900Y-106291100D03*
X66166400Y-65842600D03*
X159245400Y-106796900D03*
X64855400Y-81562600D03*
X66143500Y-90588000D03*
X66792100Y-123176500D03*
X101523400Y-45800200D03*
X133934700Y-76395400D03*
X70211500Y-85068400D03*
X66143500Y-94898600D03*
X78610400Y-106618100D03*
X180911300Y-100860300D03*
X66507900Y-110290600D03*
X66362700Y-98276900D03*
X116004000Y-59354900D03*
X107764100Y-54612600D03*
X70730900Y-133207600D03*
%TO.N,+5V*%
X163055800Y-72241400D03*
X141928500Y-70623400D03*
X82737100Y-143875200D03*
X138479600Y-44267500D03*
X161115900Y-81877000D03*
%TO.N,sel_trig_inv*%
X102928400Y-133425500D03*
X71836400Y-81258400D03*
%TO.N,hold_pot*%
X117890700Y-135082000D03*
%TO.N,1_5*%
X118040300Y-56869100D03*
X104639000Y-41802100D03*
X132872000Y-53726800D03*
X113223800Y-35770000D03*
%TO.N,1_1*%
X108324400Y-42284000D03*
X131844700Y-34535400D03*
X130253400Y-45619900D03*
X98388100Y-39610400D03*
X89968800Y-61046700D03*
X147158800Y-38269400D03*
%TO.N,1_2*%
X131844700Y-42771100D03*
X147031400Y-42650700D03*
X133668500Y-34431000D03*
%TO.N,1_6*%
X125976300Y-38097000D03*
X105769300Y-39183900D03*
X120970100Y-57861300D03*
X102431500Y-41163900D03*
%TO.N,1_3*%
X108441700Y-46067400D03*
X140529300Y-33687600D03*
X116931000Y-47349400D03*
X110549700Y-38052300D03*
X131357400Y-46989600D03*
X147031400Y-41186900D03*
%TO.N,1_7*%
X123032400Y-33228700D03*
X131682000Y-48619400D03*
X154855900Y-36268100D03*
X133934700Y-64630100D03*
X92568700Y-44128800D03*
%TO.N,1_4*%
X113455900Y-37840300D03*
X114813800Y-49949700D03*
X157916100Y-47101800D03*
X155304000Y-34099900D03*
X112669800Y-51672600D03*
%TO.N,1_8*%
X129610700Y-49889400D03*
X97968400Y-37904300D03*
X130857400Y-54257600D03*
%TO.N,2_1*%
X91544400Y-115828600D03*
X96403300Y-97754700D03*
X83847000Y-118574800D03*
X91544400Y-120628400D03*
X72568000Y-135973800D03*
%TO.N,2_2*%
X95460800Y-118905200D03*
X118884100Y-85371000D03*
X68477300Y-132072900D03*
X71805800Y-124116300D03*
%TO.N,2_3*%
X121776000Y-87804300D03*
X93905600Y-121898400D03*
%TO.N,2_4*%
X97381300Y-128875000D03*
X119671800Y-89929400D03*
X88865100Y-125131300D03*
%TO.N,2_5*%
X125386300Y-90158500D03*
X102386400Y-126312300D03*
X87626600Y-123937700D03*
%TO.N,2_6*%
X97361000Y-116878600D03*
X100807900Y-97547600D03*
%TO.N,2_7*%
X104742800Y-101541500D03*
X88539700Y-111496400D03*
X92653700Y-124450700D03*
%TO.N,2_8*%
X85971900Y-127963700D03*
X99935200Y-131325800D03*
X118845400Y-109518400D03*
X85367000Y-109971300D03*
%TO.N,2_9*%
X83742000Y-98106000D03*
X94756500Y-101611600D03*
%TO.N,2_10*%
X81975000Y-94090500D03*
X127400700Y-109251300D03*
X83948600Y-100684300D03*
X94793500Y-104328000D03*
X136455500Y-110195900D03*
%TO.N,2_11*%
X91143700Y-107585000D03*
X126125200Y-114396200D03*
X77978100Y-90603900D03*
X129344100Y-111177300D03*
X83454200Y-103567300D03*
%TO.N,2_12*%
X133723100Y-117926200D03*
X89046200Y-90603900D03*
X138320900Y-114509900D03*
X95872300Y-106456600D03*
%TO.N,2_13*%
X72918500Y-79819000D03*
X92545000Y-109437700D03*
X72918500Y-95706000D03*
%TO.N,2_14*%
X91269400Y-112219400D03*
X82112000Y-103936900D03*
X74184300Y-76616400D03*
%TO.N,2_15*%
X75429800Y-71757900D03*
X88764200Y-104823600D03*
X94475100Y-108642000D03*
%TO.N,2_16*%
X143089100Y-130158700D03*
X100302300Y-105388400D03*
X97751500Y-113264600D03*
X102146100Y-66830000D03*
X145948100Y-127359400D03*
%TO.N,LED1_1*%
X114482500Y-47485300D03*
%TO.N,LED1_2*%
X99182000Y-51599800D03*
%TO.N,LED1_8*%
X122012700Y-62830100D03*
%TO.N,BINARY_1*%
X181162900Y-90603900D03*
%TO.N,BINARY_2*%
X184516100Y-110707500D03*
%TO.N,BINARY_3*%
X184803000Y-109175900D03*
%TO.N,BINARY_4*%
X184224200Y-107882700D03*
X184804800Y-81096300D03*
%TO.N,BINARY_5*%
X184587600Y-105494900D03*
%TO.N,BINARY_6*%
X185199400Y-104256700D03*
%TO.N,BINARY_7*%
X185706600Y-106622200D03*
X187912400Y-130036100D03*
%TO.N,BINARY_8*%
X185734500Y-133277500D03*
X187734000Y-104351500D03*
%TO.N,BINARY_9*%
X192810600Y-108726600D03*
X185106000Y-139911100D03*
%TO.N,BINARY_10*%
X186153700Y-141438400D03*
X194020200Y-106663800D03*
%TO.N,BINARY_11*%
X199303100Y-103186200D03*
X187744200Y-137669300D03*
%TO.N,BINARY_12*%
X192871700Y-130990300D03*
%TO.N,selected_trig*%
X77758200Y-79988400D03*
X77818000Y-73509000D03*
%TO.N,volca_gate_control*%
X86004000Y-155219200D03*
%TO.N,BD_Trig_long*%
X157916100Y-101481500D03*
%TO.N,SD_trig_long*%
X163410400Y-104880400D03*
%TO.N,HH_Trig_long*%
X170508100Y-107000000D03*
%TO.N,TT_Trig_long*%
X173903700Y-99345800D03*
%TO.N,clock*%
X123998800Y-101094100D03*
X137984000Y-46337800D03*
X137984000Y-110044400D03*
%TO.N,BD_Trig_short*%
X121133600Y-144852600D03*
X155389600Y-102669900D03*
%TO.N,SD_trig_short*%
X158210300Y-103705000D03*
%TO.N,HH_Trig_short*%
X169417800Y-159285800D03*
X169417800Y-104134100D03*
%TO.N,TT_Trig_short*%
X158991800Y-158213600D03*
X168545300Y-101981400D03*
%TO.N,ambient_trigger_to_teensy*%
X111016600Y-135487400D03*
%TO.N,Net-(U1-Pad15)*%
X136751000Y-52429400D03*
X136751000Y-45302600D03*
%TO.N,Net-(D38-Pad2)*%
X166362000Y-81414800D03*
%TO.N,Net-(U2-Pad1)*%
X100991900Y-122153000D03*
X79342200Y-77021200D03*
%TO.N,Net-(U2-Pad2)*%
X79346500Y-78653500D03*
X94758100Y-100280200D03*
%TO.N,Net-(U4-Pad11)*%
X102170200Y-119358400D03*
X102170200Y-102848400D03*
%TD*%
D98*
%TO.N,Net-(D38-Pad2)*%
X165802300Y-81414800D02*
X165450700Y-81766400D01*
X166362000Y-81414800D02*
X165802300Y-81414800D01*
X171569200Y-81414800D02*
X166362000Y-81414800D01*
X171704000Y-81280000D02*
X171569200Y-81414800D01*
%TO.N,GND*%
X166916800Y-80316800D02*
X168802123Y-80316800D01*
X166290000Y-79690000D02*
X166916800Y-80316800D01*
%TO.N,Net-(D38-Pad2)*%
X171450000Y-81280000D02*
X171704000Y-81280000D01*
X168910000Y-78740000D02*
X171450000Y-81280000D01*
%TO.N,Net-(R32-Pad1)*%
X166248700Y-77748700D02*
X166290000Y-77790000D01*
X166248700Y-77316300D02*
X166248700Y-77748700D01*
D99*
%TO.N,GND*%
X158665600Y-97222300D02*
X156584500Y-97222300D01*
X154100500Y-99706300D02*
X154100500Y-104860200D01*
X159245400Y-106796900D02*
X157080500Y-106796900D01*
X156584500Y-97222300D02*
X154100500Y-99706300D01*
X154100500Y-104860200D02*
X156124600Y-106884300D01*
X156124600Y-106884300D02*
X156993100Y-106884300D01*
X157080500Y-106796900D02*
X156993100Y-106884300D01*
D100*
%TO.N,Net-(R32-Pad2)*%
X160807700Y-73511400D02*
X164779600Y-73511400D01*
X157331200Y-76987900D02*
X160807700Y-73511400D01*
X156449100Y-76987900D02*
X157331200Y-76987900D01*
X154972600Y-78464400D02*
X156449100Y-76987900D01*
X154829600Y-78464400D02*
X154972600Y-78464400D01*
%TO.N,relay-NC*%
X153089658Y-165071436D02*
X153089658Y-168904959D01*
X153089658Y-168904959D02*
X159262741Y-175078042D01*
D99*
%TO.N,GND*%
X111723400Y-49139700D02*
X111723400Y-49453300D01*
D101*
X75813300Y-147858600D02*
X75487500Y-147532800D01*
D99*
X101605500Y-135041200D02*
X102940700Y-136376400D01*
X69056600Y-127733400D02*
X68146700Y-128643300D01*
X162903600Y-95172800D02*
X163330900Y-94745500D01*
X114307600Y-55412000D02*
X114307600Y-51468200D01*
X159922100Y-141904000D02*
X163123600Y-141904000D01*
X107417800Y-43343300D02*
X107548300Y-43343300D01*
X71147600Y-146892100D02*
X71470300Y-146569400D01*
X98566700Y-126978400D02*
X99683100Y-125862000D01*
X140825200Y-41384400D02*
X137774600Y-41384400D01*
X84330500Y-99395200D02*
X83414700Y-99395200D01*
X112071900Y-58512700D02*
X111211000Y-57410800D01*
X101605500Y-132039500D02*
X101605500Y-135041200D01*
X68326000Y-153162000D02*
X68326000Y-149575300D01*
X159891900Y-106150400D02*
X159245400Y-106796900D01*
X67673800Y-71962900D02*
X67673800Y-72192600D01*
X71470300Y-146569400D02*
X74524100Y-146569400D01*
X75813300Y-147858600D02*
X74524100Y-146569400D01*
X160777300Y-80392800D02*
X160777000Y-80392800D01*
X75423400Y-102515300D02*
X77859000Y-104950900D01*
X139273700Y-47349400D02*
X135666300Y-50956800D01*
X102940700Y-136376400D02*
X108030600Y-136376400D01*
X69706600Y-85068400D02*
X67804300Y-86970700D01*
X68486000Y-119896900D02*
X69037200Y-119345700D01*
X67871600Y-77032200D02*
X69646900Y-75256900D01*
X126391700Y-56717200D02*
X126391700Y-56981500D01*
X111163200Y-50013500D02*
X111163200Y-52539600D01*
X76729800Y-71194800D02*
X75930900Y-70395900D01*
X113209800Y-55412000D02*
X111211000Y-57410800D01*
X76466500Y-75256900D02*
X82346100Y-75256900D01*
X84167000Y-140925400D02*
X70974900Y-127733400D01*
X120344100Y-62738400D02*
X120344100Y-60343900D01*
X159127500Y-96760400D02*
X158665600Y-97222300D01*
X125138600Y-135390600D02*
X118866900Y-129118900D01*
X97358600Y-126978400D02*
X98566700Y-126978400D01*
X68972500Y-102515300D02*
X75423400Y-102515300D01*
X70211500Y-85068400D02*
X69706600Y-85068400D01*
X140512100Y-47349400D02*
X139273700Y-47349400D01*
X67484100Y-114955800D02*
X66507900Y-113979600D01*
X64855400Y-81562600D02*
X68091200Y-81562600D01*
D101*
X181625500Y-111878000D02*
X181839200Y-111664300D01*
D99*
X158665600Y-99223800D02*
X157716100Y-100173300D01*
X102012600Y-131580100D02*
X97410900Y-126978400D01*
X125086500Y-55412000D02*
X114307600Y-55412000D01*
X74524100Y-146569400D02*
X74524100Y-144843000D01*
X109436100Y-47405700D02*
X106258100Y-50583700D01*
X76466500Y-73037300D02*
X76729800Y-72774000D01*
X116004000Y-59354900D02*
X116004000Y-59613400D01*
X67554500Y-90588000D02*
X66143500Y-90588000D01*
X69646900Y-75256900D02*
X76466500Y-75256900D01*
X102012600Y-131632400D02*
X102012600Y-131580100D01*
X115459600Y-130338100D02*
X115459600Y-130788400D01*
X147527000Y-76395400D02*
X133934700Y-76395400D01*
X118068100Y-66166700D02*
X118068100Y-65014400D01*
X90461500Y-174669200D02*
X92691300Y-172439400D01*
X111163200Y-52539600D02*
X109358300Y-54344500D01*
X142407100Y-46656400D02*
X142407100Y-42966300D01*
X171217100Y-100860300D02*
X171003100Y-100646300D01*
X116678800Y-129118900D02*
X115459600Y-130338100D01*
X135666300Y-50956800D02*
X135666300Y-51600600D01*
X88441100Y-94593400D02*
X88441100Y-97743300D01*
X90051200Y-135041200D02*
X101605500Y-135041200D01*
X78892200Y-140474900D02*
X71624900Y-133207600D01*
X83163900Y-84374900D02*
X82470400Y-85068400D01*
X157942500Y-83227300D02*
X154829600Y-80114400D01*
X163293100Y-79042300D02*
X162868600Y-79466800D01*
X154244900Y-80114400D02*
X152553800Y-78423300D01*
X84687300Y-99038400D02*
X84330500Y-99395200D01*
X82346100Y-75256900D02*
X82505600Y-75416400D01*
X77859000Y-104950900D02*
X77859000Y-105866700D01*
X83414700Y-99395200D02*
X77859000Y-104950900D01*
X75930900Y-70395900D02*
X69240800Y-70395900D01*
X125963300Y-137927400D02*
X131086100Y-143050200D01*
X159450900Y-141432800D02*
X159922100Y-141904000D01*
X154829600Y-80114400D02*
X154244900Y-80114400D01*
X69037200Y-119345700D02*
X69037200Y-118470400D01*
X81234600Y-85068400D02*
X70211500Y-85068400D01*
X116004000Y-59613400D02*
X114411600Y-61205800D01*
X118068100Y-65014400D02*
X120344100Y-62738400D01*
X76466500Y-75256900D02*
X76466500Y-73037300D01*
X88278400Y-173742600D02*
X89369900Y-174205900D01*
X125138600Y-137927400D02*
X125963300Y-137927400D01*
X70974900Y-127733400D02*
X69056600Y-127733400D01*
X68104300Y-91137900D02*
X67554500Y-90588100D01*
X68019500Y-103468300D02*
X68972500Y-102515300D01*
X133587100Y-52429400D02*
X130679500Y-52429400D01*
X68091200Y-81562600D02*
X68108400Y-81579800D01*
X150525900Y-76395400D02*
X151696800Y-78423300D01*
X157141000Y-143050200D02*
X159450900Y-141432800D01*
X82505600Y-76063800D02*
X83163900Y-76722100D01*
X111560600Y-131632400D02*
X102012600Y-131632400D01*
X69165700Y-133207600D02*
X70730900Y-133207600D01*
X102012600Y-131632400D02*
X101605500Y-132039500D01*
X71624900Y-133207600D02*
X70730900Y-133207600D01*
X150525900Y-76395400D02*
X148624700Y-77493100D01*
X163123600Y-141904000D02*
X163200000Y-141827600D01*
X118866900Y-129118900D02*
X116678800Y-129118900D01*
X69011300Y-133362000D02*
X69165700Y-133207600D01*
X95833000Y-173526400D02*
X95833000Y-174889000D01*
X71009200Y-146892100D02*
X71147600Y-146892100D01*
X68326000Y-149575300D02*
X71009200Y-146892100D01*
X68167700Y-111181300D02*
X67398600Y-111181300D01*
X82470400Y-85068400D02*
X81234600Y-85068400D01*
X162903600Y-96760400D02*
X159127500Y-96760400D01*
X67398600Y-111181300D02*
X66507900Y-110290600D01*
X66792100Y-123176500D02*
X67781300Y-124165700D01*
X181020000Y-100751600D02*
X185709700Y-100751600D01*
X141714100Y-47349400D02*
X142407100Y-46656400D01*
X161790500Y-79848300D02*
X161321800Y-79848300D01*
X115459600Y-130788400D02*
X115034600Y-130788400D01*
X115034600Y-130788400D02*
X112875600Y-132947400D01*
X109989400Y-47405700D02*
X109436100Y-47405700D01*
X77859000Y-105866700D02*
X78610400Y-106618100D01*
X67554500Y-90588100D02*
X67554500Y-90588000D01*
X76729800Y-72774000D02*
X76729800Y-71194800D01*
X109989400Y-46250500D02*
X110222500Y-46017400D01*
X125138600Y-137927400D02*
X125138600Y-135390600D01*
X126391700Y-56717200D02*
X125086500Y-55412000D01*
X181625500Y-111878000D02*
X182781100Y-113033600D01*
X109358300Y-54612600D02*
X107764100Y-54612600D01*
X67950700Y-98276900D02*
X68313700Y-98639900D01*
X83291800Y-141800600D02*
X84167000Y-140925400D01*
X67903800Y-134120600D02*
X68662400Y-133362000D01*
X83163900Y-76722100D02*
X83163900Y-84374900D01*
X68217000Y-107209400D02*
X67426200Y-107209400D01*
X102799000Y-45800200D02*
X101523400Y-45800200D01*
X134837500Y-52429400D02*
X133587100Y-52429400D01*
X161321800Y-79848300D02*
X160777300Y-80392800D01*
X161790500Y-79848300D02*
X162868600Y-80137200D01*
X84167000Y-140925400D02*
X90051200Y-135041200D01*
X111723400Y-49453300D02*
X111163200Y-50013500D01*
X159127500Y-84412300D02*
X157942500Y-83227300D01*
X120344100Y-60343900D02*
X123706500Y-56981500D01*
X115269100Y-62343700D02*
X114411600Y-61205800D01*
X159127500Y-96760400D02*
X159127500Y-84412300D01*
X114307600Y-51468200D02*
X112292700Y-49453300D01*
X69240800Y-70395900D02*
X67673800Y-71962900D01*
X85928600Y-105388400D02*
X84698900Y-106618100D01*
X94746000Y-172439400D02*
X95833000Y-173526400D01*
X66987200Y-67383300D02*
X66603100Y-65842600D01*
X79002100Y-140365000D02*
X81856200Y-140365000D01*
X99683100Y-125862000D02*
X99683100Y-115675400D01*
X97410900Y-126978400D02*
X97358600Y-126978400D01*
X89369900Y-174205900D02*
X68326000Y-153162000D01*
X162868600Y-79466800D02*
X162868600Y-80137200D01*
X92691300Y-172439400D02*
X94746000Y-172439400D01*
X67426200Y-107209400D02*
X66507900Y-106291100D01*
X135666300Y-51600600D02*
X134837500Y-52429400D01*
X112292700Y-49453300D02*
X111723400Y-49453300D01*
X82505600Y-75416400D02*
X82505600Y-76063800D01*
X88441100Y-97743300D02*
X87146000Y-99038400D01*
X112697800Y-43542100D02*
X115350000Y-43542100D01*
X131086100Y-143050200D02*
X153213900Y-143050200D01*
X87146000Y-99038400D02*
X85928600Y-99038400D01*
X114307600Y-55412000D02*
X113209800Y-55412000D01*
X160777000Y-80392800D02*
X157942500Y-83227300D01*
X66603100Y-65842600D02*
X66166400Y-65842600D01*
X110222500Y-46017400D02*
X112697800Y-43542100D01*
X180911300Y-100860300D02*
X171217100Y-100860300D01*
X84698900Y-106618100D02*
X78610400Y-106618100D01*
X109989400Y-47405700D02*
X111723400Y-49139700D01*
X140512100Y-47349400D02*
X141714100Y-47349400D01*
X130679500Y-52429400D02*
X126391700Y-56717200D01*
X180911300Y-100860300D02*
X181020000Y-100751600D01*
X171217100Y-103920500D02*
X171217100Y-100860300D01*
D101*
X75487500Y-147532800D02*
X75374100Y-147532800D01*
D99*
X161498600Y-106150400D02*
X159891900Y-106150400D01*
X148624700Y-77493100D02*
X147527000Y-76395400D01*
X109989400Y-47405700D02*
X109989400Y-46250500D01*
X67724400Y-94986000D02*
X66230900Y-94986000D01*
X107548300Y-43343300D02*
X110222500Y-46017400D01*
X78892200Y-140474900D02*
X79002100Y-140365000D01*
X123706500Y-56981500D02*
X126391700Y-56981500D01*
X157141000Y-143050200D02*
X154831200Y-144667500D01*
X67894200Y-114955800D02*
X67484100Y-114955800D01*
X161431800Y-79752200D02*
X161790500Y-79848300D01*
X109358300Y-54344500D02*
X109358300Y-54612600D01*
X66362700Y-98276900D02*
X67950700Y-98276900D01*
X66230900Y-94986000D02*
X66143500Y-94898600D01*
X89369900Y-174205900D02*
X90461500Y-174669200D01*
X81856200Y-140365000D02*
X83291800Y-141800600D01*
X158665600Y-97222300D02*
X158665600Y-99223800D01*
X142407100Y-42966300D02*
X140825200Y-41384400D01*
X112875600Y-132947400D02*
X111560600Y-131632400D01*
X67781300Y-124165700D02*
X68166800Y-124165700D01*
X103125500Y-46126700D02*
X102799000Y-45800200D01*
X122284600Y-140501100D02*
X122564900Y-140501100D01*
X153213900Y-143050200D02*
X154831200Y-144667500D01*
X122564900Y-140501100D02*
X125138600Y-137927400D01*
X74524100Y-144843000D02*
X78892200Y-140474900D01*
X152553800Y-78423300D02*
X151696800Y-78423300D01*
X68662400Y-133362000D02*
X69011300Y-133362000D01*
X162903600Y-96760400D02*
X162903600Y-95172800D01*
X157716100Y-100173300D02*
X156820100Y-100173300D01*
X85928600Y-99038400D02*
X84687300Y-99038400D01*
%TO.N,+5V*%
X189796000Y-103655400D02*
X187595500Y-101454900D01*
X185049600Y-97673200D02*
X167305800Y-97673200D01*
D101*
X189796000Y-103655400D02*
X189796000Y-103684500D01*
D99*
X117482400Y-139324000D02*
X112875600Y-139324000D01*
X98285500Y-114553700D02*
X97217600Y-114553700D01*
X91662300Y-95914600D02*
X90341100Y-94593400D01*
X187595500Y-101454900D02*
X187595500Y-100983200D01*
X90583300Y-139324000D02*
X84262500Y-145644800D01*
X98784300Y-114054900D02*
X98285500Y-114553700D01*
X117734300Y-132947400D02*
X113924300Y-136757400D01*
X160593800Y-69779400D02*
X163055800Y-72241400D01*
X81408600Y-120882400D02*
X81408600Y-119143300D01*
X159326400Y-146171100D02*
X157016400Y-147788500D01*
X142422000Y-70129900D02*
X154163100Y-70129900D01*
X91662300Y-96498400D02*
X91662300Y-95914600D01*
X90053300Y-106852400D02*
X89854600Y-107051100D01*
X84262500Y-144233300D02*
X83904400Y-143875200D01*
X87336200Y-75416400D02*
X90503000Y-78583200D01*
X89854600Y-114054900D02*
X86497000Y-114054900D01*
X166448600Y-98405400D02*
X166448600Y-98530400D01*
X162415600Y-81766400D02*
X161226500Y-81766400D01*
X187595500Y-100219100D02*
X185049600Y-97673200D01*
X164803600Y-96760400D02*
X166448600Y-98405400D01*
X154163100Y-70129900D02*
X154513600Y-69779400D01*
X90341100Y-94593400D02*
X90503000Y-94431500D01*
X140512100Y-43539400D02*
X138479600Y-43539400D01*
X131058600Y-152900200D02*
X117482400Y-139324000D01*
X113117100Y-78583200D02*
X121076900Y-70623400D01*
X83904400Y-143875200D02*
X84635400Y-143144200D01*
X96718800Y-114054900D02*
X89854600Y-114054900D01*
X104283600Y-118088400D02*
X103996100Y-118088400D01*
X161115900Y-81877000D02*
X161226500Y-81766400D01*
X137579500Y-43539400D02*
X135874600Y-41834500D01*
X98244800Y-179697300D02*
X102306900Y-179697300D01*
X112875600Y-136757400D02*
X112875600Y-139324000D01*
X112875600Y-139324000D02*
X90583300Y-139324000D01*
X121076900Y-70623400D02*
X141928500Y-70623400D01*
X101583100Y-115228900D02*
X100409100Y-114054900D01*
X86497000Y-114054900D02*
X81408600Y-119143300D01*
X84262500Y-145644800D02*
X84262500Y-144233300D01*
X154513600Y-69779400D02*
X160593800Y-69779400D01*
X141928500Y-70623400D02*
X142422000Y-70129900D01*
X162415600Y-81766400D02*
X162415600Y-82880500D01*
X89854600Y-107051100D02*
X89854600Y-114054900D01*
X157016400Y-147788500D02*
X151904700Y-152900200D01*
X84405600Y-75416400D02*
X86184600Y-77195400D01*
X151904700Y-152900200D02*
X143918000Y-152900200D01*
X102306900Y-179697300D02*
X142579300Y-179697300D01*
X103996100Y-118088400D02*
X101583100Y-115675400D01*
X138479600Y-43539400D02*
X138479600Y-44267500D01*
X84405600Y-75416400D02*
X87336200Y-75416400D01*
X100409100Y-114054900D02*
X98784300Y-114054900D01*
X142579300Y-179697300D02*
X143979600Y-178297000D01*
X143918000Y-152900200D02*
X131058600Y-152900200D01*
X187595500Y-100983200D02*
X187595500Y-100219100D01*
X138479600Y-43539400D02*
X137579500Y-43539400D01*
X91662300Y-96498400D02*
X92853600Y-96498400D01*
X90053300Y-98107400D02*
X90053300Y-106852400D01*
X117734300Y-132947400D02*
X120075600Y-132947400D01*
X113924300Y-136757400D02*
X112875600Y-136757400D01*
X117734300Y-132947400D02*
X117734300Y-131163100D01*
X162415600Y-82880500D02*
X164803600Y-85268500D01*
X167305800Y-97673200D02*
X166448600Y-98530400D01*
X86184600Y-77195400D02*
X86184600Y-77448400D01*
X91662300Y-96498400D02*
X90053300Y-98107400D01*
X94084000Y-174146600D02*
X94084000Y-175536500D01*
X94084000Y-175536500D02*
X98244800Y-179697300D01*
X90503000Y-94431500D02*
X90503000Y-78583200D01*
X97217600Y-114553700D02*
X96718800Y-114054900D01*
X135874600Y-41834500D02*
X135874600Y-41384400D01*
X143979600Y-175607900D02*
X143979600Y-178297000D01*
X101583100Y-115675400D02*
X101583100Y-115228900D01*
X164803600Y-85268500D02*
X164803600Y-96760400D01*
X117734300Y-131163100D02*
X117359600Y-130788400D01*
X90503000Y-78583200D02*
X113117100Y-78583200D01*
X82737100Y-143875200D02*
X83904400Y-143875200D01*
D100*
%TO.N,selected_trig2*%
X203808000Y-106107400D02*
X201646500Y-103945900D01*
X163580400Y-81262100D02*
X164467900Y-80374600D01*
X163212000Y-76940400D02*
X163720100Y-77448500D01*
X180606700Y-82906100D02*
X164180600Y-82906100D01*
X164467900Y-78196300D02*
X163720100Y-77448500D01*
X161809600Y-76940400D02*
X163212000Y-76940400D01*
X199234100Y-100455700D02*
X198156300Y-100455700D01*
X201646500Y-103945900D02*
X201646500Y-102868100D01*
X201646500Y-102868100D02*
X199234100Y-100455700D01*
X163580400Y-82305900D02*
X163580400Y-81262100D01*
X206313900Y-105195400D02*
X203808000Y-106107400D01*
X164467900Y-80374600D02*
X164467900Y-78196300D01*
X198156300Y-100455700D02*
X180606700Y-82906100D01*
X164180600Y-82906100D02*
X163580400Y-82305900D01*
%TO.N,sel_trig_inv*%
X107905600Y-134090400D02*
X103593300Y-134090400D01*
X81234600Y-81258400D02*
X71836400Y-81258400D01*
X103593300Y-134090400D02*
X102928400Y-133425500D01*
%TO.N,hold_pot*%
X119670200Y-135082000D02*
X117890700Y-135082000D01*
X122698600Y-135487400D02*
X123052600Y-135841400D01*
X120075600Y-135487400D02*
X122698600Y-135487400D01*
X120075600Y-135487400D02*
X119670200Y-135082000D01*
X120075600Y-134217400D02*
X120075600Y-135487400D01*
%TO.N,A_5*%
X174261300Y-47824000D02*
X174253000Y-47815700D01*
X176033000Y-46026900D02*
X174357200Y-47824100D01*
X173593000Y-48499100D02*
X174253000Y-47815700D01*
X174357200Y-47824100D02*
X174357100Y-47824000D01*
X174357100Y-47824000D02*
X174261300Y-47824000D01*
%TO.N,1_5*%
X145234200Y-43395100D02*
X145249900Y-43410800D01*
X113388500Y-35824100D02*
X113388500Y-35824000D01*
X146159000Y-35332500D02*
X146012000Y-36378400D01*
X142149000Y-51927900D02*
X141380500Y-51159400D01*
X93313200Y-45926000D02*
X93357600Y-45881600D01*
X142149000Y-52915600D02*
X142149000Y-51927900D01*
X113388500Y-35824000D02*
X113334500Y-35770000D01*
X113334500Y-35770000D02*
X113223800Y-35770000D01*
X85059400Y-49870700D02*
X85742800Y-50530700D01*
X115757100Y-56869100D02*
X118040300Y-56869100D01*
X141380500Y-51159400D02*
X140512100Y-51159400D01*
X93625400Y-45881600D02*
X96180700Y-43326300D01*
X141337800Y-53726800D02*
X142149000Y-52915600D01*
X148885000Y-49400900D02*
X146012000Y-46527900D01*
X146012000Y-46527900D02*
X141380500Y-51159400D01*
X146012000Y-38210200D02*
X145996300Y-38225900D01*
X85742800Y-50530700D02*
X86402800Y-49870700D01*
X146012000Y-36378400D02*
X146012000Y-38210200D01*
X146012000Y-44456100D02*
X146012000Y-46527900D01*
X172134200Y-50009700D02*
X171503800Y-49400900D01*
X103257200Y-41802100D02*
X104639000Y-41802100D01*
X93357600Y-45881600D02*
X93625400Y-45881600D01*
X100331600Y-43326300D02*
X101093700Y-42564200D01*
X90499500Y-46851900D02*
X91577300Y-46851900D01*
X145249900Y-43410800D02*
X145249900Y-43694000D01*
X145249900Y-41226300D02*
X145249900Y-41890600D01*
X96180700Y-43326300D02*
X100331600Y-43326300D01*
X145249900Y-41890600D02*
X145234200Y-41906300D01*
X145996300Y-38225900D02*
X145996300Y-40479900D01*
X101093700Y-42564200D02*
X102495100Y-42564200D01*
X171503800Y-49400900D02*
X148885000Y-49400900D01*
X132872000Y-53726800D02*
X141337800Y-53726800D01*
X86402800Y-49870700D02*
X87480700Y-49870700D01*
X145249900Y-43694000D02*
X146012000Y-44456100D01*
X114461400Y-35536600D02*
X113388500Y-35824100D01*
X102495100Y-42564200D02*
X103257200Y-41802100D01*
X145234200Y-41906300D02*
X145234200Y-43395100D01*
X91577300Y-46851900D02*
X92503200Y-45926000D01*
X87480700Y-49870700D02*
X90499500Y-46851900D01*
X145996300Y-40479900D02*
X145249900Y-41226300D01*
X92503200Y-45926000D02*
X93313200Y-45926000D01*
%TO.N,B_5*%
X146451200Y-32642800D02*
X146451200Y-33252900D01*
X146924200Y-30021300D02*
X146572800Y-32521300D01*
X146572800Y-32521300D02*
X146572700Y-32521300D01*
X146572700Y-32521300D02*
X146451200Y-32642800D01*
%TO.N,C_5*%
X113726500Y-32796300D02*
X113917800Y-32987600D01*
X113052100Y-30279500D02*
X113726400Y-32796300D01*
X113917800Y-32987600D02*
X113917800Y-33508200D01*
X113726400Y-32796300D02*
X113726500Y-32796300D01*
%TO.N,D_5*%
X82669800Y-48116900D02*
X82669900Y-48116800D01*
X82669900Y-48116800D02*
X83253700Y-48116800D01*
X83253700Y-48116800D02*
X83548800Y-48411900D01*
X80910300Y-46417500D02*
X82669800Y-48116900D01*
%TO.N,A_1*%
X164887200Y-35633200D02*
X163357000Y-37163400D01*
X163357000Y-37163400D02*
X163357000Y-37642600D01*
X162697000Y-38326000D02*
X163357000Y-37642600D01*
%TO.N,1_1*%
X98656500Y-39634100D02*
X98656500Y-39634000D01*
X98632900Y-39610400D02*
X98388100Y-39610400D01*
X74391400Y-61046700D02*
X75074800Y-61706700D01*
X161238200Y-39836600D02*
X148726000Y-39836600D01*
X133357300Y-45849600D02*
X130483100Y-45849600D01*
X131061500Y-33752200D02*
X131844700Y-34535400D01*
X130253400Y-45619900D02*
X122607600Y-45619900D01*
X75074800Y-61706700D02*
X75734800Y-61046700D01*
X99729400Y-39346600D02*
X98656500Y-39634100D01*
X108853700Y-41754700D02*
X118742400Y-41754700D01*
X131061500Y-33276200D02*
X131061500Y-33752200D01*
X122607600Y-45619900D02*
X118971200Y-41983500D01*
X130483100Y-45849600D02*
X130253400Y-45619900D01*
X148726000Y-39836600D02*
X147158800Y-38269400D01*
X75734800Y-61046700D02*
X89968800Y-61046700D01*
X98656500Y-39634000D02*
X98632900Y-39610400D01*
X133587100Y-46079400D02*
X133357300Y-45849600D01*
X118742400Y-41754700D02*
X118971200Y-41983500D01*
X108324400Y-42284000D02*
X108853700Y-41754700D01*
%TO.N,B_1*%
X131500700Y-28232100D02*
X131500700Y-30150700D01*
X131832500Y-27900300D02*
X131500700Y-28232100D01*
X131353700Y-31196600D02*
X131500700Y-30150700D01*
%TO.N,C_1*%
X98884200Y-34776700D02*
X98884200Y-36192400D01*
X99185800Y-37318200D02*
X98884200Y-36192400D01*
X98331400Y-34223900D02*
X98884200Y-34776700D01*
%TO.N,D_1*%
X72880800Y-59587900D02*
X72197400Y-58927900D01*
X70649700Y-57380200D02*
X72197400Y-58927900D01*
X70323700Y-57380200D02*
X70649700Y-57380200D01*
%TO.N,A_2*%
X165465000Y-40879100D02*
X166125000Y-40195700D01*
X165997800Y-40068500D02*
X166125000Y-40195700D01*
X165997800Y-40028900D02*
X165997800Y-40068500D01*
X167673700Y-38231600D02*
X165997800Y-40028900D01*
%TO.N,1_2*%
X131844700Y-42771100D02*
X129837400Y-40763800D01*
X90374700Y-54393300D02*
X100321100Y-44446900D01*
X77540200Y-56032200D02*
X79179100Y-54393300D01*
X79179100Y-54393300D02*
X90374700Y-54393300D01*
X103297800Y-38330200D02*
X103599400Y-39456000D01*
X107652100Y-40763800D02*
X106382700Y-42033200D01*
X103599400Y-39456000D02*
X103805500Y-39456000D01*
X133668500Y-34431000D02*
X134001100Y-34098400D01*
X147031400Y-42650700D02*
X162923800Y-42650700D01*
X106382700Y-44272600D02*
X106753800Y-44643700D01*
X131844700Y-42771100D02*
X131844700Y-43895800D01*
X129837400Y-40763800D02*
X107652100Y-40763800D01*
X76931400Y-58252700D02*
X77540300Y-57622300D01*
X164006200Y-42389700D02*
X163346200Y-43073100D01*
X77540300Y-57622300D02*
X77540200Y-57622200D01*
X103805500Y-39456000D02*
X106382700Y-42033200D01*
X106557000Y-44446900D02*
X106753800Y-44643700D01*
X134001100Y-34098400D02*
X134001100Y-33670500D01*
X134983000Y-33808500D02*
X134001100Y-33670500D01*
X131844700Y-43895800D02*
X132758300Y-44809400D01*
X100321100Y-44446900D02*
X106557000Y-44446900D01*
X106382700Y-42033200D02*
X106382700Y-44272600D01*
X132758300Y-44809400D02*
X133587100Y-44809400D01*
X162923800Y-42650700D02*
X163346200Y-43073100D01*
X77540200Y-57622200D02*
X77540200Y-56032200D01*
%TO.N,B_2*%
X135605400Y-28430500D02*
X135254000Y-30930500D01*
X135275200Y-30951700D02*
X135275200Y-31728900D01*
X135254000Y-30930500D02*
X135275200Y-30951700D01*
%TO.N,C_2*%
X102754200Y-35822800D02*
X102754200Y-36301800D01*
X102011600Y-33237800D02*
X102685900Y-35754600D01*
X102685900Y-35754600D02*
X102686000Y-35754600D01*
X102686000Y-35754600D02*
X102754200Y-35822800D01*
%TO.N,D_2*%
X74730000Y-56338900D02*
X74965800Y-56338900D01*
X74729900Y-56339000D02*
X74730000Y-56338900D01*
X74965800Y-56338900D02*
X75420800Y-56793900D01*
X72970300Y-54639500D02*
X74729900Y-56339000D01*
%TO.N,A_6*%
X178819500Y-48625300D02*
X177143600Y-50422600D01*
X176387000Y-51039100D02*
X177047000Y-50355700D01*
X177113800Y-50422500D02*
X177047000Y-50355700D01*
X177143500Y-50422500D02*
X177113800Y-50422500D01*
X177143600Y-50422600D02*
X177143500Y-50422500D01*
%TO.N,1_6*%
X118319100Y-35646400D02*
X118319000Y-35646400D01*
X124419100Y-35646400D02*
X125976300Y-37203600D01*
X153410100Y-38525100D02*
X150839300Y-35954300D01*
X149857500Y-35816200D02*
X150348400Y-35885200D01*
X101416200Y-41163900D02*
X100015900Y-42564200D01*
X118017400Y-34520600D02*
X118319000Y-35646400D01*
X118892800Y-59938600D02*
X120970100Y-57861300D01*
X102431500Y-41163900D02*
X101416200Y-41163900D01*
X144273800Y-35795700D02*
X130623900Y-35795700D01*
X126206400Y-31759400D02*
X124941800Y-31759400D01*
X133587100Y-43539400D02*
X133587100Y-42991300D01*
X124941800Y-31759400D02*
X124419100Y-32282100D01*
X171417300Y-48420800D02*
X161521600Y-38525100D01*
X150839300Y-35954300D02*
X150839300Y-35954200D01*
X174928200Y-52549700D02*
X174297800Y-51940900D01*
X124419100Y-35646400D02*
X118319100Y-35646400D01*
X87599400Y-47330700D02*
X88282800Y-47990700D01*
X130542900Y-35714700D02*
X130161700Y-35714700D01*
X174297800Y-51940900D02*
X174297900Y-51940800D01*
X128692800Y-38097000D02*
X125976300Y-38097000D01*
X114781600Y-39183900D02*
X105769300Y-39183900D01*
X130623900Y-35795700D02*
X130542900Y-35714700D01*
X150348400Y-35885200D02*
X150839300Y-35954200D01*
X133587100Y-42991300D02*
X128692800Y-38097000D01*
X174297900Y-51940800D02*
X174297900Y-50830600D01*
X92997500Y-45163900D02*
X91109600Y-45163900D01*
X95597200Y-42564200D02*
X92997500Y-45163900D01*
X161521600Y-38525100D02*
X153410100Y-38525100D01*
X118319100Y-35646400D02*
X114781600Y-39183900D01*
X174297900Y-50830600D02*
X171888100Y-48420800D01*
X125976300Y-37203600D02*
X125976300Y-38097000D01*
X148456900Y-35885200D02*
X146920200Y-34348500D01*
X130161700Y-35714700D02*
X126206400Y-31759400D01*
X171888100Y-48420800D02*
X171417300Y-48420800D01*
X100015900Y-42564200D02*
X95597200Y-42564200D01*
X146920200Y-34348500D02*
X145721000Y-34348500D01*
X91109600Y-45163900D02*
X88282800Y-47990700D01*
X118892800Y-60830600D02*
X118892800Y-59938600D01*
X145721000Y-34348500D02*
X144273800Y-35795700D01*
X124419100Y-32282100D02*
X124419100Y-35646400D01*
X150348400Y-35885200D02*
X148456900Y-35885200D01*
%TO.N,B_6*%
X150697100Y-30551500D02*
X150345700Y-33051500D01*
X150345600Y-33051500D02*
X150149700Y-33247400D01*
X150345700Y-33051500D02*
X150345600Y-33051500D01*
X150149700Y-33247400D02*
X150149700Y-33736600D01*
%TO.N,C_6*%
X117406700Y-31810200D02*
X117473800Y-31877300D01*
X117473800Y-31877300D02*
X117473800Y-32492200D01*
X117406600Y-31810200D02*
X117406700Y-31810200D01*
X116732300Y-29293400D02*
X117406600Y-31810200D01*
%TO.N,D_6*%
X83556900Y-43676800D02*
X85316500Y-45376200D01*
X85593100Y-45376200D02*
X86088800Y-45871900D01*
X85316500Y-45376200D02*
X85593100Y-45376200D01*
%TO.N,A_3*%
X168031000Y-43406000D02*
X168691000Y-42722600D01*
X168691000Y-42720400D02*
X168691000Y-42722600D01*
X170460100Y-40830000D02*
X168784200Y-42627200D01*
X168784200Y-42627200D02*
X168691000Y-42720400D01*
%TO.N,1_3*%
X108128100Y-37605700D02*
X110103100Y-37605700D01*
X102393100Y-51645600D02*
X104933800Y-51645600D01*
X98295100Y-52634900D02*
X101403800Y-52634900D01*
X145996300Y-43079400D02*
X147224700Y-44307800D01*
X145996300Y-42222000D02*
X145996300Y-43079400D01*
X105312700Y-51645600D02*
X106069400Y-52402300D01*
X147031400Y-41186900D02*
X145996300Y-42222000D01*
X166572200Y-44916600D02*
X165941800Y-44307800D01*
X104933800Y-49575300D02*
X108441700Y-46067400D01*
X110103100Y-37605700D02*
X110549700Y-38052300D01*
X107682600Y-37160200D02*
X108128100Y-37605700D01*
X79471400Y-55458700D02*
X80154800Y-56118700D01*
X95471300Y-55458700D02*
X98295100Y-52634900D01*
X131357400Y-47349400D02*
X133587100Y-47349400D01*
X139382200Y-34223200D02*
X139917800Y-33687600D01*
X147224700Y-44307800D02*
X165941800Y-44307800D01*
X109929500Y-51107500D02*
X109929500Y-49284100D01*
X106069400Y-52402300D02*
X106069400Y-52674400D01*
X107107800Y-37314200D02*
X107682600Y-37160200D01*
X107671700Y-53365300D02*
X109929500Y-51107500D01*
X138190600Y-34223200D02*
X139382200Y-34223200D01*
X139917800Y-33687600D02*
X140529300Y-33687600D01*
X116931000Y-47349400D02*
X131357400Y-47349400D01*
X104933800Y-51645600D02*
X105312700Y-51645600D01*
X106760300Y-53365300D02*
X107671700Y-53365300D01*
X80814800Y-55458700D02*
X95471300Y-55458700D01*
X101403800Y-52634900D02*
X102393100Y-51645600D01*
X131357400Y-47349400D02*
X131357400Y-46989600D01*
X138681500Y-34292200D02*
X138190600Y-34223200D01*
X106069400Y-52674400D02*
X106760300Y-53365300D01*
X80154800Y-56118700D02*
X80814800Y-55458700D01*
X104933800Y-51645600D02*
X104933800Y-49575300D01*
%TO.N,B_3*%
X139378300Y-28960800D02*
X139026900Y-31460800D01*
X139026800Y-31460800D02*
X138973700Y-31513900D01*
X138973700Y-31513900D02*
X138973700Y-32212600D01*
X139026900Y-31460800D02*
X139026800Y-31460800D01*
%TO.N,C_3*%
X105691800Y-32251700D02*
X106366100Y-34768500D01*
X106564200Y-34966500D02*
X106564200Y-35285800D01*
X106366100Y-34768500D02*
X106366200Y-34768500D01*
X106366200Y-34768500D02*
X106564200Y-34966500D01*
%TO.N,D_3*%
X75617000Y-51898800D02*
X77376600Y-53598200D01*
X77376600Y-53598200D02*
X77559100Y-53598200D01*
X77559100Y-53598200D02*
X77960800Y-53999900D01*
%TO.N,A_7*%
X178927000Y-53579100D02*
X179587000Y-52895700D01*
X179712200Y-53020900D02*
X179587000Y-52895700D01*
X179930000Y-53020900D02*
X179712200Y-53020900D01*
X181605900Y-51223700D02*
X179930000Y-53020900D01*
%TO.N,1_7*%
X176808100Y-55773000D02*
X176808200Y-55773100D01*
X154843400Y-36268100D02*
X154855900Y-36268100D01*
X122900200Y-33217200D02*
X122911700Y-33228700D01*
X133934700Y-64630100D02*
X167927800Y-64630100D01*
X92340200Y-44357300D02*
X92568700Y-44128800D01*
X121614400Y-64630100D02*
X133934700Y-64630100D01*
X167927800Y-64630100D02*
X176784900Y-55773000D01*
X133587100Y-48619400D02*
X131682000Y-48619400D01*
X90393400Y-44536700D02*
X90572800Y-44357300D01*
X177468200Y-55089700D02*
X176808200Y-55773100D01*
X90572800Y-44357300D02*
X92340200Y-44357300D01*
X154649300Y-36462200D02*
X154843400Y-36268100D01*
X176784900Y-55773000D02*
X176808100Y-55773000D01*
X153667500Y-36324200D02*
X154649300Y-36462200D01*
X121827400Y-33504600D02*
X122900200Y-33217200D01*
X122911700Y-33228700D02*
X123032400Y-33228700D01*
%TO.N,B_7*%
X154470000Y-31081800D02*
X154118600Y-33581800D01*
X154118500Y-33581800D02*
X153959700Y-33740600D01*
X153959700Y-33740600D02*
X153959700Y-34244600D01*
X154118600Y-33581800D02*
X154118500Y-33581800D01*
%TO.N,C_7*%
X121086800Y-30824100D02*
X121086900Y-30824100D01*
X121086900Y-30824100D02*
X121283800Y-31021000D01*
X120412500Y-28307300D02*
X121086800Y-30824100D01*
X121283800Y-31021000D02*
X121283800Y-31476200D01*
%TO.N,D_7*%
X86203600Y-40936100D02*
X87963100Y-42635500D01*
X87963100Y-42635500D02*
X87963200Y-42635400D01*
X87981900Y-42635400D02*
X88199400Y-42417900D01*
X87963200Y-42635400D02*
X87981900Y-42635400D01*
X88882800Y-43077900D02*
X88199400Y-42417900D01*
%TO.N,A_4*%
X171570700Y-45225700D02*
X171485000Y-45311400D01*
X170825000Y-46200000D02*
X171485000Y-45516600D01*
X171485000Y-45311400D02*
X171485000Y-45516600D01*
X173246600Y-43428400D02*
X171570700Y-45225700D01*
%TO.N,1_4*%
X107031700Y-36269000D02*
X105913200Y-36269000D01*
X108826800Y-34473900D02*
X107031700Y-36269000D01*
X141410000Y-26968800D02*
X153666900Y-26968800D01*
X107538100Y-29733000D02*
X112467400Y-24803700D01*
X111978200Y-36265200D02*
X113455900Y-37742900D01*
X101525500Y-38669500D02*
X101525500Y-38996600D01*
X153666900Y-26968800D02*
X156203200Y-29505100D01*
X112887900Y-53124300D02*
X112887900Y-51890700D01*
X133587100Y-51159400D02*
X116023500Y-51159400D01*
X95381500Y-41430900D02*
X93718700Y-43093700D01*
X102848000Y-37347000D02*
X101525500Y-38669500D01*
X139244900Y-24803700D02*
X141410000Y-26968800D01*
X82874200Y-52288200D02*
X82874300Y-52288300D01*
X141564400Y-33258800D02*
X141410000Y-33104400D01*
X110905400Y-36552600D02*
X108826800Y-34473900D01*
X108826800Y-34473900D02*
X107538100Y-33185300D01*
X169366200Y-47710600D02*
X168735800Y-47101800D01*
X104835200Y-37347000D02*
X102848000Y-37347000D01*
X141410000Y-33104400D02*
X141410000Y-26968800D01*
X142237500Y-34800200D02*
X141255600Y-34662200D01*
X92140000Y-43093700D02*
X91751800Y-43481900D01*
X141564400Y-34116400D02*
X141564400Y-33258800D01*
X82874200Y-50668600D02*
X82874200Y-52288200D01*
X141255600Y-34425200D02*
X141564400Y-34116400D01*
X156203200Y-29505100D02*
X156203200Y-33200700D01*
X156203200Y-33200700D02*
X155304000Y-34099900D01*
X110905400Y-36552600D02*
X111978200Y-36265200D01*
X141255600Y-34662200D02*
X141255600Y-34425200D01*
X93718700Y-43093700D02*
X92140000Y-43093700D01*
X105913200Y-36269000D02*
X104835200Y-37347000D01*
X99091200Y-41430900D02*
X95381500Y-41430900D01*
X168735800Y-47101800D02*
X157916100Y-47101800D01*
X91751800Y-43481900D02*
X90060900Y-43481900D01*
X112467400Y-24803700D02*
X139244900Y-24803700D01*
X116023500Y-51159400D02*
X114813800Y-49949700D01*
X113455900Y-37742900D02*
X113455900Y-37840300D01*
X101525500Y-38996600D02*
X99091200Y-41430900D01*
X82265400Y-52918700D02*
X82874300Y-52288300D01*
X112887900Y-51890700D02*
X112669800Y-51672600D01*
X107538100Y-33185300D02*
X107538100Y-29733000D01*
X90060900Y-43481900D02*
X82874200Y-50668600D01*
%TO.N,B_4*%
X142529700Y-32261100D02*
X142529700Y-32720600D01*
X142799800Y-31991000D02*
X142529700Y-32261100D01*
X142799900Y-31991000D02*
X142799800Y-31991000D01*
X143151300Y-29491000D02*
X142799900Y-31991000D01*
%TO.N,C_4*%
X110046300Y-33782400D02*
X110361800Y-34097900D01*
X110046200Y-33782400D02*
X110046300Y-33782400D01*
X110361800Y-34097900D02*
X110361800Y-34524200D01*
X109371900Y-31265600D02*
X110046200Y-33782400D01*
%TO.N,D_4*%
X80023300Y-50857500D02*
X80152400Y-50857500D01*
X78263600Y-49158100D02*
X80023200Y-50857600D01*
X80152400Y-50857500D02*
X80754800Y-51459900D01*
X80023200Y-50857600D02*
X80023300Y-50857500D01*
%TO.N,A_8*%
X182381100Y-55689800D02*
X182381000Y-55689700D01*
X182474800Y-55619300D02*
X182404300Y-55689800D01*
X181721000Y-56373100D02*
X182381000Y-55689700D01*
X182716500Y-55619300D02*
X182474800Y-55619300D01*
X184392400Y-53822100D02*
X182716500Y-55619300D01*
X182404300Y-55689800D02*
X182381100Y-55689800D01*
%TO.N,1_8*%
X180262200Y-57883700D02*
X180922300Y-57200300D01*
X175371600Y-49797400D02*
X178198900Y-46970100D01*
X130857400Y-54499700D02*
X130857400Y-54257600D01*
X157731500Y-36832200D02*
X157878500Y-35786500D01*
X175941900Y-52817200D02*
X173988900Y-54770200D01*
X175941900Y-51922200D02*
X175371600Y-51351900D01*
X130885400Y-54527600D02*
X130857400Y-54499700D01*
X175371600Y-51351900D02*
X175371600Y-49797400D01*
X178198900Y-44661700D02*
X166655400Y-33118200D01*
X158777200Y-35786500D02*
X157878500Y-35786500D01*
X126090200Y-33868400D02*
X135218400Y-42996600D01*
X173988900Y-54770200D02*
X131127900Y-54770200D01*
X135218400Y-42996600D02*
X135218400Y-49121100D01*
X134450100Y-49889400D02*
X133587100Y-49889400D01*
X93542300Y-41112300D02*
X93563800Y-41112300D01*
X161445500Y-33118200D02*
X158777200Y-35786500D01*
X130885400Y-54527600D02*
X129921200Y-55491800D01*
X135218400Y-49121100D02*
X134450100Y-49889400D01*
X96771800Y-37904300D02*
X97968400Y-37904300D01*
X93563800Y-41112300D02*
X96771800Y-37904300D01*
X133587100Y-49889400D02*
X129610700Y-49889400D01*
X175941900Y-52817200D02*
X175941900Y-51922200D01*
X180922300Y-57200300D02*
X176539200Y-52817200D01*
X131127900Y-54770200D02*
X130885400Y-54527600D01*
X176539200Y-52817200D02*
X175941900Y-52817200D01*
X178198900Y-46970100D02*
X178198900Y-44661700D01*
X166655400Y-33118200D02*
X161445500Y-33118200D01*
X125685000Y-33868400D02*
X126090200Y-33868400D01*
X125383400Y-32742600D02*
X125685000Y-33868400D01*
X92933400Y-41742700D02*
X93542300Y-41112300D01*
%TO.N,B_8*%
X158023700Y-34244200D02*
X158023700Y-34752600D01*
X157891500Y-34112000D02*
X158023700Y-34244200D01*
X158242900Y-31612000D02*
X157891500Y-34112000D01*
%TO.N,C_8*%
X124766900Y-29838000D02*
X124767000Y-29838000D01*
X124767000Y-29838000D02*
X124839800Y-29910800D01*
X124092600Y-27321200D02*
X124766900Y-29838000D01*
X124839800Y-29910800D02*
X124839800Y-30714200D01*
%TO.N,D_8*%
X91033700Y-39894800D02*
X91422800Y-40283900D01*
X88850200Y-38195400D02*
X90609800Y-39894900D01*
X90609800Y-39894900D02*
X90609900Y-39894800D01*
X90609900Y-39894800D02*
X91033700Y-39894800D01*
%TO.N,Volca_step_1*%
X117762800Y-79726000D02*
X116848900Y-80342400D01*
X116386600Y-79880100D02*
X115722000Y-79880100D01*
X113159700Y-82442400D02*
X113159700Y-82957900D01*
X115722000Y-79880100D02*
X113159700Y-82442400D01*
X116848900Y-80342400D02*
X116386600Y-79880100D01*
%TO.N,2_1*%
X99059200Y-97754700D02*
X96403300Y-97754700D01*
X83847000Y-118574800D02*
X86593200Y-115828600D01*
X110746800Y-87904600D02*
X109996200Y-87904600D01*
X116604400Y-81764100D02*
X116021800Y-82346700D01*
X106597500Y-90638200D02*
X100801000Y-96434700D01*
X100801000Y-96434700D02*
X100379200Y-96434700D01*
X116021800Y-82629600D02*
X110746800Y-87904600D01*
X100379200Y-96434700D02*
X99059200Y-97754700D01*
X96389600Y-97768400D02*
X92853600Y-97768400D01*
X116021800Y-80900400D02*
X116604400Y-81764100D01*
X116021800Y-82346700D02*
X116021800Y-82629600D01*
X107262600Y-90638200D02*
X106597500Y-90638200D01*
X71467600Y-135973800D02*
X70041700Y-134547900D01*
X86593200Y-115828600D02*
X91544400Y-115828600D01*
X96403300Y-97754700D02*
X96389600Y-97768400D01*
X97358600Y-120628400D02*
X91544400Y-120628400D01*
X72568000Y-135973800D02*
X71467600Y-135973800D01*
X109996200Y-87904600D02*
X107262600Y-90638200D01*
%TO.N,Volca_step_2*%
X118509900Y-83365300D02*
X117807800Y-83365300D01*
X115345000Y-85828100D02*
X115345000Y-86078900D01*
X117807800Y-83365300D02*
X115345000Y-85828100D01*
X118972200Y-83827600D02*
X118509900Y-83365300D01*
X119886100Y-83211200D02*
X118972200Y-83827600D01*
%TO.N,2_2*%
X118145100Y-84385600D02*
X118727700Y-85249300D01*
X71138500Y-131231500D02*
X71138500Y-129958500D01*
X118727700Y-85249300D02*
X118727800Y-85249200D01*
X95460800Y-119099400D02*
X91581100Y-119099400D01*
X118727800Y-85249200D02*
X118762300Y-85249200D01*
X95460800Y-118905200D02*
X95460800Y-119099400D01*
X118762300Y-85249200D02*
X118884100Y-85371000D01*
X90500600Y-124959600D02*
X89293800Y-126166400D01*
X74441300Y-126166400D02*
X72391200Y-124116300D01*
X97358600Y-119358400D02*
X97099600Y-119099400D01*
X90500600Y-120179900D02*
X90500600Y-124959600D01*
X70297100Y-132072900D02*
X71138500Y-131231500D01*
X91581100Y-119099400D02*
X90500600Y-120179900D01*
X72391200Y-124116300D02*
X71805800Y-124116300D01*
X89293800Y-126166400D02*
X74441300Y-126166400D01*
X97099600Y-119099400D02*
X95460800Y-119099400D01*
X71138500Y-129958500D02*
X70244900Y-129064900D01*
X68477300Y-132072900D02*
X70297100Y-132072900D01*
%TO.N,Volca_step_3*%
X120745700Y-86413300D02*
X120063300Y-86413300D01*
X117530400Y-88946200D02*
X117530400Y-89199800D01*
X120063300Y-86413300D02*
X117530400Y-88946200D01*
X121208000Y-86875600D02*
X120745700Y-86413300D01*
X122121900Y-86259200D02*
X121208000Y-86875600D01*
%TO.N,2_3*%
X89609500Y-126928500D02*
X91618500Y-124919500D01*
X73344900Y-126154500D02*
X74118900Y-126928500D01*
X93905600Y-121898400D02*
X97358600Y-121898400D01*
X120380900Y-87433600D02*
X120963500Y-88297300D01*
X121456500Y-87804300D02*
X121776000Y-87804300D01*
X74118900Y-126928500D02*
X89609500Y-126928500D01*
X93733700Y-121898400D02*
X93905600Y-121898400D01*
X120963500Y-88297300D02*
X121456500Y-87804300D01*
X91618500Y-124919500D02*
X91618500Y-124013600D01*
X91618500Y-124013600D02*
X93733700Y-121898400D01*
X69794200Y-126154500D02*
X73344900Y-126154500D01*
%TO.N,Volca_step_4*%
X123649700Y-90264600D02*
X123649700Y-90910200D01*
X124369800Y-89454400D02*
X123455900Y-90070800D01*
X123649700Y-90910200D02*
X122239100Y-92320800D01*
X122239100Y-92320800D02*
X119715700Y-92320800D01*
X123455900Y-90070800D02*
X123649700Y-90264600D01*
%TO.N,2_4*%
X122628800Y-90628800D02*
X122046200Y-89765000D01*
X122046200Y-89765000D02*
X121881800Y-89929400D01*
X121881800Y-89929400D02*
X119671800Y-89929400D01*
X95703100Y-126432600D02*
X95703100Y-127435200D01*
X88865100Y-125131300D02*
X75264300Y-125131300D01*
X75264300Y-125131300D02*
X70607800Y-120474800D01*
X97358600Y-125708400D02*
X96427300Y-125708400D01*
X95703100Y-127435200D02*
X97142900Y-128875000D01*
X97142900Y-128875000D02*
X97381300Y-128875000D01*
X96427300Y-125708400D02*
X95703100Y-126432600D01*
%TO.N,Volca_step_5*%
X124292800Y-92621100D02*
X121901000Y-95012900D01*
X121901000Y-95012900D02*
X121901000Y-95441800D01*
X124948100Y-92621100D02*
X124292800Y-92621100D01*
X126324300Y-92467000D02*
X125410400Y-93083400D01*
X125410400Y-93083400D02*
X124948100Y-92621100D01*
%TO.N,2_5*%
X126255200Y-93894000D02*
X127341100Y-92808100D01*
X102386400Y-126312300D02*
X102990300Y-125708400D01*
X78702900Y-123937700D02*
X87626600Y-123937700D01*
X125165900Y-94505100D02*
X125777000Y-93894000D01*
X70062200Y-115297000D02*
X78702900Y-123937700D01*
X124583300Y-93641400D02*
X125165900Y-94505100D01*
X102990300Y-125708400D02*
X104283600Y-125708400D01*
X127341100Y-92006000D02*
X125493600Y-90158500D01*
X125777000Y-93894000D02*
X126255200Y-93894000D01*
X125493600Y-90158500D02*
X125386300Y-90158500D01*
X127341100Y-92808100D02*
X127341100Y-92006000D01*
%TO.N,Volca_step_6*%
X126251200Y-98562700D02*
X124086300Y-98562700D01*
X128689400Y-95357400D02*
X127775500Y-95973800D01*
X127975200Y-96173500D02*
X127975200Y-96838700D01*
X127775500Y-95973800D02*
X127975200Y-96173500D01*
X127975200Y-96838700D02*
X126251200Y-98562700D01*
%TO.N,2_6*%
X76368200Y-120525100D02*
X76368200Y-117562900D01*
X85942100Y-122415400D02*
X78258500Y-122415400D01*
X97361000Y-116878600D02*
X91478900Y-116878600D01*
X126948400Y-96531800D02*
X126850600Y-96434000D01*
X76368200Y-117562900D02*
X70326600Y-111521300D01*
X123562000Y-96434000D02*
X122448400Y-97547600D01*
X91478900Y-116878600D02*
X85942100Y-122415400D01*
X78258500Y-122415400D02*
X76368200Y-120525100D01*
X97358600Y-116881000D02*
X97361000Y-116878600D01*
X122448400Y-97547600D02*
X100807900Y-97547600D01*
X126850600Y-96434000D02*
X123562000Y-96434000D01*
X97358600Y-118088400D02*
X97358600Y-116881000D01*
%TO.N,Volca_step_7*%
X128806500Y-98440400D02*
X128024700Y-99222200D01*
X130829900Y-98286300D02*
X129916000Y-98902700D01*
X129916000Y-98902700D02*
X129453700Y-98440400D01*
X126271700Y-101683700D02*
X128358200Y-100222700D01*
X129453700Y-98440400D02*
X128806500Y-98440400D01*
X128024700Y-99889200D02*
X128358200Y-100222700D01*
X128024700Y-99222200D02*
X128024700Y-99889200D01*
%TO.N,2_7*%
X74277100Y-111496400D02*
X88539700Y-111496400D01*
X104742800Y-101541500D02*
X122009200Y-101541500D01*
X129088900Y-99460700D02*
X129671500Y-100324400D01*
X126618400Y-103855400D02*
X129146900Y-101326900D01*
X70326300Y-107545600D02*
X74277100Y-111496400D01*
X129146900Y-101326900D02*
X129146900Y-100849000D01*
X122009200Y-101541500D02*
X124323100Y-103855400D01*
X97358600Y-123168400D02*
X93936000Y-123168400D01*
X129146900Y-100849000D02*
X129671500Y-100324400D01*
X124323100Y-103855400D02*
X126618400Y-103855400D01*
X93936000Y-123168400D02*
X92653700Y-124450700D01*
%TO.N,Volca_step_8*%
X131463900Y-101619100D02*
X130827800Y-101619100D01*
X131926200Y-102081400D02*
X131463900Y-101619100D01*
X128457000Y-103989900D02*
X128457000Y-104804700D01*
X130827800Y-101619100D02*
X128457000Y-103989900D01*
X132840100Y-101465000D02*
X131926200Y-102081400D01*
%TO.N,2_8*%
X119370300Y-110043300D02*
X126728900Y-110043300D01*
X76369300Y-109971300D02*
X85367000Y-109971300D01*
X131177800Y-110043300D02*
X132533200Y-108687900D01*
X128072600Y-110043300D02*
X131177800Y-110043300D01*
X126728900Y-110043300D02*
X126972000Y-110286400D01*
X99935200Y-131325800D02*
X98330600Y-131325800D01*
X131681800Y-103503000D02*
X131681700Y-103503100D01*
X131099100Y-102639400D02*
X131681700Y-103503100D01*
X132291100Y-103831400D02*
X131962700Y-103503000D01*
X118845400Y-109518400D02*
X119370300Y-110043300D01*
X127829500Y-110286400D02*
X128072600Y-110043300D01*
X135991900Y-105672700D02*
X135991900Y-104538700D01*
X93957100Y-126952200D02*
X96470900Y-124438400D01*
X131962700Y-103503000D02*
X131681800Y-103503000D01*
X92945600Y-127963700D02*
X93957100Y-126952200D01*
X132976700Y-108687900D02*
X135991900Y-105672700D01*
X98330600Y-131325800D02*
X93957100Y-126952200D01*
X126972000Y-110286400D02*
X127829500Y-110286400D01*
X85971900Y-127963700D02*
X92945600Y-127963700D01*
X70236600Y-103838600D02*
X76369300Y-109971300D01*
X135991900Y-104538700D02*
X135284600Y-103831400D01*
X132533200Y-108687900D02*
X132976700Y-108687900D01*
X135284600Y-103831400D02*
X132291100Y-103831400D01*
X96470900Y-124438400D02*
X97358600Y-124438400D01*
%TO.N,Volca_step_9*%
X132702000Y-107862000D02*
X132470100Y-107862000D01*
X134019900Y-105497300D02*
X134216300Y-105693700D01*
X132406400Y-107925700D02*
X130642300Y-107925700D01*
X134216300Y-105693700D02*
X134216300Y-106347700D01*
X134216300Y-106347700D02*
X132702000Y-107862000D01*
X134933800Y-104880900D02*
X134019900Y-105497300D01*
X132470100Y-107862000D02*
X132406400Y-107925700D01*
%TO.N,2_9*%
X125350400Y-106927800D02*
X122911100Y-104488500D01*
X102595600Y-101808700D02*
X102406300Y-101619400D01*
X121833300Y-104488500D02*
X120661500Y-103316700D01*
X133192800Y-106055300D02*
X132610200Y-105191500D01*
X104852600Y-102724000D02*
X104705200Y-102576600D01*
X131983700Y-105818000D02*
X130096800Y-105818000D01*
X103546200Y-101808700D02*
X102595600Y-101808700D01*
X94910700Y-101611600D02*
X94756500Y-101611600D01*
X119583700Y-103316700D02*
X118991000Y-102724000D01*
X70920300Y-98106000D02*
X83742000Y-98106000D01*
X85928600Y-97768400D02*
X84079600Y-97768400D01*
X128987000Y-106927800D02*
X125350400Y-106927800D01*
X132610200Y-105191500D02*
X131983700Y-105818000D01*
X118991000Y-102724000D02*
X104852600Y-102724000D01*
X70501600Y-98524700D02*
X70920300Y-98106000D01*
X102406300Y-101619400D02*
X94918500Y-101619400D01*
X104314100Y-102576600D02*
X103546200Y-101808700D01*
X84079600Y-97768400D02*
X83742000Y-98106000D01*
X122911100Y-104488500D02*
X121833300Y-104488500D01*
X120661500Y-103316700D02*
X119583700Y-103316700D01*
X94918500Y-101619400D02*
X94910700Y-101611600D01*
X104705200Y-102576600D02*
X104314100Y-102576600D01*
X130096800Y-105818000D02*
X128987000Y-106927800D01*
%TO.N,Volca_step_10*%
X137342700Y-108157900D02*
X136428800Y-108774300D01*
X135966500Y-108312000D02*
X135267000Y-108312000D01*
X132827600Y-110751400D02*
X132827600Y-111046600D01*
X136428800Y-108774300D02*
X135966500Y-108312000D01*
X135267000Y-108312000D02*
X132827600Y-110751400D01*
%TO.N,2_10*%
X127400700Y-109251300D02*
X121441900Y-109251300D01*
X70512800Y-94090500D02*
X69896100Y-94707200D01*
X135601700Y-109332300D02*
X136184300Y-110196000D01*
X85928600Y-100308400D02*
X85017500Y-100308400D01*
X116518600Y-104328000D02*
X94793500Y-104328000D01*
X136455500Y-110195900D02*
X136184400Y-110195900D01*
X85017500Y-100308400D02*
X84641600Y-100684300D01*
X81975000Y-94090500D02*
X70512800Y-94090500D01*
X84641600Y-100684300D02*
X83948600Y-100684300D01*
X121441900Y-109251300D02*
X116518600Y-104328000D01*
X136184400Y-110195900D02*
X136184300Y-110196000D01*
%TO.N,Volca_step_11*%
X138725600Y-112613800D02*
X137171800Y-114167600D01*
X138530200Y-111767600D02*
X138725600Y-111963000D01*
X139444100Y-111151200D02*
X138530200Y-111767600D01*
X138725600Y-111963000D02*
X138725600Y-112613800D01*
X137171800Y-114167600D02*
X135013000Y-114167600D01*
%TO.N,2_11*%
X134353200Y-112027000D02*
X133223700Y-113156500D01*
X131323300Y-113156500D02*
X129344100Y-111177300D01*
X84005300Y-104118400D02*
X83454200Y-103567300D01*
X137703100Y-112325600D02*
X137120500Y-111461800D01*
X70299500Y-91096700D02*
X70792300Y-90603900D01*
X137120500Y-111461800D02*
X136555300Y-112027000D01*
X114370100Y-107585000D02*
X118739300Y-111954200D01*
X118739300Y-111954200D02*
X123683200Y-111954200D01*
X70792300Y-90603900D02*
X77978100Y-90603900D01*
X85928600Y-104118400D02*
X84005300Y-104118400D01*
X133223700Y-113156500D02*
X131323300Y-113156500D01*
X123683200Y-111954200D02*
X126125200Y-114396200D01*
X91143700Y-107585000D02*
X114370100Y-107585000D01*
X136555300Y-112027000D02*
X134353200Y-112027000D01*
%TO.N,Volca_step_12*%
X138962400Y-117288600D02*
X137198300Y-117288600D01*
X138998600Y-117252400D02*
X138962400Y-117288600D01*
X140755700Y-115009100D02*
X140755700Y-115653600D01*
X141476100Y-114199200D02*
X140562200Y-114815600D01*
X140562200Y-114815600D02*
X140755700Y-115009100D01*
X139156900Y-117252400D02*
X138998600Y-117252400D01*
X140755700Y-115653600D02*
X139156900Y-117252400D01*
%TO.N,2_12*%
X92853600Y-104118400D02*
X92024700Y-104118400D01*
X91785300Y-106456600D02*
X95872300Y-106456600D01*
X139735100Y-115373600D02*
X139152500Y-114509800D01*
X139152400Y-114509900D02*
X138320900Y-114509900D01*
X95872300Y-106456600D02*
X114319500Y-106456600D01*
X114319500Y-106456600D02*
X119055000Y-111192100D01*
X89046200Y-90603900D02*
X85396500Y-86954200D01*
X91213100Y-105884400D02*
X91785300Y-106456600D01*
X139152500Y-114509800D02*
X139152400Y-114509900D01*
X92024700Y-104118400D02*
X91213100Y-104930000D01*
X85396500Y-86954200D02*
X70002300Y-86954200D01*
X126989000Y-111192100D02*
X133723100Y-117926200D01*
X119055000Y-111192100D02*
X126989000Y-111192100D01*
X91213100Y-104930000D02*
X91213100Y-105884400D01*
%TO.N,Volca_step_13*%
X142848200Y-118117600D02*
X142385900Y-117655300D01*
X139383600Y-119931800D02*
X139383600Y-120409500D01*
X143762100Y-117501200D02*
X142848200Y-118117600D01*
X141660100Y-117655300D02*
X139383600Y-119931800D01*
X142385900Y-117655300D02*
X141660100Y-117655300D01*
%TO.N,2_13*%
X95381300Y-109719400D02*
X95828100Y-110166200D01*
X122485800Y-117856400D02*
X123563600Y-117856400D01*
X142021100Y-120121900D02*
X142603700Y-119539300D01*
X93591000Y-109437700D02*
X93872700Y-109719400D01*
X93872700Y-109719400D02*
X95381300Y-109719400D01*
X123563600Y-117856400D02*
X128222500Y-122515300D01*
X95828100Y-110166200D02*
X113717900Y-110166200D01*
X139756300Y-122515300D02*
X142021100Y-120250500D01*
X72918500Y-95706000D02*
X85136200Y-95706000D01*
X142021100Y-120250500D02*
X142021100Y-120121900D01*
X116360000Y-112808300D02*
X117437700Y-112808300D01*
X128222500Y-122515300D02*
X139756300Y-122515300D01*
X113717900Y-110166200D02*
X116360000Y-112808300D01*
X70266400Y-81213200D02*
X71660600Y-79819000D01*
X71660600Y-79819000D02*
X72918500Y-79819000D01*
X85136200Y-95706000D02*
X85928600Y-96498400D01*
X92545000Y-109437700D02*
X93591000Y-109437700D01*
X142021100Y-118675600D02*
X142603700Y-119539300D01*
X117437700Y-112808300D02*
X122485800Y-117856400D01*
%TO.N,Volca_step_14*%
X143850800Y-123530500D02*
X141568900Y-123530500D01*
X145083100Y-122298200D02*
X143850800Y-123530500D01*
X144880200Y-121419600D02*
X145083100Y-121622500D01*
X145794100Y-120803200D02*
X144880200Y-121419600D01*
X145083100Y-121622500D02*
X145083100Y-122298200D01*
%TO.N,2_14*%
X82112100Y-103936900D02*
X82112000Y-103936900D01*
X116044300Y-113570400D02*
X117122000Y-113570400D01*
X82112100Y-103445600D02*
X82112100Y-103936900D01*
X84856900Y-101578400D02*
X83903100Y-102532200D01*
X145399000Y-119809700D02*
X144053100Y-121155600D01*
X146862500Y-120440200D02*
X146232000Y-119809700D01*
X85928600Y-101578400D02*
X84856900Y-101578400D01*
X146232000Y-119809700D02*
X145399000Y-119809700D01*
X91269400Y-112219400D02*
X114693300Y-112219400D01*
X146862500Y-121618000D02*
X146862500Y-120440200D01*
X83903100Y-102532200D02*
X83025500Y-102532200D01*
X142001900Y-125651900D02*
X143361100Y-124292700D01*
X117122000Y-113570400D02*
X129203500Y-125651900D01*
X114693300Y-112219400D02*
X116044300Y-113570400D01*
X70347900Y-76616400D02*
X74184300Y-76616400D01*
X143361100Y-124292700D02*
X144187800Y-124292700D01*
X144187800Y-124292700D02*
X146862500Y-121618000D01*
X129203500Y-125651900D02*
X142001900Y-125651900D01*
X83025500Y-102532200D02*
X82112100Y-103445600D01*
X144053100Y-121155600D02*
X144053100Y-121977600D01*
%TO.N,Volca_step_15*%
X148080100Y-123851200D02*
X147166200Y-124467600D01*
X147166200Y-124467600D02*
X147366500Y-124667900D01*
X147366500Y-124667900D02*
X147366500Y-125334900D01*
X146643400Y-126058000D02*
X144347800Y-126058000D01*
X144347800Y-126058000D02*
X143754300Y-126651500D01*
X147366500Y-125334900D02*
X146643400Y-126058000D01*
%TO.N,2_15*%
X96143800Y-109404100D02*
X114033600Y-109404100D01*
X114033600Y-109404100D02*
X116675600Y-112046100D01*
X118423600Y-112716300D02*
X121375200Y-112716300D01*
X117753400Y-112046100D02*
X118423600Y-112716300D01*
X139089200Y-118050800D02*
X139532700Y-118050800D01*
X137701400Y-119438600D02*
X139089200Y-118050800D01*
X139532700Y-118050800D02*
X141075700Y-116507800D01*
X88764200Y-104823600D02*
X86789000Y-102848400D01*
X69876500Y-71757900D02*
X75429800Y-71757900D01*
X95381700Y-108642000D02*
X96143800Y-109404100D01*
X146339100Y-125025600D02*
X145756500Y-124161800D01*
X147646100Y-122272200D02*
X145756500Y-124161800D01*
X116675600Y-112046100D02*
X117753400Y-112046100D01*
X121375200Y-112716300D02*
X128097500Y-119438600D01*
X94475100Y-108642000D02*
X95381700Y-108642000D01*
X144146600Y-116507800D02*
X147646100Y-120007300D01*
X86789000Y-102848400D02*
X85928600Y-102848400D01*
X141075700Y-116507800D02*
X144146600Y-116507800D01*
X128097500Y-119438600D02*
X137701400Y-119438600D01*
X147646100Y-120007300D02*
X147646100Y-122272200D01*
%TO.N,Volca_step_16*%
X148271600Y-129772400D02*
X145939600Y-129772400D01*
X150366100Y-126899200D02*
X149452200Y-127515600D01*
X149654100Y-128389900D02*
X148271600Y-129772400D01*
X149452200Y-127515600D02*
X149654100Y-127717500D01*
X149654100Y-127717500D02*
X149654100Y-128389900D01*
%TO.N,2_16*%
X97977400Y-113038700D02*
X114434800Y-113038700D01*
X92853600Y-105388400D02*
X100302300Y-105388400D01*
X148042500Y-127209800D02*
X147892900Y-127359400D01*
X114434800Y-113038700D02*
X115728600Y-114332500D01*
X115728600Y-114332500D02*
X116806300Y-114332500D01*
X147892900Y-127359400D02*
X145948100Y-127359400D01*
X116806300Y-114332500D02*
X132632500Y-130158700D01*
X69105200Y-66830000D02*
X102146100Y-66830000D01*
X132632500Y-130158700D02*
X143089100Y-130158700D01*
X148625100Y-128073600D02*
X148042500Y-127209800D01*
X97751500Y-113264600D02*
X97977400Y-113038700D01*
%TO.N,LED_BIN_1*%
X201089100Y-113123300D02*
X199528400Y-111562600D01*
X203032600Y-113123300D02*
X201089100Y-113123300D01*
%TO.N,LED_BIN_2*%
X199065800Y-115578600D02*
X198640700Y-115153500D01*
X198640700Y-115153500D02*
X198240400Y-115153500D01*
X201543900Y-116630400D02*
X199065800Y-115578600D01*
%TO.N,LED_BIN_3*%
X197162400Y-118670900D02*
X196776300Y-118670900D01*
X200055200Y-120137500D02*
X197577200Y-119085700D01*
X197577200Y-119085700D02*
X197162400Y-118670900D01*
%TO.N,LED_BIN_4*%
X195683800Y-122188300D02*
X195312100Y-122188300D01*
X196088400Y-122592900D02*
X195683800Y-122188300D01*
X198566500Y-123644700D02*
X196088400Y-122592900D01*
%TO.N,LED_BIN_5*%
X197077900Y-127151800D02*
X194599700Y-126100000D01*
X194599700Y-126100000D02*
X194205500Y-125705800D01*
X194205500Y-125705800D02*
X193848000Y-125705800D01*
%TO.N,LED_BIN_6*%
X195589200Y-130658900D02*
X193111000Y-129607100D01*
X193111000Y-129607100D02*
X192653600Y-129149700D01*
X192653600Y-129149700D02*
X192207500Y-129149700D01*
%TO.N,LED_BIN_7*%
X191622400Y-133114200D02*
X191175400Y-132667200D01*
X191175400Y-132667200D02*
X190743300Y-132667200D01*
X194100500Y-134166000D02*
X191622400Y-133114200D01*
%TO.N,LED_BIN_8*%
X189770300Y-136258000D02*
X189455500Y-136258000D01*
X192611800Y-137673200D02*
X190133700Y-136621400D01*
X190133700Y-136621400D02*
X189770300Y-136258000D01*
%TO.N,LED_BIN_9*%
X188645000Y-140128500D02*
X188291900Y-139775400D01*
X188291900Y-139775400D02*
X187991300Y-139775400D01*
X191123100Y-141180300D02*
X188645000Y-140128500D01*
%TO.N,LED_BIN_10*%
X189634400Y-144687400D02*
X187156300Y-143635600D01*
X186813600Y-143292900D02*
X186527200Y-143292900D01*
X187156300Y-143635600D02*
X186813600Y-143292900D01*
%TO.N,LED_BIN_11*%
X185667700Y-147142700D02*
X185335300Y-146810300D01*
X185335300Y-146810300D02*
X185063000Y-146810300D01*
X188145700Y-148194500D02*
X185667700Y-147142700D01*
%TO.N,LED_BIN_12*%
X186657100Y-151701700D02*
X184178900Y-150649900D01*
X184178900Y-150649900D02*
X183955000Y-150649900D01*
X183955000Y-150649900D02*
X183657000Y-150351900D01*
%TO.N,LED1_1*%
X113529700Y-44610500D02*
X114378700Y-44610500D01*
X114378700Y-44610500D02*
X115161400Y-45393200D01*
X115161400Y-45393200D02*
X115161400Y-46806400D01*
X115161400Y-46806400D02*
X114482500Y-47485300D01*
X111603200Y-46537000D02*
X113529700Y-44610500D01*
%TO.N,LED1_2*%
X99182000Y-51599800D02*
X99315200Y-51599800D01*
X99315200Y-51599800D02*
X100334600Y-50580400D01*
%TO.N,LED1_3*%
X102787900Y-56348300D02*
X103569300Y-55566900D01*
X103569300Y-55566900D02*
X103569300Y-54841600D01*
X100771800Y-58364400D02*
X102787900Y-56845100D01*
X102787900Y-56845100D02*
X102787900Y-56348300D01*
%TO.N,LED1_4*%
X105080800Y-59887900D02*
X105080800Y-58115100D01*
X105080800Y-58115100D02*
X105643900Y-57552000D01*
X103064700Y-61407200D02*
X105080800Y-59887900D01*
%TO.N,LED1_5*%
X105357700Y-64450000D02*
X107373800Y-62930800D01*
X107373800Y-62930800D02*
X109291200Y-62930800D01*
X109291200Y-62930800D02*
X109363500Y-62858500D01*
%TO.N,LED1_6*%
X109666700Y-65973500D02*
X110251000Y-66557800D01*
X107650600Y-67492800D02*
X109666700Y-65973500D01*
X110251000Y-66557800D02*
X112471800Y-66557800D01*
%TO.N,LED1_7*%
X109943500Y-70535600D02*
X111959600Y-69016300D01*
X113346200Y-70402900D02*
X115338500Y-70402900D01*
X111959600Y-69016300D02*
X113346200Y-70402900D01*
%TO.N,LED1_8*%
X122012700Y-62830100D02*
X122054300Y-62830100D01*
X122054300Y-62830100D02*
X123571100Y-61313300D01*
D99*
%TO.N,+3V3*%
X107568500Y-178297800D02*
X104291800Y-175021100D01*
X147789600Y-175607900D02*
X147789600Y-172918800D01*
X142074600Y-174034600D02*
X142074600Y-177231500D01*
X142074600Y-177231500D02*
X141008300Y-178297800D01*
X147789600Y-172918800D02*
X143190400Y-172918800D01*
X141008300Y-178297800D02*
X107568500Y-178297800D01*
X143190400Y-172918800D02*
X142074600Y-174034600D01*
D100*
%TO.N,BD_vol*%
X118637100Y-151640300D02*
X140169600Y-173172800D01*
X140169600Y-175607900D02*
X140169600Y-173172800D01*
X114216400Y-151640300D02*
X118637100Y-151640300D01*
%TO.N,SD_vol*%
X113223900Y-153978400D02*
X117165200Y-153978400D01*
X117165200Y-153978400D02*
X136359600Y-173172800D01*
X136359600Y-175607900D02*
X136359600Y-173172800D01*
%TO.N,HH_vol*%
X112231400Y-156316500D02*
X115693300Y-156316500D01*
X115693300Y-156316500D02*
X132549600Y-173172800D01*
X132549600Y-175607900D02*
X132549600Y-173172800D01*
%TO.N,TT_vol*%
X114221400Y-158654600D02*
X128739600Y-173172800D01*
X111239000Y-158654600D02*
X114221400Y-158654600D01*
X128739600Y-175607900D02*
X128739600Y-173172800D01*
%TO.N,synth_vol*%
X124929600Y-175607900D02*
X124929600Y-173172800D01*
X122426700Y-173172800D02*
X110246500Y-160992600D01*
X124929600Y-173172800D02*
X122426700Y-173172800D01*
%TO.N,big_button_sound_vol*%
X121119600Y-175607900D02*
X121119600Y-173172800D01*
X119096200Y-173172800D02*
X109254100Y-163330700D01*
X121119600Y-173172800D02*
X119096200Y-173172800D01*
%TO.N,LED2_1*%
X59718100Y-130352400D02*
X59718100Y-131726400D01*
X59718100Y-131726400D02*
X62874000Y-134882300D01*
%TO.N,LED2_2*%
X62153200Y-128534100D02*
X63068700Y-129449600D01*
X62153200Y-126542400D02*
X62153200Y-128534100D01*
X59718100Y-126542400D02*
X62153200Y-126542400D01*
%TO.N,LED2_3*%
X62153200Y-124135000D02*
X63152200Y-125134000D01*
X59718100Y-122732400D02*
X62153200Y-122732400D01*
X62153200Y-122732400D02*
X62153200Y-124135000D01*
%TO.N,LED2_4*%
X59718100Y-118922400D02*
X62153200Y-118922400D01*
X62153200Y-118922400D02*
X62153200Y-119453100D01*
X62153200Y-119453100D02*
X63519000Y-120818900D01*
%TO.N,LED2_5*%
X60914200Y-116308500D02*
X62997500Y-116308500D01*
X59718100Y-115112400D02*
X60914200Y-116308500D01*
%TO.N,LED2_6*%
X59718100Y-111302400D02*
X62153200Y-111302400D01*
X62153200Y-111479600D02*
X63256700Y-112583100D01*
X62153200Y-111302400D02*
X62153200Y-111479600D01*
%TO.N,LED2_7*%
X60778600Y-108552900D02*
X63211100Y-108552900D01*
X59718100Y-107492400D02*
X60778600Y-108552900D01*
%TO.N,LED2_8*%
X59718100Y-103682400D02*
X60856700Y-104821000D01*
X60856700Y-104821000D02*
X63122800Y-104821000D01*
%TO.N,LED2_9*%
X59718100Y-99872400D02*
X62153200Y-99872400D01*
X63127700Y-100846900D02*
X63729100Y-100846900D01*
X62153200Y-99872400D02*
X63127700Y-100846900D01*
%TO.N,LED2_10*%
X61053600Y-97397900D02*
X63307700Y-97397900D01*
X59718100Y-96062400D02*
X61053600Y-97397900D01*
%TO.N,LED2_11*%
X62153200Y-92252400D02*
X63201000Y-93300200D01*
X59718100Y-92252400D02*
X62153200Y-92252400D01*
X63201000Y-93300200D02*
X63464600Y-93300200D01*
%TO.N,LED2_12*%
X60527900Y-89252200D02*
X63226100Y-89252200D01*
X59718100Y-88442400D02*
X60527900Y-89252200D01*
%TO.N,LED2_13*%
X59718100Y-84632400D02*
X63173400Y-84632400D01*
X63173400Y-84632400D02*
X63647800Y-84158000D01*
%TO.N,LED2_14*%
X62506800Y-80822400D02*
X63547000Y-79782200D01*
X59718100Y-80822400D02*
X62506800Y-80822400D01*
%TO.N,LED2_15*%
X62153200Y-76647200D02*
X63603100Y-75197300D01*
X59718100Y-77012400D02*
X62153200Y-77012400D01*
X62153200Y-77012400D02*
X62153200Y-76647200D01*
%TO.N,LED2_16*%
X62761100Y-70159400D02*
X62772800Y-70159400D01*
X59718100Y-73202400D02*
X62761100Y-70159400D01*
%TO.N,volca_audio*%
X75217400Y-150602300D02*
X75731400Y-150602300D01*
X75217400Y-150602200D02*
X75217400Y-150602300D01*
X81398400Y-142780700D02*
X80762300Y-142144600D01*
X73495400Y-152324200D02*
X75217400Y-150602200D01*
X75731400Y-150602300D02*
X81398400Y-144935300D01*
X81398400Y-144935300D02*
X81398400Y-142780700D01*
%TO.N,volca_audio_gated*%
X76164500Y-149038000D02*
X80505400Y-144697100D01*
X80505400Y-144697100D02*
X80505400Y-143683800D01*
X73653000Y-149038000D02*
X76164500Y-149038000D01*
X70801400Y-149630200D02*
X72523300Y-147908300D01*
X72523300Y-147908300D02*
X73653000Y-149038000D01*
X80505400Y-143683800D02*
X79864300Y-143042700D01*
%TO.N,BINARY_1*%
X198009600Y-110917800D02*
X200349900Y-108577500D01*
X196419200Y-112508200D02*
X198009600Y-110917800D01*
X200349900Y-108577500D02*
X200349900Y-102720400D01*
X200349900Y-102720400D02*
X199116800Y-101487300D01*
X192046300Y-101487300D02*
X181162900Y-90603900D01*
X188712600Y-112508200D02*
X196419200Y-112508200D01*
X199116800Y-101487300D02*
X192046300Y-101487300D01*
%TO.N,BINARY_2*%
X181994000Y-110403800D02*
X184212400Y-110403800D01*
X196721600Y-114508700D02*
X188317300Y-114508700D01*
X188317300Y-114508700D02*
X184516100Y-110707500D01*
X184212400Y-110403800D02*
X184516100Y-110707500D01*
%TO.N,BINARY_3*%
X195257500Y-118026100D02*
X186126300Y-118026100D01*
X180197400Y-110016300D02*
X181070500Y-109143200D01*
X180197400Y-112097200D02*
X180197400Y-110016300D01*
X181070500Y-109143200D02*
X182148700Y-109143200D01*
X186126300Y-118026100D02*
X180197400Y-112097200D01*
X182148700Y-109143200D02*
X184770300Y-109143200D01*
X184770300Y-109143200D02*
X184803000Y-109175900D01*
%TO.N,BINARY_4*%
X179429600Y-109686000D02*
X181232900Y-107882700D01*
X184804800Y-81096300D02*
X184804800Y-77871200D01*
X190777000Y-71899000D02*
X190777000Y-70305100D01*
X188485900Y-121543500D02*
X179429600Y-112487200D01*
X193282900Y-69393100D02*
X190777000Y-70305100D01*
X193793300Y-121543500D02*
X188485900Y-121543500D01*
X184804800Y-77871200D02*
X190777000Y-71899000D01*
X182303500Y-107882700D02*
X184224200Y-107882700D01*
X179429600Y-112487200D02*
X179429600Y-109686000D01*
X181232900Y-107882700D02*
X182303500Y-107882700D01*
%TO.N,BINARY_5*%
X181545200Y-105361600D02*
X178627300Y-108279500D01*
X182613100Y-105361600D02*
X181545200Y-105361600D01*
X178627300Y-108279500D02*
X178627300Y-112824700D01*
X182613100Y-105361600D02*
X184454300Y-105361600D01*
X184454300Y-105361600D02*
X184587600Y-105494900D01*
X190863600Y-125061000D02*
X192329200Y-125061000D01*
X178627300Y-112824700D02*
X190863600Y-125061000D01*
%TO.N,BINARY_6*%
X182767800Y-104101100D02*
X185043800Y-104101100D01*
X177859900Y-115676100D02*
X177859900Y-107916400D01*
X177859900Y-107916400D02*
X181675200Y-104101100D01*
X190688700Y-128504900D02*
X177859900Y-115676100D01*
X181675200Y-104101100D02*
X182767800Y-104101100D01*
X185043800Y-104101100D02*
X185199400Y-104256700D01*
%TO.N,BINARY_7*%
X189224500Y-132022400D02*
X189224500Y-131348200D01*
X189224500Y-131348200D02*
X187912400Y-130036100D01*
X182458300Y-106622200D02*
X185706600Y-106622200D01*
%TO.N,BINARY_8*%
X188728800Y-107466100D02*
X187734000Y-106471300D01*
X185734500Y-133411000D02*
X185734500Y-133277500D01*
X187936700Y-135613200D02*
X185734500Y-133411000D01*
X189331700Y-107466100D02*
X188728800Y-107466100D01*
X187734000Y-106471300D02*
X187734000Y-104351500D01*
%TO.N,BINARY_9*%
X186472500Y-139130600D02*
X185692000Y-139911100D01*
X185692000Y-139911100D02*
X185106000Y-139911100D01*
X189176900Y-108726600D02*
X192810600Y-108726600D01*
%TO.N,BINARY_10*%
X193562000Y-106205600D02*
X194020200Y-106663800D01*
X185008400Y-142648100D02*
X185008400Y-142583700D01*
X185008400Y-142583700D02*
X186153700Y-141438400D01*
X189486500Y-106205600D02*
X193562000Y-106205600D01*
%TO.N,BINARY_11*%
X197544300Y-104945000D02*
X189641200Y-104945000D01*
X199303100Y-103186200D02*
X197544300Y-104945000D01*
X185884000Y-137669300D02*
X187744200Y-137669300D01*
X183544200Y-146165500D02*
X183544200Y-140009100D01*
X183544200Y-140009100D02*
X185884000Y-137669300D01*
%TO.N,BINARY_12*%
X182138200Y-129001000D02*
X177097800Y-123960600D01*
X177097800Y-107575800D02*
X181833000Y-102840600D01*
X181833000Y-102840600D02*
X182922600Y-102840600D01*
X188341200Y-129001000D02*
X182138200Y-129001000D01*
X192871700Y-130990300D02*
X190330500Y-130990300D01*
X182138200Y-129001000D02*
X182138200Y-149707100D01*
X177097800Y-123960600D02*
X177097800Y-107575800D01*
X190330500Y-130990300D02*
X188341200Y-129001000D01*
%TO.N,selected_trig*%
X168723000Y-68745000D02*
X202505000Y-102527000D01*
X205010800Y-101615100D02*
X202505000Y-102527100D01*
X81234600Y-79988400D02*
X77758200Y-79988400D01*
X121518200Y-68745000D02*
X168723000Y-68745000D01*
X113664700Y-71458400D02*
X113802600Y-71596300D01*
X86898600Y-73509000D02*
X86958400Y-73449200D01*
X202505000Y-102527000D02*
X202505000Y-102527100D01*
X113802600Y-71596300D02*
X118666900Y-71596300D01*
X111688500Y-71458400D02*
X113664700Y-71458400D01*
X118666900Y-71596300D02*
X121518200Y-68745000D01*
X109697700Y-73449200D02*
X111688500Y-71458400D01*
X86958400Y-73449200D02*
X109697700Y-73449200D01*
X77818000Y-73509000D02*
X86898600Y-73509000D01*
%TO.N,volca_gate_control*%
X86004000Y-149182400D02*
X86004000Y-155219200D01*
X83364400Y-146542800D02*
X86004000Y-149182400D01*
%TO.N,BD_Trig_long*%
X156755700Y-98579500D02*
X157247100Y-98579500D01*
X155662200Y-100738800D02*
X155662200Y-99673000D01*
X157916100Y-101271900D02*
X156195300Y-101271900D01*
X161498600Y-99800400D02*
X160595600Y-99800400D01*
X160595600Y-99800400D02*
X159124100Y-101271900D01*
X155662200Y-99673000D02*
X156755700Y-98579500D01*
X159124100Y-101271900D02*
X157916100Y-101271900D01*
X156195300Y-101271900D02*
X155662200Y-100738800D01*
X157916100Y-101481500D02*
X157916100Y-101271900D01*
%TO.N,SD_trig_long*%
X156566100Y-105290500D02*
X156976200Y-104880400D01*
X161498600Y-104880400D02*
X163410400Y-104880400D01*
X156976200Y-104880400D02*
X161498600Y-104880400D01*
%TO.N,HH_Trig_long*%
X166737400Y-105169200D02*
X170445000Y-105169200D01*
X170445000Y-105169200D02*
X170790100Y-105514300D01*
X166448600Y-104880400D02*
X166737400Y-105169200D01*
X170790100Y-106718000D02*
X170508100Y-107000000D01*
X170790100Y-105514300D02*
X170790100Y-106718000D01*
%TO.N,TT_Trig_long*%
X170576100Y-99345800D02*
X170121500Y-99800400D01*
X170576100Y-99345800D02*
X170576100Y-99052500D01*
X170121500Y-99800400D02*
X166448600Y-99800400D01*
X170576100Y-99345800D02*
X173903700Y-99345800D01*
%TO.N,Net-(Q2-Pad3)*%
X106636900Y-58148800D02*
X106636900Y-58869800D01*
X107837600Y-56948100D02*
X106636900Y-58148800D01*
%TO.N,Net-(Q3-Pad3)*%
X102576300Y-53523800D02*
X103180900Y-52919200D01*
X103180900Y-52919200D02*
X104737400Y-52919200D01*
%TO.N,Net-(Q4-Pad3)*%
X108347700Y-61558300D02*
X109908200Y-61558300D01*
X109908200Y-61558300D02*
X110592200Y-60874300D01*
%TO.N,Net-(Q5-Pad3)*%
X111478800Y-65240000D02*
X113187600Y-65240000D01*
X113187600Y-65240000D02*
X113748400Y-64679200D01*
%TO.N,Net-(Q6-Pad3)*%
X113829300Y-46621700D02*
X113829300Y-45877600D01*
X112596200Y-47854800D02*
X113829300Y-46621700D01*
%TO.N,Net-(Q7-Pad3)*%
X123616800Y-59995500D02*
X123768800Y-60147500D01*
X122578100Y-59995500D02*
X123616800Y-59995500D01*
X124871000Y-59317000D02*
X123768800Y-60147500D01*
%TO.N,Net-(Q8-Pad3)*%
X63534300Y-78464700D02*
X63232200Y-78162600D01*
X65481000Y-78464700D02*
X63534300Y-78464700D01*
%TO.N,Net-(Q9-Pad3)*%
X65388900Y-73788400D02*
X63361000Y-73788400D01*
X63361000Y-73788400D02*
X63176100Y-73603500D01*
%TO.N,Net-(Q10-Pad3)*%
X62373600Y-68558400D02*
X64294300Y-68558400D01*
X64294300Y-68558400D02*
X64674800Y-68938900D01*
%TO.N,Net-(Q11-Pad3)*%
X63837300Y-88145500D02*
X63619400Y-88145500D01*
X63619400Y-88145500D02*
X63082300Y-87608400D01*
X63953100Y-88261400D02*
X63953100Y-88261300D01*
X63953100Y-88261300D02*
X63837300Y-88145500D01*
X65277100Y-88145500D02*
X63953100Y-88261400D01*
%TO.N,Net-(Q12-Pad3)*%
X65669200Y-82927900D02*
X63789100Y-82927900D01*
X63789100Y-82927900D02*
X63389600Y-82528400D01*
%TO.N,Net-(Q13-Pad3)*%
X114322700Y-69102700D02*
X116014000Y-69102700D01*
X116014000Y-69102700D02*
X116588400Y-68528300D01*
%TO.N,Net-(Q15-Pad3)*%
X63400500Y-110939300D02*
X64150900Y-111689700D01*
X65474900Y-111899300D02*
X64150900Y-111783400D01*
X64150900Y-111689700D02*
X64150900Y-111783400D01*
%TO.N,Net-(Q16-Pad3)*%
X65262100Y-96291400D02*
X63605600Y-96291400D01*
X63605600Y-96291400D02*
X63078100Y-95763900D01*
%TO.N,Net-(Q17-Pad3)*%
X65786500Y-99814700D02*
X65174900Y-99203100D01*
X65174900Y-99203100D02*
X63585300Y-99203100D01*
%TO.N,Net-(Q18-Pad3)*%
X65201400Y-115673800D02*
X64192300Y-114664700D01*
X64192300Y-114664700D02*
X63141300Y-114664700D01*
%TO.N,Net-(Q19-Pad3)*%
X64317600Y-103177200D02*
X65326700Y-104186300D01*
X63266600Y-103177200D02*
X64317600Y-103177200D01*
%TO.N,Net-(Q20-Pad3)*%
X64200200Y-107754400D02*
X64200200Y-107811500D01*
X63354900Y-106909100D02*
X64200200Y-107754400D01*
X65524200Y-107927400D02*
X64200200Y-107811500D01*
%TO.N,Net-(Q21-Pad3)*%
X64920800Y-91656400D02*
X65577100Y-92312700D01*
X63320800Y-91656400D02*
X64920800Y-91656400D01*
%TO.N,Net-(Q22-Pad3)*%
X64557200Y-119193900D02*
X63805600Y-119193900D01*
X65740800Y-120377500D02*
X64557200Y-119193900D01*
%TO.N,Net-(Q23-Pad3)*%
X63814700Y-133257300D02*
X63160600Y-133257300D01*
X65158600Y-134601200D02*
X63814700Y-133257300D01*
%TO.N,Net-(Q24-Pad3)*%
X64284300Y-123509000D02*
X63438800Y-123509000D01*
X65421600Y-124646300D02*
X64284300Y-123509000D01*
%TO.N,clock*%
X137984000Y-110044400D02*
X167638600Y-110044400D01*
X132505300Y-131877600D02*
X159909900Y-131877600D01*
X186234600Y-103787300D02*
X186234600Y-104346200D01*
X186741800Y-109712900D02*
X188276600Y-111247700D01*
X92853600Y-99038400D02*
X121036200Y-99038400D01*
X167638600Y-111155400D02*
X159909900Y-118884100D01*
X159909900Y-118884100D02*
X159909900Y-131877600D01*
X123091900Y-101094100D02*
X123998800Y-101094100D01*
X186741800Y-104853400D02*
X186741800Y-109712900D01*
X167638600Y-110044400D02*
X167638600Y-111155400D01*
X140512100Y-46079400D02*
X138242400Y-46079400D01*
X167638600Y-111155400D02*
X172080200Y-111155400D01*
X159909900Y-131877600D02*
X159909900Y-136270400D01*
X121256100Y-120628400D02*
X132505300Y-131877600D01*
X156251100Y-139929200D02*
X159909900Y-136270400D01*
X186234600Y-104346200D02*
X186741800Y-104853400D01*
X188276600Y-111247700D02*
X188867400Y-111247700D01*
X138242400Y-46079400D02*
X137984000Y-46337800D01*
X172080200Y-111155400D02*
X181449300Y-101786300D01*
X181449300Y-101786300D02*
X184233600Y-101786300D01*
X121036200Y-99038400D02*
X123091900Y-101094100D01*
X154955700Y-139929200D02*
X156251100Y-139929200D01*
X104283600Y-120628400D02*
X121256100Y-120628400D01*
X184233600Y-101786300D02*
X186234600Y-103787300D01*
%TO.N,BD_Trig_short*%
X160403500Y-101070400D02*
X158804000Y-102669900D01*
X161498600Y-101070400D02*
X160403500Y-101070400D01*
X121133600Y-144852600D02*
X116621100Y-140340100D01*
X99960700Y-140340100D02*
X89782400Y-150518400D01*
X89782400Y-150518400D02*
X89782400Y-168585500D01*
X116621100Y-140340100D02*
X99960700Y-140340100D01*
X89782400Y-168585500D02*
X90263300Y-169066400D01*
X158804000Y-102669900D02*
X155389600Y-102669900D01*
%TO.N,SD_trig_short*%
X160211400Y-102340400D02*
X158846800Y-103705000D01*
X161498600Y-102340400D02*
X160211400Y-102340400D01*
X158846800Y-103705000D02*
X158210300Y-103705000D01*
%TO.N,HH_Trig_short*%
X166448600Y-103610400D02*
X168894100Y-103610400D01*
X91785400Y-150671100D02*
X100592100Y-141864400D01*
X168894100Y-103610400D02*
X169417800Y-104134100D01*
X91785400Y-163927400D02*
X91785400Y-150671100D01*
X109939500Y-141864400D02*
X127360900Y-159285800D01*
X92248200Y-164390200D02*
X91785400Y-163927400D01*
X100592100Y-141864400D02*
X109939500Y-141864400D01*
X127360900Y-159285800D02*
X169417800Y-159285800D01*
%TO.N,TT_Trig_short*%
X168545300Y-101981400D02*
X168186300Y-102340400D01*
X90789500Y-150589100D02*
X90789500Y-166262000D01*
X168186300Y-102340400D02*
X166448600Y-102340400D01*
X100276400Y-141102200D02*
X90789500Y-150589100D01*
X133030900Y-158213600D02*
X115919500Y-141102200D01*
X115919500Y-141102200D02*
X100276400Y-141102200D01*
X90789500Y-166262000D02*
X91255800Y-166728300D01*
X158991800Y-158213600D02*
X133030900Y-158213600D01*
%TO.N,ambient_trigger_to_teensy*%
X112875600Y-135487400D02*
X111016600Y-135487400D01*
%TO.N,Net-(Q1-Pad1)*%
X105436000Y-45636700D02*
X105371000Y-45701700D01*
X104268900Y-47644100D02*
X105371100Y-46813600D01*
X105371000Y-45701700D02*
X105371000Y-46813500D01*
X105371000Y-46813500D02*
X105371100Y-46813600D01*
%TO.N,Net-(Q2-Pad1)*%
X111570100Y-55265700D02*
X111570100Y-54117300D01*
X110501700Y-56130000D02*
X111603900Y-55299500D01*
X111603900Y-55299500D02*
X111570100Y-55265700D01*
%TO.N,Net-(Q3-Pad1)*%
X108611700Y-50890900D02*
X108611700Y-50277100D01*
X107401500Y-52101100D02*
X108503700Y-51270600D01*
X108503700Y-51270600D02*
X108503600Y-51270500D01*
X108503600Y-51270500D02*
X108503600Y-50999000D01*
X108503600Y-50999000D02*
X108611700Y-50890900D01*
%TO.N,Net-(Q4-Pad1)*%
X114456900Y-57884900D02*
X114456900Y-58794700D01*
X114315800Y-58935800D02*
X114315800Y-59170600D01*
X114456900Y-58794700D02*
X114315800Y-58935800D01*
X113241700Y-60009900D02*
X114315800Y-59170600D01*
%TO.N,Net-(Q5-Pad1)*%
X117575000Y-61823600D02*
X117514600Y-61884000D01*
X116412500Y-63861100D02*
X117514700Y-63030600D01*
X117514600Y-61884000D02*
X117514600Y-63030500D01*
X117514600Y-63030500D02*
X117514700Y-63030600D01*
%TO.N,Net-(Q6-Pad1)*%
X117653400Y-43899500D02*
X117653400Y-42976500D01*
X117595600Y-44229000D02*
X117595500Y-44228900D01*
X117595500Y-43957400D02*
X117653400Y-43899500D01*
X117595500Y-44228900D02*
X117595500Y-43957400D01*
X116493400Y-45059500D02*
X117595600Y-44229000D01*
%TO.N,Net-(Q7-Pad1)*%
X128603400Y-57634500D02*
X128603400Y-56484800D01*
X127535100Y-58498900D02*
X128637300Y-57668400D01*
X128637300Y-57668400D02*
X128603400Y-57634500D01*
%TO.N,Net-(Q8-Pad1)*%
X70027700Y-78236000D02*
X69639600Y-78624100D01*
X68234100Y-78897300D02*
X69639600Y-78624100D01*
X70662700Y-78236000D02*
X70027700Y-78236000D01*
%TO.N,Net-(Q9-Pad1)*%
X69904100Y-73351700D02*
X69616800Y-73639000D01*
X68165500Y-74027900D02*
X69616800Y-73639000D01*
X70303500Y-73351700D02*
X69904100Y-73351700D01*
%TO.N,Net-(Q10-Pad1)*%
X69067500Y-68867900D02*
X69504400Y-68431000D01*
X67446800Y-69226900D02*
X68887200Y-68867800D01*
X68887200Y-68867900D02*
X69067500Y-68867900D01*
X68887200Y-68867800D02*
X68887200Y-68867900D01*
%TO.N,Net-(Q11-Pad1)*%
X69293900Y-88747700D02*
X69996400Y-88747700D01*
X67969900Y-88863500D02*
X69293900Y-88747600D01*
X69996400Y-88747700D02*
X70146100Y-88598000D01*
X69293900Y-88747600D02*
X69293900Y-88747700D01*
%TO.N,Net-(Q12-Pad1)*%
X69785600Y-83237800D02*
X69785600Y-83237900D01*
X70180600Y-82842800D02*
X69785600Y-83237800D01*
X70524600Y-82842800D02*
X70180600Y-82842800D01*
X68405600Y-83456400D02*
X69785600Y-83237900D01*
%TO.N,Net-(Q13-Pad1)*%
X120314200Y-65645900D02*
X120314200Y-66587600D01*
X119237900Y-67663900D02*
X120312000Y-66824600D01*
X120312000Y-66589800D02*
X120312000Y-66824600D01*
X120314200Y-66587600D02*
X120312000Y-66589800D01*
%TO.N,Net-(R32-Pad1)*%
X166248700Y-77316300D02*
X168752100Y-74812900D01*
%TO.N,Net-(Q15-Pad1)*%
X69350900Y-113165100D02*
X69326100Y-113189900D01*
X70182800Y-113165100D02*
X69350900Y-113165100D01*
X68002100Y-113074100D02*
X69326100Y-113190000D01*
X69326100Y-113189900D02*
X69326100Y-113190000D01*
%TO.N,Net-(Q16-Pad1)*%
X69791400Y-96675500D02*
X70125700Y-96341200D01*
X69355500Y-96675400D02*
X69355500Y-96675500D01*
X69355500Y-96675500D02*
X69791400Y-96675500D01*
X67988900Y-96867500D02*
X69355500Y-96675400D01*
%TO.N,Net-(Q17-Pad1)*%
X70397000Y-100416900D02*
X70645400Y-100168500D01*
X69803300Y-100416800D02*
X69803300Y-100416900D01*
X69803300Y-100416900D02*
X70397000Y-100416900D01*
X68479300Y-100532700D02*
X69803300Y-100416800D01*
%TO.N,Net-(Q18-Pad1)*%
X69076200Y-116940800D02*
X69918400Y-116940800D01*
X69052600Y-116964400D02*
X69076200Y-116940800D01*
X69052600Y-116964500D02*
X69052600Y-116964400D01*
X67728600Y-116848600D02*
X69052600Y-116964500D01*
%TO.N,Net-(Q19-Pad1)*%
X69177900Y-105477000D02*
X69177900Y-105476900D01*
X70087300Y-105476900D02*
X70092800Y-105482400D01*
X69177900Y-105476900D02*
X70087300Y-105476900D01*
X67853900Y-105361100D02*
X69177900Y-105477000D01*
%TO.N,Net-(Q20-Pad1)*%
X68051400Y-109102200D02*
X69375400Y-109218100D01*
X69375400Y-109218100D02*
X69375400Y-109218000D01*
X69375400Y-109218000D02*
X69404000Y-109189400D01*
X69404000Y-109189400D02*
X70182500Y-109189400D01*
%TO.N,Net-(Q21-Pad1)*%
X69768200Y-92740500D02*
X69593900Y-92914800D01*
X68269900Y-93030700D02*
X69593900Y-92914800D01*
X70443300Y-92740500D02*
X69768200Y-92740500D01*
%TO.N,Net-(Q22-Pad1)*%
X68156000Y-121768000D02*
X69549000Y-122013600D01*
X69549000Y-122013600D02*
X69549000Y-122013500D01*
X70234900Y-122013500D02*
X70321200Y-122099800D01*
X69549000Y-122013500D02*
X70234900Y-122013500D01*
%TO.N,Net-(Q23-Pad1)*%
X67573800Y-135991700D02*
X68966800Y-136237300D01*
X68966800Y-136237300D02*
X68966800Y-136237200D01*
X69031100Y-136172900D02*
X69755100Y-136172900D01*
X68966800Y-136237200D02*
X69031100Y-136172900D01*
%TO.N,Net-(Q24-Pad1)*%
X68208700Y-126036800D02*
X67836800Y-126036800D01*
X70080800Y-124529500D02*
X69716000Y-124529500D01*
X69716000Y-124529500D02*
X68208700Y-126036800D01*
%TO.N,Net-(Q25-Pad3)*%
X65401500Y-129123900D02*
X64102200Y-127824600D01*
X64102200Y-127824600D02*
X63355300Y-127824600D01*
%TO.N,Net-(Q25-Pad1)*%
X69209700Y-130759900D02*
X69279700Y-130689900D01*
X67816700Y-130514400D02*
X69209700Y-130760000D01*
X69279700Y-130689900D02*
X69958300Y-130689900D01*
X69209700Y-130760000D02*
X69209700Y-130759900D01*
%TO.N,Net-(C3-Pad1)*%
X157764200Y-78907000D02*
X157274100Y-78416900D01*
X158277600Y-78907000D02*
X157764200Y-78907000D01*
X158750600Y-76940400D02*
X157274100Y-78416900D01*
X159909600Y-76940400D02*
X158750600Y-76940400D01*
X159403400Y-79208600D02*
X158277600Y-78907000D01*
%TO.N,Net-(C9-Pad2)*%
X109680600Y-136376400D02*
X109932600Y-136124400D01*
X112875600Y-134217400D02*
X109932600Y-134217400D01*
X109932600Y-134217400D02*
X109805600Y-134090400D01*
X109932600Y-136124400D02*
X109932600Y-134217400D01*
%TO.N,Net-(C10-Pad1)*%
X120075600Y-136757400D02*
X120075600Y-137596700D01*
X120075600Y-137596700D02*
X121334600Y-138855700D01*
%TO.N,Net-(U1-Pad15)*%
X140512100Y-44809400D02*
X139401600Y-44809400D01*
X138908400Y-45302600D02*
X136751000Y-45302600D01*
X140512100Y-52429400D02*
X136751000Y-52429400D01*
X139401600Y-44809400D02*
X138908400Y-45302600D01*
%TO.N,Net-(D38-Pad2)*%
X164515600Y-81766400D02*
X165450700Y-81766400D01*
%TO.N,Net-(D51-Pad2)*%
X162124600Y-140291600D02*
X160856300Y-139023300D01*
X160856300Y-139023300D02*
X160856300Y-137622000D01*
%TO.N,Net-(Q1-Pad3)*%
X101604800Y-48462200D02*
X100502600Y-49292700D01*
X99341600Y-49262600D02*
X100472500Y-49262600D01*
X100472500Y-49262600D02*
X100502600Y-49292700D01*
%TO.N,Net-(R32-Pad2)*%
X164779600Y-73511400D02*
X166846600Y-73511400D01*
X166846600Y-73511400D02*
X167323100Y-73987900D01*
%TO.N,Net-(R48-Pad1)*%
X164591000Y-103610400D02*
X161498600Y-103610400D01*
X166448600Y-101070400D02*
X164731200Y-101070400D01*
X162373400Y-98530400D02*
X161498600Y-98530400D01*
X169288600Y-108990400D02*
X166448600Y-106150400D01*
X164731200Y-101070400D02*
X164731200Y-103470200D01*
X164731200Y-101070400D02*
X164731200Y-100888200D01*
X164731200Y-100888200D02*
X162373400Y-98530400D01*
X164731200Y-103470200D02*
X164591000Y-103610400D01*
X164591000Y-103610400D02*
X164591000Y-105139400D01*
X165602000Y-106150400D02*
X166448600Y-106150400D01*
X169288600Y-110044400D02*
X169288600Y-108990400D01*
X164591000Y-105139400D02*
X165602000Y-106150400D01*
%TO.N,Net-(U2-Pad1)*%
X105136300Y-121898400D02*
X105950000Y-122712100D01*
X79769400Y-77448400D02*
X79342200Y-77021200D01*
X104283600Y-121898400D02*
X105136300Y-121898400D01*
X81234600Y-77448400D02*
X79769400Y-77448400D01*
X105950000Y-122712100D02*
X105950000Y-126213000D01*
X104029000Y-122153000D02*
X100991900Y-122153000D01*
X105184600Y-126978400D02*
X104283600Y-126978400D01*
X105950000Y-126213000D02*
X105184600Y-126978400D01*
X104283600Y-121898400D02*
X104029000Y-122153000D01*
%TO.N,Net-(U2-Pad2)*%
X92853600Y-100308400D02*
X92881800Y-100280200D01*
X81169700Y-78653500D02*
X79346500Y-78653500D01*
X92881800Y-100280200D02*
X94758100Y-100280200D01*
X81234600Y-78718400D02*
X81169700Y-78653500D01*
%TO.N,Net-(U4-Pad11)*%
X104283600Y-119358400D02*
X102170200Y-119358400D01*
X92853600Y-102848400D02*
X102170200Y-102848400D01*
%TD*%
M02*
