%TF.GenerationSoftware,KiCad,Pcbnew,(6.0.10)*%
%TF.CreationDate,2023-04-24T22:32:33-04:00*%
%TF.ProjectId,waterwheel_synth_v2,77617465-7277-4686-9565-6c5f73796e74,rev?*%
%TF.SameCoordinates,Original*%
%TF.FileFunction,Soldermask,Bot*%
%TF.FilePolarity,Negative*%
%FSLAX46Y46*%
G04 Gerber Fmt 4.6, Leading zero omitted, Abs format (unit mm)*
G04 Created by KiCad (PCBNEW (6.0.10)) date 2023-04-24 22:32:33*
%MOMM*%
%LPD*%
G01*
G04 APERTURE LIST*
G04 Aperture macros list*
%AMRoundRect*
0 Rectangle with rounded corners*
0 $1 Rounding radius*
0 $2 $3 $4 $5 $6 $7 $8 $9 X,Y pos of 4 corners*
0 Add a 4 corners polygon primitive as box body*
4,1,4,$2,$3,$4,$5,$6,$7,$8,$9,$2,$3,0*
0 Add four circle primitives for the rounded corners*
1,1,$1+$1,$2,$3*
1,1,$1+$1,$4,$5*
1,1,$1+$1,$6,$7*
1,1,$1+$1,$8,$9*
0 Add four rect primitives between the rounded corners*
20,1,$1+$1,$2,$3,$4,$5,0*
20,1,$1+$1,$4,$5,$6,$7,0*
20,1,$1+$1,$6,$7,$8,$9,0*
20,1,$1+$1,$8,$9,$2,$3,0*%
%AMHorizOval*
0 Thick line with rounded ends*
0 $1 width*
0 $2 $3 position (X,Y) of the first rounded end (center of the circle)*
0 $4 $5 position (X,Y) of the second rounded end (center of the circle)*
0 Add line between two ends*
20,1,$1,$2,$3,$4,$5,0*
0 Add two circle primitives to create the rounded ends*
1,1,$1,$2,$3*
1,1,$1,$4,$5*%
%AMRotRect*
0 Rectangle, with rotation*
0 The origin of the aperture is its center*
0 $1 length*
0 $2 width*
0 $3 Rotation angle, in degrees counterclockwise*
0 Add horizontal line*
21,1,$1,$2,0,0,$3*%
G04 Aperture macros list end*
%ADD10RoundRect,0.250000X1.555635X0.636396X0.636396X1.555635X-1.555635X-0.636396X-0.636396X-1.555635X0*%
%ADD11HorizOval,1.800000X0.636396X0.636396X-0.636396X-0.636396X0*%
%ADD12RoundRect,0.250000X-0.498392X1.605181X-1.494250X0.769557X0.498392X-1.605181X1.494250X-0.769557X0*%
%ADD13HorizOval,1.800000X-0.578509X0.689440X0.578509X-0.689440X0*%
%ADD14C,7.500000*%
%ADD15RoundRect,0.250000X-1.642510X-0.356595X-0.896861X-1.421492X1.642510X0.356595X0.896861X1.421492X0*%
%ADD16HorizOval,1.800000X-0.737237X-0.516219X0.737237X0.516219X0*%
%ADD17RoundRect,0.250000X-0.226682X-1.665417X1.029021X-1.328953X0.226682X1.665417X-1.029021X1.328953X0*%
%ADD18HorizOval,1.800000X-0.232937X0.869333X0.232937X-0.869333X0*%
%ADD19RoundRect,0.250000X1.550000X-0.650000X1.550000X0.650000X-1.550000X0.650000X-1.550000X-0.650000X0*%
%ADD20O,3.600000X1.800000*%
%ADD21RoundRect,0.250000X-1.629065X-0.413700X-0.846705X-1.451926X1.629065X0.413700X0.846705X1.451926X0*%
%ADD22HorizOval,1.800000X-0.718772X-0.541634X0.718772X0.541634X0*%
%ADD23RoundRect,0.250000X-1.678837X0.080669X-1.234210X-1.140931X1.678837X-0.080669X1.234210X1.140931X0*%
%ADD24HorizOval,1.800000X-0.845723X-0.307818X0.845723X0.307818X0*%
%ADD25RoundRect,0.250000X0.663449X-1.544291X1.566505X-0.609150X-0.663449X1.544291X-1.566505X0.609150X0*%
%ADD26HorizOval,1.800000X-0.647406X0.625193X0.647406X-0.625193X0*%
%ADD27C,1.900000*%
%ADD28C,1.600000*%
%ADD29RotRect,1.600000X1.600000X67.000000*%
%ADD30RotRect,2.300000X2.300000X127.000000*%
%ADD31C,2.300000*%
%ADD32HorizOval,1.800000X-0.602218X0.668830X0.602218X-0.668830X0*%
%ADD33RoundRect,0.250000X-0.554108X1.586809X-1.520197X0.716940X0.554108X-1.586809X1.520197X-0.716940X0*%
%ADD34RoundRect,0.250000X0.650000X1.550000X-0.650000X1.550000X-0.650000X-1.550000X0.650000X-1.550000X0*%
%ADD35O,1.800000X3.600000*%
%ADD36HorizOval,1.800000X-0.125256X-0.891241X0.125256X0.891241X0*%
%ADD37RoundRect,0.250000X-0.859393X-1.444453X0.427956X-1.625378X0.859393X1.444453X-0.427956X1.625378X0*%
%ADD38HorizOval,1.800000X-0.828454X0.351658X0.828454X-0.351658X0*%
%ADD39RoundRect,0.250000X-1.172807X1.203961X-1.680758X0.007305X1.172807X-1.203961X1.680758X-0.007305X0*%
%ADD40RoundRect,0.250000X-1.532477X-0.690299X-0.581718X-1.576897X1.532477X0.690299X0.581718X1.576897X0*%
%ADD41HorizOval,1.800000X-0.613799X-0.658218X0.613799X0.658218X0*%
G04 APERTURE END LIST*
D10*
%TO.C,J12*%
X73560077Y-152300077D03*
D11*
X70866000Y-149606000D03*
X68171923Y-146911923D03*
%TD*%
D12*
%TO.C,J13*%
X165100000Y-170180000D03*
D13*
X162181371Y-172629021D03*
X159262741Y-175078042D03*
%TD*%
D14*
%TO.C,REF\u002A\u002A*%
X96520000Y-85598000D03*
%TD*%
%TO.C,REF\u002A\u002A*%
X59182000Y-141986000D03*
%TD*%
%TO.C,REF\u002A\u002A*%
X135636000Y-148082000D03*
%TD*%
%TO.C,REF\u002A\u002A*%
X176276000Y-63500000D03*
%TD*%
%TO.C,REF\u002A\u002A*%
X60198000Y-61976000D03*
%TD*%
D15*
%TO.C,J7*%
X113159700Y-82957900D03*
D16*
X115345026Y-86078869D03*
X117530352Y-89199839D03*
X119715679Y-92320808D03*
X121901005Y-95441777D03*
X124086331Y-98562746D03*
X126271657Y-101683716D03*
X128456984Y-104804685D03*
X130642310Y-107925654D03*
X132827636Y-111046624D03*
X135012962Y-114167593D03*
X137198288Y-117288562D03*
X139383615Y-120409531D03*
X141568941Y-123530501D03*
X143754267Y-126651470D03*
X145939593Y-129772439D03*
%TD*%
D17*
%TO.C,J3*%
X98331400Y-34223900D03*
D18*
X102011577Y-33237799D03*
X105691755Y-32251699D03*
X109371932Y-31265598D03*
X113052110Y-30279498D03*
X116732287Y-29293397D03*
X120412464Y-28307297D03*
X124092642Y-27321196D03*
%TD*%
D19*
%TO.C,J10*%
X59718100Y-130352400D03*
D20*
X59718100Y-126542400D03*
X59718100Y-122732400D03*
X59718100Y-118922400D03*
X59718100Y-115112400D03*
X59718100Y-111302400D03*
X59718100Y-107492400D03*
X59718100Y-103682400D03*
X59718100Y-99872400D03*
X59718100Y-96062400D03*
X59718100Y-92252400D03*
X59718100Y-88442400D03*
X59718100Y-84632400D03*
X59718100Y-80822400D03*
X59718100Y-77012400D03*
X59718100Y-73202400D03*
%TD*%
D21*
%TO.C,J5*%
X96186000Y-52278800D03*
D22*
X98478915Y-55321601D03*
X100771830Y-58364403D03*
X103064746Y-61407204D03*
X105357661Y-64450005D03*
X107650576Y-67492806D03*
X109943491Y-70535608D03*
X112236407Y-73578409D03*
%TD*%
D23*
%TO.C,J4*%
X189815742Y-59375024D03*
D24*
X191118839Y-62955253D03*
X192421935Y-66535482D03*
X193725032Y-70115711D03*
X195028129Y-73695940D03*
X196331226Y-77276168D03*
X197634322Y-80856397D03*
X198937419Y-84436626D03*
X200240516Y-88016855D03*
X201543613Y-91597084D03*
X202846709Y-95177313D03*
X204149806Y-98757542D03*
X205452903Y-102337771D03*
X206756000Y-105918000D03*
%TD*%
D25*
%TO.C,J6*%
X70323700Y-57380200D03*
D26*
X72970348Y-54639515D03*
X75616997Y-51898831D03*
X78263645Y-49158146D03*
X80910294Y-46417461D03*
X83556942Y-43676777D03*
X86203590Y-40936092D03*
X88850239Y-38195408D03*
%TD*%
D27*
%TO.C,U10*%
X99262457Y-167367606D03*
X97773772Y-170874729D03*
D28*
X104931079Y-167014438D03*
X103938622Y-169352520D03*
X102946165Y-171690602D03*
X100961251Y-176366767D03*
X102306876Y-179697306D03*
X103299333Y-177359224D03*
X104291790Y-175021142D03*
X105284247Y-172683059D03*
X106276704Y-170344977D03*
X107269161Y-168006895D03*
X108261618Y-165668812D03*
X109254076Y-163330730D03*
X110246533Y-160992648D03*
X111238990Y-158654565D03*
X112231447Y-156316483D03*
X113223904Y-153978401D03*
X114216361Y-151640318D03*
X115208818Y-149302236D03*
X112870736Y-148309779D03*
X110532653Y-147317322D03*
X108194571Y-146324865D03*
X105856489Y-145332408D03*
X103518406Y-144339951D03*
X101180324Y-143347494D03*
X100187867Y-145685576D03*
X99195410Y-148023658D03*
X98202953Y-150361741D03*
X97210496Y-152699823D03*
X96218039Y-155037905D03*
X95225582Y-157375988D03*
X94233124Y-159714070D03*
X93240667Y-162052152D03*
X92248210Y-164390235D03*
X91255753Y-166728317D03*
X90263296Y-169066399D03*
X89270839Y-171404482D03*
D29*
X88278382Y-173742564D03*
%TD*%
D30*
%TO.C,K1*%
X150003600Y-148314400D03*
D31*
X156118041Y-156428537D03*
X160703871Y-162514139D03*
X153089658Y-165071436D03*
X143917997Y-152900230D03*
%TD*%
D15*
%TO.C,J9*%
X154955700Y-139929200D03*
D16*
X157141026Y-143050169D03*
X159326352Y-146171139D03*
%TD*%
D32*
%TO.C,J11*%
X171327355Y-165873563D03*
X174158736Y-163324175D03*
X176990118Y-160774788D03*
D33*
X179821500Y-158225400D03*
%TD*%
D34*
%TO.C,J14*%
X151599600Y-175607900D03*
D35*
X147789600Y-175607900D03*
X143979600Y-175607900D03*
X140169600Y-175607900D03*
X136359600Y-175607900D03*
X132549600Y-175607900D03*
X128739600Y-175607900D03*
X124929600Y-175607900D03*
X121119600Y-175607900D03*
X117309600Y-175607900D03*
X113499600Y-175607900D03*
X109689600Y-175607900D03*
%TD*%
D36*
%TO.C,J2*%
X158242949Y-31612047D03*
X154470028Y-31081797D03*
X150697107Y-30551548D03*
X146924185Y-30021298D03*
X143151264Y-29491049D03*
X139378343Y-28960799D03*
X135605421Y-28430550D03*
D37*
X131832500Y-27900300D03*
%TD*%
D38*
%TO.C,J8*%
X186657058Y-151701658D03*
X188145744Y-148194535D03*
X189634430Y-144687411D03*
X191123115Y-141180288D03*
X192611801Y-137673164D03*
X194100486Y-134166041D03*
X195589172Y-130658917D03*
X197077858Y-127151794D03*
X198566543Y-123644670D03*
X200055229Y-120137547D03*
X201543914Y-116630423D03*
D39*
X203032600Y-113123300D03*
%TD*%
D40*
%TO.C,J1*%
X164887200Y-35633200D03*
D41*
X167673658Y-38231614D03*
X170460115Y-40830028D03*
X173246573Y-43428441D03*
X176033030Y-46026855D03*
X178819488Y-48625269D03*
X181605946Y-51223683D03*
X184392403Y-53822096D03*
%TD*%
M02*
