M48
; DRILL file {KiCad (6.0.10)} date Mon Apr 24 22:32:33 2023
; FORMAT={-:-/ absolute / inch / decimal}
; #@! TF.CreationDate,2023-04-24T22:32:33-04:00
; #@! TF.GenerationSoftware,Kicad,Pcbnew,(6.0.10)
; #@! TF.FileFunction,Plated,1,2,PTH
FMAT,2
INCH
; #@! TA.AperFunction,Plated,PTH,ViaDrill
T1C0.0157
; #@! TA.AperFunction,Plated,PTH,ComponentDrill
T2C0.0197
; #@! TA.AperFunction,Plated,PTH,ComponentDrill
T3C0.0433
; #@! TA.AperFunction,Plated,PTH,ComponentDrill
T4C0.0472
; #@! TA.AperFunction,Plated,PTH,ComponentDrill
T5C0.0512
; #@! TA.AperFunction,Plated,PTH,ComponentDrill
T6C0.1693
%
G90
G05
T1
X2.5534Y-3.2111
X2.6041Y-3.5665
X2.6041Y-3.7362
X2.605Y-2.5922
X2.6127Y-3.8692
X2.6184Y-4.1847
X2.6184Y-4.3421
X2.6184Y-4.4874
X2.6296Y-4.8495
X2.696Y-5.1997
X2.718Y-4.6642
X2.7642Y-3.3491
X2.7847Y-5.2444
X2.827Y-4.8865
X2.8282Y-3.1991
X2.857Y-5.3533
X2.8708Y-3.1425
X2.8708Y-3.768
X2.9206Y-3.0164
X2.9697Y-2.8251
X3.0613Y-3.1491
X3.0637Y-2.8941
X3.07Y-3.5671
X3.0949Y-4.1976
X3.1237Y-3.0323
X3.1239Y-3.0966
X3.2051Y-4.7591
X3.2274Y-3.7044
X3.2328Y-4.092
X3.2574Y-5.6644
X3.2856Y-4.0775
X3.2969Y-3.8624
X3.3011Y-4.6683
X3.3051Y-3.9639
X3.3609Y-4.3296
X3.3847Y-5.0379
X3.386Y-6.111
X3.4499Y-4.8794
X3.4858Y-4.3896
X3.4947Y-4.1269
X3.4986Y-4.9264
X3.5058Y-3.5671
X3.5421Y-2.4034
X3.5883Y-4.2356
X3.5933Y-4.4181
X3.6041Y-4.5602
X3.6041Y-4.7491
X3.6435Y-4.3086
X3.6444Y-1.7374
X3.6478Y-4.8996
X3.6971Y-4.7991
X3.7195Y-4.2772
X3.7306Y-4.0005
X3.7306Y-3.948
X3.732Y-4.1074
X3.7583Y-4.6813
X3.7745Y-4.1912
X3.7954Y-3.8486
X3.8331Y-4.6015
X3.8339Y-5.0738
X3.8485Y-4.4592
X3.857Y-1.4923
X3.8735Y-1.5595
X3.9048Y-2.0315
X3.9345Y-5.1703
X3.9489Y-4.1491
X3.9688Y-3.8405
X3.9761Y-4.8092
X3.997Y-1.8032
X4.0215Y-2.6311
X4.0224Y-4.0491
X4.0224Y-4.6991
X4.031Y-4.9729
X4.0327Y-1.6206
X4.0523Y-5.253
X4.1196Y-1.6458
X4.1237Y-3.9977
X4.1641Y-1.5427
X4.229Y-1.7064
X4.2427Y-2.1501
X4.2647Y-1.6647
X4.2694Y-1.8137
X4.3524Y-1.4981
X4.3707Y-5.3341
X4.4358Y-2.0344
X4.4576Y-1.4083
X4.4668Y-1.4898
X4.5072Y-1.8695
X4.5202Y-1.9665
X4.5671Y-2.3368
X4.6036Y-1.8641
X4.6414Y-5.3182
X4.6473Y-2.2389
X4.679Y-4.3117
X4.6805Y-3.3611
X4.7115Y-3.5405
X4.7626Y-2.278
X4.769Y-5.7029
X4.7943Y-3.4569
X4.8036Y-2.4736
X4.8438Y-1.3082
X4.8818Y-3.9801
X4.9365Y-3.5495
X4.9597Y-1.4999
X4.9656Y-4.5038
X5.0158Y-4.3012
X5.0923Y-4.3771
X5.1028Y-1.9641
X5.1281Y-1.7961
X5.1519Y-2.1361
X5.1716Y-1.85
X5.1843Y-1.9141
X5.1907Y-1.3597
X5.1907Y-1.6839
X5.2312Y-2.1152
X5.2625Y-1.3556
X5.2647Y-4.6428
X5.273Y-2.5445
X5.273Y-3.0077
X5.3723Y-4.3384
X5.3839Y-1.7836
X5.3839Y-2.0641
X5.4324Y-1.8243
X5.4324Y-4.3325
X5.4457Y-4.5083
X5.452Y-1.7428
X5.5326Y-1.3263
X5.5877Y-2.7804
X5.6334Y-5.1244
X5.746Y-5.0141
X5.7886Y-1.6215
X5.7886Y-1.6792
X5.7937Y-1.5067
X6.0967Y-1.4279
X6.1143Y-1.3425
X6.1177Y-4.0421
X6.2172Y-1.8544
X6.2172Y-3.9953
X6.2288Y-4.0829
X6.2595Y-6.2289
X6.2695Y-4.2046
X6.3431Y-3.2235
X6.4195Y-2.8441
X6.4304Y-3.7301
X6.4335Y-4.1291
X6.5497Y-3.2053
X6.6356Y-4.015
X6.6458Y-3.1621
X6.67Y-4.0998
X6.67Y-6.2711
X6.7129Y-4.2126
X6.8466Y-3.9113
X7.1225Y-3.9709
X7.1324Y-3.5671
X7.1961Y-4.4501
X7.2529Y-4.2474
X7.2644Y-4.3586
X7.2672Y-4.1533
X7.2757Y-4.2983
X7.2758Y-3.1928
X7.2876Y-5.5083
X7.2913Y-4.1046
X7.3113Y-4.1977
X7.3124Y-5.2471
X7.3289Y-5.5684
X7.3911Y-4.1083
X7.3915Y-5.4201
X7.3981Y-5.1195
X7.591Y-4.2806
X7.5934Y-5.1571
X7.6386Y-4.1994
X7.8466Y-4.0624
T2
X3.8494Y-6.7274
X3.908Y-6.5893
T3
X3.4755Y-6.8403
X3.5146Y-6.7482
X3.5537Y-6.6562
X3.5927Y-6.5641
X3.6318Y-6.4721
X3.6709Y-6.38
X3.71Y-6.288
X3.749Y-6.1959
X3.7881Y-6.1039
X3.8272Y-6.0118
X3.8663Y-5.9198
X3.9053Y-5.8277
X3.9444Y-5.7357
X3.9749Y-6.9436
X3.9835Y-5.6436
X4.0278Y-7.0747
X4.053Y-6.7595
X4.0669Y-6.9826
X4.0755Y-5.6827
X4.0921Y-6.6674
X4.106Y-6.8906
X4.1311Y-6.5754
X4.145Y-6.7985
X4.1676Y-5.7217
X4.1841Y-6.7065
X4.2232Y-6.6144
X4.2596Y-5.7608
X4.2623Y-6.5224
X4.3013Y-6.4303
X4.3404Y-6.3383
X4.3517Y-5.7999
X4.3795Y-6.2462
X4.4186Y-6.1542
X4.4437Y-5.839
X4.4576Y-6.0621
X4.4967Y-5.9701
X4.5358Y-5.878
T4
X2.3511Y-2.882
X2.3511Y-3.032
X2.3511Y-3.182
X2.3511Y-3.332
X2.3511Y-3.482
X2.3511Y-3.632
X2.3511Y-3.782
X2.3511Y-3.932
X2.3511Y-4.082
X2.3511Y-4.232
X2.3511Y-4.382
X2.3511Y-4.532
X2.3511Y-4.682
X2.3511Y-4.832
X2.3511Y-4.982
X2.3511Y-5.132
X2.6839Y-5.7839
X2.7686Y-2.2591
X2.79Y-5.89
X2.8728Y-2.1512
X2.8961Y-5.9961
X2.977Y-2.0433
X3.0812Y-1.9354
X3.1854Y-1.8275
X3.2896Y-1.7196
X3.3938Y-1.6117
X3.498Y-1.5038
X3.7869Y-2.0582
X3.8713Y-1.3474
X3.8771Y-2.178
X3.9674Y-2.2978
X4.0162Y-1.3086
X4.0577Y-2.4176
X4.1479Y-2.5374
X4.1611Y-1.2698
X4.2382Y-2.6572
X4.306Y-1.2309
X4.3185Y-6.9137
X4.3285Y-2.777
X4.4188Y-2.8968
X4.4509Y-1.1921
X4.4551Y-3.2661
X4.4685Y-6.9137
X4.5411Y-3.3889
X4.5958Y-1.1533
X4.6185Y-6.9137
X4.6272Y-3.5118
X4.7132Y-3.6347
X4.7406Y-1.1145
X4.7685Y-6.9137
X4.7993Y-3.7576
X4.8853Y-3.8804
X4.8855Y-1.0756
X4.9185Y-6.9137
X4.9713Y-4.0033
X5.0574Y-4.1262
X5.0685Y-6.9137
X5.1434Y-4.249
X5.1903Y-1.0984
X5.2185Y-6.9137
X5.2294Y-4.3719
X5.3155Y-4.4948
X5.3388Y-1.1193
X5.3685Y-6.9137
X5.4015Y-4.6177
X5.4873Y-1.1402
X5.4875Y-4.7405
X5.5185Y-6.9137
X5.5736Y-4.8634
X5.6359Y-1.1611
X5.6596Y-4.9863
X5.6685Y-6.9137
X5.7457Y-5.1092
X5.7844Y-1.1819
X5.8185Y-6.9137
X5.933Y-1.2028
X5.9685Y-6.9137
X6.0815Y-1.2237
X6.1006Y-5.509
X6.1867Y-5.6319
X6.23Y-1.2446
X6.2702Y-6.8928
X6.2727Y-5.7548
X6.3851Y-6.7964
X6.4916Y-1.4029
X6.5Y-6.7
X6.6013Y-1.5052
X6.711Y-1.6075
X6.7452Y-6.5305
X6.8207Y-1.7098
X6.8566Y-6.4301
X6.9304Y-1.8121
X6.9681Y-6.3297
X7.0401Y-1.9144
X7.0796Y-6.2293
X7.1498Y-2.0167
X7.2595Y-2.119
X7.3487Y-5.9725
X7.4073Y-5.8344
X7.4659Y-5.6964
X7.4731Y-2.3376
X7.5244Y-2.4786
X7.5245Y-5.5583
X7.5757Y-2.6195
X7.5831Y-5.4202
X7.627Y-2.7605
X7.6418Y-5.2821
X7.6783Y-2.9014
X7.7004Y-5.1441
X7.7296Y-3.0424
X7.759Y-5.006
X7.7809Y-3.1833
X7.8176Y-4.8679
X7.8322Y-3.3243
X7.8762Y-4.7298
X7.8835Y-3.4652
X7.9348Y-3.6062
X7.9348Y-4.5917
X7.9861Y-3.7471
X7.9934Y-4.4537
X8.0374Y-3.8881
X8.0887Y-4.029
X8.14Y-4.17
T5
X5.6661Y-6.0197
X5.9057Y-5.8391
X6.0272Y-6.4989
X6.1464Y-6.1586
X6.3269Y-6.3982
T6
X2.33Y-5.59
X2.37Y-2.44
X3.8Y-3.37
X5.34Y-5.83
X6.94Y-2.5
T0
M30
