<?xml version="1.0" encoding="UTF-8" standalone="no"?>
<!-- Created with Inkscape (http://www.inkscape.org/) -->

<svg
   width="18in"
   height="18in"
   viewBox="0 0 457.2 457.2"
   version="1.1"
   id="svg1"
   inkscape:version="1.4.2 (f4327f4, 2025-05-13)"
   sodipodi:docname="Metal_piece_cutouts.svg"
   xmlns:inkscape="http://www.inkscape.org/namespaces/inkscape"
   xmlns:sodipodi="http://sodipodi.sourceforge.net/DTD/sodipodi-0.dtd"
   xmlns="http://www.w3.org/2000/svg"
   xmlns:svg="http://www.w3.org/2000/svg">
  <sodipodi:namedview
     id="namedview1"
     pagecolor="#ffffff"
     bordercolor="#000000"
     borderopacity="0.25"
     inkscape:showpageshadow="2"
     inkscape:pageopacity="0.0"
     inkscape:pagecheckerboard="0"
     inkscape:deskcolor="#d1d1d1"
     inkscape:document-units="mm"
     inkscape:zoom="0.35945918"
     inkscape:cx="1097.4821"
     inkscape:cy="1078.0084"
     inkscape:window-width="1920"
     inkscape:window-height="1009"
     inkscape:window-x="-8"
     inkscape:window-y="-8"
     inkscape:window-maximized="1"
     inkscape:current-layer="layer1" />
  <defs
     id="defs1">
    <clipPath
       clipPathUnits="userSpaceOnUse"
       id="clipPath24">
      <rect
         style="fill:none;stroke:#000000;stroke-width:0.999999;stroke-linecap:butt;stroke-linejoin:bevel;paint-order:stroke markers fill;stop-color:#000000"
         id="rect24"
         width="44.999748"
         height="77.937294"
         x="251.53429"
         y="222.73541" />
    </clipPath>
  </defs>
  <g
     inkscape:label="Layer 1"
     inkscape:groupmode="layer"
     id="layer1">
    <path
       style="fill:#000000;stroke-width:0.3175"
       d="m 84.89332,457.15831 c -0.0889,-0.14389 0.15659,-1.50813 0.44311,-2.46199 0.1021,-0.3399 0.26832,-1.80985 0.36938,-3.26656 0.10106,-1.45672 0.25971,-2.93803 0.35258,-3.29181 0.31293,-1.19222 0.46622,-1.15059 -4.74433,-1.28849 -4.99185,-0.13212 -5.51006,-0.0929 -10.68995,0.809 -2.70063,0.47023 -2.90341,0.30387 -1.05901,-0.86882 0.7619,-0.48441 2.24521,-1.42634 3.29623,-2.09317 1.59992,-1.01507 6.11662,-4.08266 7.71371,-5.23887 1.4804,-1.07176 4.56689,-2.94311 6.00189,-3.63901 4.02828,-1.95349 6.61937,-3.46338 7.76548,-4.52516 1.41989,-1.3154 2.96088,-2.31361 5.03593,-3.26211 0.87401,-0.39952 1.86725,-0.87105 2.20713,-1.04784 0.33992,-0.1768 0.81664,-0.38171 1.05944,-0.45537 0.48853,-0.14822 2.62321,-1.19929 6.04501,-2.97642 1.23679,-0.64234 2.41922,-1.16789 2.62759,-1.16789 0.80563,0 5.27863,-2.7769 6.5125,-4.04304 1.00378,-1.03004 3.32372,-2.67007 4.59086,-3.24544 0.53413,-0.24252 2.00409,-0.91928 3.26657,-1.5039 1.26247,-0.58462 2.83502,-1.30602 3.49453,-1.6031 0.65948,-0.29708 1.54172,-0.8209 1.96047,-1.16404 0.41875,-0.34314 0.81807,-0.62389 0.88738,-0.62389 0.0693,0 0.37897,-0.19002 0.68812,-0.42226 0.30911,-0.23225 1.14747,-0.7093 1.86296,-1.06011 1.85598,-0.91002 4.09829,-2.29315 4.61423,-2.84622 0.24279,-0.26026 0.74298,-0.62782 1.11153,-0.8168 0.36856,-0.18899 0.98511,-0.6282 1.37011,-0.97603 1.10649,-0.99964 1.37106,-0.91029 3.33064,1.12474 1.1295,1.17301 1.98549,1.89688 2.57485,2.17743 1.10951,0.52815 1.86206,1.0333 4.94399,3.31875 1.3596,1.00822 3.22685,2.27329 4.14945,2.81126 3.50806,2.04557 4.36283,2.66243 6.43289,4.64232 3.61845,3.46081 4.62884,4.25056 7.08835,5.54056 3.60305,1.88977 4.90277,2.83718 7.04854,5.13787 1.62417,1.74145 2.3286,2.33223 4.66489,3.91212 4.43862,3.00159 6.60182,4.63826 8.25885,6.24866 1.75206,1.70275 4.22234,3.6977 6.32327,5.10658 0.77692,0.52099 2.38766,1.74783 3.57946,2.72631 1.1918,0.97848 2.38458,1.93796 2.65065,2.13219 0.26606,0.19423 1.179,0.85583 2.02873,1.47023 0.84976,0.6144 1.50682,1.17884 1.46018,1.25431 -0.22879,0.3702 -3.24926,0.55641 -6.1876,0.38146 -1.65094,-0.0983 -5.0405,-0.17329 -7.53237,-0.16666 -2.7705,0.007 -4.75983,-0.0614 -5.12058,-0.17705 -0.64376,-0.20638 -4.79291,-0.61623 -9.24188,-0.9129 -1.55381,-0.10361 -3.50053,-0.2635 -4.326,-0.3553 -0.82547,-0.0918 -2.55055,-0.16756 -3.8335,-0.16836 -1.28296,-9.5e-4 -3.11045,-0.08 -4.06114,-0.1759 -0.95066,-0.0959 -3.74142,-0.25505 -6.20167,-0.35355 -2.46028,-0.0985 -5.32073,-0.29563 -6.35657,-0.43808 -1.03584,-0.14245 -4.42599,-0.38582 -7.53364,-0.54083 -3.10766,-0.15502 -6.44484,-0.35384 -7.41601,-0.44184 -0.97114,-0.088 -5.22208,-0.23941 -9.44655,-0.33648 -4.22446,-0.0971 -10.04766,-0.26828 -12.94047,-0.38047 -2.89281,-0.11219 -6.03136,-0.15168 -6.97459,-0.0877 -1.05791,0.0717 -2.96478,0.0126 -4.97744,-0.1543 -1.79439,-0.14879 -4.19402,-0.27054 -5.33251,-0.27054 -1.74228,0 -2.09585,-0.0463 -2.23345,-0.29213 -0.10157,-0.1815 -0.27623,-0.24887 -0.46121,-0.17789 -0.31324,0.12021 -0.29651,0.66712 0.0796,2.60086 0.0925,0.47527 0.0908,1.27307 -0.004,1.94239 -0.0885,0.62472 -0.20278,1.6858 -0.25403,2.35796 -0.15392,2.01847 -0.30696,2.91131 -0.53092,3.09717 -0.12021,0.0998 -1.96834,0.21505 -4.25952,0.26567 -2.22593,0.0492 -4.50726,0.15705 -5.06965,0.23969 -0.56238,0.0826 -1.05854,0.092 -1.10251,0.0208 z m 6.61908,-2.634 c 0.17676,-0.0946 0.49064,-0.45884 0.69749,-0.80942 0.78226,-1.32582 -0.20301,-2.72656 -1.91783,-2.72656 -0.48949,0 -0.88998,0.0759 -0.88998,0.16873 0,0.0928 -0.19866,0.46144 -0.44145,0.81921 -0.51934,0.7653 -0.60249,2.00404 -0.16396,2.44258 0.3175,0.31749 2.18411,0.38997 2.71573,0.10546 z"
       id="path92" />
    <path
       style="fill:#000000;stroke-width:0.3175"
       d="m 90.94439,101.00363 c -0.0593,-0.0959 -0.14037,-2.771146 -0.18018,-5.94493 -0.0654,-5.21322 -0.1026,-5.803884 -0.38519,-6.116172 -0.41586,-0.459528 -1.10875,-0.437568 -1.62904,0.0516 -0.38877,0.36558 -0.63633,0.404892 -3.10136,0.492612 -1.97317,0.0702 -2.85821,0.174552 -3.35976,0.396108 -0.37448,0.165432 -0.74435,0.261576 -0.82188,0.213648 -0.15595,-0.09636 -0.11172,-0.662196 0.27581,-3.53022 0.59081,-4.372224 0.98253,-10.574424 1.13751,-18.01026 0.087,-4.175904 0.28347,-9.141972 0.4365,-11.035692 1.20514,-14.911908 1.31404,-17.701548 0.95145,-24.366828 -0.19494,-3.583215 -0.22965,-3.821483 -0.61821,-4.24541 -0.36823,-0.401742 -0.39058,-0.513526 -0.2118,-1.059427 0.1217,-0.371723 0.20848,-2.169122 0.22197,-4.597974 0.028,-5.02799 -0.0824,-4.793111 2.33264,-4.965107 0.95939,-0.06833 2.18135,-0.201574 2.71548,-0.296109 0.53413,-0.09454 1.76572,-0.178169 2.73685,-0.185859 1.2532,-0.01 1.91948,-0.09558 2.29544,-0.295116 0.29133,-0.154626 1.12566,-0.341341 1.854,-0.414922 0.72835,-0.07358 2.27778,-0.297929 3.44313,-0.498557 3.63252,-0.625367 5.06417,-0.776081 6.798,-0.715658 l 1.67742,0.05845 -0.0632,3.796279 c -0.0577,3.466886 -0.27924,6.045428 -0.7205,8.38713 -0.2456,1.303284 -0.22874,8.328474 0.0228,9.466602 0.14744,0.667416 0.2133,3.821352 0.22072,10.574232 0.007,6.390324 0.0913,10.661184 0.25095,12.713124 0.27198,3.496548 0.18117,7.857852 -0.26283,12.624828 -0.15376,1.650948 -0.31861,3.915468 -0.36632,5.032284 -0.0742,1.735032 -0.13996,2.088156 -0.45212,2.426256 -0.32595,0.353028 -0.37269,0.667128 -0.4332,2.91342 -0.0373,1.384752 -0.12414,2.574012 -0.19292,2.642784 -0.0688,0.06876 -1.09756,0.180012 -2.28621,0.247188 -1.64905,0.09324 -2.11958,0.172284 -1.9856,0.33372 0.12234,0.147432 0.0648,0.31188 -0.18993,0.542376 -0.33858,0.30642 -0.36163,0.493764 -0.31292,2.542944 0.0539,2.267508 -0.28296,9.770136 -0.45089,10.041816 -0.0514,0.0832 -0.79142,0.20431 -1.64446,0.26914 -2.31844,0.17617 -5.2972,0.43618 -6.51488,0.56868 -0.65243,0.071 -1.12198,0.0485 -1.18716,-0.057 z m 4.66697,-3.756502 c 1.30375,-0.36216 1.6308,-2.303292 0.41106,-2.439732 -0.28384,-0.0318 -0.59157,-0.131064 -0.68384,-0.220704 -0.30264,-0.294072 -1.13382,-0.18222 -1.32688,0.178548 -0.34545,0.645468 -0.22052,1.75566 0.25059,2.226768 0.49337,0.493356 0.49219,0.49314 1.34907,0.25512 z"
       id="path91" />
    <path
       style="fill:#000000;stroke-width:0.3175"
       d="m 117.9552,101.01249 c -0.0529,-0.0856 -0.1026,-2.171355 -0.11028,-4.634991 -0.0108,-3.290448 0.0563,-4.854264 0.25111,-5.891916 0.14582,-0.776916 0.35712,-2.152932 0.46951,-3.057816 0.18542,-1.49274 0.17574,-1.676868 -0.1044,-1.98642 -0.3711,-0.410064 -1.35233,-0.454992 -1.66658,-0.07632 -0.178,0.214464 -0.73754,0.264864 -2.9406,0.264864 -2.42631,0 -2.73418,-0.03348 -2.84464,-0.309 -0.0682,-0.169944 -0.12522,-1.024116 -0.12688,-1.898136 -0.004,-1.334712 0.0566,-1.673952 0.36951,-2.118864 0.31554,-0.448656 0.39091,-0.894432 0.49263,-2.91342 0.066,-1.311036 0.18828,-3.09882 0.27162,-3.972852 0.0834,-0.874032 0.25274,-3.575568 0.37641,-6.00342 0.1856,-3.644184 0.18329,-5.04576 -0.0133,-8.033988 -0.14677,-2.23002 -0.24768,-7.382016 -0.26285,-13.419408 -0.0172,-6.80406 -0.0884,-10.09044 -0.2335,-10.750794 -0.25431,-1.15804 -0.27644,-6.961565 -0.0318,-8.318887 0.0962,-0.53413 0.25299,-1.328699 0.34817,-1.765713 0.0952,-0.437013 0.22302,-2.224795 0.28401,-3.972852 0.0912,-2.614336 0.17024,-3.296732 0.44536,-3.845858 0.37468,-0.74784 0.42906,-1.374322 0.14408,-1.65931 -0.10476,-0.1047 -0.16431,-0.41856 -0.13242,-0.697456 l 0.058,-0.507079 3.79628,-0.04992 c 2.78537,-0.03662 4.43104,0.03029 6.17998,0.251305 1.75165,0.221351 3.95913,0.310791 8.32485,0.33729 3.26765,0.01985 6.02802,0.08975 6.1342,0.155375 0.1284,0.07936 0.0652,0.292334 -0.18895,0.635993 -0.36833,0.498203 -0.38678,0.742563 -0.51574,6.832738 -0.0736,3.473831 -0.22026,8.064112 -0.32596,10.200624 -0.10572,2.136511 -0.27844,7.420404 -0.38385,11.741976 -0.22895,9.385128 -0.35201,11.802012 -0.62484,12.271692 -0.32238,0.555072 -0.56988,2.058768 -0.85722,5.208852 -0.26051,2.855604 -0.47129,4.592148 -0.79308,6.533136 -0.50761,3.062148 -0.58684,4.33974 -0.31829,5.133684 0.22872,0.67632 0.23323,1.042752 0.0335,2.723736 -0.12697,1.068252 -0.29324,3.25332 -0.36956,4.855704 l -0.13876,2.91342 -1.29638,-0.02508 c -0.71298,-0.0138 -1.3844,-0.11304 -1.49202,-0.220716 -0.3216,-0.321624 -1.27566,-0.229512 -1.62539,0.156924 -0.28194,0.311544 -0.30591,0.56814 -0.2058,2.20422 0.0757,1.237668 -0.004,3.301644 -0.23695,6.224688 -0.19263,2.405172 -0.35072,4.8942 -0.35128,5.53116 0,0.662664 -0.0955,1.274065 -0.22175,1.429165 -0.3614,0.44383 -9.31255,0.9338 -9.56605,0.52364 z m 5.73045,-4.027683 c 0.56394,-0.385932 0.69543,-0.585636 0.69876,-1.061352 0.005,-0.663984 -0.36713,-1.249428 -0.85662,-1.349016 -0.25574,-0.05208 -0.67059,-0.145944 -0.92186,-0.208692 -0.36297,-0.0906 -0.57166,6.36e-4 -1.0153,0.444312 -0.58188,0.58188 -0.70301,1.167072 -0.37027,1.788804 0.3683,0.68814 1.71552,0.899052 2.46529,0.385944 z"
       id="path90" />
    <path
       style="fill:#000000;stroke-width:0.3175"
       d="m 152.76585,100.72715 c -0.437,-0.0827 -2.2645,-0.18506 -4.06114,-0.22748 l -3.26657,-0.0772 0.0528,-2.443136 c 0.10848,-5.024412 0.41459,-11.07846 0.57537,-11.378916 0.27975,-0.522696 0.18678,-1.136628 -0.23085,-1.52436 -0.46035,-0.427404 -0.98022,-0.509916 -4.76821,-0.75678 -1.53002,-0.09972 -2.98407,-0.258168 -3.23121,-0.352128 l -0.44935,-0.170856 0.10692,-2.782032 c 0.0588,-1.53012 0.17632,-3.179328 0.26108,-3.664896 0.31366,-1.79682 0.37535,-3.862872 0.13596,-4.554276 -0.23882,-0.689844 -0.24204,-0.64158 0.39636,-5.951076 0.0992,-0.82512 0.21562,-1.619688 0.25868,-1.765704 0.043,-0.146028 0.20558,-1.655988 0.36124,-3.355488 0.27311,-2.982432 0.50165,-4.269 0.83728,-4.713756 0.25744,-0.341148 0.46927,-4.544196 0.65678,-13.031652 0.0966,-4.370124 0.26312,-9.693756 0.37011,-11.830263 0.10704,-2.136511 0.26455,-6.506648 0.35011,-9.711414 0.0856,-3.204765 0.20707,-6.128355 0.27007,-6.496868 0.0853,-0.499473 0.039,-0.753437 -0.18212,-0.997753 -0.2385,-0.26355 -0.25111,-0.357106 -0.0643,-0.477696 0.12769,-0.08248 3.64886,-0.156715 7.82475,-0.164975 5.08108,-0.01008 8.38108,-0.09562 9.9763,-0.258671 1.31102,-0.134008 3.25774,-0.246433 4.32596,-0.249838 1.62719,-0.0052 1.93644,0.03678 1.90612,0.258671 -0.02,0.145672 -0.16069,1.480474 -0.31286,2.966227 -0.15215,1.485755 -0.40218,3.035168 -0.5556,3.443139 -0.75406,2.005203 -0.99051,3.354657 -0.88798,5.067761 0.0964,1.610503 0.48974,4.095981 0.82439,5.208847 0.61569,2.047577 0.80153,9.987605 0.37188,15.891401 -0.21939,3.0147 -0.23883,15.833064 -0.0274,18.098544 0.077,0.825468 0.22856,2.215968 0.3368,3.09 0.10824,0.874032 0.27477,2.860452 0.37014,4.414284 0.0954,1.55382 0.29277,3.540252 0.43863,4.414272 0.14583,0.874032 0.26686,1.9953 0.26895,2.491716 0.004,0.616596 0.16951,1.26798 0.52674,2.055816 0.51483,1.135428 0.52021,1.178748 0.3489,2.80542 -0.28213,2.678868 0.0734,2.464392 -3.91446,2.361288 -4.23278,-0.10944 -5.25313,-0.223212 -5.38604,-0.600564 -0.31991,-0.908316 -1.46761,-1.223652 -2.06226,-0.566592 -0.25567,0.282528 -0.28489,0.536196 -0.18196,1.580724 0.0674,0.684312 0.0347,2.14188 -0.0728,3.23904 -0.10752,1.09716 -0.2294,3.917664 -0.2709,6.267768 -0.0415,2.350104 -0.12705,4.356392 -0.19011,4.458422 -0.13116,0.21219 -0.88458,0.20883 -2.0361,-0.01 z m -1.68328,-4.921144 c 0.36738,-0.304896 0.3582,-1.826064 -0.0143,-2.394792 -0.41114,-0.627492 -1.49546,-0.517476 -2.40754,0.244296 -0.46108,0.385104 -0.41136,1.571796 0.0883,2.107044 0.33852,0.362664 0.52044,0.413964 1.23012,0.346872 0.45809,-0.04332 0.9547,-0.179856 1.10357,-0.30342 z"
       id="path89" />
    <path
       style="fill:#000000;stroke-width:0.3175"
       d="m 65.51645,411.70736 c -0.0543,-0.0878 0.10622,-0.82199 0.35677,-1.63133 0.25054,-0.80934 0.64529,-2.10718 0.87723,-2.88409 0.23193,-0.77691 0.54604,-1.80986 0.69802,-2.29543 0.15198,-0.48557 0.47718,-1.55431 0.72267,-2.37499 0.65917,-2.20361 1.83604,-4.50726 3.10287,-6.07363 0.61642,-0.76218 1.40833,-1.75746 1.75979,-2.21174 0.82794,-1.07013 3.60912,-3.55495 5.98238,-5.3449 1.34055,-1.01105 4.32185,-2.92319 4.77771,-3.06431 0.23714,-0.0734 0.7567,-0.32242 1.15462,-0.55335 0.53413,-0.30998 0.86916,-0.39073 1.28013,-0.30853 l 0.55667,0.11136 0.009,-1.3905 c 0.0127,-1.98327 0.60227,-9.65737 0.76194,-9.91569 0.10064,-0.16289 1.31166,-0.21315 4.88795,-0.20285 2.6148,0.007 4.78396,0.0674 4.82038,0.13316 0.0364,0.0658 -0.033,0.59621 -0.15421,1.17889 -0.16288,0.78285 -0.1786,1.66475 -0.0602,3.37794 0.093,1.34606 0.0948,2.49398 0.004,2.73686 -0.20577,0.55195 -0.26559,3.15519 -0.0725,3.15519 0.0828,0 0.22717,-0.0766 0.3208,-0.17025 0.31836,-0.31838 2.86836,0.77734 4.22637,1.81603 0.38846,0.29712 1.18834,0.98199 1.77752,1.52193 1.25803,1.15288 2.72374,2.38559 3.60118,3.02874 0.3436,0.25185 1.26035,1.24407 2.03727,2.20494 0.77693,0.96089 1.89983,2.26451 2.49533,2.89697 0.59551,0.63245 1.37132,1.58693 1.72403,2.12105 0.35268,0.53413 0.91875,1.3287 1.25793,1.76572 0.73574,0.94795 1.25848,2.03899 1.51178,3.15524 0.10201,0.44968 0.24987,0.93984 0.32852,1.08925 0.0787,0.1494 0.19945,0.60564 0.26841,1.01385 0.11424,0.67598 0.0876,0.75657 -0.29848,0.90336 -0.46098,0.17527 -10.70858,0.33303 -10.99617,0.16929 -0.31512,-0.17943 -8.21093,-0.0516 -11.74131,0.19011 -2.67062,0.18283 -3.5165,0.29976 -3.77009,0.52116 -0.17983,0.15699 -0.89494,0.37551 -1.58915,0.48559 -1.72012,0.27278 -4.21348,0.94905 -6.64759,1.80306 -2.65014,0.92978 -3.77463,1.2018 -5.91515,1.43091 -0.97115,0.10392 -2.7192,0.33971 -3.88457,0.52391 -1.16537,0.18419 -2.83397,0.43267 -3.70799,0.55217 -0.87403,0.11952 -1.76378,0.32471 -1.97722,0.456 -0.21546,0.13253 -0.43201,0.16764 -0.48683,0.079 z m 27.50463,-33.58345 c 1.10134,-0.56723 1.43195,-1.35116 0.98418,-2.33386 -0.23939,-0.52543 -0.74825,-0.77149 -1.91569,-0.92636 -0.76258,-0.10116 -0.97806,-0.058 -1.50527,0.30198 -1.16834,0.79759 -1.33201,2.65391 -0.26756,3.03434 0.49105,0.1755 2.3155,0.12416 2.70434,-0.0761 z"
       id="path88" />
    <path
       style="fill:#000000;stroke-width:0.3175"
       d="m 11.86402,104.88478 c -0.27939,-0.30872 -0.27146,-0.41173 0.13244,-1.72156 0.23628,-0.76626 0.48043,-1.6713 0.54255,-2.0112 0.43613,-2.386428 0.51306,-3.310978 0.54357,-6.533138 0.0189,-1.99084 0.11886,-4.65265 0.22222,-5.91512 0.10337,-1.26249 0.23767,-3.60647 0.29844,-5.20886 0.0608,-1.60238 0.19794,-4.10528 0.30482,-5.562 0.24123,-3.28776 0.22651,-2.96592 0.47655,-10.417694 0.11404,-3.399 0.28796,-6.895104 0.38646,-7.769136 0.0985,-0.87402 0.25232,-3.416652 0.34181,-5.650272 0.0895,-2.23362 0.28063,-5.252988 0.42476,-6.709704 0.14413,-1.456716 0.25946,-3.529236 0.25629,-4.6056 -0.003,-1.076376 0.12869,-2.886084 0.29302,-4.021596 0.24556,-1.696788 0.26362,-2.300904 0.10142,-3.391452 -0.10854,-0.729792 -0.20244,-2.972388 -0.20866,-4.98354 -0.006,-2.011152 -0.08,-4.610124 -0.16386,-5.775492 -0.15124,-2.100684 -0.14893,-2.122152 0.27041,-2.50272 0.28148,-0.255468 0.76447,-0.422784 1.444,-0.500244 0.56157,-0.06396 1.9348,-0.266364 3.05161,-0.449676 1.11681,-0.183312 3.02378,-0.453048 4.23771,-0.599424 2.38898,-0.288048 3.53639,-0.56796 6.798,-1.658328 2.93786,-0.98214 4.0247,-1.275228 4.99263,-1.346364 0.45882,-0.03372 1.05788,-0.1482 1.33127,-0.254412 0.2734,-0.1062 0.64008,-0.193104 0.8149,-0.193104 0.17482,0 0.50733,-0.147396 0.73895,-0.327528 0.34747,-0.270276 1.00755,-0.367236 3.77593,-0.554628 3.90039,-0.264012 8.51602,-0.2601 8.83844,0.0072 0.14199,0.11784 1.18767,0.151692 2.93059,0.09492 4.14836,-0.1353 10.40981,-0.142788 10.53963,-0.0126 0.0637,0.06396 0.11881,1.082784 0.1224,2.26416 0.006,2.060124 0.21307,6.366636 0.64163,13.360236 0.25239,4.118088 0.27975,8.203344 0.0766,11.421072 l -0.15811,2.504244 0.46713,0.555156 c 0.40402,0.480156 0.4667,0.714372 0.46397,1.733472 -0.003,0.648072 -0.12799,1.933152 -0.28055,2.855736 -0.52768,3.19098 -0.57731,3.81042 -0.56569,7.062852 0.0292,8.197584 0.0133,9.205452 -0.14703,9.365904 -0.16072,0.160728 0.14059,4.693862 0.36071,5.426432 0.0503,0.16748 0.18072,2.92658 0.28982,6.13135 0.10909,3.20477 0.2572,5.88826 0.32915,5.96333 0.072,0.075 0.43043,0.0108 0.79664,-0.14172 0.78486,-0.32794 2.1916,-0.36023 3.87388,-0.0889 0.66586,0.1074 1.99647,0.17977 2.9569,0.16088 2.68882,-0.0529 2.69374,-0.0412 2.25267,5.39777 -0.22619,2.78938 -0.32614,3.00988 -1.4478,3.19427 -0.40408,0.0665 -1.08207,0.27726 -1.50663,0.46851 -0.49664,0.22371 -1.44133,0.40125 -2.64859,0.49775 -1.03213,0.0826 -2.15417,0.23503 -2.49345,0.33893 -0.33925,0.10392 -0.97997,0.1889 -1.42383,0.1889 h -0.80699 l 0.0777,1.07361 c 0.0441,0.60944 -0.008,1.23924 -0.12049,1.45671 -0.13884,0.26844 -0.1536,0.96443 -0.0493,2.32539 0.11214,1.463868 0.0954,2.000808 -0.068,2.179868 -0.15926,0.17449 -1.45329,0.30298 -4.8728,0.48378 -8.76871,0.46364 -16.13589,0.7814 -22.22478,0.95858 -6.59177,0.19181 -12.73991,0.5734 -15.76504,0.97848 -1.04731,0.14025 -2.63645,0.25665 -3.53142,0.25866 -0.89497,0.002 -2.73961,0.1188 -4.09921,0.25964 -3.33449,0.34526 -3.85366,0.33763 -4.21529,-0.0619 z M 74.43843,90.019352 c 0.22399,-0.83187 0.0958,-1.40389 -0.31483,-1.40389 -0.42339,0 -1.45324,1.0673 -1.45324,1.50607 0,0.52188 0.13434,0.61279 0.90549,0.61279 0.63366,0 0.68049,-0.0389 0.86258,-0.71497 z M 57.66354,63.025216 c 2.00441,-0.981 2.77104,-1.689528 3.51517,-3.2487 0.4986,-1.044696 0.54311,-1.286352 0.53083,-2.880828 -0.007,-0.957252 -0.10672,-1.996764 -0.22073,-2.310012 C 61.26008,53.9572 59.8976,52.41838 59.56987,52.41838 c -0.20872,0 -1.59166,-0.592236 -2.08464,-0.892728 -1.3247,-0.807468 -2.34696,-0.8772 -2.44392,-0.166704 -0.0849,0.622308 -0.4833,1.006152 -1.1798,1.13682 -2.21526,0.415584 -4.53212,4.757736 -3.57562,6.701292 0.14862,0.301956 0.52301,1.084956 0.83197,1.74 0.32696,0.693084 0.79725,1.370172 1.12503,1.619616 1.30061,0.989832 3.897,1.214256 5.42065,0.46854 z"
       id="path86" />
    <path
       style="fill:#000000;stroke-width:0.264583"
       d="m 27.51559,415.86667 c 0.053,-1.11784 0.16886,-2.81078 0.25739,-3.76214 0.33417,-3.59106 0.39965,-5.44859 0.19209,-5.44859 -0.10914,0 -0.19834,0.0584 -0.1982,0.12972 0,0.23088 -1.8778,0.0225 -2.08878,-0.23174 -0.11137,-0.13415 -0.36806,-0.24421 -0.57047,-0.24458 -0.20238,0 -0.64042,-0.1704 -0.9734,-0.37788 -0.33295,-0.20749 -0.91639,-0.53801 -1.29651,-0.73449 -0.51001,-0.26363 -0.75931,-0.53972 -0.95134,-1.05362 -0.14314,-0.38301 -0.42571,-0.96679 -0.62799,-1.29728 -0.20225,-0.33049 -0.65558,-1.7463 -1.00737,-3.14621 -0.60521,-2.40848 -0.63932,-2.69214 -0.63408,-5.27563 0.003,-1.5017 0.004,-2.99689 0.003,-3.32269 -0.003,-0.32581 0.14637,-0.79434 0.32888,-1.04119 0.40825,-0.55221 0.60793,-1.15507 0.5901,-1.78181 -0.007,-0.26207 0.0591,-0.47649 0.14785,-0.47649 0.0888,0 0.16142,-0.15941 0.16142,-0.35423 0,-0.19478 0.20523,-0.5444 0.45609,-0.77686 0.40708,-0.3773 1.2542,-1.85092 1.2682,-2.20618 0.0193,-0.48839 1.3449,-3.58907 1.74998,-4.09313 0.27085,-0.33703 1.14929,-1.93672 1.95209,-3.55489 0.80283,-1.61814 1.62272,-3.08964 1.82203,-3.27001 0.19928,-0.18037 0.36235,-0.42405 0.36235,-0.54152 0,-0.39376 1.5903,-0.98076 2.98077,-1.10025 0.73668,-0.0633 1.36144,-0.049 1.38837,0.0318 0.0269,0.0808 0.78679,0.0291 1.68855,-0.11491 1.63594,-0.26125 2.8875,-0.21895 3.54224,0.11972 0.19026,0.0984 1.04645,0.1877 1.90267,0.19836 1.41383,0.0177 1.64409,0.0697 2.50809,0.56705 0.52324,0.30121 1.4973,0.8113 2.16458,1.13351 1.02942,0.49707 1.51427,0.90651 3.19998,2.70221 1.0927,1.16401 2.14342,2.40274 2.33489,2.75275 0.19148,0.34999 0.42448,0.75311 0.51777,0.8958 0.50734,0.77616 1.00901,4.85257 0.62629,5.0891 -0.24124,0.1491 -0.25855,1.25111 -0.022,1.39735 0.26085,0.16121 0.19606,2.28359 -0.10562,3.45943 -0.14645,0.57081 -0.32777,1.31027 -0.40291,1.64322 -0.45831,2.03073 -1.51204,4.00177 -3.76372,7.04008 -0.7897,1.06561 -1.43582,2.00173 -1.43582,2.08032 0,0.18708 -2.10409,2.22096 -3.16912,3.06332 -0.91221,0.72151 -3.23035,1.99995 -3.62641,1.99995 -0.13665,0 -0.76345,0.2335 -1.3929,0.5189 -1.19171,0.54036 -1.67095,0.63958 -1.67095,0.34595 0,-0.0951 -0.0847,-0.17296 -0.18817,-0.17296 -0.12396,0 -0.14795,0.23805 -0.0703,0.69757 0.0854,0.5057 0.042,0.81328 -0.15778,1.11824 -0.30408,0.46408 -0.36729,0.85585 -0.11271,0.6985 0.10049,-0.0621 0.15021,1.47468 0.12973,4.01137 l -0.0332,4.11208 -3.19995,0.098 c -1.76001,0.0539 -3.47189,0.1901 -3.80423,0.30268 -0.33235,0.11258 -0.6635,0.20471 -0.73592,0.20471 -0.0724,0 -0.0882,-0.91458 -0.0352,-2.03242 z m 5.4556,0.11729 c 0.53044,-0.69006 0.42482,-1.52813 -0.28728,-2.27944 -0.41624,-0.43916 -0.76488,-0.64775 -1.07955,-0.64588 -1.14239,0.007 -2.65052,2.45494 -1.8918,3.07094 0.35004,0.28419 0.84444,0.36624 1.92193,0.31891 0.83998,-0.0369 1.06921,-0.11655 1.3367,-0.46453 z"
       id="path103" />
    <g
       id="g208"
       transform="matrix(0.26458333,0,0,0.26458333,-423.03349,-133.704)">
      <path
         d="m 2713.0703,917.68162 c -3.2172,0.06 -4.2502,0.37213 -4.1621,0.95703 0.7784,5.1674 1.125,14.93979 0.7774,21.90039 -0.3022,6.0501 -0.1644,9.91184 0.4765,13.40234 1.4499,7.8964 1.0966,26.15039 -0.5058,26.15039 -0.3132,0 -0.5684,-0.45125 -0.5684,-1.00195 0,-0.5506 -0.3771,-1.14547 -0.8379,-1.32227 -1.171,-0.4493 -18.3948,1.81387 -40.0215,5.25977 -10.0678,1.6042 -25.3665,3.96966 -33.9961,5.25586 -8.6295,1.2861 -19.2203,3.07947 -23.5351,3.98437 -4.3147,0.9049 -11.8158,2.36992 -16.6699,3.25782 -4.8541,0.888 -13.8269,2.90637 -19.9395,4.48433 -6.1126,1.5781 -13.4672,3.311 -16.3437,3.8516 -2.8765,0.5405 -9.3489,2.5778 -14.3828,4.5273 -5.0339,1.9495 -11.2116,4.2169 -13.7286,5.0372 -2.5169,0.8204 -10.6075,3.8376 -17.9785,6.705 -7.371,2.8675 -17.9619,6.8158 -23.5351,8.7735 -27.0691,9.5085 -49.42,20.1521 -72.2403,34.4023 -2.8765,1.7963 -10.4938,5.8875 -16.9297,9.0938 -15.8412,7.892 -21.3077,11.1116 -27.8515,16.4023 -3.0563,2.4711 -8.057,6.1264 -11.1133,8.1231 -3.0562,1.9967 -6.7337,4.4672 -8.1719,5.4902 -1.4383,1.023 -6.7337,4.7204 -11.7676,8.2148 -11.8,8.1914 -19.9696,14.8286 -35.33,28.7071 -14.9537,13.5111 -23.9,23.0403 -38.1231,40.6035 -11.1805,13.806 -14.244,18.2615 -20.3633,29.6172 -4.1841,7.7646 -13.4865,22.9244 -19.4531,31.705 -5.7113,8.4051 -15.1312,26.5771 -19.3183,37.2657 -1.972,5.0339 -5.4821,13.5636 -7.8008,18.957 -2.3186,5.3935 -4.7434,11.4247 -5.3887,13.4023 -0.6454,1.9776 -2.2699,5.8033 -3.6094,8.5 -8.6674,17.4499 -17.5353,43.2223 -21.6504,62.9239 -4.3192,20.6783 -10.6601,63.3106 -12.0332,80.9004 -0.2386,3.0563 -0.8381,7.5199 -1.332,9.9199 -1.3527,6.5733 -9.6028,74.0445 -10.418,85.2011 -0.2364,3.236 -1.0004,10.5908 -1.6972,16.3438 -2.5971,21.442 -3.8044,79.8287 -2.0352,98.3887 1.4377,15.0829 2.7751,26.1893 4.0547,33.6679 0.6767,3.9552 1.4135,9.6918 1.6367,12.7481 1.0065,13.7803 5.2465,36.6443 10.002,53.9355 2.8135,10.2303 3.7378,12.4903 11.6269,28.4375 9.7377,19.6838 25.7514,46.419 34.4531,57.5196 6.0612,7.732 44.1385,46.8723 50.75,52.166 2.3702,1.8979 7.988,5.9968 12.4825,9.1093 4.4945,3.1125 10.967,7.7561 14.3828,10.3184 21.2662,15.9518 34.1503,24.6212 51.9824,34.9785 5.262,3.0563 14.9126,9.0578 21.4473,13.3379 15.4601,10.126 50.9835,29.0575 60.7832,32.3926 2.9496,1.0039 10.0692,3.8956 15.8222,6.4277 14.8476,6.5349 26.0324,10.9143 34.5059,13.5098 4.0334,1.2355 9.9826,3.1591 13.2187,4.2754 11.9581,4.125 41.6776,11.7579 58.5098,15.0254 9.5284,1.8497 23.943,4.7981 32.0332,6.5527 8.0901,1.7547 17.2113,3.526 20.2676,3.9355 3.0563,0.4094 10.1163,1.7325 15.6895,2.9415 5.5733,1.2089 13.81,2.5279 18.3046,2.9296 4.4945,0.4016 14.3496,1.5813 21.9004,2.6231 7.5508,1.0418 15.7878,2.07 18.3047,2.2851 2.517,0.215 6.6374,0.8086 9.1543,1.3184 8.653,1.7526 17.0223,3.0434 29.7442,4.5879 7.0115,0.8512 17.3095,2.1686 22.8828,2.9258 10.8175,1.4698 34.2197,2.1733 104.3847,3.1426 l 32.1446,0.4453 1.6855,1.5839 c 0.9274,0.8717 1.6875,2.0735 1.6875,2.67 0,0.5966 0.1927,1.2787 0.4297,1.5156 0.4643,0.4643 2.2134,0.3476 24.0859,-1.6035 27.4203,-2.446 46.9076,-5.2677 57.8711,-8.3789 15.5157,-4.4031 31.9016,-10.4594 43.459,-16.0625 6.4721,-3.1378 14.7111,-6.8261 18.3067,-8.1973 11.3012,-4.3098 19.4849,-8.7153 45.1074,-24.2773 4.3148,-2.6206 11.4343,-7.4611 15.8203,-10.7559 4.386,-3.2949 10.5637,-7.5499 13.7285,-9.4551 16.0978,-9.6909 21.9511,-14.137 35.1738,-26.7265 3.2361,-3.0811 8.8244,-7.9253 12.42,-10.7637 10.4763,-8.2699 16.4178,-13.8768 22.9199,-21.6348 3.3475,-3.9941 9.7103,-10.4666 14.1387,-14.3828 13.2523,-11.7195 17.9443,-16.4828 26.3789,-26.7754 4.4198,-5.3934 10.7412,-12.4533 14.0468,-15.6894 11.0888,-10.8554 19.0994,-20.509 24.1993,-29.1582 2.6289,-4.4586 6.7648,-11.3798 9.1914,-15.3809 2.4265,-4.0012 7.8555,-14.0045 12.0644,-22.2285 4.2089,-8.2239 8.6197,-16.5693 9.8008,-18.5469 4.4416,-7.4369 12.0522,-29.4968 16.6426,-48.2422 1.7866,-7.296 4.9989,-19.505 7.1386,-27.1308 13.4683,-48.0004 19.9124,-82.4902 23.6016,-126.3106 0.3935,-4.6743 1.1497,-13.4988 1.6817,-19.6113 1.0701,-12.2955 1.9305,-29.0533 2.6289,-51.2168 0.5944,-18.8636 -0.8504,-53.774 -3.3047,-79.8613 -3.2003,-34.016 -9.4769,-63.3141 -20.9375,-97.7344 -1.1972,-3.5956 -2.5243,-8.3035 -2.9512,-10.4609 -1.3706,-6.9261 -3.9464,-16.7259 -7.2148,-27.4571 -7.5144,-24.6721 -11.4078,-33.7931 -20.9297,-49.0312 -2.9208,-4.6743 -6.6271,-11.0983 -8.2364,-14.2754 -1.6094,-3.1771 -5.659,-10.6801 -8.998,-16.6719 -3.3389,-5.9917 -7.4812,-13.6362 -9.207,-16.9882 -3.6731,-7.1347 -10.2668,-17.1109 -14.9903,-22.6817 -1.8345,-2.1636 -6.4233,-8.7196 -10.1972,-14.5703 -15.5392,-24.0904 -18.3112,-28.1399 -22.6192,-33.0293 -6.2086,-7.0466 -11.4767,-13.737 -30.1953,-38.3418 -11.6151,-15.2675 -18.6319,-23.8055 -24.9785,-30.3984 -4.8541,-5.0425 -11.9643,-12.8454 -15.8008,-17.3399 -12.8191,-15.018 -29.6184,-28.8148 -54.1504,-44.4687 -5.2137,-3.3269 -13.7831,-8.9613 -19.043,-12.5215 -10.0365,-6.7932 -15.5663,-9.5164 -35.5449,-17.50587 -20.24,-8.094 -31.0696,-11.06001 -69.2988,-18.97851 -17.1365,-3.5495 -18.7637,-3.76957 -39.6934,-5.35547 -37.2751,-2.8244 -132.8583,-1.50405 -135.6074,1.87305 -1.1568,1.421 -1.8291,-12.44136 -0.9726,-20.06446 0.6726,-5.986 2.235,-26.36959 2.33,-30.40039 l 0.047,-1.96093 -11.1152,-0.41797 c -6.1126,-0.2297 -16.114,-0.66249 -22.2266,-0.96289 -8.6451,-0.425 -14.0464,-0.61674 -17.2637,-0.55664 z m -11.4921,108.82618 c 2.1562,0 4.5732,1.9837 4.9921,4.0957 0.2097,1.0573 1.5842,1.1712 16.5723,1.3769 13.9974,0.1921 17.282,0.4341 22.8809,1.6875 5.7635,1.2903 7.6604,1.4161 16.0175,1.0645 27.9478,-1.1763 32.9797,-1.1855 42.8204,-0.09 12.9348,1.4405 22.8589,3.2896 30.0722,5.6035 3.2361,1.0381 8.3852,2.6272 11.4414,3.5332 3.0563,0.906 9.6751,3.0841 14.709,4.8379 5.0339,1.7538 10.7705,3.5518 12.7481,3.9961 4.9684,1.1163 21.5218,6.2927 27.457,8.5859 2.6967,1.0419 8.1405,3.0365 12.0957,4.4336 9.525,3.3643 19.3728,7.7985 27.7832,12.5098 3.7754,2.1149 10.2478,5.2174 14.3828,6.8925 8.2552,3.3443 36.596,17.9827 42.8203,22.1172 5.447,3.6183 16.6837,12.4804 22.6172,17.8379 2.7312,2.466 7.9998,6.6888 11.707,9.3848 4.6173,3.3577 9.4371,7.785 15.3008,14.0547 4.708,5.034 12.2669,12.9773 16.7989,17.6523 4.532,4.6749 9.84,10.7056 11.7949,13.4023 4.0735,5.6195 13.2125,19.6831 15.9316,24.5157 1.0115,1.7978 3.2188,5.3288 4.9043,7.8457 2.9916,4.4672 28.0996,47.1669 28.0996,47.7871 0,0.3585 14.6173,30.744 24.3418,50.6015 8.5143,17.3863 10.2689,21.4861 15.2481,35.6309 2.2783,6.4721 5.1734,14.6117 6.4355,18.0879 3.1366,8.639 7.028,23.0546 9.7871,36.2656 1.2658,6.0612 4.0564,17.7868 6.2012,26.0567 2.1447,8.27 4.3606,17.5374 4.9258,20.5937 4.1454,22.4149 4.8017,26.6396 5.9785,38.5176 0.5195,5.2428 1.2356,12.1799 1.5918,15.416 0.3563,3.2361 0.8363,16.9168 1.0664,30.4004 0.4821,28.2468 -0.4189,45.6138 -3.6973,71.2578 -2.3303,18.2283 -3.165,22.7389 -6.5586,35.416 -1.4123,5.2759 -3.1386,12.3378 -3.8359,15.6914 -0.6973,3.3537 -1.8837,7.8622 -2.6367,10.0195 -1.6915,4.8464 -6.8382,24.0998 -7.8633,29.418 -0.4158,2.1574 -1.4486,5.8767 -2.2949,8.2637 -2.8935,8.1618 -8.153,29.9291 -11.1153,45.998 -5.6357,30.5705 -8.755,44.1619 -13.3535,58.1836 -1.7688,5.3935 -3.9857,12.7482 -4.9258,16.3438 -3.9859,15.246 -12.4119,37.8855 -19.5839,52.6211 -1.6677,3.4265 -2.9786,7.0565 -2.9786,8.2441 0,2.2041 -2.6803,6.1445 -4.1796,6.1445 -0.4372,0 -4.0044,4.7802 -7.9258,10.6231 -5.9285,8.8335 -8.7856,12.3195 -16.961,20.6875 -18.0654,18.4911 -35.8432,31.809 -53.0351,39.7305 -17.3879,8.0118 -22.6771,10.3329 -28.709,12.6035 -3.5957,1.3535 -8.0612,3.2336 -9.9238,4.1777 -4.8381,2.4523 -13.8423,5.1982 -27.0137,8.2363 -15.7607,3.6354 -36.8986,6.753 -55.8965,8.2461 -6.4721,0.5087 -12.5015,1.0741 -13.4004,1.2559 -0.8989,0.1817 -17.3747,0.7691 -36.6113,1.3047 -19.2367,0.5356 -39.0931,0.9147 -44.127,0.8437 -23.1266,-0.3276 -30.5304,-0.5638 -56.5507,-1.8105 -15.2815,-0.7323 -35.3997,-2.0693 -44.7071,-2.9707 -15.2288,-1.475 -17.0329,-1.5384 -18.0293,-0.6367 -1.554,1.4063 -3.9291,1.2451 -5.6621,-0.3829 -1.2876,-1.2097 -3.3268,-1.5742 -16.1933,-2.9062 -8.0962,-0.8382 -16.4245,-1.8216 -18.5079,-2.1856 -2.0835,-0.3639 -6.8768,-0.9877 -10.6523,-1.3847 -6.6952,-0.7041 -30.736,-4.678 -35.3027,-5.836 -1.2585,-0.3191 -3.9034,-0.7886 -5.8789,-1.0429 -4.3494,-0.5598 -24.9358,-5.6842 -39.0606,-9.7227 -5.6665,-1.6201 -13.9801,-3.8237 -18.4746,-4.8965 -4.4945,-1.0728 -9.9363,-2.5691 -12.0937,-3.3261 -2.1574,-0.757 -8.3661,-2.6685 -13.7969,-4.2481 -16.472,-4.791 -27.1278,-9.0465 -40.4649,-16.1601 -6.8317,-3.6438 -16.392,-8.7311 -21.2461,-11.3047 -4.8541,-2.5737 -11.182,-6.1592 -14.0605,-7.9668 -2.8786,-1.8076 -6.8486,-4.0972 -8.8242,-5.0899 -4.5787,-2.3005 -11.8066,-7.3173 -22.5508,-15.6504 -4.6743,-3.6253 -10.1674,-7.6822 -12.207,-9.0156 -4.9503,-3.2366 -39.2531,-37.1018 -45.1719,-44.5957 -2.5778,-3.2638 -6.4223,-7.8465 -8.543,-10.1836 -9.4975,-10.4668 -25.7481,-32.3793 -31.1113,-41.9512 -1.1422,-2.0386 -3.1156,-4.4992 -4.3867,-5.4687 -2.9857,-2.2773 -4.8125,-5.3097 -4.8125,-8.002 0,-2.5284 -3.0443,-8.7657 -9.2774,-19.0253 -7.9728,-13.1233 -11.45,-21.118 -17.5215,-40.2852 -1.025,-3.236 -2.6361,-8.0904 -3.5781,-10.7871 -0.942,-2.6968 -2.8687,-9.0227 -4.2812,-14.0566 -1.4126,-5.0339 -3.8919,-13.0737 -5.5118,-17.8672 -5.3962,-15.9678 -9.971,-34.508 -11.4785,-46.5274 -0.3834,-3.0563 -0.9928,-7.0575 -1.3554,-8.8926 -2.4171,-12.2323 -3.7025,-34.7246 -3.7715,-65.9609 -0.05,-22.7645 1.8539,-50.944 4.1094,-60.7988 0.4939,-2.1575 1.8262,-8.9245 2.9589,-15.0371 2.0773,-11.2094 5.7082,-25.7202 9.1778,-36.6699 1.0359,-3.2691 3.2171,-11.3598 4.8457,-17.9786 3.7152,-15.0987 8.8073,-33.2138 11.375,-40.4707 1.0814,-3.0563 3.7806,-11.263 6,-18.2363 2.2193,-6.9732 5.1564,-14.9173 6.5254,-17.6523 1.3691,-2.7349 7.2515,-14.3866 13.0722,-25.8926 5.8206,-11.506 11.7131,-23.5666 13.0957,-26.8027 4.4569,-10.4322 8.7875,-17.5666 18.2539,-30.0704 2.7216,-3.5948 5.244,-7.0101 5.6036,-7.5898 0.7612,-1.2272 3.4309,-4.6857 9.8066,-12.7031 2.517,-3.1651 6.9052,-8.7194 9.752,-12.3438 2.9544,-3.7613 15.7221,-17.13 29.746,-31.1465 20.6061,-20.5953 26.4435,-26.0282 36.1915,-33.6699 35.8828,-28.1294 49.7432,-38.0474 66.1738,-47.3535 4.6743,-2.6475 10.1161,-6.0343 12.0937,-7.5273 7.6132,-5.7477 13.7754,-9.3677 23.8614,-14.0196 24.7951,-11.4361 42.6679,-20.1721 54.3359,-26.5586 6.8724,-3.7617 15.4041,-7.9886 18.959,-9.3925 9.6724,-3.8198 24.2789,-10.2952 26.2773,-11.6504 2.8151,-1.9091 9.6833,-4.5795 24.7676,-9.627 3.7946,-1.2698 9.1425,-3.4629 11.8848,-4.873 2.9291,-1.5062 7.2392,-3.0381 10.4472,-3.7129 4.4908,-0.9446 5.6452,-1.4452 6.4942,-2.8203 2.1946,-3.5544 4.2629,-5.2676 6.3594,-5.2676 z"
         style="fill:#000000"
         id="path182" />
      <path
         d="m 2737.3516,927.9238 c -0.1888,-0.006 -0.3814,-0.005 -0.5762,0.004 -2.4243,0.1103 -5.2951,1.40002 -8.1152,3.91602 -2.0726,1.849 -2.5762,2.74649 -2.5762,4.59179 0,3.2148 2.045,5.59648 5.084,5.92188 3.5662,0.3819 6.0875,-0.1286 8.4687,-1.7168 2.6162,-1.745 3.7313,-4.29918 3.2286,-7.39648 -0.5555,-3.42244 -2.6817,-5.2252 -5.5137,-5.32032 z"
         style="fill:#ffffff"
         id="path183" />
    </g>
    <g
       id="g207"
       transform="matrix(-0.19824081,-0.1752282,0.1752282,-0.19824081,395.06976,1165.5033)">
      <path
         style="fill:#000000"
         d="m 2800.8535,1553.4531 c -0.8409,-0.044 -1.7637,0.4582 -2.1406,1.4492 -0.3077,0.809 -2.5346,3.6014 -4.9472,6.207 -3.741,4.0403 -4.2078,4.8004 -3.1817,5.1641 3.9399,1.3965 5.6057,6.5532 2.9063,8.9961 -0.9203,0.8328 -1.4405,2.7615 -2.0215,7.5039 l -0.7813,6.3848 2.3457,7.4687 c 1.2901,4.1081 3.1049,9.0869 4.0332,11.0645 3.378,7.1964 4.8555,11.279 4.8555,13.4492 0,0.6936 0.5459,2.151 1.209,3.2383 0.6631,1.0873 1.5822,3.1465 2.043,4.5761 1.1272,3.4972 8.8772,18.2013 11.5761,21.9629 1.1918,1.6609 2.168,3.2993 2.168,3.6426 0,0.3432 1.0438,2.0745 2.3203,3.8457 1.2766,1.7712 2.8942,4.3976 3.5938,5.8359 2.4664,5.071 9.1465,14.0292 25.0156,33.543 1.3713,1.6862 2.7746,3.654 3.1172,4.3731 0.3427,0.7191 1.5285,2.9268 2.6347,4.9043 1.1061,1.9776 2.9034,5.3601 3.9942,7.5175 1.0908,2.1574 2.8282,5.1882 3.8613,6.7344 1.033,1.5462 1.8789,2.986 1.8789,3.2012 0,0.8221 13.0123,20.2193 18.6309,27.7715 8.8078,11.8388 11.4414,15.5625 11.4414,16.1855 0,1.1046 4.7955,7.6849 11.4668,15.7324 12.2409,14.7661 19.3662,24.8308 23.9316,33.8086 1.3197,2.595 2.9414,5.5388 3.6035,6.541 1.6175,2.448 2.5469,3.9545 4.3028,6.9727 0.8127,1.3971 1.7743,3.0152 2.1367,3.5957 1.4186,2.2722 8.5038,11.6444 10.5371,13.9375 1.1812,1.3322 2.7245,3.5377 3.4297,4.9023 1.1126,2.1529 7.0319,9.7347 14.7832,18.9356 1.263,1.4994 2.2969,3.0072 2.2969,3.3516 0,0.3444 0.4276,0.9812 0.9492,1.414 0.5215,0.4328 1.8128,2.3075 2.8711,4.166 1.0584,1.8584 5.1872,6.9895 9.1758,11.4024 3.9886,4.4129 7.433,8.7375 7.6523,9.6113 0.2193,0.8737 3.6414,4.6047 7.6055,8.291 3.9642,3.6864 9.2029,9.0913 11.6406,12.0098 2.4377,2.9186 7.7372,8.2271 11.7773,11.7969 7.0163,6.1995 7.4786,6.4902 10.3321,6.4902 2.8415,0 3.1145,0.167 5.5605,3.4316 1.4144,1.8877 2.8226,3.4317 3.1309,3.4317 0.3083,0 4.0185,-2.1161 8.2441,-4.7032 9.9297,-6.0795 22.4799,-16.4079 34.6172,-28.4902 8.3389,-8.301 10.6591,-11.0995 16.793,-20.2558 l 7.1172,-10.625 -5.6465,-5.8575 c -3.1055,-3.2215 -5.6465,-6.3374 -5.6465,-6.9238 0,-0.5865 -1.5698,-2.8753 -3.4883,-5.0879 -3.1066,-3.5829 -6.7419,-8.4216 -8.6055,-11.4531 -4.5349,-7.3769 -25.0546,-29.2271 -30.1543,-32.1094 -3.0016,-1.6965 -18.6099,-17.5999 -29.664,-30.2246 -1.6181,-1.8479 -7.221,-7.7947 -12.4512,-13.2148 -5.2303,-5.4202 -10.3689,-11.0305 -11.4199,-12.4688 -1.051,-1.4382 -3.8334,-4.7 -6.1817,-7.248 -2.3483,-2.5479 -6.2605,-6.9612 -8.6933,-9.8067 -2.4329,-2.8455 -6.4902,-7.5855 -9.0176,-10.5332 l -4.5957,-5.3593 1.5684,-2.4864 c 0.8627,-1.367 1.7775,-3.1448 2.0332,-3.9511 0.2557,-0.8063 1.6735,-2.9949 3.1504,-4.8633 1.4769,-1.8685 3.687,-5.3264 4.9121,-7.6856 1.225,-2.3591 2.8161,-4.9227 3.5351,-5.6953 0.719,-0.7726 2.0983,-2.8319 3.0664,-4.5762 3.4085,-6.1416 4.3708,-7.6212 6.8614,-10.5605 1.3827,-1.6318 3.2098,-4.0675 4.0586,-5.4121 0.8488,-1.3446 2.354,-3.2565 3.3457,-4.2481 l 1.8027,-1.8027 -1.9277,-1.3613 c -2.6244,-1.8517 -10.705,-10.0683 -16.6563,-16.9375 -2.6967,-3.1127 -5.0507,-5.6641 -5.2305,-5.6641 -0.1798,0 -2.9749,2.6851 -6.2109,5.9727 -3.2361,3.2877 -7.7956,7.9169 -10.1328,10.2871 -2.3371,2.3702 -4.8376,5.089 -5.5567,6.041 -2.4999,3.3093 -8.382,10.0845 -12.9082,14.8691 -4.8856,5.1646 -4.6229,5.0866 -8.666,2.545 -3.4423,-2.1639 -11.0462,-9.502 -14.4804,-13.9747 -5.6553,-7.3654 -21.3752,-23.7104 -25.2754,-26.2812 -1.866,-1.23 -8.6637,-7.5712 -15.1075,-14.0898 -6.4439,-6.5186 -15.1678,-15.0878 -19.3867,-19.043 -7.6795,-7.1995 -12.8014,-12.8559 -16.7871,-18.541 -1.1695,-1.6682 -5.1416,-6.0249 -8.8262,-9.6817 -17.9116,-17.7762 -37.54,-39.2411 -38.6074,-42.2187 -0.2586,-0.7215 -0.8635,-1.0865 -1.5176,-1.1211 z"
         id="path196" />
      <path
         d="m 2984.6348,1673.3203 c -0.1581,0 -0.4814,0.2792 -1.0898,0.83 -2.38,2.1538 -3.8164,6.2901 -3.2852,9.4571 0.4026,2.4001 0.8449,3.0424 2.7578,4.0019 2.8688,1.4389 7.0568,1.472 9.1621,0.07 2.6347,-1.7544 3.25,-2.9263 3.25,-6.1855 0,-3.0368 -0.049,-3.1059 -2.7793,-4.123 -1.5281,-0.5692 -3.9544,-1.2761 -5.3926,-1.5704 -1.9126,-0.3913 -2.5895,-0.8411 -2.5175,-1.6757 0.046,-0.5371 0.053,-0.8028 -0.1055,-0.8028 z"
         style="fill:#ffffff"
         id="path202" />
    </g>
    <path
       d="m 27.2297,245.83871 c -0.0691,0.003 -0.43698,0.19714 -0.81751,0.43151 -0.38055,0.2344 -0.84386,0.42683 -1.02992,0.42683 -0.18602,0 -0.92559,0.26471 -1.64332,0.58653 -2.16432,0.97046 -4.95964,1.33236 -7.65998,0.99218 -0.88104,-0.11099 -1.93284,-0.24378 -2.33786,-0.29506 -0.60812,-0.077 -0.75435,-0.0387 -0.83767,0.22013 -0.19995,0.62135 -0.49186,1.11938 -1.02576,1.74874 l -0.54364,0.64027 0.15502,2.50838 c 0.0853,1.37946 0.10797,3.40333 0.0501,4.49739 -0.1633,3.08858 -0.42384,7.1216 -0.62582,9.68623 -0.38008,4.82616 -0.64926,24.02904 -0.50179,35.80506 0.1405,11.21815 -0.18721,23.5431 -0.7286296,27.41589 -0.23347,1.66997 -0.33316,22.19108 -0.10851,22.3299 0.30274,0.18712 8.8358396,0.94419 13.2053796,1.1715 5.89757,0.30678 7.9928,0.33073 8.13906,0.0941 0.12682,-0.20519 -0.36404,-4.88712 -0.61497,-5.86579 -0.23153,-0.90286 -0.35888,-2.33069 -0.52451,-5.88079 -0.0821,-1.75998 -0.23378,-3.82315 -0.33692,-4.58422 -0.10739,-0.79227 -0.21553,-5.41337 -0.2532,-10.81069 -0.0362,-5.18483 -0.11626,-9.55363 -0.17778,-9.70846 -0.1397,-0.35166 0.45442,-0.44582 3.71398,-0.59015 1.28432,-0.0569 2.72466,-0.16952 3.20033,-0.25011 0.47566,-0.0806 1.48732,-0.23747 2.24842,-0.34881 0.76108,-0.11133 2.08418,-0.32244 2.9404,-0.4687 0.85622,-0.14624 2.10187,-0.31462 2.7678,-0.37415 l 1.21076,-0.108 -0.0164,-1.38388 c -0.0424,-3.55254 -0.29146,-9.00928 -0.41753,-9.14313 -0.13714,-0.1456 -3.56791,-0.16983 -3.79926,-0.0269 -0.0644,0.0398 -1.94025,0.15674 -4.16872,0.25992 -3.75524,0.17386 -6.39535,0.38817 -7.70083,0.62529 l -0.53536,0.0971 -0.13282,-1.44124 c -0.36473,-3.95964 -0.43448,-5.60969 -0.61804,-14.58671 -0.20045,-9.80295 -0.12819,-18.532 0.17827,-21.53513 0.84633,-8.2931 1.07064,-11.30051 1.09657,-14.70244 0.0279,-3.67785 0.0228,-3.73177 -0.43924,-4.84365 -0.67556,-1.62618 -1.16596,-2.59506 -1.31,-2.58898 z m 14.57378,61.06242 c 0.34602,-0.0103 0.4408,0.0429 0.41084,0.18397 -0.028,0.13171 0.0754,0.43444 0.22995,0.6723 0.71377,1.09869 0.37293,3.63673 -0.55086,4.10157 -0.60407,0.30393 -2.09042,0.27951 -2.54921,-0.0419 -0.88254,-0.61815 -0.63119,-2.76114 0.47387,-4.04059 0.58333,-0.67537 0.75335,-0.76827 1.55083,-0.84492 0.17592,-0.0169 0.31925,-0.027 0.43458,-0.0305 z"
       style="fill:#000000;stroke-width:0.264583"
       id="path200" />
    <g
       id="g206"
       transform="matrix(0.13229167,-0.22913589,0.22913589,0.13229167,-644.76336,666.24657)">
      <path
         d="m 2693.1953,1569.9531 c -0.024,-7e-4 -0.047,3e-4 -0.07,0 -0.2039,0.015 -0.3621,0.123 -0.5097,0.3008 -0.5564,0.6709 -1.5673,0.8586 -3.3379,0.6211 -2.2815,-0.306 -3.1873,0.085 -8.9414,3.8555 -3.5216,2.3074 -6.6874,4.1933 -7.0352,4.1933 -0.3477,0 -4.4252,1.4777 -9.0625,3.2832 -4.6373,1.8055 -11.9625,4.6459 -16.2773,6.3125 -4.3147,1.6666 -11.2964,4.7505 -15.5157,6.8516 -4.2194,2.1012 -8.0143,3.8203 -8.4316,3.8203 -0.4172,0 -2.8992,1.0286 -5.5156,2.2871 -2.6165,1.2585 -5.0657,2.2891 -5.4434,2.2891 -0.8507,0 -14.7254,6.8449 -25.2734,12.4687 -4.334,2.3107 -10.8064,5.3426 -14.3828,6.7364 -3.5764,1.3937 -8.2665,3.3353 -10.4239,4.3164 -2.1574,0.9812 -4.8598,2.1485 -6.0039,2.5937 -1.1441,0.4452 -3.0569,1.5311 -4.25,2.4121 -1.193,0.8809 -3.786,2.0657 -5.7636,2.6328 -1.9776,0.567 -4.3316,1.4166 -5.2305,1.8887 -0.8989,0.4721 -5.9335,2.8992 -11.1875,5.3926 -5.2539,2.4933 -11.0493,5.6744 -12.8789,7.0703 -1.8296,1.396 -6.6015,4.5982 -10.6055,7.1152 -8.4492,5.3112 -25.1222,17.4984 -29.3945,21.4864 -1.6181,1.5103 -4.1204,3.6433 -5.5586,4.7402 -2.5784,1.9664 -15.1082,9.4023 -15.8438,9.4023 -1.2318,0 -20.8682,12.8568 -24.0547,15.75 -0.7299,0.6626 -3.6714,2.3925 -6.5371,3.8438 -10.8586,5.4993 -20.2102,11.8576 -28.4179,19.3203 -3.866,3.5152 -8.5429,6.8496 -9.6075,6.8496 -0.4674,0 -1.9533,0.9789 -3.3027,2.1758 -1.3494,1.1968 -4.8071,3.878 -7.6836,5.959 -2.8765,2.0811 -7.8772,6.3532 -11.1133,9.4941 -3.236,3.141 -6.818,6.3479 -7.9589,7.125 -2.1191,1.4435 -9.6921,5.4037 -12.6348,6.6074 -3.0539,1.2491 -5.5173,3.1047 -12.3164,9.2793 l -3.4903,3.1719 3.1329,5.3867 c 6.6594,11.4542 21.5894,31.7124 30.6425,41.5782 1.8613,2.0284 5.2127,6.0069 7.4493,8.8398 2.2367,2.833 5.8784,7.1479 8.0918,9.5898 l 4.0234,4.4415 4.9316,-4.4239 c 2.7125,-2.4329 6.4033,-5.1695 8.2012,-6.082 15.9911,-8.116 15.326,-7.5962 33.9961,-26.5977 10.5406,-10.7277 17.6819,-16.0566 30.373,-22.6621 4.5958,-2.392 7.7348,-4.6709 12.2168,-8.875 3.3174,-3.1117 7.9747,-7.0454 10.3497,-8.7402 4.1626,-2.9704 4.362,-3.0392 5.5859,-1.9316 0.6984,0.632 2.1462,2.7006 3.2168,4.5976 1.0706,1.8971 2.4778,3.8427 3.1269,4.3223 0.6492,0.4796 2.5098,2.6814 4.1348,4.8926 3.085,4.1979 24.0231,24.0805 27.084,25.7187 l 1.7637,0.9434 15.6797,-15.9883 15.6816,-15.9863 -1.8477,-1.4922 c -2.2343,-1.8051 -2.0081,-1.574 -6.0293,-6.17 -1.7919,-2.0482 -3.7776,-4.5485 -4.4121,-5.5566 -2.6663,-4.2363 -7.6722,-9.3456 -12.0039,-12.2519 -2.6117,-1.7522 -5.3238,-4.2026 -6.2168,-5.6172 -0.8713,-1.3802 -1.9912,-2.7496 -2.4883,-3.043 -2.2569,-1.3322 -1.4635,-2.5101 4.0079,-5.9453 5.875,-3.6887 9.8654,-6.7345 17.7793,-13.5762 2.6967,-2.3313 7.6974,-6.0475 11.1132,-8.2578 12.5959,-8.1503 13.1532,-8.5414 20.8789,-14.5957 1.8353,-1.4383 5.1675,-4.1592 7.4043,-6.0469 2.2368,-1.8877 4.4006,-3.4316 4.8086,-3.4316 0.4081,0 1.1427,-0.482 1.6309,-1.0703 0.4882,-0.5882 2.0681,-1.8109 3.5117,-2.7188 1.4435,-0.9079 5.491,-4.5463 8.9942,-8.084 3.5032,-3.5377 6.8065,-6.4316 7.3398,-6.4316 0.5333,0 4.5789,-3.4916 8.9922,-7.7578 17.036,-16.4682 22.6077,-21.5353 26.5683,-24.166 2.2568,-1.499 4.3365,-2.7246 4.6211,-2.7246 1.1413,0 11.8434,-9.034 25.67,-21.668 4.2068,-3.844 9.0611,-7.9392 10.7871,-9.0996 4.2871,-2.8827 7.3886,-5.8858 7.3886,-7.1563 0,-0.5813 0.8823,-1.9021 1.961,-2.9355 1.3881,-1.3299 1.9609,-2.4988 1.9609,-3.9961 0,-1.3151 0.6314,-2.8655 1.6699,-4.0996 1.6024,-1.9044 1.6523,-2.2138 1.2168,-7.5801 l -0.4531,-5.5957 -5.1328,-5.1309 c -3.2846,-3.2844 -4.6061,-4.4517 -5.3477,-4.4726 z"
         id="path198" />
      <path
         style="fill:#ffffff"
         d="m 2529.7266,1780.9375 c 5.1665,0 7.7506,1.5842 8.7676,5.3613 0.958,3.5576 0.2257,5.7736 -2.3321,7.0644 -1.0748,0.5425 -2.6813,1.497 -3.5703,2.1231 -2.1891,1.5419 -5.4089,1.4594 -6.8906,-0.1778 -0.7392,-0.8168 -1.3072,-2.7008 -1.4941,-4.955 -0.2475,-2.9838 -0.053,-3.9718 1.0839,-5.5098 0.7622,-1.031 1.2106,-2.3336 0.9961,-2.8926 -0.3254,-0.8481 0.2442,-1.0136 3.4395,-1.0136 z"
         id="path206" />
    </g>
    <g
       id="g204"
       transform="matrix(0,0.26458333,-0.26458333,0,463.48687,-353.17847)">
      <path
         d="m 2430.3809,1602.0273 c -0.6831,0.01 -1.1055,0.431 -1.9395,1.4746 -3.2506,4.0675 -3.8192,8.087 -1.4765,10.4297 1.7921,1.7921 5.9034,2.2161 7.6308,0.7871 1.5475,-1.2801 3.1856,-4.2309 3.1856,-5.7402 0,-2.9514 -2.057,-5.2975 -5.7442,-6.5547 -0.7425,-0.2532 -1.2464,-0.3965 -1.6562,-0.3965 z"
         style="fill:none"
         id="path201" />
      <path
         d="m 2326.584,1509.8711 c -2.6772,0.087 -4.7012,0.4874 -6.0625,1.2031 -1.6997,0.8937 -26.4096,1.8552 -32.8906,1.2793 l -5.3457,-0.4766 -1.711,2.1445 c -2.1102,2.6446 -4.288,2.7856 -7.3203,0.4727 -1.5743,-1.2007 -2.2674,-1.4303 -2.459,-0.8164 -1.0726,3.4362 -1.8212,16.0049 -2.1464,36.0137 l -0.3809,23.3906 1.5176,1.6152 c 1.4951,1.5917 1.6737,1.6133 12.3535,1.6133 5.96,0 15.2491,-0.4442 20.6426,-0.9844 5.3934,-0.5402 13.7767,-0.9084 18.6308,-0.8164 10.7972,0.2045 32.2846,-0.5618 50.666,-1.8066 7.5509,-0.5113 19.35,-1.0324 26.2188,-1.1582 l 12.4883,-0.2285 -0.6211,2.6621 c -0.7322,3.1356 -0.8905,46.274 -0.1738,47.4336 0.3169,0.5126 1.2134,0.64 2.5351,0.3593 2.123,-0.451 17.235,-1.3784 33.9082,-2.082 6.4135,-0.2706 9.8618,-0.6786 10.3086,-1.2168 0.4605,-0.5553 0.4342,-1.9108 -0.084,-4.3242 -0.5308,-2.4717 -0.6045,-7.3006 -0.2461,-16.2637 0.2804,-7.0115 0.4728,-13.3355 0.4278,-14.0547 -0.2367,-3.7643 -0.072,-11.8169 0.2636,-12.873 0.3599,-1.1343 1.2712,-1.2048 14.2286,-1.1016 26.5264,0.2113 46.5725,-0.4535 58.2988,-1.9336 6.1126,-0.7716 14.0548,-1.6776 17.6504,-2.0136 3.5956,-0.336 11.6861,-1.3635 17.9785,-2.2832 6.2923,-0.9198 16.8832,-1.9724 23.5351,-2.3399 6.6519,-0.3675 13.1377,-0.8299 14.4122,-1.0273 1.2744,-0.1975 8.0396,-0.6355 15.0351,-0.9727 6.9955,-0.3371 14.6316,-0.8999 16.9688,-1.2519 2.3371,-0.352 11.7607,-0.9336 20.9414,-1.2911 15.5289,-0.6048 22.0764,-1.3985 27.0078,-3.2734 1.4542,-0.5528 1.5216,-0.8 1.039,-3.7461 -0.2843,-1.7356 -1.0179,-5.0691 -1.6308,-7.4062 -0.925,-3.5273 -1.0544,-6.193 -0.7617,-15.6895 0.194,-6.2924 0.4548,-11.7896 0.5781,-12.2148 0.1703,-0.5869 -11.8182,-0.8986 -49.7891,-1.295 -27.5066,-0.2872 -53.3943,-0.5043 -57.5293,-0.4843 -14.6708,0.071 -48.9737,1.591 -67.664,2.998 -27.0906,2.0393 -60.2037,2.0516 -83.6055,0.033 -9.3075,-0.8027 -19.1626,-1.4732 -21.9004,-1.4922 -2.7378,-0.019 -7.1842,-0.4526 -9.8809,-0.9629 -3.073,-0.5814 -13.5658,-1.1728 -28.1113,-1.5839 -12.7644,-0.3607 -26.2157,-0.9851 -29.8926,-1.3868 -1.6387,-0.1789 -3.1505,-0.2948 -4.5332,-0.3496 0,0 0,0 0,0 -1.0365,-0.041 -2.0008,-0.046 -2.8926,-0.017 z m 103.7969,92.1562 c 0.4098,0 0.9137,0.1433 1.6562,0.3965 3.6872,1.2572 5.7442,3.6033 5.7442,6.5547 0,1.5093 -1.6381,4.4601 -3.1856,5.7402 -1.7274,1.429 -5.8387,1.005 -7.6308,-0.7871 -2.3427,-2.3427 -1.7741,-6.3622 1.4765,-10.4297 0.834,-1.0436 1.2564,-1.468 1.9395,-1.4746 z"
         id="path194" />
    </g>
    <path
       d="m 106.50853,178.1156 v 0 c -0.0307,-0.0593 -1.08614,-0.20709 -2.34561,-0.32813 -2.29476,-0.22056 -6.50129,-0.13735 -8.34573,0.16486 -0.48749,0.0798 -1.3812,0.0663 -2.07584,-0.0315 l -1.21957,-0.17209 -0.0527,-2.96259 c -0.0289,-1.62949 0.029,-4.20825 0.12867,-5.7304 0.19373,-2.95881 0.19815,-2.90012 -0.7674,-10.3782 -0.23339,-1.80755 -0.54374,-4.6877 -0.68987,-6.40011 -0.1461,-1.71244 -0.38055,-4.08649 -0.52091,-5.27566 -0.14034,-1.18919 -0.3737,-3.52395 -0.5183,-5.18882 -0.14459,-1.66484 -0.3847,-3.80547 -0.53382,-4.75681 -0.14912,-0.95134 -0.32901,-2.09894 -0.39997,-2.55024 -0.071,-0.4513 -0.29099,-0.99616 -0.48887,-1.21079 -0.19791,-0.21463 -0.3883,-0.54612 -0.42273,-0.73638 -0.0551,-0.30451 -0.24852,-0.36042 -1.61694,-0.46662 -0.85508,-0.0664 -1.78837,-0.19603 -2.07378,-0.28837 -0.28541,-0.0923 -0.7915,-0.21921 -1.12448,-0.28215 -1.04389,-0.1973 -3.8459,-1.33313 -4.95628,-2.00917 -0.58539,-0.35642 -1.11162,-0.60095 -1.16943,-0.54314 -0.0578,0.0578 -0.0713,0.22768 -0.0305,0.37725 0.0408,0.14959 0.1271,0.73869 0.19222,1.30947 0.0851,0.74626 0.30551,1.35848 0.78446,2.17869 0.89604,1.5345 1.32726,3.16047 1.72805,6.51589 0.18483,1.54728 0.49479,3.53195 0.68834,4.41058 0.52829,2.3981 0.75223,7.35343 0.73689,16.30028 -0.007,4.37619 -0.005,11.45908 0.006,15.74012 0.0109,4.28106 0.006,8.36761 -0.0103,9.08111 -0.0164,0.71353 -0.0677,4.06051 -0.11419,7.43778 -0.13719,9.97005 -0.46512,17.74349 -0.98288,23.30556 -0.35816,3.84767 -0.72691,9.86448 -0.74517,12.15379 l -0.0185,2.33524 3.28716,-0.0537 c 1.80755,-0.0295 4.06489,-0.13681 5.01623,-0.23823 0.95134,-0.10141 2.19609,-0.23265 2.76622,-0.29197 l 1.03664,-0.108 0.11628,-0.77824 c 0.32155,-2.15051 0.49099,-4.93499 0.49091,-8.05119 -5e-5,-1.89828 0.0856,-5.28069 0.19068,-7.51634 0.14523,-3.09317 0.14076,-5.01608 -0.0212,-8.04344 -0.11708,-2.18808 -0.24686,-6.66348 -0.28835,-9.94563 -0.0674,-5.33816 -0.10641,-5.9916 -0.36742,-6.19395 -0.27311,-0.21167 -0.27239,-0.23683 0.0109,-0.39738 0.1665,-0.0944 0.30231,-0.36274 0.30231,-0.59584 0,-0.57627 0.22032,-0.53266 0.89762,0.17674 l 0.57309,0.59997 5.68701,0.0233 c 4.61224,0.0188 5.71495,-0.0214 5.83528,-0.21137 0.0816,-0.12878 0.14827,-0.58423 0.15092,-1.01233 0.003,-0.42809 0.12925,-1.36236 0.28368,-2.07586 0.30679,-1.41746 1.08228,-7.11214 0.99219,-7.28586 z m -2.66341,4.8731 c -0.007,0.20153 -0.0611,0.35835 -0.16689,0.42375 -0.0951,0.0588 -0.17312,0.25662 -0.17312,0.43977 0,0.18314 -0.22048,0.58007 -0.4899,0.88159 -0.41016,0.45905 -0.64265,0.56041 -1.4273,0.62373 -0.86905,0.0701 -0.97422,0.0366 -1.44798,-0.46199 -0.43432,-0.45704 -0.51943,-0.69948 -0.5669,-1.61592 -0.0783,-1.51217 0.30919,-2.07653 1.56218,-2.27687 1.01841,-0.16285 1.98075,0.16849 2.37712,0.81857 0.22633,0.37118 0.34473,0.83151 0.33279,1.16737 z"
       style="fill:#000000;stroke-width:0.264583"
       id="path192" />
    <path
       d="m 45.18541,123.4782 c -0.13972,0.18033 -0.14609,2.07576 -0.0119,3.62412 0.0814,0.93915 0.0884,2.35023 0.0157,3.13624 -0.0728,0.78597 -0.11849,1.79863 -0.10194,2.25021 0.0165,0.45162 -0.006,1.50306 -0.0494,2.33603 -0.0436,0.83295 -0.11171,2.34089 -0.15154,3.35123 -0.0399,1.01034 -0.17219,2.29872 -0.29377,2.86315 -0.1216,0.56445 -0.21234,1.18338 -0.20152,1.37554 0.0108,0.19215 -0.0884,0.6471 -0.22053,1.01107 -0.15614,0.43006 -0.16298,1.6507 -0.0195,3.48622 0.12148,1.55333 0.17929,3.35351 0.12831,4.00082 -0.12669,1.60877 0.26096,6.58823 0.64004,8.21891 0.17061,0.73391 0.49866,2.57404 0.72853,4.08928 0.47802,3.15101 0.87274,5.3568 0.97288,5.43439 0.0379,0.0293 0.24607,0.0711 0.46267,0.0931 0.74278,0.0752 0.43395,0.36266 -0.6256,0.58217 -0.70836,0.14679 -1.05731,0.30382 -1.05163,0.47306 0.009,0.28048 -1.06862,0.47522 -1.10365,0.19937 -0.0303,-0.23883 -0.62188,-0.17138 -1.73657,0.19863 -0.91703,0.30439 -1.93453,0.47706 -4.63998,0.78625 -0.53414,0.061 -1.03672,0.19563 -1.11681,0.29899 -0.0801,0.10336 -0.61196,0.28758 -1.18157,0.40963 -0.56965,0.12206 -1.31396,0.3797 -1.65446,0.57277 -0.58767,0.33324 -0.62055,0.38263 -0.64428,0.96905 -0.0137,0.3398 0.0666,0.90798 0.17825,1.26253 0.11167,0.35453 0.23493,0.98409 0.27443,1.39911 0.0955,1.00297 0.82789,3.95224 1.41177,5.68553 0.52936,1.57153 0.41553,1.52055 2.13845,0.95408 0.56226,-0.18489 1.39145,-0.35865 1.84276,-0.38637 0.45132,-0.0277 1.00554,-0.20435 1.23125,-0.39269 0.25665,-0.21419 1.26368,-0.47586 2.68871,-0.69777 2.49939,-0.38922 2.49803,-0.38854 4.69996,-0.88558 1.7386,-0.39246 2.22496,-0.43108 2.1389,-0.16867 -0.032,0.0977 -0.17966,0.19303 -0.32819,0.21184 -0.1485,0.0189 -0.33006,0.1121 -0.4036,0.20702 -0.21345,0.2755 0.0366,3.01938 0.33403,3.66531 0.14902,0.32361 0.30612,1.21253 0.34941,1.9756 0.0433,0.76307 0.21999,1.65826 0.39243,1.98934 0.44598,0.85623 0.73777,3.7118 0.68077,6.66193 -0.0269,1.3921 -0.0109,3.18907 0.0356,3.99306 0.086,1.48678 0.0562,2.62137 -0.16675,6.35178 -0.0745,1.24682 0.0183,3.2748 0.22995,5.02219 0.42275,3.49076 0.40674,6.31052 -0.0506,8.77619 -0.16539,0.89167 0.0351,2.66949 0.32653,2.89531 0.12556,0.0973 0.38908,0.14072 0.58582,0.0969 0.44905,-0.0999 4.74738,-0.33075 5.45474,-0.29293 0.2889,0.0155 0.72454,0.0354 0.96805,0.044 0.59692,0.0212 2.75653,0.94576 3.45138,1.47776 0.30867,0.23586 0.63047,0.42053 0.71609,0.40968 0.0856,-0.0109 0.13956,-0.48647 0.11931,-1.0568 -0.0203,-0.5703 0.0363,-1.22623 0.12591,-1.45764 0.0896,-0.23144 0.13716,-0.73622 0.10554,-1.12173 -0.10312,-1.25748 0.0686,-2.66791 0.46995,-3.855 0.53966,-1.59626 1.3323,-4.93228 1.73503,-7.30441 0.18407,-1.08421 0.53197,-2.75385 0.77342,-3.71009 0.24144,-0.95621 0.40964,-2.03022 0.37376,-2.38674 -0.0616,-0.61141 0.012,-2.31509 0.22161,-5.13844 0.0507,-0.68281 0.10012,-1.58005 0.10982,-1.99377 0.01,-0.41372 0.0741,-1.34838 0.14303,-2.07716 0.069,-0.72879 0.18304,-2.16658 0.25351,-3.19507 0.0705,-1.02852 0.15474,-2.19405 0.18736,-2.59 0.0326,-0.39594 0.0689,-0.95858 0.0804,-1.25038 0.0114,-0.29185 0.16731,-1.54952 0.34667,-2.79476 0.17933,-1.24522 0.29696,-2.99632 0.2613,-3.89111 -0.0585,-1.46762 0.11128,-2.80064 0.98346,-7.72658 0.37336,-2.10862 0.39104,-2.74315 0.13318,-4.7121 -0.12267,-0.93667 -0.18775,-2.50447 -0.14489,-3.48414 0.0429,-0.97967 0.0937,-2.17115 0.11261,-2.64792 0.0561,-1.41213 0.20179,-2.61723 0.47414,-3.91775 0.14092,-0.67304 0.26281,-1.53513 0.27075,-1.91547 0.008,-0.38033 0.26618,-1.65669 0.5741,-2.83687 0.30787,-1.18016 0.59512,-2.61108 0.63819,-3.17944 0.0431,-0.56836 0.12782,-1.49744 0.18844,-2.06489 0.0606,-0.56746 0.0738,-1.23762 0.0291,-1.48883 -0.0447,-0.2512 -0.0377,-0.51238 0.0154,-0.58099 0.0955,-0.12323 0.1038,-1.13715 0.0233,-2.74779 -0.0228,-0.45532 0.0334,-1.2623 0.12455,-1.79341 0.0911,-0.53111 0.20174,-1.38099 0.24585,-1.88837 0.0779,-0.89553 0.47988,-3.03577 1.04473,-5.56298 0.27185,-1.21625 0.74686,-2.09352 1.1128,-2.05473 0.1449,0.0154 0.77429,-2.60308 0.72292,-3.00788 -0.006,-0.0487 -0.98175,-0.27903 -2.16782,-0.51203 -1.18607,-0.23301 -3.5369,-0.73895 -5.22424,-1.12421 -2.94767,-0.67307 -13.6819,-2.20741 -17.33536,-2.47802 -0.96743,-0.0716 -2.35268,-0.22224 -3.07794,-0.33466 -0.72525,-0.11239 -1.34316,-0.17242 -1.37352,-0.13325 z m -7.95716,52.35058 c 0.65863,-0.85008 1.24978,-0.99778 2.07492,-0.51894 0.84543,0.49064 1.33891,1.27988 1.39769,2.23672 0.0404,0.65781 -0.0428,0.91588 -0.47141,1.46907 -0.41726,0.53855 -0.61227,0.66697 -0.98843,0.64885 -0.59892,-0.0289 -1.46497,-0.69359 -1.47958,-1.13623 -0.006,-0.18643 -0.22353,-0.56552 -0.48295,-0.84226 -0.64586,-0.68903 -0.65666,-1.07451 -0.0501,-1.85743 z"
       id="path189"
       style="fill:#000000;stroke-width:0.264583" />
    <path
       d="m 143.88928,126.70886 c -0.2637,-0.32679 -5.13149,-1.049 -11.28269,-1.67407 -6.37139,-0.64747 -9.95676,-0.83812 -13.42567,-0.71313 -0.77215,0.0278 -1.97481,0.0347 -2.67292,0.0154 l -1.26955,-0.0353 -0.10621,1.13152 c -0.21964,2.34023 -0.16472,6.11978 0.10587,7.29457 0.28984,1.2583 0.40443,3.16654 0.34394,5.72326 -0.0488,2.06147 -0.0223,3.03735 0.12112,4.45878 0.0684,0.67826 0.16164,1.67919 0.20701,2.22412 0.14854,1.78386 0.28999,2.76224 0.42263,2.92662 0.0717,0.0889 0.12307,0.58487 0.11416,1.10179 -0.0152,0.88319 7e-4,3.63067 0.0325,5.57754 0.008,0.47743 0.0604,1.08064 0.11655,1.34091 0.0562,0.26029 0.2043,1.66315 0.3291,3.11763 l 0.22711,2.64483 -1.12967,-0.0825 c -0.62113,-0.0455 -1.2082,-0.0191 -1.30461,0.0587 -0.0964,0.0778 -1.02079,0.14881 -2.05417,0.15755 -2.57134,0.0217 -3.24262,0.064 -4.11725,0.26054 -2.46229,0.55327 -4.18702,0.74539 -5.26033,0.58596 -1.10315,-0.16387 -2.77861,0.0942 -2.90281,0.44721 -0.0297,0.0844 0.11377,0.69424 0.31861,1.35517 0.20485,0.66095 0.35218,1.51777 0.32794,1.90408 -0.0868,1.38265 0.027,2.43955 0.34069,3.17072 0.41031,0.95645 0.52672,1.5709 0.71164,3.75054 0.0833,0.98139 0.23795,1.8149 0.3438,1.85212 0.10585,0.0372 0.67863,-0.0336 1.27254,-0.15766 0.5939,-0.12406 2.16893,-0.2223 3.50049,-0.21836 3.10733,0.009 4.70622,-0.0511 5.43798,-0.20537 0.32169,-0.0678 1.01377,-0.0726 1.53757,-0.0103 0.52381,0.0623 1.0488,0.0414 1.16665,-0.0469 0.11787,-0.0883 0.55867,-0.26433 0.97964,-0.39143 l 0.76556,-0.23131 -0.26093,2.31154 c -0.1433,1.2715 -0.18752,3.00345 -0.0985,3.84845 0.089,0.845 0.24582,2.31842 0.3483,3.2748 0.13623,1.27108 0.0743,2.55521 -0.23103,4.77287 l -0.41788,3.03379 0.58166,2.83485 c 0.31989,1.55927 0.67052,3.33023 0.77931,3.93563 0.22509,1.25275 0.13412,4.87657 -0.17841,7.10763 -0.17156,1.22457 -0.126,1.90975 0.2449,3.69223 0.8315,3.99602 0.98109,4.87111 0.93444,5.46917 -0.0514,0.6592 0.76577,4.11143 1.0594,4.4753 0.14361,0.17797 1.00942,2.60744 1.32146,3.70802 0.11174,0.3941 0.14455,1.4679 0.0728,2.38617 -0.0735,0.9406 -0.0159,2.15933 0.13207,2.79121 0.1445,0.61687 0.28757,1.25128 0.31786,1.41019 0.0303,0.15892 0.0805,0.32787 0.11168,0.37539 0.11889,0.18142 0.88713,0.10735 1.53464,-0.14803 1.68009,-0.66263 3.9139,-1.29292 4.61628,-1.30268 0.84582,-0.0117 1.1859,-0.0724 4.08203,-0.72546 3.22216,-0.72659 3.02237,-0.62266 3.54752,-1.838 0.25009,-0.57877 0.67443,-1.8338 0.94289,-2.78881 0.26848,-0.95497 0.56682,-1.88706 0.663,-2.07089 0.61692,-1.17896 0.68678,-7.49523 0.11177,-10.09837 -0.17187,-0.77818 -0.32435,-1.65515 -0.33894,-1.94899 -0.0146,-0.29386 -0.12889,-1.65224 -0.2537,-3.01843 -0.42319,-4.63168 -0.3757,-6.57506 0.21715,-8.94902 0.14447,-0.57843 0.45838,-2.79223 0.69765,-4.9196 0.40896,-3.63607 0.99238,-7.41548 1.45764,-9.44267 0.24269,-1.05745 0.69558,-3.29059 0.93572,-4.61303 0.0943,-0.51943 0.28386,-1.30116 0.42115,-1.73696 0.1373,-0.43585 0.31475,-1.82694 0.39461,-3.09141 0.14066,-2.22737 0.59682,-5.60684 1.13999,-8.44727 0.4302,-2.24972 0.48383,-3.11503 0.31333,-5.0856 -0.089,-1.02838 -0.11585,-2.45736 -0.0591,-3.17553 0.0568,-0.71817 0.0557,-1.83709 -0.003,-2.4867 -0.0582,-0.64962 -0.0713,-1.43204 -0.0289,-1.73837 0.0424,-0.30632 0.0376,-0.60603 -0.0111,-0.66634 -0.27121,-0.3361 -0.0936,-3.56738 0.5159,-9.38196 0.72208,-6.88826 1.35219,-14.8835 1.1886,-15.08624 z M 106.125,167.12583 c 0.29979,0.37152 0.63906,1.39712 0.62036,1.96363 -0.0195,0.59094 -0.66532,1.51312 -1.2871,1.83807 -0.2207,0.11533 -0.72174,0.2008 -1.11357,0.19009 -0.70093,-0.0191 -1.52426,-0.58267 -1.82763,-1.25106 -0.19025,-0.41922 0.38877,-1.62716 1.02669,-2.14192 0.62847,-0.50713 2.08412,-0.93062 2.45656,-0.71466 0.0401,0.0231 0.0819,0.0628 0.1247,0.11584 z"
       id="path186"
       style="stroke-width:0.264583" />
    <path
       d="m 24.19492,232.75178 0.50797,-0.53795 c 0.63489,-0.67228 1.2677,-0.70263 1.8402,-0.0878 0.39616,0.4254 0.49112,0.44603 1.71667,0.36846 0.7135,-0.0451 1.51141,-0.16783 1.77303,-0.27287 0.45961,-0.18452 0.47519,-0.23349 0.46302,-1.44952 -0.007,-0.69207 -0.0854,-1.68645 -0.17415,-2.20969 -0.2104,-1.23981 -0.6514,-4.83759 -0.84802,-6.91893 -0.0854,-0.90379 -0.23182,-2.11019 -0.32554,-2.681 -0.21897,-1.33382 -0.67238,-5.8892 -0.89506,-8.99427 -0.22489,-3.13664 -0.98906,-9.04455 -1.31723,-10.18233 -0.48069,-1.66635 -0.48032,-1.78684 0.009,-2.24068 0.51374,-0.47615 1.93527,-0.66665 4.68757,-0.62839 0.85622,0.0119 2.25142,-0.0671 3.10058,-0.17518 0.84918,-0.10808 1.94315,-0.14621 2.43086,-0.0853 0.64275,0.0803 0.93763,0.0466 1.0723,-0.12145 0.4572,-0.57054 0.70313,-6.22945 0.42735,-9.83144 -0.11012,-1.43859 -0.12157,-1.46965 -0.54467,-1.42729 -0.53848,0.0539 -5.13236,0.31033 -10.02625,0.55965 -2.88303,0.14687 -3.77788,0.24817 -4.00389,0.4527 -0.26831,0.24283 -0.30091,0.1919 -0.416,-0.65527 -0.0687,-0.50538 -0.26784,-1.38618 -0.44286,-1.95699 -0.17502,-0.57081 -0.43246,-1.73844 -0.57206,-2.59466 -0.13962,-0.85619 -0.40751,-2.45147 -0.59531,-3.54553 -0.1878,-1.09402 -0.3874,-2.76783 -0.44339,-3.71916 -0.056,-0.95134 -0.21645,-2.16961 -0.35658,-2.70733 -0.32758,-1.25727 -0.66273,-7.21159 -0.56327,-10.00609 0.17844,-5.01359 0.70485,-9.06489 1.50638,-11.58896 0.0755,-0.23783 0.23175,-1.01611 0.34674,-1.72961 0.11496,-0.7135 0.39589,-1.78604 0.62425,-2.38331 0.28827,-0.75396 0.47088,-1.74069 0.59791,-3.2272 0.17923,-2.09714 0.13539,-3.00554 -0.36433,-7.53547 -0.17248,-1.56355 -0.89607,-4.30239 -1.29913,-4.91752 -0.33227,-0.50712 -0.39241,-0.51273 -2.58847,-0.25373 -1.43995,0.16981 -1.719,0.15557 -2.53783,-0.1297 -0.75171,-0.26194 -1.44164,-0.32041 -3.77394,-0.32041 -2.75397,0 -2.88126,-0.0156 -3.6323296,-0.44752 -0.4281,-0.24609 -0.82349,-0.40206 -0.8785,-0.34623 -0.12073,0.1225 -0.63309,4.98718 -0.76689,7.28019 -0.10242,1.75517 -0.19405,2.53344 -0.85368,7.26467 -0.4195,3.00876 -0.42069,3.07239 -0.25736,10.55129 0.15711,7.19399 0.25924,8.74223 0.67955,10.29187 0.41995,1.54837 0.82458,7.21003 0.85318,11.93469 0.009,1.427 0.0967,3.29547 0.19584,4.15168 0.0991,0.85622 0.33071,2.99628 0.51419,4.75629 0.18352,1.75998 0.44292,3.82262 0.57672,4.58369 0.8670396,4.9317 1.2813196,19.78308 0.6945296,24.89152 -0.235,2.04574 -0.24718,2.74447 -0.076,4.34081 0.47387,4.41931 0.55803,6.06282 0.47905,9.34051 -0.0458,1.90267 -0.0302,3.65392 0.0346,3.89175 l 0.11785,0.43254 3.62458,0.005 c 2.77987,0.004 3.912,0.0728 4.85759,0.29609 0.67807,0.16013 2.03991,0.34182 3.02668,0.4036 z m 11.43444,-39.65752 c -0.32377,-0.0206 -0.70781,-0.13004 -0.9493,-0.31573 -0.30996,-0.23836 -0.43349,-0.53501 -0.49712,-1.19734 -0.11711,-1.21857 0.0482,-1.71913 0.69762,-2.11514 0.69967,-0.42653 1.10427,-0.4283 1.79473,-0.007 0.95607,0.58298 0.98081,2.12601 0.045,2.81792 -0.27716,0.20487 -0.50385,0.47463 -0.50385,0.59944 0,0.17034 -0.26329,0.23865 -0.58703,0.21807 z"
       id="path185"
       style="stroke-width:0.264583" />
    <rect
       style="fill:#000000;fill-opacity:1;stroke:none;stroke-width:0.264583"
       id="rect1"
       width="25.4"
       height="25.4"
       x="228.30887"
       y="26.276209" />
    <text
       xml:space="preserve"
       style="font-size:20.5863px;text-align:start;writing-mode:lr-tb;direction:ltr;text-anchor:start;fill:#000000;fill-opacity:1;stroke:none;stroke-width:1.71551"
       x="380.89795"
       y="29.961777"
       id="text11"
       transform="scale(0.58161984,1.7193361)"><tspan
         sodipodi:role="line"
         style="stroke-width:1.71551"
         x="380.89795"
         y="29.961777"
         id="tspan13"><tspan
   style="font-style:normal;font-variant:normal;font-weight:normal;font-stretch:normal;font-family:'Javanese Text';-inkscape-font-specification:'Javanese Text';stroke-width:1.71551"
   id="tspan14">I</tspan> </tspan></text>
    <text
       xml:space="preserve"
       style="font-size:20.5863px;text-align:start;writing-mode:lr-tb;direction:ltr;text-anchor:start;fill:#000000;fill-opacity:1;stroke:none;stroke-width:1.71551"
       x="-42.272934"
       y="147.53265"
       id="text11-2"
       transform="matrix(0,-0.58161984,1.7193361,0,0,0)"><tspan
         sodipodi:role="line"
         style="stroke-width:1.71551"
         x="-42.272934"
         y="147.53265"
         id="tspan13-3"><tspan
   style="font-style:normal;font-variant:normal;font-weight:normal;font-stretch:normal;font-family:'Javanese Text';-inkscape-font-specification:'Javanese Text';stroke-width:1.71551"
   id="tspan14-2">I</tspan> </tspan></text>
    <text
       xml:space="preserve"
       style="font-style:normal;font-variant:normal;font-weight:normal;font-stretch:normal;font-size:7.10399px;font-family:'Javanese Text';-inkscape-font-specification:'Javanese Text';text-align:start;writing-mode:lr-tb;direction:ltr;text-anchor:start;fill:#000000;fill-opacity:1;stroke:none;stroke-width:0.591995"
       x="213.35291"
       y="40.971252"
       id="text15"><tspan
         sodipodi:role="line"
         id="tspan15"
         style="font-style:normal;font-variant:normal;font-weight:normal;font-stretch:normal;font-family:sans-serif;-inkscape-font-specification:sans-serif;stroke-width:0.591995"
         x="213.35291"
         y="40.971252">1&quot;</tspan></text>
    <text
       xml:space="preserve"
       style="font-style:normal;font-variant:normal;font-weight:normal;font-stretch:normal;font-size:7.10399px;font-family:'Javanese Text';-inkscape-font-specification:'Javanese Text';text-align:start;writing-mode:lr-tb;direction:ltr;text-anchor:start;fill:#000000;fill-opacity:1;stroke:none;stroke-width:0.591995"
       x="237.19797"
       y="20.059454"
       id="text15-5"><tspan
         sodipodi:role="line"
         id="tspan15-7"
         style="font-style:normal;font-variant:normal;font-weight:normal;font-stretch:normal;font-family:sans-serif;-inkscape-font-specification:sans-serif;stroke-width:0.591995"
         x="237.19797"
         y="20.059454">1&quot;</tspan></text>
  </g>
</svg>
