999
"DXF R12 Output" (www.mydxf.blogspot.com)
 0 
SECTION
 2 
HEADER
 9 
$ACADVER
 1 
AC1009
 9 
$EXTMIN
 10 
 0 
 20 
 0 
 9 
$EXTMAX
 10 
 8.5 
 20 
 11 
 0 
ENDSEC
 0 
SECTION
 2 
ENTITIES
0
POLYLINE
8
Layer 1
62
7
70
0
10
0.000000
20
0.000000
66
1
0
VERTEX
8
Layer 1
10
84.893320
20
0.041690
70
0
0
VERTEX
8
Layer 1
10
84.974093
20
0.968946
70
0
0
VERTEX
8
Layer 1
10
85.336430
20
2.503680
70
0
0
VERTEX
8
Layer 1
10
85.705810
20
5.770240
70
0
0
VERTEX
8
Layer 1
10
86.058390
20
9.062050
70
0
0
VERTEX
8
Layer 1
10
86.181839
20
9.746952
70
0
0
VERTEX
8
Layer 1
10
86.068648
20
9.957301
70
0
0
VERTEX
8
Layer 1
10
85.757530
20
10.101665
70
0
0
VERTEX
8
Layer 1
10
84.297568
20
10.258693
70
0
0
VERTEX
8
Layer 1
10
81.314060
20
10.350540
70
0
0
VERTEX
8
Layer 1
10
78.266241
20
10.406702
70
0
0
VERTEX
8
Layer 1
10
76.039600
20
10.333798
70
0
0
VERTEX
8
Layer 1
10
70.624110
20
9.541540
70
0
0
VERTEX
8
Layer 1
10
69.059943
20
9.314005
70
0
0
VERTEX
8
Layer 1
10
68.390219
20
9.359855
70
0
0
VERTEX
8
Layer 1
10
68.572688
20
9.713752
70
0
0
VERTEX
8
Layer 1
10
69.565100
20
10.410360
70
0
0
VERTEX
8
Layer 1
10
72.861330
20
12.503530
70
0
0
VERTEX
8
Layer 1
10
80.575040
20
17.742400
70
0
0
VERTEX
8
Layer 1
10
83.593010
20
19.702853
70
0
0
VERTEX
8
Layer 1
10
86.576930
20
21.381410
70
0
0
VERTEX
8
Layer 1
10
91.540484
20
23.978381
70
0
0
VERTEX
8
Layer 1
10
93.212015
20
25.026285
70
0
0
VERTEX
8
Layer 1
10
94.342410
20
25.906570
70
0
0
VERTEX
8
Layer 1
10
96.614690
20
27.675213
70
0
0
VERTEX
8
Layer 1
10
99.378340
20
29.168680
70
0
0
VERTEX
8
Layer 1
10
101.585470
20
30.216520
70
0
0
VERTEX
8
Layer 1
10
102.644910
20
30.671890
70
0
0
VERTEX
8
Layer 1
10
108.689920
20
33.648310
70
0
0
VERTEX
8
Layer 1
10
111.317510
20
34.816200
70
0
0
VERTEX
8
Layer 1
10
112.501450
20
35.269874
70
0
0
VERTEX
8
Layer 1
10
114.413170
20
36.362918
70
0
0
VERTEX
8
Layer 1
10
116.405185
20
37.693362
70
0
0
VERTEX
8
Layer 1
10
117.830010
20
38.859240
70
0
0
VERTEX
8
Layer 1
10
120.026680
20
40.652461
70
0
0
VERTEX
8
Layer 1
10
122.420870
20
42.104680
70
0
0
VERTEX
8
Layer 1
10
125.687440
20
43.608580
70
0
0
VERTEX
8
Layer 1
10
129.181970
20
45.211680
70
0
0
VERTEX
8
Layer 1
10
131.142440
20
46.375720
70
0
0
VERTEX
8
Layer 1
10
132.029820
20
46.999610
70
0
0
VERTEX
8
Layer 1
10
132.717940
20
47.421870
70
0
0
VERTEX
8
Layer 1
10
134.580900
20
48.481980
70
0
0
VERTEX
8
Layer 1
10
137.390530
20
50.038946
70
0
0
VERTEX
8
Layer 1
10
139.195130
20
51.328200
70
0
0
VERTEX
8
Layer 1
10
140.306660
20
52.145000
70
0
0
VERTEX
8
Layer 1
10
141.676770
20
53.121030
70
0
0
VERTEX
8
Layer 1
10
142.388417
20
53.653189
70
0
0
VERTEX
8
Layer 1
10
143.022181
20
53.696661
70
0
0
VERTEX
8
Layer 1
10
143.815900
20
53.171133
70
0
0
VERTEX
8
Layer 1
10
145.007410
20
51.996290
70
0
0
VERTEX
8
Layer 1
10
146.497388
20
50.572903
70
0
0
VERTEX
8
Layer 1
10
147.582260
20
49.818860
70
0
0
VERTEX
8
Layer 1
10
149.314597
20
48.818473
70
0
0
VERTEX
8
Layer 1
10
152.526250
20
46.500110
70
0
0
VERTEX
8
Layer 1
10
156.675700
20
43.688850
70
0
0
VERTEX
8
Layer 1
10
160.431395
20
41.343060
70
0
0
VERTEX
8
Layer 1
10
163.108590
20
39.046530
70
0
0
VERTEX
8
Layer 1
10
167.087367
20
35.462196
70
0
0
VERTEX
8
Layer 1
10
168.560624
20
34.429225
70
0
0
VERTEX
8
Layer 1
10
170.196940
20
33.505970
70
0
0
VERTEX
8
Layer 1
10
172.516562
20
32.229466
70
0
0
VERTEX
8
Layer 1
10
174.267690
20
31.091130
70
0
0
VERTEX
8
Layer 1
10
175.745578
20
29.875747
70
0
0
VERTEX
8
Layer 1
10
177.245480
20
28.368100
70
0
0
VERTEX
8
Layer 1
10
179.310880
20
26.351455
70
0
0
VERTEX
8
Layer 1
10
181.910370
20
24.455980
70
0
0
VERTEX
8
Layer 1
10
187.082891
20
20.809954
70
0
0
VERTEX
8
Layer 1
10
190.169220
20
18.207320
70
0
0
VERTEX
8
Layer 1
10
193.200029
20
15.543829
70
0
0
VERTEX
8
Layer 1
10
196.492490
20
13.100740
70
0
0
VERTEX
8
Layer 1
10
200.071950
20
10.374430
70
0
0
VERTEX
8
Layer 1
10
202.722600
20
8.242240
70
0
0
VERTEX
8
Layer 1
10
204.751330
20
6.772010
70
0
0
VERTEX
8
Layer 1
10
206.211510
20
5.517700
70
0
0
VERTEX
8
Layer 1
10
205.561381
20
5.277316
70
0
0
VERTEX
8
Layer 1
10
204.133791
20
5.122539
70
0
0
VERTEX
8
Layer 1
10
200.023910
20
5.136240
70
0
0
VERTEX
8
Layer 1
10
192.491540
20
5.302900
70
0
0
VERTEX
8
Layer 1
10
189.027594
20
5.345431
70
0
0
VERTEX
8
Layer 1
10
187.370960
20
5.479950
70
0
0
VERTEX
8
Layer 1
10
184.176974
20
5.902541
70
0
0
VERTEX
8
Layer 1
10
178.129080
20
6.392850
70
0
0
VERTEX
8
Layer 1
10
173.803080
20
6.748150
70
0
0
VERTEX
8
Layer 1
10
169.969580
20
6.916510
70
0
0
VERTEX
8
Layer 1
10
165.908440
20
7.092410
70
0
0
VERTEX
8
Layer 1
10
159.706770
20
7.445960
70
0
0
VERTEX
8
Layer 1
10
153.350200
20
7.884040
70
0
0
VERTEX
8
Layer 1
10
145.816560
20
8.424870
70
0
0
VERTEX
8
Layer 1
10
138.400550
20
8.866710
70
0
0
VERTEX
8
Layer 1
10
128.954000
20
9.203190
70
0
0
VERTEX
8
Layer 1
10
116.013530
20
9.583660
70
0
0
VERTEX
8
Layer 1
10
109.038940
20
9.671360
70
0
0
VERTEX
8
Layer 1
10
106.908251
20
9.659035
70
0
0
VERTEX
8
Layer 1
10
104.061500
20
9.825660
70
0
0
VERTEX
8
Layer 1
10
98.728990
20
10.096200
70
0
0
VERTEX
8
Layer 1
10
97.010510
20
10.150079
70
0
0
VERTEX
8
Layer 1
10
96.495540
20
10.388330
70
0
0
VERTEX
8
Layer 1
10
96.296214
20
10.571955
70
0
0
VERTEX
8
Layer 1
10
96.034330
20
10.566220
70
0
0
VERTEX
8
Layer 1
10
95.861729
20
10.381054
70
0
0
VERTEX
8
Layer 1
10
95.815624
20
9.945864
70
0
0
VERTEX
8
Layer 1
10
96.113930
20
7.965360
70
0
0
VERTEX
8
Layer 1
10
96.109930
20
6.022970
70
0
0
VERTEX
8
Layer 1
10
95.855900
20
3.665010
70
0
0
VERTEX
8
Layer 1
10
95.616705
20
1.429196
70
0
0
VERTEX
8
Layer 1
10
95.324980
20
0.567840
70
0
0
VERTEX
8
Layer 1
10
91.065460
20
0.302170
70
0
0
VERTEX
8
Layer 1
10
85.995810
20
0.062480
70
0
0
VERTEX
8
Layer 1
10
84.893300
20
0.041680
70
0
0
VERTEX
8
Layer 1
10
84.893320
20
0.041690
70
0
0
SEQEND
8
Layer 1
0
POLYLINE
8
Layer 1
62
7
70
0
10
0.000000
20
0.000000
66
1
0
VERTEX
8
Layer 1
10
91.512400
20
2.675690
70
0
0
VERTEX
8
Layer 1
10
92.209890
20
3.485110
70
0
0
VERTEX
8
Layer 1
10
92.422412
20
3.982922
70
0
0
VERTEX
8
Layer 1
10
92.481392
20
4.470465
70
0
0
VERTEX
8
Layer 1
10
92.187380
20
5.345573
70
0
0
VERTEX
8
Layer 1
10
91.425166
20
5.972088
70
0
0
VERTEX
8
Layer 1
10
90.292060
20
6.211670
70
0
0
VERTEX
8
Layer 1
10
89.402080
20
6.042940
70
0
0
VERTEX
8
Layer 1
10
88.960630
20
5.223730
70
0
0
VERTEX
8
Layer 1
10
88.654246
20
4.580886
70
0
0
VERTEX
8
Layer 1
10
88.519449
20
3.879905
70
0
0
VERTEX
8
Layer 1
10
88.564252
20
3.240192
70
0
0
VERTEX
8
Layer 1
10
88.796670
20
2.781150
70
0
0
VERTEX
8
Layer 1
10
89.280189
20
2.590722
70
0
0
VERTEX
8
Layer 1
10
90.074240
20
2.502670
70
0
0
VERTEX
8
Layer 1
10
90.908438
20
2.527493
70
0
0
VERTEX
8
Layer 1
10
91.512400
20
2.675690
70
0
0
VERTEX
8
Layer 1
10
91.512400
20
2.675690
70
0
0
SEQEND
8
Layer 1
0
POLYLINE
8
Layer 1
62
7
70
0
10
0.000000
20
0.000000
66
1
0
VERTEX
8
Layer 1
10
90.944390
20
356.196370
70
0
0
VERTEX
8
Layer 1
10
90.764210
20
362.141300
70
0
0
VERTEX
8
Layer 1
10
90.653061
20
367.037236
70
0
0
VERTEX
8
Layer 1
10
90.549227
20
367.903183
70
0
0
VERTEX
8
Layer 1
10
90.379020
20
368.257472
70
0
0
VERTEX
8
Layer 1
10
90.022207
20
368.512062
70
0
0
VERTEX
8
Layer 1
10
89.603661
20
368.587433
70
0
0
VERTEX
8
Layer 1
10
89.165535
20
368.484923
70
0
0
VERTEX
8
Layer 1
10
88.749980
20
368.205872
70
0
0
VERTEX
8
Layer 1
10
88.448025
20
367.987008
70
0
0
VERTEX
8
Layer 1
10
87.977897
20
367.855368
70
0
0
VERTEX
8
Layer 1
10
85.648620
20
367.713260
70
0
0
VERTEX
8
Layer 1
10
83.416882
20
367.571964
70
0
0
VERTEX
8
Layer 1
10
82.288860
20
367.317152
70
0
0
VERTEX
8
Layer 1
10
81.466980
20
367.103504
70
0
0
VERTEX
8
Layer 1
10
81.401080
20
367.829240
70
0
0
VERTEX
8
Layer 1
10
81.742790
20
370.633724
70
0
0
VERTEX
8
Layer 1
10
82.474981
20
378.489999
70
0
0
VERTEX
8
Layer 1
10
82.880300
20
388.643984
70
0
0
VERTEX
8
Layer 1
10
83.316800
20
399.679676
70
0
0
VERTEX
8
Layer 1
10
84.024872
20
408.840649
70
0
0
VERTEX
8
Layer 1
10
84.380424
20
414.955576
70
0
0
VERTEX
8
Layer 1
10
84.442026
20
419.524259
70
0
0
VERTEX
8
Layer 1
10
84.268250
20
424.046504
70
0
0
VERTEX
8
Layer 1
10
84.031753
20
427.353942
70
0
0
VERTEX
8
Layer 1
10
83.883146
20
427.953614
70
0
0
VERTEX
8
Layer 1
10
83.650040
20
428.291914
70
0
0
VERTEX
8
Layer 1
10
83.339011
20
428.767568
70
0
0
VERTEX
8
Layer 1
10
83.438240
20
429.351341
70
0
0
VERTEX
8
Layer 1
10
83.589804
20
430.878905
70
0
0
VERTEX
8
Layer 1
10
83.660210
20
433.949315
70
0
0
VERTEX
8
Layer 1
10
83.696883
20
436.822109
70
0
0
VERTEX
8
Layer 1
10
83.931390
20
438.252866
70
0
0
VERTEX
8
Layer 1
10
84.200874
20
438.593586
70
0
0
VERTEX
8
Layer 1
10
84.613468
20
438.773124
70
0
0
VERTEX
8
Layer 1
10
85.992850
20
438.914422
70
0
0
VERTEX
8
Layer 1
10
88.708330
20
439.210531
70
0
0
VERTEX
8
Layer 1
10
91.445180
20
439.396390
70
0
0
VERTEX
8
Layer 1
10
92.921865
20
439.472872
70
0
0
VERTEX
8
Layer 1
10
93.740620
20
439.691506
70
0
0
VERTEX
8
Layer 1
10
95.594620
20
440.106428
70
0
0
VERTEX
8
Layer 1
10
99.037750
20
440.604985
70
0
0
VERTEX
8
Layer 1
10
103.148759
20
441.219985
70
0
0
VERTEX
8
Layer 1
10
105.835750
20
441.320643
70
0
0
VERTEX
8
Layer 1
10
107.513170
20
441.262193
70
0
0
VERTEX
8
Layer 1
10
107.449970
20
437.465914
70
0
0
VERTEX
8
Layer 1
10
107.233555
20
432.850405
70
0
0
VERTEX
8
Layer 1
10
106.729470
20
429.078784
70
0
0
VERTEX
8
Layer 1
10
106.554443
20
424.283550
70
0
0
VERTEX
8
Layer 1
10
106.608052
20
421.388212
70
0
0
VERTEX
8
Layer 1
10
106.752270
20
419.612182
70
0
0
VERTEX
8
Layer 1
10
106.915138
20
416.607115
70
0
0
VERTEX
8
Layer 1
10
106.972990
20
409.037950
70
0
0
VERTEX
8
Layer 1
10
107.041221
20
401.054494
70
0
0
VERTEX
8
Layer 1
10
107.223940
20
396.324826
70
0
0
VERTEX
8
Layer 1
10
107.361018
20
390.488822
70
0
0
VERTEX
8
Layer 1
10
106.961110
20
383.699998
70
0
0
VERTEX
8
Layer 1
10
106.594790
20
378.667714
70
0
0
VERTEX
8
Layer 1
10
106.457965
20
376.930736
70
0
0
VERTEX
8
Layer 1
10
106.142670
20
376.241458
70
0
0
VERTEX
8
Layer 1
10
105.945982
20
375.953187
70
0
0
VERTEX
8
Layer 1
10
105.826530
20
375.494722
70
0
0
VERTEX
8
Layer 1
10
105.709470
20
373.328038
70
0
0
VERTEX
8
Layer 1
10
105.516550
20
370.685254
70
0
0
VERTEX
8
Layer 1
10
103.230340
20
370.438066
70
0
0
VERTEX
8
Layer 1
10
101.568904
20
370.296779
70
0
0
VERTEX
8
Layer 1
10
101.266570
20
370.211484
70
0
0
VERTEX
8
Layer 1
10
101.244740
20
370.104346
70
0
0
VERTEX
8
Layer 1
10
101.291176
20
369.864307
70
0
0
VERTEX
8
Layer 1
10
101.054810
20
369.561970
70
0
0
VERTEX
8
Layer 1
10
100.856228
20
369.323530
70
0
0
VERTEX
8
Layer 1
10
100.753116
20
368.944033
70
0
0
VERTEX
8
Layer 1
10
100.741890
20
367.019026
70
0
0
VERTEX
8
Layer 1
10
100.599631
20
361.249682
70
0
0
VERTEX
8
Layer 1
10
100.291000
20
356.977210
70
0
0
VERTEX
8
Layer 1
10
98.646540
20
356.708070
70
0
0
VERTEX
8
Layer 1
10
92.131660
20
356.139390
70
0
0
VERTEX
8
Layer 1
10
91.317861
20
356.101702
70
0
0
VERTEX
8
Layer 1
10
90.944500
20
356.196390
70
0
0
VERTEX
8
Layer 1
10
90.944390
20
356.196370
70
0
0
SEQEND
8
Layer 1
0
POLYLINE
8
Layer 1
62
7
70
0
10
0.000000
20
0.000000
66
1
0
VERTEX
8
Layer 1
10
95.611360
20
359.952872
70
0
0
VERTEX
8
Layer 1
10
96.053370
20
360.156088
70
0
0
VERTEX
8
Layer 1
10
96.397134
20
360.467679
70
0
0
VERTEX
8
Layer 1
10
96.763199
20
361.257383
70
0
0
VERTEX
8
Layer 1
10
96.656110
20
362.004764
70
0
0
VERTEX
8
Layer 1
10
96.408430
20
362.263453
70
0
0
VERTEX
8
Layer 1
10
96.022420
20
362.392604
70
0
0
VERTEX
8
Layer 1
10
95.338580
20
362.613308
70
0
0
VERTEX
8
Layer 1
10
95.030728
20
362.760204
70
0
0
VERTEX
8
Layer 1
10
94.634048
20
362.769599
70
0
0
VERTEX
8
Layer 1
10
94.257913
20
362.656211
70
0
0
VERTEX
8
Layer 1
10
94.011700
20
362.434760
70
0
0
VERTEX
8
Layer 1
10
93.838868
20
361.880770
70
0
0
VERTEX
8
Layer 1
10
93.830785
20
361.255991
70
0
0
VERTEX
8
Layer 1
10
93.975807
20
360.663904
70
0
0
VERTEX
8
Layer 1
10
94.262290
20
360.207992
70
0
0
VERTEX
8
Layer 1
10
94.800509
20
359.806166
70
0
0
VERTEX
8
Layer 1
10
95.611360
20
359.952872
70
0
0
VERTEX
8
Layer 1
10
95.611360
20
359.952872
70
0
0
SEQEND
8
Layer 1
0
POLYLINE
8
Layer 1
62
7
70
0
10
0.000000
20
0.000000
66
1
0
VERTEX
8
Layer 1
10
117.955200
20
356.187510
70
0
0
VERTEX
8
Layer 1
10
117.844920
20
360.822501
70
0
0
VERTEX
8
Layer 1
10
117.893371
20
364.613257
70
0
0
VERTEX
8
Layer 1
10
118.096030
20
366.714417
70
0
0
VERTEX
8
Layer 1
10
118.565540
20
369.772233
70
0
0
VERTEX
8
Layer 1
10
118.687925
20
371.209138
70
0
0
VERTEX
8
Layer 1
10
118.461140
20
371.758653
70
0
0
VERTEX
8
Layer 1
10
118.088370
20
371.996825
70
0
0
VERTEX
8
Layer 1
10
117.606531
20
372.092589
70
0
0
VERTEX
8
Layer 1
10
117.135351
20
372.040466
70
0
0
VERTEX
8
Layer 1
10
116.794560
20
371.834973
70
0
0
VERTEX
8
Layer 1
10
116.083658
20
371.622117
70
0
0
VERTEX
8
Layer 1
10
113.853960
20
371.570109
70
0
0
VERTEX
8
Layer 1
10
111.563196
20
371.621289
70
0
0
VERTEX
8
Layer 1
10
111.159195
20
371.714593
70
0
0
VERTEX
8
Layer 1
10
111.009320
20
371.879109
70
0
0
VERTEX
8
Layer 1
10
110.882440
20
373.777245
70
0
0
VERTEX
8
Layer 1
10
110.948354
20
375.170352
70
0
0
VERTEX
8
Layer 1
10
111.251950
20
375.896109
70
0
0
VERTEX
8
Layer 1
10
111.578448
20
376.763944
70
0
0
VERTEX
8
Layer 1
10
111.744580
20
378.809529
70
0
0
VERTEX
8
Layer 1
10
112.016200
20
382.782381
70
0
0
VERTEX
8
Layer 1
10
112.392610
20
388.785801
70
0
0
VERTEX
8
Layer 1
10
112.529281
20
393.048778
70
0
0
VERTEX
8
Layer 1
10
112.379310
20
396.819789
70
0
0
VERTEX
8
Layer 1
10
112.198535
20
402.101729
70
0
0
VERTEX
8
Layer 1
10
112.116460
20
410.239197
70
0
0
VERTEX
8
Layer 1
10
112.047673
20
417.918484
70
0
0
VERTEX
8
Layer 1
10
111.882960
20
420.989991
70
0
0
VERTEX
8
Layer 1
10
111.679954
20
425.074704
70
0
0
VERTEX
8
Layer 1
10
111.851160
20
429.308878
70
0
0
VERTEX
8
Layer 1
10
112.199330
20
431.074591
70
0
0
VERTEX
8
Layer 1
10
112.483340
20
435.047443
70
0
0
VERTEX
8
Layer 1
10
112.637050
20
437.744826
70
0
0
VERTEX
8
Layer 1
10
112.928700
20
438.893301
70
0
0
VERTEX
8
Layer 1
10
113.248112
20
439.896525
70
0
0
VERTEX
8
Layer 1
10
113.223183
20
440.278279
70
0
0
VERTEX
8
Layer 1
10
113.072780
20
440.552611
70
0
0
VERTEX
8
Layer 1
10
112.940360
20
441.250067
70
0
0
VERTEX
8
Layer 1
10
112.998360
20
441.757146
70
0
0
VERTEX
8
Layer 1
10
116.794640
20
441.807066
70
0
0
VERTEX
8
Layer 1
10
120.273291
20
441.778027
70
0
0
VERTEX
8
Layer 1
10
122.974620
20
441.555761
70
0
0
VERTEX
8
Layer 1
10
126.156769
20
441.314046
70
0
0
VERTEX
8
Layer 1
10
131.299470
20
441.218471
70
0
0
VERTEX
8
Layer 1
10
137.433670
20
441.063096
70
0
0
VERTEX
8
Layer 1
10
137.482651
20
440.844212
70
0
0
VERTEX
8
Layer 1
10
137.244720
20
440.427103
70
0
0
VERTEX
8
Layer 1
10
137.026881
20
440.005739
70
0
0
VERTEX
8
Layer 1
10
136.897086
20
439.107723
70
0
0
VERTEX
8
Layer 1
10
136.728980
20
433.594365
70
0
0
VERTEX
8
Layer 1
10
136.403020
20
423.393741
70
0
0
VERTEX
8
Layer 1
10
136.019170
20
411.651765
70
0
0
VERTEX
8
Layer 1
10
135.723205
20
402.172626
70
0
0
VERTEX
8
Layer 1
10
135.574865
20
400.175887
70
0
0
VERTEX
8
Layer 1
10
135.394330
20
399.380073
70
0
0
VERTEX
8
Layer 1
10
134.952580
20
397.748777
70
0
0
VERTEX
8
Layer 1
10
134.537110
20
394.171221
70
0
0
VERTEX
8
Layer 1
10
133.744030
20
387.638085
70
0
0
VERTEX
8
Layer 1
10
133.293825
20
384.220666
70
0
0
VERTEX
8
Layer 1
10
133.290796
20
383.210870
70
0
0
VERTEX
8
Layer 1
10
133.425740
20
382.504401
70
0
0
VERTEX
8
Layer 1
10
133.603159
20
381.519282
70
0
0
VERTEX
8
Layer 1
10
133.459240
20
379.780665
70
0
0
VERTEX
8
Layer 1
10
133.089680
20
374.924961
70
0
0
VERTEX
8
Layer 1
10
132.950920
20
372.011541
70
0
0
VERTEX
8
Layer 1
10
131.654540
20
372.036621
70
0
0
VERTEX
8
Layer 1
10
130.162520
20
372.257337
70
0
0
VERTEX
8
Layer 1
10
129.822059
20
372.422845
70
0
0
VERTEX
8
Layer 1
10
129.360374
20
372.444397
70
0
0
VERTEX
8
Layer 1
10
128.893415
20
372.333188
70
0
0
VERTEX
8
Layer 1
10
128.537130
20
372.100413
70
0
0
VERTEX
8
Layer 1
10
128.290961
20
371.495004
70
0
0
VERTEX
8
Layer 1
10
128.331330
20
369.896193
70
0
0
VERTEX
8
Layer 1
10
128.328599
20
367.415865
70
0
0
VERTEX
8
Layer 1
10
128.094380
20
363.671505
70
0
0
VERTEX
8
Layer 1
10
127.743100
20
358.140345
70
0
0
VERTEX
8
Layer 1
10
127.679569
20
357.235426
70
0
0
VERTEX
8
Layer 1
10
127.521350
20
356.711180
70
0
0
VERTEX
8
Layer 1
10
125.909837
20
356.384442
70
0
0
VERTEX
8
Layer 1
10
122.697862
20
356.129114
70
0
0
VERTEX
8
Layer 1
10
119.506119
20
356.033909
70
0
0
VERTEX
8
Layer 1
10
117.955300
20
356.187540
70
0
0
VERTEX
8
Layer 1
10
117.955200
20
356.187510
70
0
0
SEQEND
8
Layer 1
0
POLYLINE
8
Layer 1
62
7
70
0
10
0.000000
20
0.000000
66
1
0
VERTEX
8
Layer 1
10
123.685650
20
360.215193
70
0
0
VERTEX
8
Layer 1
10
124.245259
20
360.712200
70
0
0
VERTEX
8
Layer 1
10
124.384410
20
361.276545
70
0
0
VERTEX
8
Layer 1
10
124.141534
20
362.162701
70
0
0
VERTEX
8
Layer 1
10
123.868844
20
362.466136
70
0
0
VERTEX
8
Layer 1
10
123.527790
20
362.625561
70
0
0
VERTEX
8
Layer 1
10
122.605930
20
362.834253
70
0
0
VERTEX
8
Layer 1
10
122.128531
20
362.812450
70
0
0
VERTEX
8
Layer 1
10
121.590630
20
362.389941
70
0
0
VERTEX
8
Layer 1
10
121.240503
20
361.952391
70
0
0
VERTEX
8
Layer 1
10
121.062512
20
361.510484
70
0
0
VERTEX
8
Layer 1
10
121.056013
20
361.061104
70
0
0
VERTEX
8
Layer 1
10
121.220360
20
360.601137
70
0
0
VERTEX
8
Layer 1
10
121.655502
20
360.178368
70
0
0
VERTEX
8
Layer 1
10
122.309954
20
359.957697
70
0
0
VERTEX
8
Layer 1
10
123.035931
20
359.962260
70
0
0
VERTEX
8
Layer 1
10
123.685650
20
360.215193
70
0
0
VERTEX
8
Layer 1
10
123.685650
20
360.215193
70
0
0
SEQEND
8
Layer 1
0
POLYLINE
8
Layer 1
62
7
70
0
10
0.000000
20
0.000000
66
1
0
VERTEX
8
Layer 1
10
152.765850
20
356.472850
70
0
0
VERTEX
8
Layer 1
10
148.704710
20
356.700330
70
0
0
VERTEX
8
Layer 1
10
145.438140
20
356.777530
70
0
0
VERTEX
8
Layer 1
10
145.490940
20
359.220666
70
0
0
VERTEX
8
Layer 1
10
145.759012
20
366.681607
70
0
0
VERTEX
8
Layer 1
10
146.066310
20
370.599582
70
0
0
VERTEX
8
Layer 1
10
146.212402
20
371.412374
70
0
0
VERTEX
8
Layer 1
10
145.835460
20
372.123942
70
0
0
VERTEX
8
Layer 1
10
145.428903
20
372.387785
70
0
0
VERTEX
8
Layer 1
10
144.699220
20
372.570034
70
0
0
VERTEX
8
Layer 1
10
141.067250
20
372.880722
70
0
0
VERTEX
8
Layer 1
10
137.836040
20
373.232850
70
0
0
VERTEX
8
Layer 1
10
137.386690
20
373.403706
70
0
0
VERTEX
8
Layer 1
10
137.493610
20
376.185738
70
0
0
VERTEX
8
Layer 1
10
137.754690
20
379.850634
70
0
0
VERTEX
8
Layer 1
10
138.030064
20
382.542303
70
0
0
VERTEX
8
Layer 1
10
137.890650
20
384.404910
70
0
0
VERTEX
8
Layer 1
10
137.762054
20
384.879146
70
0
0
VERTEX
8
Layer 1
10
137.759872
20
385.648078
70
0
0
VERTEX
8
Layer 1
10
138.287010
20
390.355986
70
0
0
VERTEX
8
Layer 1
10
138.545690
20
392.121690
70
0
0
VERTEX
8
Layer 1
10
138.906930
20
395.477178
70
0
0
VERTEX
8
Layer 1
10
139.302125
20
398.785685
70
0
0
VERTEX
8
Layer 1
10
139.744210
20
400.190934
70
0
0
VERTEX
8
Layer 1
10
139.929071
20
401.177503
70
0
0
VERTEX
8
Layer 1
10
140.098824
20
403.651895
70
0
0
VERTEX
8
Layer 1
10
140.400990
20
413.222586
70
0
0
VERTEX
8
Layer 1
10
140.771100
20
425.052849
70
0
0
VERTEX
8
Layer 1
10
141.121210
20
434.764263
70
0
0
VERTEX
8
Layer 1
10
141.391280
20
441.261131
70
0
0
VERTEX
8
Layer 1
10
141.415127
20
441.855691
70
0
0
VERTEX
8
Layer 1
10
141.209160
20
442.258884
70
0
0
VERTEX
8
Layer 1
10
141.017519
20
442.551342
70
0
0
VERTEX
8
Layer 1
10
141.144860
20
442.736580
70
0
0
VERTEX
8
Layer 1
10
148.969610
20
442.901555
70
0
0
VERTEX
8
Layer 1
10
155.264957
20
442.973526
70
0
0
VERTEX
8
Layer 1
10
158.945910
20
443.160226
70
0
0
VERTEX
8
Layer 1
10
163.271870
20
443.410064
70
0
0
VERTEX
8
Layer 1
10
164.846496
20
443.365888
70
0
0
VERTEX
8
Layer 1
10
165.121774
20
443.286152
70
0
0
VERTEX
8
Layer 1
10
165.177990
20
443.151393
70
0
0
VERTEX
8
Layer 1
10
164.865130
20
440.185166
70
0
0
VERTEX
8
Layer 1
10
164.309530
20
436.742027
70
0
0
VERTEX
8
Layer 1
10
163.544319
20
434.098609
70
0
0
VERTEX
8
Layer 1
10
163.421550
20
431.674266
70
0
0
VERTEX
8
Layer 1
10
163.744401
20
428.883229
70
0
0
VERTEX
8
Layer 1
10
164.245940
20
426.465419
70
0
0
VERTEX
8
Layer 1
10
164.624210
20
423.948787
70
0
0
VERTEX
8
Layer 1
10
164.823882
20
419.965801
70
0
0
VERTEX
8
Layer 1
10
164.827554
20
415.259773
70
0
0
VERTEX
8
Layer 1
10
164.617820
20
410.574018
70
0
0
VERTEX
8
Layer 1
10
164.442562
20
401.243788
70
0
0
VERTEX
8
Layer 1
10
164.590420
20
392.475474
70
0
0
VERTEX
8
Layer 1
10
164.927220
20
389.385474
70
0
0
VERTEX
8
Layer 1
10
165.297360
20
384.971190
70
0
0
VERTEX
8
Layer 1
10
165.735990
20
380.556918
70
0
0
VERTEX
8
Layer 1
10
166.004940
20
378.065202
70
0
0
VERTEX
8
Layer 1
10
166.135849
20
377.101509
70
0
0
VERTEX
8
Layer 1
10
166.531680
20
376.009386
70
0
0
VERTEX
8
Layer 1
10
166.963432
20
374.790893
70
0
0
VERTEX
8
Layer 1
10
166.880580
20
373.203966
70
0
0
VERTEX
8
Layer 1
10
166.710715
20
371.690368
70
0
0
VERTEX
8
Layer 1
10
166.569524
20
371.252417
70
0
0
VERTEX
8
Layer 1
10
166.312999
20
370.980082
70
0
0
VERTEX
8
Layer 1
10
165.220458
20
370.791416
70
0
0
VERTEX
8
Layer 1
10
162.966120
20
370.842678
70
0
0
VERTEX
8
Layer 1
10
158.735649
20
371.042493
70
0
0
VERTEX
8
Layer 1
10
157.882485
20
371.205599
70
0
0
VERTEX
8
Layer 1
10
157.580080
20
371.443242
70
0
0
VERTEX
8
Layer 1
10
157.206512
20
372.007367
70
0
0
VERTEX
8
Layer 1
10
156.651977
20
372.313554
70
0
0
VERTEX
8
Layer 1
10
156.045929
20
372.326233
70
0
0
VERTEX
8
Layer 1
10
155.517820
20
372.009834
70
0
0
VERTEX
8
Layer 1
10
155.292365
20
371.505222
70
0
0
VERTEX
8
Layer 1
10
155.335860
20
370.429110
70
0
0
VERTEX
8
Layer 1
10
155.263060
20
367.190070
70
0
0
VERTEX
8
Layer 1
10
154.992160
20
360.922302
70
0
0
VERTEX
8
Layer 1
10
154.802050
20
356.463880
70
0
0
VERTEX
8
Layer 1
10
154.166635
20
356.307248
70
0
0
VERTEX
8
Layer 1
10
152.765950
20
356.473880
70
0
0
VERTEX
8
Layer 1
10
152.765850
20
356.472850
70
0
0
SEQEND
8
Layer 1
0
POLYLINE
8
Layer 1
62
7
70
0
10
0.000000
20
0.000000
66
1
0
VERTEX
8
Layer 1
10
151.082570
20
361.393994
70
0
0
VERTEX
8
Layer 1
10
151.287707
20
361.816831
70
0
0
VERTEX
8
Layer 1
10
151.352875
20
362.492453
70
0
0
VERTEX
8
Layer 1
10
151.279316
20
363.217544
70
0
0
VERTEX
8
Layer 1
10
151.068270
20
363.788786
70
0
0
VERTEX
8
Layer 1
10
150.646903
20
364.122462
70
0
0
VERTEX
8
Layer 1
10
150.052353
20
364.187612
70
0
0
VERTEX
8
Layer 1
10
149.363875
20
363.992275
70
0
0
VERTEX
8
Layer 1
10
148.660730
20
363.544490
70
0
0
VERTEX
8
Layer 1
10
148.409744
20
363.128068
70
0
0
VERTEX
8
Layer 1
10
148.344603
20
362.547272
70
0
0
VERTEX
8
Layer 1
10
148.459600
20
361.938324
70
0
0
VERTEX
8
Layer 1
10
148.749030
20
361.437446
70
0
0
VERTEX
8
Layer 1
10
149.224905
20
361.102851
70
0
0
VERTEX
8
Layer 1
10
149.979150
20
361.090574
70
0
0
VERTEX
8
Layer 1
10
151.082720
20
361.393994
70
0
0
VERTEX
8
Layer 1
10
151.082570
20
361.393994
70
0
0
SEQEND
8
Layer 1
0
POLYLINE
8
Layer 1
62
7
70
0
10
0.000000
20
0.000000
66
1
0
VERTEX
8
Layer 1
10
65.516450
20
45.492640
70
0
0
VERTEX
8
Layer 1
10
65.873220
20
47.123970
70
0
0
VERTEX
8
Layer 1
10
66.750450
20
50.008060
70
0
0
VERTEX
8
Layer 1
10
67.448470
20
52.303490
70
0
0
VERTEX
8
Layer 1
10
68.171140
20
54.678480
70
0
0
VERTEX
8
Layer 1
10
68.755903
20
56.336862
70
0
0
VERTEX
8
Layer 1
10
69.494702
20
57.954260
70
0
0
VERTEX
8
Layer 1
10
70.347438
20
59.452176
70
0
0
VERTEX
8
Layer 1
10
71.274010
20
60.752110
70
0
0
VERTEX
8
Layer 1
10
73.033800
20
62.963850
70
0
0
VERTEX
8
Layer 1
10
75.445495
20
65.366368
70
0
0
VERTEX
8
Layer 1
10
79.016180
20
68.308750
70
0
0
VERTEX
8
Layer 1
10
81.736794
20
70.167129
70
0
0
VERTEX
8
Layer 1
10
83.793890
20
71.373060
70
0
0
VERTEX
8
Layer 1
10
84.948510
20
71.926410
70
0
0
VERTEX
8
Layer 1
10
85.634760
20
72.227743
70
0
0
VERTEX
8
Layer 1
10
86.228640
20
72.234940
70
0
0
VERTEX
8
Layer 1
10
86.785310
20
72.123580
70
0
0
VERTEX
8
Layer 1
10
86.794310
20
73.514080
70
0
0
VERTEX
8
Layer 1
10
87.120166
20
79.118781
70
0
0
VERTEX
8
Layer 1
10
87.556250
20
83.429770
70
0
0
VERTEX
8
Layer 1
10
88.696856
20
83.596141
70
0
0
VERTEX
8
Layer 1
10
92.444200
20
83.632620
70
0
0
VERTEX
8
Layer 1
10
97.264580
20
83.499460
70
0
0
VERTEX
8
Layer 1
10
97.110370
20
82.320570
70
0
0
VERTEX
8
Layer 1
10
96.974790
20
80.980478
70
0
0
VERTEX
8
Layer 1
10
97.050170
20
78.942630
70
0
0
VERTEX
8
Layer 1
10
97.054170
20
76.205770
70
0
0
VERTEX
8
Layer 1
10
96.868347
20
74.421194
70
0
0
VERTEX
8
Layer 1
10
96.981670
20
73.050580
70
0
0
VERTEX
8
Layer 1
10
97.302470
20
73.220830
70
0
0
VERTEX
8
Layer 1
10
97.906178
20
73.217458
70
0
0
VERTEX
8
Layer 1
10
99.025786
20
72.821716
70
0
0
VERTEX
8
Layer 1
10
100.340329
20
72.171524
70
0
0
VERTEX
8
Layer 1
10
101.528840
20
71.404800
70
0
0
VERTEX
8
Layer 1
10
103.306360
20
69.882870
70
0
0
VERTEX
8
Layer 1
10
106.907540
20
66.854130
70
0
0
VERTEX
8
Layer 1
10
108.944810
20
64.649190
70
0
0
VERTEX
8
Layer 1
10
111.440140
20
61.752220
70
0
0
VERTEX
8
Layer 1
10
113.164170
20
59.631170
70
0
0
VERTEX
8
Layer 1
10
114.422100
20
57.865450
70
0
0
VERTEX
8
Layer 1
10
115.358905
20
56.350942
70
0
0
VERTEX
8
Layer 1
10
115.933880
20
54.710210
70
0
0
VERTEX
8
Layer 1
10
116.262400
20
53.620960
70
0
0
VERTEX
8
Layer 1
10
116.530810
20
52.607110
70
0
0
VERTEX
8
Layer 1
10
116.569190
20
51.956984
70
0
0
VERTEX
8
Layer 1
10
116.232330
20
51.703750
70
0
0
VERTEX
8
Layer 1
10
110.669224
20
51.491976
70
0
0
VERTEX
8
Layer 1
10
105.236160
20
51.534460
70
0
0
VERTEX
8
Layer 1
10
100.571227
20
51.597332
70
0
0
VERTEX
8
Layer 1
10
93.494850
20
51.344350
70
0
0
VERTEX
8
Layer 1
10
90.703419
20
51.098234
70
0
0
VERTEX
8
Layer 1
10
89.724760
20
50.823190
70
0
0
VERTEX
8
Layer 1
10
88.135610
20
50.337600
70
0
0
VERTEX
8
Layer 1
10
85.079561
20
49.654031
70
0
0
VERTEX
8
Layer 1
10
81.488020
20
48.534540
70
0
0
VERTEX
8
Layer 1
10
78.339337
20
47.556334
70
0
0
VERTEX
8
Layer 1
10
75.572870
20
47.103630
70
0
0
VERTEX
8
Layer 1
10
71.688300
20
46.579720
70
0
0
VERTEX
8
Layer 1
10
67.980310
20
46.027550
70
0
0
VERTEX
8
Layer 1
10
66.003090
20
45.571550
70
0
0
VERTEX
8
Layer 1
10
65.516260
20
45.492550
70
0
0
VERTEX
8
Layer 1
10
65.516450
20
45.492640
70
0
0
SEQEND
8
Layer 1
0
POLYLINE
8
Layer 1
62
7
70
0
10
0.000000
20
0.000000
66
1
0
VERTEX
8
Layer 1
10
93.021080
20
79.076090
70
0
0
VERTEX
8
Layer 1
10
93.702454
20
79.541864
70
0
0
VERTEX
8
Layer 1
10
94.094086
20
80.087219
70
0
0
VERTEX
8
Layer 1
10
94.195261
20
80.710475
70
0
0
VERTEX
8
Layer 1
10
94.005260
20
81.409950
70
0
0
VERTEX
8
Layer 1
10
93.769112
20
81.754581
70
0
0
VERTEX
8
Layer 1
10
93.395434
20
82.012090
70
0
0
VERTEX
8
Layer 1
10
92.089570
20
82.336310
70
0
0
VERTEX
8
Layer 1
10
91.248671
20
82.358247
70
0
0
VERTEX
8
Layer 1
10
90.584300
20
82.034330
70
0
0
VERTEX
8
Layer 1
10
89.899912
20
81.277229
70
0
0
VERTEX
8
Layer 1
10
89.613224
20
80.360725
70
0
0
VERTEX
8
Layer 1
10
89.745184
20
79.522438
70
0
0
VERTEX
8
Layer 1
10
89.974703
20
79.206883
70
0
0
VERTEX
8
Layer 1
10
90.316740
20
78.999990
70
0
0
VERTEX
8
Layer 1
10
91.707239
20
78.897130
70
0
0
VERTEX
8
Layer 1
10
93.021080
20
79.076090
70
0
0
VERTEX
8
Layer 1
10
93.021080
20
79.076090
70
0
0
SEQEND
8
Layer 1
0
POLYLINE
8
Layer 1
62
7
70
0
10
0.000000
20
0.000000
66
1
0
VERTEX
8
Layer 1
10
11.864020
20
352.315220
70
0
0
VERTEX
8
Layer 1
10
11.674006
20
352.800584
70
0
0
VERTEX
8
Layer 1
10
11.996460
20
354.036780
70
0
0
VERTEX
8
Layer 1
10
12.539010
20
356.047980
70
0
0
VERTEX
8
Layer 1
10
12.962903
20
359.001149
70
0
0
VERTEX
8
Layer 1
10
13.082580
20
362.581118
70
0
0
VERTEX
8
Layer 1
10
13.304800
20
368.496238
70
0
0
VERTEX
8
Layer 1
10
13.603240
20
373.705098
70
0
0
VERTEX
8
Layer 1
10
13.908060
20
379.267098
70
0
0
VERTEX
8
Layer 1
10
14.384610
20
389.684792
70
0
0
VERTEX
8
Layer 1
10
14.771070
20
397.453928
70
0
0
VERTEX
8
Layer 1
10
15.112880
20
403.104200
70
0
0
VERTEX
8
Layer 1
10
15.537640
20
409.813904
70
0
0
VERTEX
8
Layer 1
10
15.793930
20
414.419504
70
0
0
VERTEX
8
Layer 1
10
16.086950
20
418.441100
70
0
0
VERTEX
8
Layer 1
10
16.290570
20
420.364166
70
0
0
VERTEX
8
Layer 1
10
16.188370
20
421.832552
70
0
0
VERTEX
8
Layer 1
10
15.979710
20
426.816092
70
0
0
VERTEX
8
Layer 1
10
15.815850
20
432.591584
70
0
0
VERTEX
8
Layer 1
10
15.737088
20
434.487987
70
0
0
VERTEX
8
Layer 1
10
15.845831
20
434.838111
70
0
0
VERTEX
8
Layer 1
10
16.086260
20
435.094304
70
0
0
VERTEX
8
Layer 1
10
16.658991
20
435.411179
70
0
0
VERTEX
8
Layer 1
10
17.530260
20
435.594548
70
0
0
VERTEX
8
Layer 1
10
20.581870
20
436.044224
70
0
0
VERTEX
8
Layer 1
10
24.819580
20
436.643648
70
0
0
VERTEX
8
Layer 1
10
27.891344
20
437.171942
70
0
0
VERTEX
8
Layer 1
10
31.617580
20
438.301976
70
0
0
VERTEX
8
Layer 1
10
34.852619
20
439.316784
70
0
0
VERTEX
8
Layer 1
10
36.610210
20
439.648340
70
0
0
VERTEX
8
Layer 1
10
37.941480
20
439.902752
70
0
0
VERTEX
8
Layer 1
10
38.756380
20
440.095856
70
0
0
VERTEX
8
Layer 1
10
39.495330
20
440.423384
70
0
0
VERTEX
8
Layer 1
10
40.475454
20
440.731779
70
0
0
VERTEX
8
Layer 1
10
43.271260
20
440.978012
70
0
0
VERTEX
8
Layer 1
10
49.032219
20
441.173654
70
0
0
VERTEX
8
Layer 1
10
51.141165
20
441.121831
70
0
0
VERTEX
8
Layer 1
10
52.109700
20
440.970812
70
0
0
VERTEX
8
Layer 1
10
52.974646
20
440.857872
70
0
0
VERTEX
8
Layer 1
10
55.040290
20
440.875892
70
0
0
VERTEX
8
Layer 1
10
61.817058
20
440.981750
70
0
0
VERTEX
8
Layer 1
10
65.579920
20
440.888492
70
0
0
VERTEX
8
Layer 1
10
65.702320
20
438.624332
70
0
0
VERTEX
8
Layer 1
10
66.343950
20
425.264096
70
0
0
VERTEX
8
Layer 1
10
66.553078
20
419.215925
70
0
0
VERTEX
8
Layer 1
10
66.420550
20
413.843024
70
0
0
VERTEX
8
Layer 1
10
66.262440
20
411.338780
70
0
0
VERTEX
8
Layer 1
10
66.729570
20
410.783624
70
0
0
VERTEX
8
Layer 1
10
67.114086
20
410.118992
70
0
0
VERTEX
8
Layer 1
10
67.193540
20
409.050152
70
0
0
VERTEX
8
Layer 1
10
66.912990
20
406.194416
70
0
0
VERTEX
8
Layer 1
10
66.427908
20
402.686035
70
0
0
VERTEX
8
Layer 1
10
66.347300
20
399.131564
70
0
0
VERTEX
8
Layer 1
10
66.344859
20
391.434687
70
0
0
VERTEX
8
Layer 1
10
66.200270
20
389.765660
70
0
0
VERTEX
8
Layer 1
10
66.237810
20
387.266885
70
0
0
VERTEX
8
Layer 1
10
66.560980
20
384.339228
70
0
0
VERTEX
8
Layer 1
10
66.850800
20
378.207878
70
0
0
VERTEX
8
Layer 1
10
67.179950
20
372.244548
70
0
0
VERTEX
8
Layer 1
10
67.976590
20
372.386268
70
0
0
VERTEX
8
Layer 1
10
69.576998
20
372.655444
70
0
0
VERTEX
8
Layer 1
10
71.850470
20
372.475168
70
0
0
VERTEX
8
Layer 1
10
74.807370
20
372.314288
70
0
0
VERTEX
8
Layer 1
10
76.355721
20
372.258059
70
0
0
VERTEX
8
Layer 1
10
76.818037
20
372.063750
70
0
0
VERTEX
8
Layer 1
10
77.107414
20
371.674854
70
0
0
VERTEX
8
Layer 1
10
77.250077
20
371.028527
70
0
0
VERTEX
8
Layer 1
10
77.272252
20
370.061924
70
0
0
VERTEX
8
Layer 1
10
77.060040
20
366.916518
70
0
0
VERTEX
8
Layer 1
10
76.896131
20
365.266573
70
0
0
VERTEX
8
Layer 1
10
76.671941
20
364.342512
70
0
0
VERTEX
8
Layer 1
10
76.279851
20
363.906886
70
0
0
VERTEX
8
Layer 1
10
75.612240
20
363.722248
70
0
0
VERTEX
8
Layer 1
10
74.105610
20
363.253738
70
0
0
VERTEX
8
Layer 1
10
73.047798
20
362.957159
70
0
0
VERTEX
8
Layer 1
10
71.457020
20
362.755988
70
0
0
VERTEX
8
Layer 1
10
68.963570
20
362.417058
70
0
0
VERTEX
8
Layer 1
10
67.539740
20
362.228158
70
0
0
VERTEX
8
Layer 1
10
66.732750
20
362.228158
70
0
0
VERTEX
8
Layer 1
10
66.810450
20
361.154548
70
0
0
VERTEX
8
Layer 1
10
66.689960
20
359.697838
70
0
0
VERTEX
8
Layer 1
10
66.574133
20
358.944838
70
0
0
VERTEX
8
Layer 1
10
66.640660
20
357.372448
70
0
0
VERTEX
8
Layer 1
10
66.709987
20
355.800711
70
0
0
VERTEX
8
Layer 1
10
66.572660
20
355.192580
70
0
0
VERTEX
8
Layer 1
10
65.358854
20
354.953056
70
0
0
VERTEX
8
Layer 1
10
61.699860
20
354.708800
70
0
0
VERTEX
8
Layer 1
10
39.475080
20
353.750220
70
0
0
VERTEX
8
Layer 1
10
30.255070
20
353.340956
70
0
0
VERTEX
8
Layer 1
10
23.710040
20
352.771740
70
0
0
VERTEX
8
Layer 1
10
20.178620
20
352.513080
70
0
0
VERTEX
8
Layer 1
10
16.079410
20
352.253440
70
0
0
VERTEX
8
Layer 1
10
12.856943
20
352.005094
70
0
0
VERTEX
8
Layer 1
10
12.206409
20
352.088564
70
0
0
VERTEX
8
Layer 1
10
11.864120
20
352.315340
70
0
0
VERTEX
8
Layer 1
10
11.864020
20
352.315220
70
0
0
SEQEND
8
Layer 1
0
POLYLINE
8
Layer 1
62
7
70
0
10
0.000000
20
0.000000
66
1
0
VERTEX
8
Layer 1
10
74.438430
20
367.180648
70
0
0
VERTEX
8
Layer 1
10
74.518997
20
368.194544
70
0
0
VERTEX
8
Layer 1
10
74.377525
20
368.482162
70
0
0
VERTEX
8
Layer 1
10
74.123600
20
368.584538
70
0
0
VERTEX
8
Layer 1
10
73.717914
20
368.410917
70
0
0
VERTEX
8
Layer 1
10
73.238209
20
367.996042
70
0
0
VERTEX
8
Layer 1
10
72.837890
20
367.498898
70
0
0
VERTEX
8
Layer 1
10
72.670360
20
367.078468
70
0
0
VERTEX
8
Layer 1
10
72.833924
20
366.576368
70
0
0
VERTEX
8
Layer 1
10
73.575850
20
366.465678
70
0
0
VERTEX
8
Layer 1
10
74.176479
20
366.569637
70
0
0
VERTEX
8
Layer 1
10
74.438430
20
367.180648
70
0
0
VERTEX
8
Layer 1
10
74.438430
20
367.180648
70
0
0
SEQEND
8
Layer 1
0
POLYLINE
8
Layer 1
62
7
70
0
10
0.000000
20
0.000000
66
1
0
VERTEX
8
Layer 1
10
57.663540
20
394.174784
70
0
0
VERTEX
8
Layer 1
10
58.953753
20
394.876994
70
0
0
VERTEX
8
Layer 1
10
59.893730
20
395.582319
70
0
0
VERTEX
8
Layer 1
10
60.597405
20
396.396052
70
0
0
VERTEX
8
Layer 1
10
61.178710
20
397.423484
70
0
0
VERTEX
8
Layer 1
10
61.635705
20
398.657731
70
0
0
VERTEX
8
Layer 1
10
61.709540
20
400.304312
70
0
0
VERTEX
8
Layer 1
10
61.488810
20
402.614324
70
0
0
VERTEX
8
Layer 1
10
60.566465
20
403.933650
70
0
0
VERTEX
8
Layer 1
10
59.975800
20
404.531359
70
0
0
VERTEX
8
Layer 1
10
59.569870
20
404.781620
70
0
0
VERTEX
8
Layer 1
10
57.485230
20
405.674348
70
0
0
VERTEX
8
Layer 1
10
56.558145
20
406.140960
70
0
0
VERTEX
8
Layer 1
10
55.802868
20
406.326936
70
0
0
VERTEX
8
Layer 1
10
55.277792
20
406.228295
70
0
0
VERTEX
8
Layer 1
10
55.041310
20
405.841052
70
0
0
VERTEX
8
Layer 1
10
54.680760
20
405.088277
70
0
0
VERTEX
8
Layer 1
10
53.861510
20
404.704232
70
0
0
VERTEX
8
Layer 1
10
53.032617
20
404.376684
70
0
0
VERTEX
8
Layer 1
10
52.233749
20
403.755143
70
0
0
VERTEX
8
Layer 1
10
51.504456
20
402.913733
70
0
0
VERTEX
8
Layer 1
10
50.884290
20
401.926576
70
0
0
VERTEX
8
Layer 1
10
50.412800
20
400.867795
70
0
0
VERTEX
8
Layer 1
10
50.129536
20
399.811513
70
0
0
VERTEX
8
Layer 1
10
50.074050
20
398.831854
70
0
0
VERTEX
8
Layer 1
10
50.285890
20
398.002940
70
0
0
VERTEX
8
Layer 1
10
51.117860
20
396.262940
70
0
0
VERTEX
8
Layer 1
10
51.680067
20
395.286767
70
0
0
VERTEX
8
Layer 1
10
52.242890
20
394.643324
70
0
0
VERTEX
8
Layer 1
10
53.424298
20
394.047663
70
0
0
VERTEX
8
Layer 1
10
54.869575
20
393.758223
70
0
0
VERTEX
8
Layer 1
10
56.356672
20
393.794199
70
0
0
VERTEX
8
Layer 1
10
57.663540
20
394.174784
70
0
0
VERTEX
8
Layer 1
10
57.663540
20
394.174784
70
0
0
SEQEND
8
Layer 1
0
POLYLINE
8
Layer 1
62
7
70
0
10
0.000000
20
0.000000
66
1
0
VERTEX
8
Layer 1
10
27.515590
20
41.333330
70
0
0
VERTEX
8
Layer 1
10
27.772980
20
45.095470
70
0
0
VERTEX
8
Layer 1
10
28.072174
20
49.166412
70
0
0
VERTEX
8
Layer 1
10
28.069613
20
50.197711
70
0
0
VERTEX
8
Layer 1
10
27.965070
20
50.544060
70
0
0
VERTEX
8
Layer 1
10
27.766870
20
50.414340
70
0
0
VERTEX
8
Layer 1
10
27.470167
20
50.317394
70
0
0
VERTEX
8
Layer 1
10
26.801597
20
50.348290
70
0
0
VERTEX
8
Layer 1
10
25.678090
20
50.646080
70
0
0
VERTEX
8
Layer 1
10
25.107620
20
50.890660
70
0
0
VERTEX
8
Layer 1
10
24.134220
20
51.268540
70
0
0
VERTEX
8
Layer 1
10
22.837710
20
52.003030
70
0
0
VERTEX
8
Layer 1
10
22.242797
20
52.435989
70
0
0
VERTEX
8
Layer 1
10
21.886370
20
53.056650
70
0
0
VERTEX
8
Layer 1
10
21.258380
20
54.353930
70
0
0
VERTEX
8
Layer 1
10
20.251010
20
57.500140
70
0
0
VERTEX
8
Layer 1
10
19.705051
20
60.072326
70
0
0
VERTEX
8
Layer 1
10
19.616930
20
62.775770
70
0
0
VERTEX
8
Layer 1
10
19.619930
20
66.098460
70
0
0
VERTEX
8
Layer 1
10
19.714804
20
66.648665
70
0
0
VERTEX
8
Layer 1
10
19.948810
20
67.139650
70
0
0
VERTEX
8
Layer 1
10
20.403640
20
68.002606
70
0
0
VERTEX
8
Layer 1
10
20.538910
20
68.921460
70
0
0
VERTEX
8
Layer 1
10
20.686760
20
69.397950
70
0
0
VERTEX
8
Layer 1
10
20.848180
20
69.752180
70
0
0
VERTEX
8
Layer 1
10
21.304270
20
70.529040
70
0
0
VERTEX
8
Layer 1
10
22.085775
20
71.640395
70
0
0
VERTEX
8
Layer 1
10
22.572470
20
72.735220
70
0
0
VERTEX
8
Layer 1
10
23.302792
20
74.775909
70
0
0
VERTEX
8
Layer 1
10
24.322450
20
76.828350
70
0
0
VERTEX
8
Layer 1
10
26.274540
20
80.383240
70
0
0
VERTEX
8
Layer 1
10
28.096570
20
83.653250
70
0
0
VERTEX
8
Layer 1
10
28.458920
20
84.194770
70
0
0
VERTEX
8
Layer 1
10
28.729130
20
84.515998
70
0
0
VERTEX
8
Layer 1
10
29.427879
20
84.847746
70
0
0
VERTEX
8
Layer 1
10
31.439690
20
85.295020
70
0
0
VERTEX
8
Layer 1
10
32.828060
20
85.263220
70
0
0
VERTEX
8
Layer 1
10
34.516610
20
85.378130
70
0
0
VERTEX
8
Layer 1
10
36.655680
20
85.543240
70
0
0
VERTEX
8
Layer 1
10
37.459211
20
85.456731
70
0
0
VERTEX
8
Layer 1
10
38.058850
20
85.258410
70
0
0
VERTEX
8
Layer 1
10
39.961520
20
85.060050
70
0
0
VERTEX
8
Layer 1
10
41.421751
20
84.956394
70
0
0
VERTEX
8
Layer 1
10
42.469610
20
84.493000
70
0
0
VERTEX
8
Layer 1
10
44.634190
20
83.359490
70
0
0
VERTEX
8
Layer 1
10
45.988071
20
82.495371
70
0
0
VERTEX
8
Layer 1
10
47.834170
20
80.657280
70
0
0
VERTEX
8
Layer 1
10
50.169060
20
77.904530
70
0
0
VERTEX
8
Layer 1
10
50.686830
20
77.008730
70
0
0
VERTEX
8
Layer 1
10
51.052542
20
75.919378
70
0
0
VERTEX
8
Layer 1
10
51.333748
20
74.261819
70
0
0
VERTEX
8
Layer 1
10
51.448067
20
72.705440
70
0
0
VERTEX
8
Layer 1
10
51.313120
20
71.919630
70
0
0
VERTEX
8
Layer 1
10
51.122949
20
71.219883
70
0
0
VERTEX
8
Layer 1
10
51.291120
20
70.522280
70
0
0
VERTEX
8
Layer 1
10
51.427087
20
70.079086
70
0
0
VERTEX
8
Layer 1
10
51.449259
20
69.173051
70
0
0
VERTEX
8
Layer 1
10
51.185500
20
67.062850
70
0
0
VERTEX
8
Layer 1
10
50.782590
20
65.419630
70
0
0
VERTEX
8
Layer 1
10
50.317802
20
63.890166
70
0
0
VERTEX
8
Layer 1
10
49.573244
20
62.277433
70
0
0
VERTEX
8
Layer 1
10
48.492429
20
60.475778
70
0
0
VERTEX
8
Layer 1
10
47.018870
20
58.379550
70
0
0
VERTEX
8
Layer 1
10
45.583050
20
56.299230
70
0
0
VERTEX
8
Layer 1
10
44.397876
20
55.013300
70
0
0
VERTEX
8
Layer 1
10
42.413930
20
53.235910
70
0
0
VERTEX
8
Layer 1
10
40.407169
20
51.965369
70
0
0
VERTEX
8
Layer 1
10
38.787520
20
51.235960
70
0
0
VERTEX
8
Layer 1
10
37.394620
20
50.717060
70
0
0
VERTEX
8
Layer 1
10
36.112254
20
50.231339
70
0
0
VERTEX
8
Layer 1
10
35.817172
20
50.225301
70
0
0
VERTEX
8
Layer 1
10
35.723670
20
50.371110
70
0
0
VERTEX
8
Layer 1
10
35.535500
20
50.544070
70
0
0
VERTEX
8
Layer 1
10
35.424746
20
50.367605
70
0
0
VERTEX
8
Layer 1
10
35.465200
20
49.846500
70
0
0
VERTEX
8
Layer 1
10
35.493253
20
49.212103
70
0
0
VERTEX
8
Layer 1
10
35.307420
20
48.728260
70
0
0
VERTEX
8
Layer 1
10
35.041567
20
48.145974
70
0
0
VERTEX
8
Layer 1
10
35.062159
20
48.007257
70
0
0
VERTEX
8
Layer 1
10
35.194710
20
48.029760
70
0
0
VERTEX
8
Layer 1
10
35.304939
20
46.998621
70
0
0
VERTEX
8
Layer 1
10
35.324440
20
44.018390
70
0
0
VERTEX
8
Layer 1
10
35.291240
20
39.906310
70
0
0
VERTEX
8
Layer 1
10
32.091290
20
39.808310
70
0
0
VERTEX
8
Layer 1
10
28.287060
20
39.505630
70
0
0
VERTEX
8
Layer 1
10
27.551140
20
39.300920
70
0
0
VERTEX
8
Layer 1
10
27.515940
20
41.333340
70
0
0
VERTEX
8
Layer 1
10
27.515590
20
41.333330
70
0
0
SEQEND
8
Layer 1
0
POLYLINE
8
Layer 1
62
7
70
0
10
0.000000
20
0.000000
66
1
0
VERTEX
8
Layer 1
10
32.971190
20
41.216040
70
0
0
VERTEX
8
Layer 1
10
33.250221
20
41.757669
70
0
0
VERTEX
8
Layer 1
10
33.293502
20
42.332791
70
0
0
VERTEX
8
Layer 1
10
33.103808
20
42.919398
70
0
0
VERTEX
8
Layer 1
10
32.683910
20
43.495480
70
0
0
VERTEX
8
Layer 1
10
32.106046
20
43.983806
70
0
0
VERTEX
8
Layer 1
10
31.604360
20
44.141360
70
0
0
VERTEX
8
Layer 1
10
31.163961
20
44.032661
70
0
0
VERTEX
8
Layer 1
10
30.720125
20
43.745197
70
0
0
VERTEX
8
Layer 1
10
29.945544
20
42.834265
70
0
0
VERTEX
8
Layer 1
10
29.527420
20
41.809145
70
0
0
VERTEX
8
Layer 1
10
29.529157
20
41.378947
70
0
0
VERTEX
8
Layer 1
10
29.712560
20
41.070420
70
0
0
VERTEX
8
Layer 1
10
30.400731
20
40.786645
70
0
0
VERTEX
8
Layer 1
10
31.634490
20
40.751510
70
0
0
VERTEX
8
Layer 1
10
32.517524
20
40.867120
70
0
0
VERTEX
8
Layer 1
10
32.971190
20
41.216040
70
0
0
VERTEX
8
Layer 1
10
32.971190
20
41.216040
70
0
0
SEQEND
8
Layer 1
0
POLYLINE
8
Layer 1
62
7
70
0
10
0.000000
20
0.000000
66
1
0
VERTEX
8
Layer 1
10
294.799279
20
348.101044
70
0
0
VERTEX
8
Layer 1
10
293.920721
20
348.026517
70
0
0
VERTEX
8
Layer 1
10
293.698058
20
347.847830
70
0
0
VERTEX
8
Layer 1
10
293.912622
20
345.128513
70
0
0
VERTEX
8
Layer 1
10
293.903745
20
342.053359
70
0
0
VERTEX
8
Layer 1
10
293.873209
20
340.026384
70
0
0
VERTEX
8
Layer 1
10
294.029819
20
338.507328
70
0
0
VERTEX
8
Layer 1
10
294.230368
20
336.544838
70
0
0
VERTEX
8
Layer 1
10
294.265751
20
334.264384
70
0
0
VERTEX
8
Layer 1
10
294.149711
20
332.375664
70
0
0
VERTEX
8
Layer 1
10
294.039203
20
331.799986
70
0
0
VERTEX
8
Layer 1
10
293.895993
20
331.588379
70
0
0
VERTEX
8
Layer 1
10
293.745604
20
331.853478
70
0
0
VERTEX
8
Layer 1
10
293.523910
20
332.203328
70
0
0
VERTEX
8
Layer 1
10
290.258992
20
331.893982
70
0
0
VERTEX
8
Layer 1
10
282.934901
20
330.811683
70
0
0
VERTEX
8
Layer 1
10
273.940111
20
329.421071
70
0
0
VERTEX
8
Layer 1
10
267.713124
20
328.366875
70
0
0
VERTEX
8
Layer 1
10
263.302552
20
327.504911
70
0
0
VERTEX
8
Layer 1
10
258.026899
20
326.318434
70
0
0
VERTEX
8
Layer 1
10
253.702634
20
325.299366
70
0
0
VERTEX
8
Layer 1
10
249.897189
20
324.101519
70
0
0
VERTEX
8
Layer 1
10
246.264835
20
322.768762
70
0
0
VERTEX
8
Layer 1
10
241.508030
20
320.994733
70
0
0
VERTEX
8
Layer 1
10
235.281042
20
318.673414
70
0
0
VERTEX
8
Layer 1
10
230.122145
20
316.720044
70
0
0
VERTEX
8
Layer 1
10
225.302705
20
314.592747
70
0
0
VERTEX
8
Layer 1
10
220.694044
20
312.230217
70
0
0
VERTEX
8
Layer 1
10
216.167487
20
309.571150
70
0
0
VERTEX
8
Layer 1
10
211.688176
20
307.165085
70
0
0
VERTEX
8
Layer 1
10
207.081184
20
304.737103
70
0
0
VERTEX
8
Layer 1
10
204.319143
20
302.825315
70
0
0
VERTEX
8
Layer 1
10
201.378753
20
300.676081
70
0
0
VERTEX
8
Layer 1
10
199.216607
20
299.223467
70
0
0
VERTEX
8
Layer 1
10
196.103100
20
297.049971
70
0
0
VERTEX
8
Layer 1
10
191.782499
20
293.816532
70
0
0
VERTEX
8
Layer 1
10
186.755382
20
289.454560
70
0
0
VERTEX
8
Layer 1
10
184.039384
20
286.921319
70
0
0
VERTEX
8
Layer 1
10
181.639531
20
284.485106
70
0
0
VERTEX
8
Layer 1
10
176.668658
20
278.711565
70
0
0
VERTEX
8
Layer 1
10
173.472601
20
274.550345
70
0
0
VERTEX
8
Layer 1
10
171.280875
20
270.875357
70
0
0
VERTEX
8
Layer 1
10
168.884253
20
266.781861
70
0
0
VERTEX
8
Layer 1
10
166.133916
20
262.486753
70
0
0
VERTEX
8
Layer 1
10
164.853565
20
260.405653
70
0
0
VERTEX
8
Layer 1
10
163.427040
20
257.783383
70
0
0
VERTEX
8
Layer 1
10
161.022622
20
252.626882
70
0
0
VERTEX
8
Layer 1
10
158.958663
20
247.611182
70
0
0
VERTEX
8
Layer 1
10
157.532904
20
244.065162
70
0
0
VERTEX
8
Layer 1
10
156.577919
20
241.816206
70
0
0
VERTEX
8
Layer 1
10
154.868514
20
238.000126
70
0
0
VERTEX
8
Layer 1
10
153.262082
20
233.715320
70
0
0
VERTEX
8
Layer 1
10
151.881486
20
229.318808
70
0
0
VERTEX
8
Layer 1
10
150.849591
20
225.167612
70
0
0
VERTEX
8
Layer 1
10
149.921101
20
220.169433
70
0
0
VERTEX
8
Layer 1
10
148.965393
20
214.158740
70
0
0
VERTEX
8
Layer 1
10
148.155839
20
208.301265
70
0
0
VERTEX
8
Layer 1
10
147.665811
20
203.762741
70
0
0
VERTEX
8
Layer 1
10
147.313386
20
201.138104
70
0
0
VERTEX
8
Layer 1
10
145.881843
20
190.321472
70
0
0
VERTEX
8
Layer 1
10
144.556960
20
178.595342
70
0
0
VERTEX
8
Layer 1
10
144.107910
20
174.271050
70
0
0
VERTEX
8
Layer 1
10
143.668055
20
168.500739
70
0
0
VERTEX
8
Layer 1
10
143.405452
20
160.969113
70
0
0
VERTEX
8
Layer 1
10
143.359458
20
153.580462
70
0
0
VERTEX
8
Layer 1
10
143.569431
20
148.239073
70
0
0
VERTEX
8
Layer 1
10
144.642235
20
139.331119
70
0
0
VERTEX
8
Layer 1
10
145.075278
20
135.958188
70
0
0
VERTEX
8
Layer 1
10
145.424181
20
132.833619
70
0
0
VERTEX
8
Layer 1
10
146.026487
20
129.171327
70
0
0
VERTEX
8
Layer 1
10
146.814779
20
125.334861
70
0
0
VERTEX
8
Layer 1
10
147.721638
20
121.687772
70
0
0
VERTEX
8
Layer 1
10
148.756184
20
118.492955
70
0
0
VERTEX
8
Layer 1
10
150.797918
20
114.163693
70
0
0
VERTEX
8
Layer 1
10
152.985414
20
110.001665
70
0
0
VERTEX
8
Layer 1
10
155.458560
20
105.702725
70
0
0
VERTEX
8
Layer 1
10
157.880312
20
101.829592
70
0
0
VERTEX
8
Layer 1
10
159.913622
20
98.944984
70
0
0
VERTEX
8
Layer 1
10
162.442246
20
96.122294
70
0
0
VERTEX
8
Layer 1
10
166.572816
20
91.801941
70
0
0
VERTEX
8
Layer 1
10
170.730686
20
87.602551
70
0
0
VERTEX
8
Layer 1
10
173.341209
20
85.142748
70
0
0
VERTEX
8
Layer 1
10
176.643867
20
82.732582
70
0
0
VERTEX
8
Layer 1
10
180.449311
20
80.002508
70
0
0
VERTEX
8
Layer 1
10
187.666868
20
74.820072
70
0
0
VERTEX
8
Layer 1
10
194.202971
20
70.747792
70
0
0
VERTEX
8
Layer 1
10
199.877561
20
67.218810
70
0
0
VERTEX
8
Layer 1
10
203.751459
20
64.873480
70
0
0
VERTEX
8
Layer 1
10
208.480279
20
62.259761
70
0
0
VERTEX
8
Layer 1
10
212.928291
20
59.982934
70
0
0
VERTEX
8
Layer 1
10
215.959763
20
58.648279
70
0
0
VERTEX
8
Layer 1
10
220.146048
20
56.947619
70
0
0
VERTEX
8
Layer 1
10
225.343315
20
54.769525
70
0
0
VERTEX
8
Layer 1
10
229.275723
20
53.373156
70
0
0
VERTEX
8
Layer 1
10
232.773166
20
52.241957
70
0
0
VERTEX
8
Layer 1
10
240.029914
20
50.169145
70
0
0
VERTEX
8
Layer 1
10
248.253864
20
48.266492
70
0
0
VERTEX
8
Layer 1
10
256.729304
20
46.532759
70
0
0
VERTEX
8
Layer 1
10
262.091767
20
45.491493
70
0
0
VERTEX
8
Layer 1
10
266.242942
20
44.713222
70
0
0
VERTEX
8
Layer 1
10
271.086028
20
43.938099
70
0
0
VERTEX
8
Layer 1
10
276.880501
20
43.244072
70
0
0
VERTEX
8
Layer 1
10
281.723614
20
42.639473
70
0
0
VERTEX
8
Layer 1
10
284.145686
20
42.290647
70
0
0
VERTEX
8
Layer 1
10
287.676880
20
41.663059
70
0
0
VERTEX
8
Layer 1
10
292.015496
20
41.076766
70
0
0
VERTEX
8
Layer 1
10
298.069895
20
40.302650
70
0
0
VERTEX
8
Layer 1
10
300.982105
20
40.044735
70
0
0
VERTEX
8
Layer 1
10
305.990727
20
39.837251
70
0
0
VERTEX
8
Layer 1
10
325.688313
20
39.471171
70
0
0
VERTEX
8
Layer 1
10
334.193227
20
39.353352
70
0
0
VERTEX
8
Layer 1
10
334.639182
20
38.934279
70
0
0
VERTEX
8
Layer 1
10
335.085666
20
38.227843
70
0
0
VERTEX
8
Layer 1
10
335.199357
20
37.826841
70
0
0
VERTEX
8
Layer 1
10
336.261625
20
37.799317
70
0
0
VERTEX
8
Layer 1
10
341.572077
20
38.251099
70
0
0
VERTEX
8
Layer 1
10
350.860752
20
39.293556
70
0
0
VERTEX
8
Layer 1
10
354.287802
20
39.865354
70
0
0
VERTEX
8
Layer 1
10
356.883786
20
40.468014
70
0
0
VERTEX
8
Layer 1
10
363.025779
20
42.473884
70
0
0
VERTEX
8
Layer 1
10
368.382299
20
44.717878
70
0
0
VERTEX
8
Layer 1
10
373.225940
20
46.886745
70
0
0
VERTEX
8
Layer 1
10
375.398844
20
47.792444
70
0
0
VERTEX
8
Layer 1
10
377.772326
20
48.981997
70
0
0
VERTEX
8
Layer 1
10
385.160591
20
53.310105
70
0
0
VERTEX
8
Layer 1
10
389.346374
20
56.155934
70
0
0
VERTEX
8
Layer 1
10
392.978702
20
58.657592
70
0
0
VERTEX
8
Layer 1
10
395.737700
20
60.375785
70
0
0
VERTEX
8
Layer 1
10
397.917160
20
61.905686
70
0
0
VERTEX
8
Layer 1
10
399.953988
20
63.579384
70
0
0
VERTEX
8
Layer 1
10
402.285091
20
65.728970
70
0
0
VERTEX
8
Layer 1
10
405.571212
20
68.576862
70
0
0
VERTEX
8
Layer 1
10
408.997635
20
71.489752
70
0
0
VERTEX
8
Layer 1
10
411.635428
20
74.301062
70
0
0
VERTEX
8
Layer 1
10
413.398612
20
76.211514
70
0
0
VERTEX
8
Layer 1
10
415.376287
20
78.106507
70
0
0
VERTEX
8
Layer 1
10
419.343997
20
81.790240
70
0
0
VERTEX
8
Layer 1
10
422.355696
20
85.190822
70
0
0
VERTEX
8
Layer 1
10
426.072240
20
89.341971
70
0
0
VERTEX
8
Layer 1
10
429.867813
20
93.418249
70
0
0
VERTEX
8
Layer 1
10
431.317863
20
95.289768
70
0
0
VERTEX
8
Layer 1
10
432.474964
20
97.056735
70
0
0
VERTEX
8
Layer 1
10
434.906852
20
101.126260
70
0
0
VERTEX
8
Layer 1
10
438.098887
20
107.007543
70
0
0
VERTEX
8
Layer 1
10
440.692012
20
111.914737
70
0
0
VERTEX
8
Layer 1
10
441.705016
20
114.041777
70
0
0
VERTEX
8
Layer 1
10
442.878923
20
117.174756
70
0
0
VERTEX
8
Layer 1
10
444.060212
20
120.868743
70
0
0
VERTEX
8
Layer 1
10
445.095361
20
124.678803
70
0
0
VERTEX
8
Layer 1
10
446.984113
20
131.857152
70
0
0
VERTEX
8
Layer 1
10
449.325910
20
140.806395
70
0
0
VERTEX
8
Layer 1
10
451.076673
20
148.981704
70
0
0
VERTEX
8
Layer 1
10
452.342302
20
156.949646
70
0
0
VERTEX
8
Layer 1
10
453.228696
20
165.276789
70
0
0
VERTEX
8
Layer 1
10
453.673645
20
170.465606
70
0
0
VERTEX
8
Layer 1
10
454.058306
20
176.262064
70
0
0
VERTEX
8
Layer 1
10
454.369207
20
184.016700
70
0
0
VERTEX
8
Layer 1
10
454.390252
20
188.453197
70
0
0
VERTEX
8
Layer 1
10
454.234511
20
193.864946
70
0
0
VERTEX
8
Layer 1
10
453.494840
20
205.146643
70
0
0
VERTEX
8
Layer 1
10
452.698454
20
211.703312
70
0
0
VERTEX
8
Layer 1
10
451.544562
20
218.035959
70
0
0
VERTEX
8
Layer 1
10
449.980882
20
224.388663
70
0
0
VERTEX
8
Layer 1
10
447.955133
20
231.005503
70
0
0
VERTEX
8
Layer 1
10
447.174296
20
233.773280
70
0
0
VERTEX
8
Layer 1
10
446.408136
20
237.028084
70
0
0
VERTEX
8
Layer 1
10
445.265382
20
241.037962
70
0
0
VERTEX
8
Layer 1
10
443.915642
20
245.251925
70
0
0
VERTEX
8
Layer 1
10
442.695742
20
248.460401
70
0
0
VERTEX
8
Layer 1
10
441.376252
20
251.200863
70
0
0
VERTEX
8
Layer 1
10
439.727740
20
254.010784
70
0
0
VERTEX
8
Layer 1
10
437.548528
20
257.787812
70
0
0
VERTEX
8
Layer 1
10
435.167810
20
262.198913
70
0
0
VERTEX
8
Layer 1
10
432.731795
20
266.693702
70
0
0
VERTEX
8
Layer 1
10
430.852925
20
269.849466
70
0
0
VERTEX
8
Layer 1
10
428.765616
20
272.694894
70
0
0
VERTEX
8
Layer 1
10
426.067610
20
276.549948
70
0
0
VERTEX
8
Layer 1
10
421.960938
20
282.824540
70
0
0
VERTEX
8
Layer 1
10
420.082954
20
285.288939
70
0
0
VERTEX
8
Layer 1
10
417.329598
20
288.619133
70
0
0
VERTEX
8
Layer 1
10
412.093791
20
295.433528
70
0
0
VERTEX
8
Layer 1
10
408.266615
20
300.315659
70
0
0
VERTEX
8
Layer 1
10
405.484905
20
303.476428
70
0
0
VERTEX
8
Layer 1
10
401.304282
20
308.064270
70
0
0
VERTEX
8
Layer 1
10
398.547527
20
310.996544
70
0
0
VERTEX
8
Layer 1
10
395.302782
20
313.884008
70
0
0
VERTEX
8
Layer 1
10
391.476969
20
316.803019
70
0
0
VERTEX
8
Layer 1
10
386.977007
20
319.829932
70
0
0
VERTEX
8
Layer 1
10
381.938553
20
323.142908
70
0
0
VERTEX
8
Layer 1
10
380.092147
20
324.327620
70
0
0
VERTEX
8
Layer 1
10
378.222706
20
325.340094
70
0
0
VERTEX
8
Layer 1
10
372.533976
20
327.774664
70
0
0
VERTEX
8
Layer 1
10
368.832273
20
329.168093
70
0
0
VERTEX
8
Layer 1
10
365.151198
20
330.302772
70
0
0
VERTEX
8
Layer 1
10
360.577690
20
331.428746
70
0
0
VERTEX
8
Layer 1
10
354.198692
20
332.796055
70
0
0
VERTEX
8
Layer 1
10
349.323949
20
333.699364
70
0
0
VERTEX
8
Layer 1
10
343.696493
20
334.213021
70
0
0
VERTEX
8
Layer 1
10
334.031938
20
334.576501
70
0
0
VERTEX
8
Layer 1
10
322.331164
20
334.580537
70
0
0
VERTEX
8
Layer 1
10
312.343202
20
334.276921
70
0
0
VERTEX
8
Layer 1
10
309.163096
20
334.025928
70
0
0
VERTEX
8
Layer 1
10
307.817080
20
333.717444
70
0
0
VERTEX
8
Layer 1
10
307.708853
20
333.754882
70
0
0
VERTEX
8
Layer 1
10
307.615881
20
334.104685
70
0
0
VERTEX
8
Layer 1
10
307.488657
20
335.474459
70
0
0
VERTEX
8
Layer 1
10
307.559747
20
339.026159
70
0
0
VERTEX
8
Layer 1
10
308.176225
20
347.069586
70
0
0
VERTEX
8
Layer 1
10
308.188661
20
347.588414
70
0
0
VERTEX
8
Layer 1
10
305.247768
20
347.699002
70
0
0
VERTEX
8
Layer 1
10
299.366987
20
347.953766
70
0
0
VERTEX
8
Layer 1
10
294.799306
20
348.101044
70
0
0
VERTEX
8
Layer 1
10
294.799279
20
348.101044
70
0
0
SEQEND
8
Layer 1
0
POLYLINE
8
Layer 1
62
7
70
0
10
0.000000
20
0.000000
66
1
0
VERTEX
8
Layer 1
10
291.758665
20
319.307487
70
0
0
VERTEX
8
Layer 1
10
292.190135
20
319.216747
70
0
0
VERTEX
8
Layer 1
10
292.591450
20
318.975210
70
0
0
VERTEX
8
Layer 1
10
292.906578
20
318.628898
70
0
0
VERTEX
8
Layer 1
10
293.079490
20
318.223834
70
0
0
VERTEX
8
Layer 1
10
293.230352
20
318.056548
70
0
0
VERTEX
8
Layer 1
10
293.805572
20
317.957187
70
0
0
VERTEX
8
Layer 1
10
297.464239
20
317.859530
70
0
0
VERTEX
8
Layer 1
10
301.324475
20
317.741589
70
0
0
VERTEX
8
Layer 1
10
303.518136
20
317.413046
70
0
0
VERTEX
8
Layer 1
10
305.379781
20
317.109315
70
0
0
VERTEX
8
Layer 1
10
307.756094
20
317.131397
70
0
0
VERTEX
8
Layer 1
10
315.217430
20
317.368709
70
0
0
VERTEX
8
Layer 1
10
319.085644
20
317.155210
70
0
0
VERTEX
8
Layer 1
10
323.631620
20
316.500572
70
0
0
VERTEX
8
Layer 1
10
327.042237
20
315.672619
70
0
0
VERTEX
8
Layer 1
10
330.069437
20
314.737794
70
0
0
VERTEX
8
Layer 1
10
333.961188
20
313.457768
70
0
0
VERTEX
8
Layer 1
10
337.334119
20
312.400468
70
0
0
VERTEX
8
Layer 1
10
340.870522
20
311.381397
70
0
0
VERTEX
8
Layer 1
10
344.598774
20
310.128785
70
0
0
VERTEX
8
Layer 1
10
347.799091
20
308.955730
70
0
0
VERTEX
8
Layer 1
10
351.585161
20
307.434437
70
0
0
VERTEX
8
Layer 1
10
355.150053
20
305.645849
70
0
0
VERTEX
8
Layer 1
10
358.955497
20
303.822211
70
0
0
VERTEX
8
Layer 1
10
364.821762
20
300.974696
70
0
0
VERTEX
8
Layer 1
10
370.285021
20
297.970376
70
0
0
VERTEX
8
Layer 1
10
373.228814
20
295.783134
70
0
0
VERTEX
8
Layer 1
10
376.269147
20
293.250771
70
0
0
VERTEX
8
Layer 1
10
379.366621
20
290.767712
70
0
0
VERTEX
8
Layer 1
10
381.267120
20
289.197320
70
0
0
VERTEX
8
Layer 1
10
383.414952
20
287.049078
70
0
0
VERTEX
8
Layer 1
10
387.859655
20
282.378579
70
0
0
VERTEX
8
Layer 1
10
390.980386
20
278.832558
70
0
0
VERTEX
8
Layer 1
10
395.195616
20
272.346121
70
0
0
VERTEX
8
Layer 1
10
396.493210
20
270.270282
70
0
0
VERTEX
8
Layer 1
10
403.927887
20
257.626628
70
0
0
VERTEX
8
Layer 1
10
410.368313
20
244.238331
70
0
0
VERTEX
8
Layer 1
10
412.736255
20
239.203049
70
0
0
VERTEX
8
Layer 1
10
414.402701
20
234.811001
70
0
0
VERTEX
8
Layer 1
10
416.105425
20
230.025250
70
0
0
VERTEX
8
Layer 1
10
417.437630
20
225.681247
70
0
0
VERTEX
8
Layer 1
10
418.694926
20
220.429989
70
0
0
VERTEX
8
Layer 1
10
420.335658
20
213.535829
70
0
0
VERTEX
8
Layer 1
10
421.638941
20
208.087086
70
0
0
VERTEX
8
Layer 1
10
422.724386
20
201.946078
70
0
0
VERTEX
8
Layer 1
10
423.220750
20
197.895984
70
0
0
VERTEX
8
Layer 1
10
423.641913
20
193.817172
70
0
0
VERTEX
8
Layer 1
10
423.924065
20
185.773743
70
0
0
VERTEX
8
Layer 1
10
423.947006
20
180.629069
70
0
0
VERTEX
8
Layer 1
10
423.808055
20
176.088696
70
0
0
VERTEX
8
Layer 1
10
423.482548
20
171.677445
70
0
0
VERTEX
8
Layer 1
10
422.945822
20
166.920141
70
0
0
VERTEX
8
Layer 1
10
422.183674
20
161.684122
70
0
0
VERTEX
8
Layer 1
10
421.210528
20
157.549669
70
0
0
VERTEX
8
Layer 1
10
420.195614
20
153.397991
70
0
0
VERTEX
8
Layer 1
10
419.497988
20
150.747002
70
0
0
VERTEX
8
Layer 1
10
418.391621
20
146.902062
70
0
0
VERTEX
8
Layer 1
10
417.417492
20
142.963499
70
0
0
VERTEX
8
Layer 1
10
416.810301
20
140.777065
70
0
0
VERTEX
8
Layer 1
10
415.346667
20
135.476452
70
0
0
VERTEX
8
Layer 1
10
413.869381
20
128.606776
70
0
0
VERTEX
8
Layer 1
10
411.999917
20
119.267631
70
0
0
VERTEX
8
Layer 1
10
411.191922
20
116.045438
70
0
0
VERTEX
8
Layer 1
10
410.336272
20
113.212385
70
0
0
VERTEX
8
Layer 1
10
409.032989
20
108.888093
70
0
0
VERTEX
8
Layer 1
10
408.045308
20
105.559173
70
0
0
VERTEX
8
Layer 1
10
406.758326
20
101.876127
70
0
0
VERTEX
8
Layer 1
10
405.313284
20
98.218402
70
0
0
VERTEX
8
Layer 1
10
403.851422
20
94.965444
70
0
0
VERTEX
8
Layer 1
10
403.291912
20
93.652679
70
0
0
VERTEX
8
Layer 1
10
403.063335
20
92.784196
70
0
0
VERTEX
8
Layer 1
10
402.946331
20
92.284152
70
0
0
VERTEX
8
Layer 1
10
402.659168
20
91.752643
70
0
0
VERTEX
8
Layer 1
10
402.297627
20
91.330478
70
0
0
VERTEX
8
Layer 1
10
401.957484
20
91.158465
70
0
0
VERTEX
8
Layer 1
10
399.860452
20
88.347774
70
0
0
VERTEX
8
Layer 1
10
397.839591
20
85.564807
70
0
0
VERTEX
8
Layer 1
10
395.372860
20
82.874213
70
0
0
VERTEX
8
Layer 1
10
391.803513
20
79.462452
70
0
0
VERTEX
8
Layer 1
10
388.270100
20
76.569504
70
0
0
VERTEX
8
Layer 1
10
384.780021
20
74.200908
70
0
0
VERTEX
8
Layer 1
10
381.340674
20
72.362198
70
0
0
VERTEX
8
Layer 1
10
373.744761
20
69.027526
70
0
0
VERTEX
8
Layer 1
10
371.119092
20
67.922178
70
0
0
VERTEX
8
Layer 1
10
368.372228
20
66.890708
70
0
0
VERTEX
8
Layer 1
10
363.971726
20
65.742993
70
0
0
VERTEX
8
Layer 1
10
356.898285
20
64.439548
70
0
0
VERTEX
8
Layer 1
10
349.182463
20
63.561215
70
0
0
VERTEX
8
Layer 1
10
345.636945
20
63.228925
70
0
0
VERTEX
8
Layer 1
10
335.950217
20
62.883724
70
0
0
VERTEX
8
Layer 1
10
324.274963
20
62.660495
70
0
0
VERTEX
8
Layer 1
10
317.080895
20
62.808817
70
0
0
VERTEX
8
Layer 1
10
309.312609
20
63.139523
70
0
0
VERTEX
8
Layer 1
10
297.483871
20
63.925519
70
0
0
VERTEX
8
Layer 1
10
293.686628
20
64.245562
70
0
0
VERTEX
8
Layer 1
10
293.003577
20
64.223186
70
0
0
VERTEX
8
Layer 1
10
292.713624
20
64.093979
70
0
0
VERTEX
8
Layer 1
10
292.370568
20
63.892263
70
0
0
VERTEX
8
Layer 1
10
291.982337
20
63.843575
70
0
0
VERTEX
8
Layer 1
10
291.585226
20
63.945416
70
0
0
VERTEX
8
Layer 1
10
291.215529
20
64.195288
70
0
0
VERTEX
8
Layer 1
10
290.881081
20
64.400902
70
0
0
VERTEX
8
Layer 1
10
290.222135
20
64.567619
70
0
0
VERTEX
8
Layer 1
10
286.931057
20
64.964219
70
0
0
VERTEX
8
Layer 1
10
282.034181
20
65.542492
70
0
0
VERTEX
8
Layer 1
10
279.215764
20
65.908860
70
0
0
VERTEX
8
Layer 1
10
274.334330
20
66.635878
70
0
0
VERTEX
8
Layer 1
10
269.875270
20
67.452966
70
0
0
VERTEX
8
Layer 1
10
268.319813
20
67.728900
70
0
0
VERTEX
8
Layer 1
10
264.122329
20
68.669979
70
0
0
VERTEX
8
Layer 1
10
257.985042
20
70.301361
70
0
0
VERTEX
8
Layer 1
10
253.096977
20
71.596892
70
0
0
VERTEX
8
Layer 1
10
249.897189
20
72.476921
70
0
0
VERTEX
8
Layer 1
10
246.246764
20
73.600896
70
0
0
VERTEX
8
Layer 1
10
243.231514
20
74.539073
70
0
0
VERTEX
8
Layer 1
10
240.582561
20
75.508295
70
0
0
VERTEX
8
Layer 1
10
238.089129
20
76.592740
70
0
0
VERTEX
8
Layer 1
10
235.540439
20
77.876584
70
0
0
VERTEX
8
Layer 1
10
229.919083
20
80.867615
70
0
0
VERTEX
8
Layer 1
10
226.198913
20
82.975495
70
0
0
VERTEX
8
Layer 1
10
223.864180
20
84.322196
70
0
0
VERTEX
8
Layer 1
10
221.492633
20
85.794065
70
0
0
VERTEX
8
Layer 1
10
217.897622
20
88.463026
70
0
0
VERTEX
8
Layer 1
10
214.667857
20
90.848401
70
0
0
VERTEX
8
Layer 1
10
212.468065
20
92.774483
70
0
0
VERTEX
8
Layer 1
10
208.788092
20
96.325629
70
0
0
VERTEX
8
Layer 1
10
205.060072
20
100.087978
70
0
0
VERTEX
8
Layer 1
10
202.716140
20
102.647665
70
0
0
VERTEX
8
Layer 1
10
200.455808
20
105.342072
70
0
0
VERTEX
8
Layer 1
10
198.309061
20
107.888553
70
0
0
VERTEX
8
Layer 1
10
195.929848
20
110.980650
70
0
0
VERTEX
8
Layer 1
10
193.755734
20
114.028351
70
0
0
VERTEX
8
Layer 1
10
192.224287
20
116.441646
70
0
0
VERTEX
8
Layer 1
10
191.656753
20
117.271184
70
0
0
VERTEX
8
Layer 1
10
191.063640
20
117.888572
70
0
0
VERTEX
8
Layer 1
10
190.130750
20
118.905992
70
0
0
VERTEX
8
Layer 1
10
189.878200
20
119.459168
70
0
0
VERTEX
8
Layer 1
10
189.790335
20
120.005765
70
0
0
VERTEX
8
Layer 1
10
189.638712
20
120.692785
70
0
0
VERTEX
8
Layer 1
10
189.181453
20
121.755571
70
0
0
VERTEX
8
Layer 1
10
187.335692
20
125.039536
70
0
0
VERTEX
8
Layer 1
10
185.947305
20
127.456651
70
0
0
VERTEX
8
Layer 1
10
184.829102
20
129.769258
70
0
0
VERTEX
8
Layer 1
10
183.805222
20
132.381698
70
0
0
VERTEX
8
Layer 1
10
182.699801
20
135.698315
70
0
0
VERTEX
8
Layer 1
10
181.753097
20
138.552398
70
0
0
VERTEX
8
Layer 1
10
180.620364
20
142.271535
70
0
0
VERTEX
8
Layer 1
10
179.162035
20
146.998893
70
0
0
VERTEX
8
Layer 1
10
177.257696
20
153.545827
70
0
0
VERTEX
8
Layer 1
10
176.567046
20
156.638255
70
0
0
VERTEX
8
Layer 1
10
176.125020
20
159.309252
70
0
0
VERTEX
8
Layer 1
10
175.766404
20
161.662083
70
0
0
VERTEX
8
Layer 1
10
175.343254
20
164.592151
70
0
0
VERTEX
8
Layer 1
10
175.034491
20
168.502598
70
0
0
VERTEX
8
Layer 1
10
174.768529
20
179.114215
70
0
0
VERTEX
8
Layer 1
10
174.848915
20
183.802032
70
0
0
VERTEX
8
Layer 1
10
175.083419
20
188.438263
70
0
0
VERTEX
8
Layer 1
10
175.432298
20
192.434052
70
0
0
VERTEX
8
Layer 1
10
175.855806
20
195.200544
70
0
0
VERTEX
8
Layer 1
10
176.638681
20
199.179105
70
0
0
VERTEX
8
Layer 1
10
177.714684
20
204.055989
70
0
0
VERTEX
8
Layer 1
10
179.066971
20
208.881338
70
0
0
VERTEX
8
Layer 1
10
180.349061
20
213.638169
70
0
0
VERTEX
8
Layer 1
10
181.967730
20
219.770152
70
0
0
VERTEX
8
Layer 1
10
183.358692
20
224.346029
70
0
0
VERTEX
8
Layer 1
10
184.946190
20
229.171044
70
0
0
VERTEX
8
Layer 1
10
186.672700
20
233.841542
70
0
0
VERTEX
8
Layer 1
10
190.131382
20
240.692284
70
0
0
VERTEX
8
Layer 1
10
193.596282
20
247.783823
70
0
0
VERTEX
8
Layer 1
10
194.496185
20
249.726189
70
0
0
VERTEX
8
Layer 1
10
195.514082
20
251.556340
70
0
0
VERTEX
8
Layer 1
10
198.425953
20
255.739939
70
0
0
VERTEX
8
Layer 1
10
199.908571
20
257.748071
70
0
0
VERTEX
8
Layer 1
10
202.503230
20
261.109096
70
0
0
VERTEX
8
Layer 1
10
205.083444
20
264.375055
70
0
0
VERTEX
8
Layer 1
10
207.920286
20
267.477966
70
0
0
VERTEX
8
Layer 1
10
212.953730
20
272.615890
70
0
0
VERTEX
8
Layer 1
10
218.818883
20
278.355370
70
0
0
VERTEX
8
Layer 1
10
222.529385
20
281.524373
70
0
0
VERTEX
8
Layer 1
10
233.213637
20
289.656460
70
0
0
VERTEX
8
Layer 1
10
236.803242
20
292.103513
70
0
0
VERTEX
8
Layer 1
10
240.037848
20
294.053304
70
0
0
VERTEX
8
Layer 1
10
243.237635
20
296.044900
70
0
0
VERTEX
8
Layer 1
10
246.148948
20
298.008297
70
0
0
VERTEX
8
Layer 1
10
249.550956
20
299.754247
70
0
0
VERTEX
8
Layer 1
10
258.041587
20
303.768739
70
0
0
VERTEX
8
Layer 1
10
263.927311
20
306.781201
70
0
0
VERTEX
8
Layer 1
10
268.943541
20
309.266297
70
0
0
VERTEX
8
Layer 1
10
273.181208
20
311.052080
70
0
0
VERTEX
8
Layer 1
10
275.896067
20
312.348795
70
0
0
VERTEX
8
Layer 1
10
277.955277
20
313.310978
70
0
0
VERTEX
8
Layer 1
10
282.449153
20
314.895936
70
0
0
VERTEX
8
Layer 1
10
285.593669
20
316.185249
70
0
0
VERTEX
8
Layer 1
10
286.948073
20
316.758924
70
0
0
VERTEX
8
Layer 1
10
288.357821
20
317.167619
70
0
0
VERTEX
8
Layer 1
10
289.578283
20
317.498007
70
0
0
VERTEX
8
Layer 1
10
290.076076
20
317.913822
70
0
0
VERTEX
8
Layer 1
10
290.927104
20
318.963344
70
0
0
VERTEX
8
Layer 1
10
291.343401
20
319.222020
70
0
0
VERTEX
8
Layer 1
10
291.758665
20
319.307540
70
0
0
VERTEX
8
Layer 1
10
291.758665
20
319.307487
70
0
0
SEQEND
8
Layer 1
0
POLYLINE
8
Layer 1
62
7
70
0
10
0.000000
20
0.000000
66
1
0
VERTEX
8
Layer 1
10
301.223698
20
345.391137
70
0
0
VERTEX
8
Layer 1
10
301.071246
20
345.390079
70
0
0
VERTEX
8
Layer 1
10
300.036944
20
345.110713
70
0
0
VERTEX
8
Layer 1
10
298.924102
20
344.353967
70
0
0
VERTEX
8
Layer 1
10
298.377652
20
343.746145
70
0
0
VERTEX
8
Layer 1
10
298.242483
20
343.139057
70
0
0
VERTEX
8
Layer 1
10
298.339589
20
342.547508
70
0
0
VERTEX
8
Layer 1
10
298.613528
20
342.068960
70
0
0
VERTEX
8
Layer 1
10
299.038229
20
341.733754
70
0
0
VERTEX
8
Layer 1
10
299.587623
20
341.572228
70
0
0
VERTEX
8
Layer 1
10
300.825534
20
341.603876
70
0
0
VERTEX
8
Layer 1
10
301.828297
20
342.026464
70
0
0
VERTEX
8
Layer 1
10
302.272498
20
342.411780
70
0
0
VERTEX
8
Layer 1
10
302.564866
20
342.870782
70
0
0
VERTEX
8
Layer 1
10
302.702509
20
343.396871
70
0
0
VERTEX
8
Layer 1
10
302.682530
20
343.983447
70
0
0
VERTEX
8
Layer 1
10
302.497952
20
344.581872
70
0
0
VERTEX
8
Layer 1
10
302.178985
20
345.017412
70
0
0
VERTEX
8
Layer 1
10
301.747083
20
345.287887
70
0
0
VERTEX
8
Layer 1
10
301.223698
20
345.391113
70
0
0
VERTEX
8
Layer 1
10
301.223698
20
345.391137
70
0
0
SEQEND
8
Layer 1
0
POLYLINE
8
Layer 1
62
7
70
0
10
0.000000
20
0.000000
66
1
0
VERTEX
8
Layer 1
10
112.034481
20
90.446053
70
0
0
VERTEX
8
Layer 1
10
112.340112
20
90.294720
70
0
0
VERTEX
8
Layer 1
10
112.712776
20
90.358251
70
0
0
VERTEX
8
Layer 1
10
114.781154
20
90.721845
70
0
0
VERTEX
8
Layer 1
10
116.144953
20
90.915023
70
0
0
VERTEX
8
Layer 1
10
116.339628
20
91.029392
70
0
0
VERTEX
8
Layer 1
10
116.316793
20
91.188058
70
0
0
VERTEX
8
Layer 1
10
116.111358
20
91.952749
70
0
0
VERTEX
8
Layer 1
10
116.254575
20
92.692871
70
0
0
VERTEX
8
Layer 1
10
116.678957
20
93.253751
70
0
0
VERTEX
8
Layer 1
10
117.317013
20
93.480719
70
0
0
VERTEX
8
Layer 1
10
117.943154
20
93.734461
70
0
0
VERTEX
8
Layer 1
10
119.032651
20
94.614076
70
0
0
VERTEX
8
Layer 1
10
120.306332
20
95.742900
70
0
0
VERTEX
8
Layer 1
10
121.150044
20
97.634535
70
0
0
VERTEX
8
Layer 1
10
122.289308
20
100.534702
70
0
0
VERTEX
8
Layer 1
10
123.065519
20
102.888823
70
0
0
VERTEX
8
Layer 1
10
123.683426
20
104.051704
70
0
0
VERTEX
8
Layer 1
10
124.011193
20
104.905519
70
0
0
VERTEX
8
Layer 1
10
124.408048
20
106.170680
70
0
0
VERTEX
8
Layer 1
10
125.284343
20
109.238950
70
0
0
VERTEX
8
Layer 1
10
125.961705
20
112.553084
70
0
0
VERTEX
8
Layer 1
10
126.170204
20
113.655091
70
0
0
VERTEX
8
Layer 1
10
126.384100
20
114.824048
70
0
0
VERTEX
8
Layer 1
10
126.694274
20
116.610697
70
0
0
VERTEX
8
Layer 1
10
126.967942
20
118.006002
70
0
0
VERTEX
8
Layer 1
10
127.200870
20
120.172832
70
0
0
VERTEX
8
Layer 1
10
127.612830
20
127.643729
70
0
0
VERTEX
8
Layer 1
10
127.761162
20
129.056877
70
0
0
VERTEX
8
Layer 1
10
128.098227
20
130.490784
70
0
0
VERTEX
8
Layer 1
10
128.623690
20
132.680956
70
0
0
VERTEX
8
Layer 1
10
129.038277
20
134.692598
70
0
0
VERTEX
8
Layer 1
10
129.226742
20
135.656443
70
0
0
VERTEX
8
Layer 1
10
129.788661
20
139.171977
70
0
0
VERTEX
8
Layer 1
10
130.399678
20
144.426548
70
0
0
VERTEX
8
Layer 1
10
130.967676
20
149.640032
70
0
0
VERTEX
8
Layer 1
10
131.249185
20
151.249575
70
0
0
VERTEX
8
Layer 1
10
131.451244
20
154.768143
70
0
0
VERTEX
8
Layer 1
10
131.850991
20
161.150677
70
0
0
VERTEX
8
Layer 1
10
132.187610
20
163.586365
70
0
0
VERTEX
8
Layer 1
10
132.631233
20
165.663880
70
0
0
VERTEX
8
Layer 1
10
133.063037
20
167.592009
70
0
0
VERTEX
8
Layer 1
10
133.431858
20
169.728255
70
0
0
VERTEX
8
Layer 1
10
133.638344
20
170.815479
70
0
0
VERTEX
8
Layer 1
10
133.991699
20
175.424858
70
0
0
VERTEX
8
Layer 1
10
134.170812
20
176.997675
70
0
0
VERTEX
8
Layer 1
10
134.394914
20
179.209613
70
0
0
VERTEX
8
Layer 1
10
134.558223
20
183.341917
70
0
0
VERTEX
8
Layer 1
10
134.690178
20
184.408823
70
0
0
VERTEX
8
Layer 1
10
134.749780
20
184.855462
70
0
0
VERTEX
8
Layer 1
10
134.910610
20
186.184432
70
0
0
VERTEX
8
Layer 1
10
135.089610
20
190.052712
70
0
0
VERTEX
8
Layer 1
10
135.256779
20
193.298963
70
0
0
VERTEX
8
Layer 1
10
135.322898
20
194.331957
70
0
0
VERTEX
8
Layer 1
10
135.201872
20
196.275275
70
0
0
VERTEX
8
Layer 1
10
134.998681
20
200.695869
70
0
0
VERTEX
8
Layer 1
10
134.731085
20
205.098211
70
0
0
VERTEX
8
Layer 1
10
134.373503
20
207.381173
70
0
0
VERTEX
8
Layer 1
10
134.158258
20
207.846163
70
0
0
VERTEX
8
Layer 1
10
133.820104
20
208.195308
70
0
0
VERTEX
8
Layer 1
10
133.325680
20
208.805925
70
0
0
VERTEX
8
Layer 1
10
133.319097
20
209.849947
70
0
0
VERTEX
8
Layer 1
10
133.299754
20
211.078872
70
0
0
VERTEX
8
Layer 1
10
130.841303
20
211.591102
70
0
0
VERTEX
8
Layer 1
10
128.345198
20
211.919757
70
0
0
VERTEX
8
Layer 1
10
125.472450
20
212.101279
70
0
0
VERTEX
8
Layer 1
10
122.320421
20
212.132207
70
0
0
VERTEX
8
Layer 1
10
118.986474
20
212.009079
70
0
0
VERTEX
8
Layer 1
10
115.439534
20
211.681091
70
0
0
VERTEX
8
Layer 1
10
112.108030
20
210.936153
70
0
0
VERTEX
8
Layer 1
10
108.835312
20
210.076975
70
0
0
VERTEX
8
Layer 1
10
108.928281
20
207.926354
70
0
0
VERTEX
8
Layer 1
10
108.834405
20
205.564348
70
0
0
VERTEX
8
Layer 1
10
108.634387
20
203.944469
70
0
0
VERTEX
8
Layer 1
10
108.333446
20
200.166071
70
0
0
VERTEX
8
Layer 1
10
108.151136
20
197.599696
70
0
0
VERTEX
8
Layer 1
10
108.171793
20
194.044415
70
0
0
VERTEX
8
Layer 1
10
108.361114
20
190.637643
70
0
0
VERTEX
8
Layer 1
10
108.684799
20
188.516794
70
0
0
VERTEX
8
Layer 1
10
108.904664
20
187.028961
70
0
0
VERTEX
8
Layer 1
10
109.096483
20
184.263475
70
0
0
VERTEX
8
Layer 1
10
109.269224
20
177.327075
70
0
0
VERTEX
8
Layer 1
10
109.421959
20
172.525561
70
0
0
VERTEX
8
Layer 1
10
109.500968
20
168.052648
70
0
0
VERTEX
8
Layer 1
10
109.456382
20
165.532590
70
0
0
VERTEX
8
Layer 1
10
109.461342
20
162.065190
70
0
0
VERTEX
8
Layer 1
10
109.403289
20
158.396942
70
0
0
VERTEX
8
Layer 1
10
109.375246
20
156.529214
70
0
0
VERTEX
8
Layer 1
10
108.628638
20
156.311135
70
0
0
VERTEX
8
Layer 1
10
107.533231
20
155.884139
70
0
0
VERTEX
8
Layer 1
10
106.056506
20
155.472072
70
0
0
VERTEX
8
Layer 1
10
103.735994
20
154.809208
70
0
0
VERTEX
8
Layer 1
10
102.037216
20
154.299615
70
0
0
VERTEX
8
Layer 1
10
100.627451
20
153.929743
70
0
0
VERTEX
8
Layer 1
10
98.743437
20
153.306391
70
0
0
VERTEX
8
Layer 1
10
97.416745
20
153.038529
70
0
0
VERTEX
8
Layer 1
10
95.663813
20
152.676809
70
0
0
VERTEX
8
Layer 1
10
94.256172
20
152.420921
70
0
0
VERTEX
8
Layer 1
10
93.582919
20
152.379436
70
0
0
VERTEX
8
Layer 1
10
93.726531
20
151.771783
70
0
0
VERTEX
8
Layer 1
10
93.975929
20
149.225220
70
0
0
VERTEX
8
Layer 1
10
94.060568
20
145.495426
70
0
0
VERTEX
8
Layer 1
10
94.104959
20
143.456039
70
0
0
VERTEX
8
Layer 1
10
96.382798
20
143.551750
70
0
0
VERTEX
8
Layer 1
10
100.194122
20
143.815525
70
0
0
VERTEX
8
Layer 1
10
102.354241
20
144.039409
70
0
0
VERTEX
8
Layer 1
10
107.518658
20
144.725196
70
0
0
VERTEX
8
Layer 1
10
108.597072
20
144.808006
70
0
0
VERTEX
8
Layer 1
10
109.169624
20
144.735716
70
0
0
VERTEX
8
Layer 1
10
109.457670
20
144.404665
70
0
0
VERTEX
8
Layer 1
10
109.682569
20
143.711194
70
0
0
VERTEX
8
Layer 1
10
110.045809
20
141.228434
70
0
0
VERTEX
8
Layer 1
10
110.104420
20
138.403464
70
0
0
VERTEX
8
Layer 1
10
110.122548
20
133.112218
70
0
0
VERTEX
8
Layer 1
10
110.286513
20
130.429222
70
0
0
VERTEX
8
Layer 1
10
110.509838
20
128.764495
70
0
0
VERTEX
8
Layer 1
10
111.035837
20
123.324062
70
0
0
VERTEX
8
Layer 1
10
111.542209
20
116.151865
70
0
0
VERTEX
8
Layer 1
10
111.756790
20
112.487985
70
0
0
VERTEX
8
Layer 1
10
111.621198
20
109.534709
70
0
0
VERTEX
8
Layer 1
10
111.674407
20
106.068802
70
0
0
VERTEX
8
Layer 1
10
112.082024
20
96.294540
70
0
0
VERTEX
8
Layer 1
10
112.082279
20
92.690011
70
0
0
VERTEX
8
Layer 1
10
111.930079
20
90.934227
70
0
0
VERTEX
8
Layer 1
10
111.907742
20
90.665064
70
0
0
VERTEX
8
Layer 1
10
112.034481
20
90.446053
70
0
0
VERTEX
8
Layer 1
10
112.034481
20
90.446053
70
0
0
SEQEND
8
Layer 1
0
POLYLINE
8
Layer 1
62
7
70
0
10
0.000000
20
0.000000
66
1
0
VERTEX
8
Layer 1
10
96.605582
20
146.412276
70
0
0
VERTEX
8
Layer 1
10
96.967064
20
146.385853
70
0
0
VERTEX
8
Layer 1
10
97.622787
20
146.491652
70
0
0
VERTEX
8
Layer 1
10
98.271111
20
146.768798
70
0
0
VERTEX
8
Layer 1
10
98.844514
20
147.179253
70
0
0
VERTEX
8
Layer 1
10
99.275474
20
147.684979
70
0
0
VERTEX
8
Layer 1
10
99.559681
20
148.331123
70
0
0
VERTEX
8
Layer 1
10
99.430010
20
148.961563
70
0
0
VERTEX
8
Layer 1
10
99.107811
20
149.534204
70
0
0
VERTEX
8
Layer 1
10
98.657910
20
150.032593
70
0
0
VERTEX
8
Layer 1
10
98.143049
20
150.400301
70
0
0
VERTEX
8
Layer 1
10
97.625972
20
150.580897
70
0
0
VERTEX
8
Layer 1
10
96.664911
20
150.537527
70
0
0
VERTEX
8
Layer 1
10
95.897816
20
149.924168
70
0
0
VERTEX
8
Layer 1
10
95.476382
20
149.301253
70
0
0
VERTEX
8
Layer 1
10
95.726323
20
148.619809
70
0
0
VERTEX
8
Layer 1
10
96.520179
20
147.363557
70
0
0
VERTEX
8
Layer 1
10
96.799565
20
146.879438
70
0
0
VERTEX
8
Layer 1
10
96.725621
20
146.590228
70
0
0
VERTEX
8
Layer 1
10
96.605863
20
146.412594
70
0
0
VERTEX
8
Layer 1
10
96.605582
20
146.412276
70
0
0
SEQEND
8
Layer 1
0
POLYLINE
8
Layer 1
62
7
70
0
10
0.000000
20
0.000000
66
1
0
VERTEX
8
Layer 1
10
27.229700
20
211.361290
70
0
0
VERTEX
8
Layer 1
10
26.412190
20
210.929780
70
0
0
VERTEX
8
Layer 1
10
25.382270
20
210.502950
70
0
0
VERTEX
8
Layer 1
10
23.738950
20
209.916420
70
0
0
VERTEX
8
Layer 1
10
22.008741
20
209.304141
70
0
0
VERTEX
8
Layer 1
10
20.109968
20
208.928840
70
0
0
VERTEX
8
Layer 1
10
18.110690
20
208.799284
70
0
0
VERTEX
8
Layer 1
10
16.078970
20
208.924240
70
0
0
VERTEX
8
Layer 1
10
13.741110
20
209.219300
70
0
0
VERTEX
8
Layer 1
10
13.125475
20
209.235171
70
0
0
VERTEX
8
Layer 1
10
12.903440
20
208.999170
70
0
0
VERTEX
8
Layer 1
10
12.515791
20
208.127804
70
0
0
VERTEX
8
Layer 1
10
11.877680
20
207.250430
70
0
0
VERTEX
8
Layer 1
10
11.334040
20
206.610160
70
0
0
VERTEX
8
Layer 1
10
11.489060
20
204.101780
70
0
0
VERTEX
8
Layer 1
10
11.539160
20
199.604390
70
0
0
VERTEX
8
Layer 1
10
10.913340
20
189.918160
70
0
0
VERTEX
8
Layer 1
10
10.653851
20
183.943586
70
0
0
VERTEX
8
Layer 1
10
10.464614
20
174.621827
70
0
0
VERTEX
8
Layer 1
10
10.411550
20
154.113100
70
0
0
VERTEX
8
Layer 1
10
10.433112
20
145.641321
70
0
0
VERTEX
8
Layer 1
10
10.302955
20
137.650645
70
0
0
VERTEX
8
Layer 1
10
10.044938
20
131.037224
70
0
0
VERTEX
8
Layer 1
10
9.682920
20
126.697210
70
0
0
VERTEX
8
Layer 1
10
9.535879
20
122.523166
70
0
0
VERTEX
8
Layer 1
10
9.456870
20
114.958079
70
0
0
VERTEX
8
Layer 1
10
9.463759
20
107.680082
70
0
0
VERTEX
8
Layer 1
10
9.574410
20
104.367310
70
0
0
VERTEX
8
Layer 1
10
14.652050
20
103.796631
70
0
0
VERTEX
8
Layer 1
10
22.779790
20
103.195810
70
0
0
VERTEX
8
Layer 1
10
29.006061
20
102.944981
70
0
0
VERTEX
8
Layer 1
10
30.414764
20
102.973444
70
0
0
VERTEX
8
Layer 1
10
30.918850
20
103.101710
70
0
0
VERTEX
8
Layer 1
10
30.753021
20
105.744550
70
0
0
VERTEX
8
Layer 1
10
30.303880
20
108.967500
70
0
0
VERTEX
8
Layer 1
10
30.016913
20
110.915180
70
0
0
VERTEX
8
Layer 1
10
29.779370
20
114.848290
70
0
0
VERTEX
8
Layer 1
10
29.442450
20
119.432510
70
0
0
VERTEX
8
Layer 1
10
29.189250
20
130.243200
70
0
0
VERTEX
8
Layer 1
10
29.011470
20
139.951660
70
0
0
VERTEX
8
Layer 1
10
29.074468
20
140.171931
70
0
0
VERTEX
8
Layer 1
10
29.593738
20
140.324484
70
0
0
VERTEX
8
Layer 1
10
32.725450
20
140.541810
70
0
0
VERTEX
8
Layer 1
10
35.925780
20
140.791920
70
0
0
VERTEX
8
Layer 1
10
38.174200
20
141.140730
70
0
0
VERTEX
8
Layer 1
10
41.114600
20
141.609430
70
0
0
VERTEX
8
Layer 1
10
43.882400
20
141.983580
70
0
0
VERTEX
8
Layer 1
10
45.093160
20
142.091580
70
0
0
VERTEX
8
Layer 1
10
45.076760
20
143.475460
70
0
0
VERTEX
8
Layer 1
10
44.899371
20
149.329034
70
0
0
VERTEX
8
Layer 1
10
44.659230
20
152.618590
70
0
0
VERTEX
8
Layer 1
10
42.794929
20
152.740239
70
0
0
VERTEX
8
Layer 1
10
40.859970
20
152.645490
70
0
0
VERTEX
8
Layer 1
10
36.691250
20
152.385570
70
0
0
VERTEX
8
Layer 1
10
31.922175
20
152.096647
70
0
0
VERTEX
8
Layer 1
10
28.990420
20
151.760280
70
0
0
VERTEX
8
Layer 1
10
28.455060
20
151.663180
70
0
0
VERTEX
8
Layer 1
10
28.322240
20
153.104420
70
0
0
VERTEX
8
Layer 1
10
27.945281
20
158.516257
70
0
0
VERTEX
8
Layer 1
10
27.704200
20
167.691130
70
0
0
VERTEX
8
Layer 1
10
27.603244
20
181.008627
70
0
0
VERTEX
8
Layer 1
10
27.697139
20
185.972990
70
0
0
VERTEX
8
Layer 1
10
27.882470
20
189.226260
70
0
0
VERTEX
8
Layer 1
10
28.738405
20
198.411669
70
0
0
VERTEX
8
Layer 1
10
28.979040
20
203.928700
70
0
0
VERTEX
8
Layer 1
10
28.943148
20
207.312764
70
0
0
VERTEX
8
Layer 1
10
28.807278
20
208.063653
70
0
0
VERTEX
8
Layer 1
10
28.539800
20
208.772350
70
0
0
VERTEX
8
Layer 1
10
27.685480
20
210.678937
70
0
0
VERTEX
8
Layer 1
10
27.229800
20
211.361330
70
0
0
VERTEX
8
Layer 1
10
27.229700
20
211.361290
70
0
0
SEQEND
8
Layer 1
0
POLYLINE
8
Layer 1
62
7
70
0
10
0.000000
20
0.000000
66
1
0
VERTEX
8
Layer 1
10
41.803480
20
150.298870
70
0
0
VERTEX
8
Layer 1
10
42.149893
20
150.263649
70
0
0
VERTEX
8
Layer 1
10
42.214320
20
150.114900
70
0
0
VERTEX
8
Layer 1
10
42.444270
20
149.442600
70
0
0
VERTEX
8
Layer 1
10
42.789228
20
148.403588
70
0
0
VERTEX
8
Layer 1
10
42.782925
20
147.154121
70
0
0
VERTEX
8
Layer 1
10
42.469580
20
146.023501
70
0
0
VERTEX
8
Layer 1
10
42.211584
20
145.605666
70
0
0
VERTEX
8
Layer 1
10
41.893410
20
145.341030
70
0
0
VERTEX
8
Layer 1
10
41.304771
20
145.174158
70
0
0
VERTEX
8
Layer 1
10
40.564325
20
145.127478
70
0
0
VERTEX
8
Layer 1
10
39.851119
20
145.198048
70
0
0
VERTEX
8
Layer 1
10
39.344200
20
145.382930
70
0
0
VERTEX
8
Layer 1
10
39.065851
20
145.681548
70
0
0
VERTEX
8
Layer 1
10
38.890522
20
146.095132
70
0
0
VERTEX
8
Layer 1
10
38.835785
20
147.155238
70
0
0
VERTEX
8
Layer 1
10
39.153723
20
148.339337
70
0
0
VERTEX
8
Layer 1
10
39.818070
20
149.423520
70
0
0
VERTEX
8
Layer 1
10
40.513179
20
150.070500
70
0
0
VERTEX
8
Layer 1
10
41.368900
20
150.268440
70
0
0
VERTEX
8
Layer 1
10
41.803480
20
150.298940
70
0
0
VERTEX
8
Layer 1
10
41.803480
20
150.298870
70
0
0
SEQEND
8
Layer 1
0
POLYLINE
8
Layer 1
62
7
70
0
10
0.000000
20
0.000000
66
1
0
VERTEX
8
Layer 1
10
71.257966
20
200.368763
70
0
0
VERTEX
8
Layer 1
10
71.248706
20
200.352723
70
0
0
VERTEX
8
Layer 1
10
71.250201
20
200.196139
70
0
0
VERTEX
8
Layer 1
10
71.238861
20
199.831905
70
0
0
VERTEX
8
Layer 1
10
70.950939
20
199.349140
70
0
0
VERTEX
8
Layer 1
10
70.623215
20
198.570335
70
0
0
VERTEX
8
Layer 1
10
70.651498
20
196.790291
70
0
0
VERTEX
8
Layer 1
10
70.681633
20
194.623534
70
0
0
VERTEX
8
Layer 1
10
70.235036
20
192.112647
70
0
0
VERTEX
8
Layer 1
10
69.528100
20
187.547839
70
0
0
VERTEX
8
Layer 1
10
69.045446
20
183.086221
70
0
0
VERTEX
8
Layer 1
10
68.805381
20
180.648843
70
0
0
VERTEX
8
Layer 1
10
68.599768
20
179.082456
70
0
0
VERTEX
8
Layer 1
10
68.404165
20
177.532347
70
0
0
VERTEX
8
Layer 1
10
67.917724
20
170.091792
70
0
0
VERTEX
8
Layer 1
10
67.558547
20
165.905003
70
0
0
VERTEX
8
Layer 1
10
67.168591
20
162.945487
70
0
0
VERTEX
8
Layer 1
10
66.968633
20
161.226652
70
0
0
VERTEX
8
Layer 1
10
66.959091
20
159.933722
70
0
0
VERTEX
8
Layer 1
10
66.799882
20
158.264776
70
0
0
VERTEX
8
Layer 1
10
66.540698
20
156.816420
70
0
0
VERTEX
8
Layer 1
10
66.296320
20
153.539563
70
0
0
VERTEX
8
Layer 1
10
66.212605
20
149.653199
70
0
0
VERTEX
8
Layer 1
10
66.439930
20
146.281813
70
0
0
VERTEX
8
Layer 1
10
66.863739
20
141.068357
70
0
0
VERTEX
8
Layer 1
10
67.474581
20
136.703996
70
0
0
VERTEX
8
Layer 1
10
67.825373
20
134.803230
70
0
0
VERTEX
8
Layer 1
10
67.883770
20
129.928996
70
0
0
VERTEX
8
Layer 1
10
67.945465
20
126.442788
70
0
0
VERTEX
8
Layer 1
10
68.310418
20
122.333600
70
0
0
VERTEX
8
Layer 1
10
68.326365
20
120.327211
70
0
0
VERTEX
8
Layer 1
10
68.268465
20
117.957134
70
0
0
VERTEX
8
Layer 1
10
68.359906
20
115.663090
70
0
0
VERTEX
8
Layer 1
10
68.601455
20
113.434235
70
0
0
VERTEX
8
Layer 1
10
68.993880
20
111.259726
70
0
0
VERTEX
8
Layer 1
10
69.306199
20
109.290840
70
0
0
VERTEX
8
Layer 1
10
69.292375
20
108.152154
70
0
0
VERTEX
8
Layer 1
10
69.354008
20
107.107546
70
0
0
VERTEX
8
Layer 1
10
69.702951
20
104.558628
70
0
0
VERTEX
8
Layer 1
10
70.408190
20
100.756178
70
0
0
VERTEX
8
Layer 1
10
70.987885
20
97.989927
70
0
0
VERTEX
8
Layer 1
10
70.830396
20
94.220733
70
0
0
VERTEX
8
Layer 1
10
70.841395
20
92.762041
70
0
0
VERTEX
8
Layer 1
10
71.327256
20
90.171025
70
0
0
VERTEX
8
Layer 1
10
71.592314
20
88.951655
70
0
0
VERTEX
8
Layer 1
10
73.241058
20
88.956898
70
0
0
VERTEX
8
Layer 1
10
76.355649
20
89.090832
70
0
0
VERTEX
8
Layer 1
10
80.049203
20
89.432835
70
0
0
VERTEX
8
Layer 1
10
83.733889
20
89.917079
70
0
0
VERTEX
8
Layer 1
10
86.821878
20
90.477734
70
0
0
VERTEX
8
Layer 1
10
89.832878
20
91.015202
70
0
0
VERTEX
8
Layer 1
10
93.100726
20
91.600671
70
0
0
VERTEX
8
Layer 1
10
94.650698
20
91.935002
70
0
0
VERTEX
8
Layer 1
10
94.289434
20
93.650256
70
0
0
VERTEX
8
Layer 1
10
93.980782
20
96.334046
70
0
0
VERTEX
8
Layer 1
10
94.104106
20
99.144661
70
0
0
VERTEX
8
Layer 1
10
93.984686
20
101.218023
70
0
0
VERTEX
8
Layer 1
10
93.464045
20
103.676494
70
0
0
VERTEX
8
Layer 1
10
92.383704
20
107.642439
70
0
0
VERTEX
8
Layer 1
10
91.728183
20
110.284133
70
0
0
VERTEX
8
Layer 1
10
91.335515
20
112.640937
70
0
0
VERTEX
8
Layer 1
10
91.173292
20
114.987883
70
0
0
VERTEX
8
Layer 1
10
91.209106
20
117.600002
70
0
0
VERTEX
8
Layer 1
10
91.161759
20
119.506583
70
0
0
VERTEX
8
Layer 1
10
90.791708
20
121.573402
70
0
0
VERTEX
8
Layer 1
10
90.158197
20
125.101149
70
0
0
VERTEX
8
Layer 1
10
90.101763
20
126.323700
70
0
0
VERTEX
8
Layer 1
10
90.214611
20
126.529592
70
0
0
VERTEX
8
Layer 1
10
90.454567
20
126.636615
70
0
0
VERTEX
8
Layer 1
10
91.933600
20
126.765474
70
0
0
VERTEX
8
Layer 1
10
93.337658
20
126.910154
70
0
0
VERTEX
8
Layer 1
10
95.005730
20
127.210333
70
0
0
VERTEX
8
Layer 1
10
99.964909
20
128.487189
70
0
0
VERTEX
8
Layer 1
10
102.864637
20
129.392673
70
0
0
VERTEX
8
Layer 1
10
104.481807
20
130.013875
70
0
0
VERTEX
8
Layer 1
10
104.931297
20
130.293198
70
0
0
VERTEX
8
Layer 1
10
103.342101
20
136.001105
70
0
0
VERTEX
8
Layer 1
10
101.753614
20
141.709184
70
0
0
VERTEX
8
Layer 1
10
101.167261
20
141.483216
70
0
0
VERTEX
8
Layer 1
10
98.955864
20
140.917928
70
0
0
VERTEX
8
Layer 1
10
97.098961
20
140.642050
70
0
0
VERTEX
8
Layer 1
10
94.869614
20
140.286284
70
0
0
VERTEX
8
Layer 1
10
92.703590
20
139.512353
70
0
0
VERTEX
8
Layer 1
10
91.534550
20
139.040729
70
0
0
VERTEX
8
Layer 1
10
90.594055
20
138.830971
70
0
0
VERTEX
8
Layer 1
10
89.567611
20
138.663377
70
0
0
VERTEX
8
Layer 1
10
89.191764
20
138.545738
70
0
0
VERTEX
8
Layer 1
10
88.948882
20
138.747421
70
0
0
VERTEX
8
Layer 1
10
88.735542
20
140.368246
70
0
0
VERTEX
8
Layer 1
10
88.525950
20
142.971583
70
0
0
VERTEX
8
Layer 1
10
87.976805
20
146.238147
70
0
0
VERTEX
8
Layer 1
10
87.554834
20
149.877022
70
0
0
VERTEX
8
Layer 1
10
87.325196
20
153.756981
70
0
0
VERTEX
8
Layer 1
10
86.972545
20
156.592024
70
0
0
VERTEX
8
Layer 1
10
86.566512
20
159.088572
70
0
0
VERTEX
8
Layer 1
10
86.416348
20
160.644368
70
0
0
VERTEX
8
Layer 1
10
86.386859
20
161.159659
70
0
0
VERTEX
8
Layer 1
10
86.228454
20
162.323991
70
0
0
VERTEX
8
Layer 1
10
85.565979
20
165.454334
70
0
0
VERTEX
8
Layer 1
10
85.063265
20
167.986996
70
0
0
VERTEX
8
Layer 1
10
84.475270
20
171.073728
70
0
0
VERTEX
8
Layer 1
10
82.923669
20
177.526077
70
0
0
VERTEX
8
Layer 1
10
82.452742
20
180.358450
70
0
0
VERTEX
8
Layer 1
10
82.439773
20
181.777753
70
0
0
VERTEX
8
Layer 1
10
82.111559
20
184.435202
70
0
0
VERTEX
8
Layer 1
10
80.870790
20
190.526177
70
0
0
VERTEX
8
Layer 1
10
80.212791
20
194.201695
70
0
0
VERTEX
8
Layer 1
10
79.955785
20
195.969906
70
0
0
VERTEX
8
Layer 1
10
79.550478
20
196.841410
70
0
0
VERTEX
8
Layer 1
10
79.137274
20
197.679089
70
0
0
VERTEX
8
Layer 1
10
78.892401
20
198.279041
70
0
0
VERTEX
8
Layer 1
10
78.481035
20
198.657054
70
0
0
VERTEX
8
Layer 1
10
78.063329
20
199.034327
70
0
0
VERTEX
8
Layer 1
10
77.762583
20
199.582032
70
0
0
VERTEX
8
Layer 1
10
77.373199
20
200.226197
70
0
0
VERTEX
8
Layer 1
10
76.186682
20
200.863632
70
0
0
VERTEX
8
Layer 1
10
74.844564
20
201.500076
70
0
0
VERTEX
8
Layer 1
10
72.989862
20
201.002744
70
0
0
VERTEX
8
Layer 1
10
71.717140
20
200.629304
70
0
0
VERTEX
8
Layer 1
10
71.257570
20
200.369083
70
0
0
VERTEX
8
Layer 1
10
71.257966
20
200.368763
70
0
0
SEQEND
8
Layer 1
0
POLYLINE
8
Layer 1
62
7
70
0
10
0.000000
20
0.000000
66
1
0
VERTEX
8
Layer 1
10
97.976486
20
135.000650
70
0
0
VERTEX
8
Layer 1
10
98.497386
20
135.740657
70
0
0
VERTEX
8
Layer 1
10
99.051965
20
136.194438
70
0
0
VERTEX
8
Layer 1
10
99.665893
20
136.376254
70
0
0
VERTEX
8
Layer 1
10
100.364837
20
136.300366
70
0
0
VERTEX
8
Layer 1
10
100.972914
20
136.071332
70
0
0
VERTEX
8
Layer 1
10
101.389126
20
135.755544
70
0
0
VERTEX
8
Layer 1
10
101.620741
20
135.344935
70
0
0
VERTEX
8
Layer 1
10
101.675027
20
134.831434
70
0
0
VERTEX
8
Layer 1
10
101.689183
20
133.732481
70
0
0
VERTEX
8
Layer 1
10
101.647579
20
133.209074
70
0
0
VERTEX
8
Layer 1
10
101.451101
20
132.736302
70
0
0
VERTEX
8
Layer 1
10
101.135586
20
132.372779
70
0
0
VERTEX
8
Layer 1
10
100.736872
20
132.177118
70
0
0
VERTEX
8
Layer 1
10
100.166469
20
132.214930
70
0
0
VERTEX
8
Layer 1
10
99.403845
20
132.490273
70
0
0
VERTEX
8
Layer 1
10
98.651383
20
132.931674
70
0
0
VERTEX
8
Layer 1
10
98.284743
20
133.467536
70
0
0
VERTEX
8
Layer 1
10
98.027128
20
133.880331
70
0
0
VERTEX
8
Layer 1
10
97.753720
20
134.078446
70
0
0
VERTEX
8
Layer 1
10
97.628940
20
134.135458
70
0
0
VERTEX
8
Layer 1
10
97.617569
20
134.279102
70
0
0
VERTEX
8
Layer 1
10
97.976486
20
135.000650
70
0
0
VERTEX
8
Layer 1
10
97.976486
20
135.000650
70
0
0
SEQEND
8
Layer 1
0
POLYLINE
8
Layer 1
62
7
70
0
10
0.000000
20
0.000000
66
1
0
VERTEX
8
Layer 1
10
39.617811
20
167.340530
70
0
0
VERTEX
8
Layer 1
10
39.525286
20
167.582138
70
0
0
VERTEX
8
Layer 1
10
39.227657
20
167.853689
70
0
0
VERTEX
8
Layer 1
10
38.429628
20
168.364729
70
0
0
VERTEX
8
Layer 1
10
37.676764
20
168.603977
70
0
0
VERTEX
8
Layer 1
10
37.009466
20
168.565745
70
0
0
VERTEX
8
Layer 1
10
36.468135
20
168.244346
70
0
0
VERTEX
8
Layer 1
10
36.182391
20
167.793116
70
0
0
VERTEX
8
Layer 1
10
36.044416
20
167.228436
70
0
0
VERTEX
8
Layer 1
10
36.066237
20
166.666967
70
0
0
VERTEX
8
Layer 1
10
36.259882
20
166.225366
70
0
0
VERTEX
8
Layer 1
10
36.996521
20
165.650397
70
0
0
VERTEX
8
Layer 1
10
37.778642
20
165.382510
70
0
0
VERTEX
8
Layer 1
10
38.332281
20
165.482792
70
0
0
VERTEX
8
Layer 1
10
38.813869
20
165.776580
70
0
0
VERTEX
8
Layer 1
10
39.211408
20
166.253288
70
0
0
VERTEX
8
Layer 1
10
39.512904
20
166.902328
70
0
0
VERTEX
8
Layer 1
10
39.617811
20
167.340530
70
0
0
VERTEX
8
Layer 1
10
39.617811
20
167.340530
70
0
0
SEQEND
8
Layer 1
0
POLYLINE
8
Layer 1
62
7
70
0
10
0.000000
20
0.000000
66
1
0
VERTEX
8
Layer 1
10
64.000775
20
194.803426
70
0
0
VERTEX
8
Layer 1
10
63.903994
20
195.736005
70
0
0
VERTEX
8
Layer 1
10
63.682455
20
196.407460
70
0
0
VERTEX
8
Layer 1
10
63.367403
20
200.284213
70
0
0
VERTEX
8
Layer 1
10
63.343974
20
205.109754
70
0
0
VERTEX
8
Layer 1
10
63.470074
20
206.524135
70
0
0
VERTEX
8
Layer 1
10
62.902676
20
206.976836
70
0
0
VERTEX
8
Layer 1
10
62.501885
20
207.402185
70
0
0
VERTEX
8
Layer 1
10
62.348265
20
207.853760
70
0
0
VERTEX
8
Layer 1
10
62.440584
20
208.351080
70
0
0
VERTEX
8
Layer 1
10
62.777608
20
208.913663
70
0
0
VERTEX
8
Layer 1
10
63.065652
20
209.376158
70
0
0
VERTEX
8
Layer 1
10
62.993613
20
209.564273
70
0
0
VERTEX
8
Layer 1
10
59.873617
20
209.922379
70
0
0
VERTEX
8
Layer 1
10
53.465000
20
210.132174
70
0
0
VERTEX
8
Layer 1
10
47.276245
20
210.232954
70
0
0
VERTEX
8
Layer 1
10
46.848891
20
209.831422
70
0
0
VERTEX
8
Layer 1
10
46.604528
20
209.551194
70
0
0
VERTEX
8
Layer 1
10
46.477539
20
209.108453
70
0
0
VERTEX
8
Layer 1
10
46.422039
20
206.562896
70
0
0
VERTEX
8
Layer 1
10
46.682494
20
201.101215
70
0
0
VERTEX
8
Layer 1
10
46.898500
20
196.171822
70
0
0
VERTEX
8
Layer 1
10
46.993700
20
190.221635
70
0
0
VERTEX
8
Layer 1
10
47.376496
20
182.766460
70
0
0
VERTEX
8
Layer 1
10
47.682936
20
175.829411
70
0
0
VERTEX
8
Layer 1
10
47.743393
20
172.525219
70
0
0
VERTEX
8
Layer 1
10
47.039047
20
172.689552
70
0
0
VERTEX
8
Layer 1
10
40.567928
20
172.856302
70
0
0
VERTEX
8
Layer 1
10
34.488922
20
172.735536
70
0
0
VERTEX
8
Layer 1
10
34.362680
20
172.499859
70
0
0
VERTEX
8
Layer 1
10
34.393858
20
172.064792
70
0
0
VERTEX
8
Layer 1
10
34.944719
20
163.093259
70
0
0
VERTEX
8
Layer 1
10
35.079141
20
161.137511
70
0
0
VERTEX
8
Layer 1
10
35.266664
20
160.365778
70
0
0
VERTEX
8
Layer 1
10
35.654361
20
160.279786
70
0
0
VERTEX
8
Layer 1
10
36.410774
20
160.388003
70
0
0
VERTEX
8
Layer 1
10
37.918255
20
160.508786
70
0
0
VERTEX
8
Layer 1
10
40.713872
20
160.453117
70
0
0
VERTEX
8
Layer 1
10
44.432507
20
160.339929
70
0
0
VERTEX
8
Layer 1
10
47.838484
20
160.270185
70
0
0
VERTEX
8
Layer 1
10
48.014477
20
160.123892
70
0
0
VERTEX
8
Layer 1
10
48.106999
20
159.637768
70
0
0
VERTEX
8
Layer 1
10
48.129949
20
156.505539
70
0
0
VERTEX
8
Layer 1
10
48.217929
20
147.324658
70
0
0
VERTEX
8
Layer 1
10
48.641546
20
141.080668
70
0
0
VERTEX
8
Layer 1
10
49.174311
20
136.410672
70
0
0
VERTEX
8
Layer 1
10
49.778407
20
131.653866
70
0
0
VERTEX
8
Layer 1
10
50.397504
20
125.426879
70
0
0
VERTEX
8
Layer 1
10
50.669311
20
121.613656
70
0
0
VERTEX
8
Layer 1
10
50.926670
20
117.635624
70
0
0
VERTEX
8
Layer 1
10
51.257902
20
113.145968
70
0
0
VERTEX
8
Layer 1
10
51.599505
20
107.605230
70
0
0
VERTEX
8
Layer 1
10
51.906530
20
102.980858
70
0
0
VERTEX
8
Layer 1
10
52.143490
20
101.548621
70
0
0
VERTEX
8
Layer 1
10
52.465591
20
100.459425
70
0
0
VERTEX
8
Layer 1
10
52.723708
20
100.129807
70
0
0
VERTEX
8
Layer 1
10
53.456745
20
100.184523
70
0
0
VERTEX
8
Layer 1
10
55.416300
20
100.616005
70
0
0
VERTEX
8
Layer 1
10
56.899632
20
100.837590
70
0
0
VERTEX
8
Layer 1
10
59.567475
20
100.817538
70
0
0
VERTEX
8
Layer 1
10
62.799303
20
100.664582
70
0
0
VERTEX
8
Layer 1
10
62.989522
20
103.466940
70
0
0
VERTEX
8
Layer 1
10
63.141938
20
113.837932
70
0
0
VERTEX
8
Layer 1
10
63.270076
20
129.059207
70
0
0
VERTEX
8
Layer 1
10
63.006022
20
137.611769
70
0
0
VERTEX
8
Layer 1
10
62.476856
20
146.961951
70
0
0
VERTEX
8
Layer 1
10
62.172757
20
152.571462
70
0
0
VERTEX
8
Layer 1
10
62.069871
20
158.388245
70
0
0
VERTEX
8
Layer 1
10
62.168295
20
164.022030
70
0
0
VERTEX
8
Layer 1
10
62.468125
20
169.082545
70
0
0
VERTEX
8
Layer 1
10
62.862936
20
174.877018
70
0
0
VERTEX
8
Layer 1
10
63.117703
20
177.491337
70
0
0
VERTEX
8
Layer 1
10
63.344136
20
180.071937
70
0
0
VERTEX
8
Layer 1
10
63.536776
20
184.929109
70
0
0
VERTEX
8
Layer 1
10
63.903699
20
192.838182
70
0
0
VERTEX
8
Layer 1
10
63.996197
20
194.037590
70
0
0
VERTEX
8
Layer 1
10
63.996197
20
194.037590
70
0
0
VERTEX
8
Layer 1
10
64.000695
20
194.802923
70
0
0
VERTEX
8
Layer 1
10
64.000775
20
194.803426
70
0
0
SEQEND
8
Layer 1
0
POLYLINE
8
Layer 1
62
7
70
0
10
0.000000
20
0.000000
66
1
0
VERTEX
8
Layer 1
10
39.617811
20
167.340530
70
0
0
VERTEX
8
Layer 1
10
39.512904
20
166.902328
70
0
0
VERTEX
8
Layer 1
10
39.211408
20
166.253288
70
0
0
VERTEX
8
Layer 1
10
38.813869
20
165.776580
70
0
0
VERTEX
8
Layer 1
10
38.332281
20
165.482792
70
0
0
VERTEX
8
Layer 1
10
37.778642
20
165.382510
70
0
0
VERTEX
8
Layer 1
10
36.996521
20
165.650397
70
0
0
VERTEX
8
Layer 1
10
36.259882
20
166.225366
70
0
0
VERTEX
8
Layer 1
10
36.066237
20
166.666967
70
0
0
VERTEX
8
Layer 1
10
36.044416
20
167.228436
70
0
0
VERTEX
8
Layer 1
10
36.182391
20
167.793116
70
0
0
VERTEX
8
Layer 1
10
36.468135
20
168.244346
70
0
0
VERTEX
8
Layer 1
10
37.009466
20
168.565745
70
0
0
VERTEX
8
Layer 1
10
37.676764
20
168.603977
70
0
0
VERTEX
8
Layer 1
10
38.429628
20
168.364729
70
0
0
VERTEX
8
Layer 1
10
39.227657
20
167.853689
70
0
0
VERTEX
8
Layer 1
10
39.525624
20
167.582138
70
0
0
VERTEX
8
Layer 1
10
39.617811
20
167.340530
70
0
0
VERTEX
8
Layer 1
10
39.617811
20
167.340530
70
0
0
SEQEND
8
Layer 1
0
POLYLINE
8
Layer 1
62
7
70
0
10
0.000000
20
0.000000
66
1
0
VERTEX
8
Layer 1
10
106.508530
20
279.084400
70
0
0
VERTEX
8
Layer 1
10
106.508530
20
279.084400
70
0
0
VERTEX
8
Layer 1
10
104.162920
20
279.412530
70
0
0
VERTEX
8
Layer 1
10
99.821185
20
279.526139
70
0
0
VERTEX
8
Layer 1
10
95.817190
20
279.247670
70
0
0
VERTEX
8
Layer 1
10
93.741350
20
279.279170
70
0
0
VERTEX
8
Layer 1
10
92.521780
20
279.451260
70
0
0
VERTEX
8
Layer 1
10
92.469080
20
282.413850
70
0
0
VERTEX
8
Layer 1
10
92.597750
20
288.144250
70
0
0
VERTEX
8
Layer 1
10
92.695354
20
289.962487
70
0
0
VERTEX
8
Layer 1
10
92.648780
20
291.638624
70
0
0
VERTEX
8
Layer 1
10
91.830350
20
298.522450
70
0
0
VERTEX
8
Layer 1
10
91.140480
20
304.922560
70
0
0
VERTEX
8
Layer 1
10
90.619570
20
310.198220
70
0
0
VERTEX
8
Layer 1
10
90.101270
20
315.387040
70
0
0
VERTEX
8
Layer 1
10
89.567450
20
320.143850
70
0
0
VERTEX
8
Layer 1
10
89.167480
20
322.694090
70
0
0
VERTEX
8
Layer 1
10
88.970625
20
323.388236
70
0
0
VERTEX
8
Layer 1
10
88.678610
20
323.904880
70
0
0
VERTEX
8
Layer 1
10
88.255880
20
324.641260
70
0
0
VERTEX
8
Layer 1
10
88.172422
20
324.827700
70
0
0
VERTEX
8
Layer 1
10
87.939905
20
324.948936
70
0
0
VERTEX
8
Layer 1
10
86.638940
20
325.107880
70
0
0
VERTEX
8
Layer 1
10
84.565160
20
325.396250
70
0
0
VERTEX
8
Layer 1
10
83.440680
20
325.678400
70
0
0
VERTEX
8
Layer 1
10
80.987474
20
326.503457
70
0
0
VERTEX
8
Layer 1
10
78.484400
20
327.687570
70
0
0
VERTEX
8
Layer 1
10
77.314970
20
328.230710
70
0
0
VERTEX
8
Layer 1
10
77.284470
20
327.853460
70
0
0
VERTEX
8
Layer 1
10
77.476690
20
326.543990
70
0
0
VERTEX
8
Layer 1
10
77.721226
20
325.482376
70
0
0
VERTEX
8
Layer 1
10
78.261150
20
324.365300
70
0
0
VERTEX
8
Layer 1
10
78.852814
20
323.171681
70
0
0
VERTEX
8
Layer 1
10
79.310894
20
321.790200
70
0
0
VERTEX
8
Layer 1
10
79.989200
20
317.849410
70
0
0
VERTEX
8
Layer 1
10
80.677540
20
313.438830
70
0
0
VERTEX
8
Layer 1
10
81.017709
20
311.138364
70
0
0
VERTEX
8
Layer 1
10
81.249846
20
307.744471
70
0
0
VERTEX
8
Layer 1
10
81.414430
20
297.138550
70
0
0
VERTEX
8
Layer 1
10
81.420430
20
281.398430
70
0
0
VERTEX
8
Layer 1
10
81.410130
20
272.317320
70
0
0
VERTEX
8
Layer 1
10
81.295940
20
264.879540
70
0
0
VERTEX
8
Layer 1
10
80.947214
20
251.573767
70
0
0
VERTEX
8
Layer 1
10
80.313060
20
241.573980
70
0
0
VERTEX
8
Layer 1
10
79.813012
20
234.912700
70
0
0
VERTEX
8
Layer 1
10
79.567890
20
229.420190
70
0
0
VERTEX
8
Layer 1
10
79.549390
20
227.084950
70
0
0
VERTEX
8
Layer 1
10
82.836550
20
227.138650
70
0
0
VERTEX
8
Layer 1
10
87.852780
20
227.376880
70
0
0
VERTEX
8
Layer 1
10
90.619000
20
227.668850
70
0
0
VERTEX
8
Layer 1
10
91.655640
20
227.776850
70
0
0
VERTEX
8
Layer 1
10
91.771920
20
228.555090
70
0
0
VERTEX
8
Layer 1
10
92.137986
20
232.218551
70
0
0
VERTEX
8
Layer 1
10
92.262830
20
236.606280
70
0
0
VERTEX
8
Layer 1
10
92.453510
20
244.122620
70
0
0
VERTEX
8
Layer 1
10
92.558106
20
248.169019
70
0
0
VERTEX
8
Layer 1
10
92.432310
20
252.166060
70
0
0
VERTEX
8
Layer 1
10
92.143960
20
262.111690
70
0
0
VERTEX
8
Layer 1
10
92.032854
20
267.134594
70
0
0
VERTEX
8
Layer 1
10
91.934585
20
268.003148
70
0
0
VERTEX
8
Layer 1
10
91.776540
20
268.305640
70
0
0
VERTEX
8
Layer 1
10
91.573340
20
268.523500
70
0
0
VERTEX
8
Layer 1
10
91.787440
20
268.703020
70
0
0
VERTEX
8
Layer 1
10
92.001033
20
268.948927
70
0
0
VERTEX
8
Layer 1
10
92.089750
20
269.298860
70
0
0
VERTEX
8
Layer 1
10
92.134758
20
269.614118
70
0
0
VERTEX
8
Layer 1
10
92.284573
20
269.692616
70
0
0
VERTEX
8
Layer 1
10
92.987370
20
269.122120
70
0
0
VERTEX
8
Layer 1
10
93.560460
20
268.522150
70
0
0
VERTEX
8
Layer 1
10
99.247470
20
268.498850
70
0
0
VERTEX
8
Layer 1
10
103.849576
20
268.526246
70
0
0
VERTEX
8
Layer 1
10
105.082750
20
268.710220
70
0
0
VERTEX
8
Layer 1
10
105.233670
20
269.722550
70
0
0
VERTEX
8
Layer 1
10
105.517350
20
271.798410
70
0
0
VERTEX
8
Layer 1
10
106.162275
20
275.907742
70
0
0
VERTEX
8
Layer 1
10
106.509540
20
279.084270
70
0
0
VERTEX
8
Layer 1
10
106.508530
20
279.084400
70
0
0
SEQEND
8
Layer 1
0
POLYLINE
8
Layer 1
62
7
70
0
10
0.000000
20
0.000000
66
1
0
VERTEX
8
Layer 1
10
103.845120
20
274.211300
70
0
0
VERTEX
8
Layer 1
10
103.678230
20
273.787550
70
0
0
VERTEX
8
Layer 1
10
103.505110
20
273.347780
70
0
0
VERTEX
8
Layer 1
10
103.015210
20
272.466190
70
0
0
VERTEX
8
Layer 1
10
102.441994
20
272.005926
70
0
0
VERTEX
8
Layer 1
10
101.587910
20
271.842460
70
0
0
VERTEX
8
Layer 1
10
100.715686
20
271.860196
70
0
0
VERTEX
8
Layer 1
10
100.139930
20
272.304450
70
0
0
VERTEX
8
Layer 1
10
99.711411
20
272.940135
70
0
0
VERTEX
8
Layer 1
10
99.573030
20
273.920370
70
0
0
VERTEX
8
Layer 1
10
99.607886
20
274.885905
70
0
0
VERTEX
8
Layer 1
10
99.854886
20
275.550741
70
0
0
VERTEX
8
Layer 1
10
100.351503
20
275.969610
70
0
0
VERTEX
8
Layer 1
10
101.135210
20
276.197240
70
0
0
VERTEX
8
Layer 1
10
101.880537
20
276.229458
70
0
0
VERTEX
8
Layer 1
10
102.557035
20
276.092804
70
0
0
VERTEX
8
Layer 1
10
103.116900
20
275.803725
70
0
0
VERTEX
8
Layer 1
10
103.512330
20
275.378670
70
0
0
VERTEX
8
Layer 1
10
103.768076
20
274.781740
70
0
0
VERTEX
8
Layer 1
10
103.845120
20
274.211300
70
0
0
VERTEX
8
Layer 1
10
103.845120
20
274.211300
70
0
0
SEQEND
8
Layer 1
0
POLYLINE
8
Layer 1
62
7
70
0
10
0.000000
20
0.000000
66
1
0
VERTEX
8
Layer 1
10
45.185410
20
333.721800
70
0
0
VERTEX
8
Layer 1
10
45.076744
20
332.422751
70
0
0
VERTEX
8
Layer 1
10
45.173510
20
330.097680
70
0
0
VERTEX
8
Layer 1
10
45.189210
20
326.961440
70
0
0
VERTEX
8
Layer 1
10
45.087270
20
324.711230
70
0
0
VERTEX
8
Layer 1
10
45.037870
20
322.375200
70
0
0
VERTEX
8
Layer 1
10
44.886330
20
319.023970
70
0
0
VERTEX
8
Layer 1
10
44.592560
20
316.160820
70
0
0
VERTEX
8
Layer 1
10
44.391040
20
314.785280
70
0
0
VERTEX
8
Layer 1
10
44.170510
20
313.774210
70
0
0
VERTEX
8
Layer 1
10
44.048403
20
312.558148
70
0
0
VERTEX
8
Layer 1
10
44.151010
20
310.287990
70
0
0
VERTEX
8
Layer 1
10
44.279320
20
306.287170
70
0
0
VERTEX
8
Layer 1
10
44.409676
20
302.185931
70
0
0
VERTEX
8
Layer 1
10
44.919360
20
298.068260
70
0
0
VERTEX
8
Layer 1
10
45.647890
20
293.978980
70
0
0
VERTEX
8
Layer 1
10
46.620770
20
288.544590
70
0
0
VERTEX
8
Layer 1
10
47.083440
20
288.451490
70
0
0
VERTEX
8
Layer 1
10
47.448050
20
288.359670
70
0
0
VERTEX
8
Layer 1
10
47.446514
20
288.214521
70
0
0
VERTEX
8
Layer 1
10
46.457840
20
287.869320
70
0
0
VERTEX
8
Layer 1
10
45.664260
20
287.641209
70
0
0
VERTEX
8
Layer 1
10
45.406210
20
287.396260
70
0
0
VERTEX
8
Layer 1
10
45.242488
20
287.207990
70
0
0
VERTEX
8
Layer 1
10
44.870896
20
287.087951
70
0
0
VERTEX
8
Layer 1
10
44.491049
20
287.072225
70
0
0
VERTEX
8
Layer 1
10
44.302560
20
287.196890
70
0
0
VERTEX
8
Layer 1
10
44.175191
20
287.318643
70
0
0
VERTEX
8
Layer 1
10
43.840921
20
287.325890
70
0
0
VERTEX
8
Layer 1
10
42.565990
20
286.998260
70
0
0
VERTEX
8
Layer 1
10
40.916658
20
286.606935
70
0
0
VERTEX
8
Layer 1
10
37.926010
20
286.212010
70
0
0
VERTEX
8
Layer 1
10
36.809200
20
285.913020
70
0
0
VERTEX
8
Layer 1
10
35.627630
20
285.503390
70
0
0
VERTEX
8
Layer 1
10
33.973170
20
284.930620
70
0
0
VERTEX
8
Layer 1
10
33.439553
20
284.541038
70
0
0
VERTEX
8
Layer 1
10
33.328890
20
283.961570
70
0
0
VERTEX
8
Layer 1
10
33.507140
20
282.699040
70
0
0
VERTEX
8
Layer 1
10
33.781570
20
281.299930
70
0
0
VERTEX
8
Layer 1
10
34.304313
20
278.731035
70
0
0
VERTEX
8
Layer 1
10
35.193340
20
275.614400
70
0
0
VERTEX
8
Layer 1
10
35.508511
20
274.722676
70
0
0
VERTEX
8
Layer 1
10
35.814980
20
274.335610
70
0
0
VERTEX
8
Layer 1
10
36.345242
20
274.349419
70
0
0
VERTEX
8
Layer 1
10
37.331790
20
274.660320
70
0
0
VERTEX
8
Layer 1
10
39.174550
20
275.046690
70
0
0
VERTEX
8
Layer 1
10
39.874779
20
275.182795
70
0
0
VERTEX
8
Layer 1
10
40.405800
20
275.439380
70
0
0
VERTEX
8
Layer 1
10
41.312013
20
275.785370
70
0
0
VERTEX
8
Layer 1
10
43.094510
20
276.137150
70
0
0
VERTEX
8
Layer 1
10
47.794470
20
277.022730
70
0
0
VERTEX
8
Layer 1
10
49.548167
20
277.352641
70
0
0
VERTEX
8
Layer 1
10
49.879964
20
277.330939
70
0
0
VERTEX
8
Layer 1
10
49.933370
20
277.191400
70
0
0
VERTEX
8
Layer 1
10
49.605180
20
276.979560
70
0
0
VERTEX
8
Layer 1
10
49.201580
20
276.772540
70
0
0
VERTEX
8
Layer 1
10
49.121897
20
276.174443
70
0
0
VERTEX
8
Layer 1
10
49.177015
20
275.078796
70
0
0
VERTEX
8
Layer 1
10
49.535610
20
273.107230
70
0
0
VERTEX
8
Layer 1
10
49.885020
20
271.131630
70
0
0
VERTEX
8
Layer 1
10
50.032808
20
269.974964
70
0
0
VERTEX
8
Layer 1
10
50.277450
20
269.142290
70
0
0
VERTEX
8
Layer 1
10
50.579984
20
268.155003
70
0
0
VERTEX
8
Layer 1
10
50.806452
20
266.596537
70
0
0
VERTEX
8
Layer 1
10
50.958220
20
262.480360
70
0
0
VERTEX
8
Layer 1
10
50.993820
20
258.487300
70
0
0
VERTEX
8
Layer 1
10
51.026301
20
256.152771
70
0
0
VERTEX
8
Layer 1
10
50.827070
20
252.135520
70
0
0
VERTEX
8
Layer 1
10
50.834739
20
249.812139
70
0
0
VERTEX
8
Layer 1
10
51.057020
20
247.113330
70
0
0
VERTEX
8
Layer 1
10
51.291775
20
244.616121
70
0
0
VERTEX
8
Layer 1
10
51.361754
20
242.340826
70
0
0
VERTEX
8
Layer 1
10
51.266716
20
240.257736
70
0
0
VERTEX
8
Layer 1
10
51.006420
20
238.337140
70
0
0
VERTEX
8
Layer 1
10
50.998378
20
236.639791
70
0
0
VERTEX
8
Layer 1
10
51.135725
20
235.864099
70
0
0
VERTEX
8
Layer 1
10
51.332950
20
235.441830
70
0
0
VERTEX
8
Layer 1
10
51.918770
20
235.344930
70
0
0
VERTEX
8
Layer 1
10
57.373510
20
235.637860
70
0
0
VERTEX
8
Layer 1
10
58.341560
20
235.593860
70
0
0
VERTEX
8
Layer 1
10
60.030526
20
235.046530
70
0
0
VERTEX
8
Layer 1
10
61.792940
20
234.116100
70
0
0
VERTEX
8
Layer 1
10
62.509030
20
233.706420
70
0
0
VERTEX
8
Layer 1
10
62.628340
20
234.763220
70
0
0
VERTEX
8
Layer 1
10
62.754250
20
236.220860
70
0
0
VERTEX
8
Layer 1
10
62.859790
20
237.342590
70
0
0
VERTEX
8
Layer 1
10
62.905589
20
239.296486
70
0
0
VERTEX
8
Layer 1
10
63.329740
20
241.197590
70
0
0
VERTEX
8
Layer 1
10
64.248604
20
244.558844
70
0
0
VERTEX
8
Layer 1
10
65.064770
20
248.502000
70
0
0
VERTEX
8
Layer 1
10
65.838190
20
252.212090
70
0
0
VERTEX
8
Layer 1
10
66.211950
20
254.598830
70
0
0
VERTEX
8
Layer 1
10
66.433560
20
259.737270
70
0
0
VERTEX
8
Layer 1
10
66.543380
20
261.731040
70
0
0
VERTEX
8
Layer 1
10
66.686410
20
263.808200
70
0
0
VERTEX
8
Layer 1
10
66.939920
20
267.003270
70
0
0
VERTEX
8
Layer 1
10
67.127280
20
269.593270
70
0
0
VERTEX
8
Layer 1
10
67.207680
20
270.843650
70
0
0
VERTEX
8
Layer 1
10
67.554350
20
273.638410
70
0
0
VERTEX
8
Layer 1
10
67.815650
20
277.529520
70
0
0
VERTEX
8
Layer 1
10
67.958375
20
280.095940
70
0
0
VERTEX
8
Layer 1
10
68.799110
20
285.256100
70
0
0
VERTEX
8
Layer 1
10
69.102407
20
287.664526
70
0
0
VERTEX
8
Layer 1
10
68.932290
20
289.968200
70
0
0
VERTEX
8
Layer 1
10
68.787400
20
293.452340
70
0
0
VERTEX
8
Layer 1
10
68.900010
20
296.100260
70
0
0
VERTEX
8
Layer 1
10
69.055986
20
298.100989
70
0
0
VERTEX
8
Layer 1
10
69.374150
20
300.018010
70
0
0
VERTEX
8
Layer 1
10
69.644900
20
301.933480
70
0
0
VERTEX
8
Layer 1
10
70.219000
20
304.770350
70
0
0
VERTEX
8
Layer 1
10
70.857190
20
307.949790
70
0
0
VERTEX
8
Layer 1
10
71.045630
20
310.014680
70
0
0
VERTEX
8
Layer 1
10
71.074730
20
311.503510
70
0
0
VERTEX
8
Layer 1
10
71.090130
20
312.084500
70
0
0
VERTEX
8
Layer 1
10
71.113430
20
314.832290
70
0
0
VERTEX
8
Layer 1
10
71.237980
20
316.625700
70
0
0
VERTEX
8
Layer 1
10
71.483830
20
318.514070
70
0
0
VERTEX
8
Layer 1
10
72.528560
20
324.077050
70
0
0
VERTEX
8
Layer 1
10
73.049676
20
325.575055
70
0
0
VERTEX
8
Layer 1
10
73.351333
20
325.998128
70
0
0
VERTEX
8
Layer 1
10
73.641360
20
326.131780
70
0
0
VERTEX
8
Layer 1
10
74.076421
20
327.478145
70
0
0
VERTEX
8
Layer 1
10
74.364280
20
329.139660
70
0
0
VERTEX
8
Layer 1
10
72.196460
20
329.651690
70
0
0
VERTEX
8
Layer 1
10
66.972220
20
330.775900
70
0
0
VERTEX
8
Layer 1
10
58.569211
20
332.165833
70
0
0
VERTEX
8
Layer 1
10
49.636860
20
333.253920
70
0
0
VERTEX
8
Layer 1
10
46.558920
20
333.588580
70
0
0
VERTEX
8
Layer 1
10
45.185400
20
333.721830
70
0
0
VERTEX
8
Layer 1
10
45.185410
20
333.721800
70
0
0
SEQEND
8
Layer 1
0
POLYLINE
8
Layer 1
62
7
70
0
10
0.000000
20
0.000000
66
1
0
VERTEX
8
Layer 1
10
37.228250
20
281.371220
70
0
0
VERTEX
8
Layer 1
10
37.714280
20
281.878269
70
0
0
VERTEX
8
Layer 1
10
38.203269
20
282.129035
70
0
0
VERTEX
8
Layer 1
10
38.723478
20
282.130629
70
0
0
VERTEX
8
Layer 1
10
39.303170
20
281.890160
70
0
0
VERTEX
8
Layer 1
10
39.869959
20
281.468239
70
0
0
VERTEX
8
Layer 1
10
40.297009
20
280.946625
70
0
0
VERTEX
8
Layer 1
10
40.576562
20
280.337598
70
0
0
VERTEX
8
Layer 1
10
40.700860
20
279.653440
70
0
0
VERTEX
8
Layer 1
10
40.641034
20
278.879672
70
0
0
VERTEX
8
Layer 1
10
40.229450
20
278.184370
70
0
0
VERTEX
8
Layer 1
10
39.719822
20
277.651194
70
0
0
VERTEX
8
Layer 1
10
39.241020
20
277.535520
70
0
0
VERTEX
8
Layer 1
10
38.759221
20
277.663002
70
0
0
VERTEX
8
Layer 1
10
38.282114
20
277.948482
70
0
0
VERTEX
8
Layer 1
10
37.914565
20
278.311539
70
0
0
VERTEX
8
Layer 1
10
37.761440
20
278.671750
70
0
0
VERTEX
8
Layer 1
10
37.278490
20
279.514010
70
0
0
VERTEX
8
Layer 1
10
36.912892
20
279.984820
70
0
0
VERTEX
8
Layer 1
10
36.783782
20
280.407516
70
0
0
VERTEX
8
Layer 1
10
36.889502
20
280.847817
70
0
0
VERTEX
8
Layer 1
10
37.228390
20
281.371440
70
0
0
VERTEX
8
Layer 1
10
37.228250
20
281.371220
70
0
0
SEQEND
8
Layer 1
0
POLYLINE
8
Layer 1
62
7
70
0
10
0.000000
20
0.000000
66
1
0
VERTEX
8
Layer 1
10
143.889280
20
330.491140
70
0
0
VERTEX
8
Layer 1
10
142.880124
20
330.802677
70
0
0
VERTEX
8
Layer 1
10
140.455748
20
331.216320
70
0
0
VERTEX
8
Layer 1
10
132.606590
20
332.165210
70
0
0
VERTEX
8
Layer 1
10
124.805325
20
332.811447
70
0
0
VERTEX
8
Layer 1
10
119.180920
20
332.878340
70
0
0
VERTEX
8
Layer 1
10
116.508000
20
332.862940
70
0
0
VERTEX
8
Layer 1
10
115.238450
20
332.898240
70
0
0
VERTEX
8
Layer 1
10
115.132240
20
331.766720
70
0
0
VERTEX
8
Layer 1
10
115.001339
20
327.682395
70
0
0
VERTEX
8
Layer 1
10
115.238110
20
324.472150
70
0
0
VERTEX
8
Layer 1
10
115.541454
20
322.097427
70
0
0
VERTEX
8
Layer 1
10
115.582050
20
318.748890
70
0
0
VERTEX
8
Layer 1
10
115.570527
20
316.279485
70
0
0
VERTEX
8
Layer 1
10
115.703170
20
314.290110
70
0
0
VERTEX
8
Layer 1
10
115.910180
20
312.065990
70
0
0
VERTEX
8
Layer 1
10
116.127458
20
309.995375
70
0
0
VERTEX
8
Layer 1
10
116.332810
20
309.139370
70
0
0
VERTEX
8
Layer 1
10
116.446970
20
308.037580
70
0
0
VERTEX
8
Layer 1
10
116.479470
20
302.460040
70
0
0
VERTEX
8
Layer 1
10
116.596020
20
301.119130
70
0
0
VERTEX
8
Layer 1
10
116.925120
20
298.001500
70
0
0
VERTEX
8
Layer 1
10
117.152230
20
295.356670
70
0
0
VERTEX
8
Layer 1
10
116.022560
20
295.439170
70
0
0
VERTEX
8
Layer 1
10
114.717950
20
295.380470
70
0
0
VERTEX
8
Layer 1
10
112.663780
20
295.222920
70
0
0
VERTEX
8
Layer 1
10
109.968889
20
295.158215
70
0
0
VERTEX
8
Layer 1
10
108.546530
20
294.962380
70
0
0
VERTEX
8
Layer 1
10
105.395498
20
294.402138
70
0
0
VERTEX
8
Layer 1
10
103.286200
20
294.376420
70
0
0
VERTEX
8
Layer 1
10
101.467689
20
294.346645
70
0
0
VERTEX
8
Layer 1
10
100.734220
20
294.171057
70
0
0
VERTEX
8
Layer 1
10
100.383390
20
293.929210
70
0
0
VERTEX
8
Layer 1
10
100.702000
20
292.574040
70
0
0
VERTEX
8
Layer 1
10
101.029940
20
290.669960
70
0
0
VERTEX
8
Layer 1
10
101.050101
20
288.840295
70
0
0
VERTEX
8
Layer 1
10
101.370630
20
287.499240
70
0
0
VERTEX
8
Layer 1
10
101.810971
20
286.082666
70
0
0
VERTEX
8
Layer 1
10
102.082270
20
283.748700
70
0
0
VERTEX
8
Layer 1
10
102.426070
20
281.896580
70
0
0
VERTEX
8
Layer 1
10
103.698610
20
282.054240
70
0
0
VERTEX
8
Layer 1
10
107.199100
20
282.272600
70
0
0
VERTEX
8
Layer 1
10
110.808929
20
282.314059
70
0
0
VERTEX
8
Layer 1
10
112.637080
20
282.477970
70
0
0
VERTEX
8
Layer 1
10
114.174650
20
282.488270
70
0
0
VERTEX
8
Layer 1
10
115.341300
20
282.535170
70
0
0
VERTEX
8
Layer 1
10
116.320940
20
282.926600
70
0
0
VERTEX
8
Layer 1
10
117.086500
20
283.157910
70
0
0
VERTEX
8
Layer 1
10
116.825570
20
280.846370
70
0
0
VERTEX
8
Layer 1
10
116.689200
20
278.762208
70
0
0
VERTEX
8
Layer 1
10
116.727070
20
276.997920
70
0
0
VERTEX
8
Layer 1
10
117.075370
20
273.723120
70
0
0
VERTEX
8
Layer 1
10
117.125440
20
271.691653
70
0
0
VERTEX
8
Layer 1
10
116.844340
20
268.950250
70
0
0
VERTEX
8
Layer 1
10
116.426460
20
265.916460
70
0
0
VERTEX
8
Layer 1
10
117.008120
20
263.081610
70
0
0
VERTEX
8
Layer 1
10
117.787430
20
259.145980
70
0
0
VERTEX
8
Layer 1
10
117.899833
20
255.959031
70
0
0
VERTEX
8
Layer 1
10
117.609020
20
252.038350
70
0
0
VERTEX
8
Layer 1
10
117.528047
20
250.401451
70
0
0
VERTEX
8
Layer 1
10
117.853920
20
248.346120
70
0
0
VERTEX
8
Layer 1
10
118.650446
20
244.337300
70
0
0
VERTEX
8
Layer 1
10
118.788360
20
242.876950
70
0
0
VERTEX
8
Layer 1
10
119.188674
20
240.528551
70
0
0
VERTEX
8
Layer 1
10
119.847760
20
238.401650
70
0
0
VERTEX
8
Layer 1
10
121.169220
20
234.693630
70
0
0
VERTEX
8
Layer 1
10
121.242020
20
232.307460
70
0
0
VERTEX
8
Layer 1
10
121.225004
20
230.796085
70
0
0
VERTEX
8
Layer 1
10
121.374090
20
229.516250
70
0
0
VERTEX
8
Layer 1
10
121.691950
20
228.106060
70
0
0
VERTEX
8
Layer 1
10
121.803630
20
227.730670
70
0
0
VERTEX
8
Layer 1
10
122.372717
20
227.640885
70
0
0
VERTEX
8
Layer 1
10
123.338270
20
227.878700
70
0
0
VERTEX
8
Layer 1
10
126.013051
20
228.774866
70
0
0
VERTEX
8
Layer 1
10
127.954550
20
229.181380
70
0
0
VERTEX
8
Layer 1
10
129.226699
20
229.303600
70
0
0
VERTEX
8
Layer 1
10
132.036580
20
229.906840
70
0
0
VERTEX
8
Layer 1
10
133.876380
20
230.329650
70
0
0
VERTEX
8
Layer 1
10
134.821719
20
230.642559
70
0
0
VERTEX
8
Layer 1
10
135.261369
20
231.047108
70
0
0
VERTEX
8
Layer 1
10
135.584100
20
231.744840
70
0
0
VERTEX
8
Layer 1
10
136.526990
20
234.533650
70
0
0
VERTEX
8
Layer 1
10
137.189990
20
236.604540
70
0
0
VERTEX
8
Layer 1
10
137.548578
20
238.313717
70
0
0
VERTEX
8
Layer 1
10
137.692849
20
241.119657
70
0
0
VERTEX
8
Layer 1
10
137.613633
20
244.192631
70
0
0
VERTEX
8
Layer 1
10
137.301760
20
246.702910
70
0
0
VERTEX
8
Layer 1
10
136.962820
20
248.651900
70
0
0
VERTEX
8
Layer 1
10
136.709120
20
251.670330
70
0
0
VERTEX
8
Layer 1
10
136.481147
20
254.688766
70
0
0
VERTEX
8
Layer 1
10
136.436680
20
256.991485
70
0
0
VERTEX
8
Layer 1
10
136.582721
20
258.870881
70
0
0
VERTEX
8
Layer 1
10
136.926270
20
260.619350
70
0
0
VERTEX
8
Layer 1
10
137.623920
20
265.538950
70
0
0
VERTEX
8
Layer 1
10
138.331627
20
270.863615
70
0
0
VERTEX
8
Layer 1
10
139.081560
20
274.981620
70
0
0
VERTEX
8
Layer 1
10
140.017280
20
279.594650
70
0
0
VERTEX
8
Layer 1
10
140.438430
20
281.331610
70
0
0
VERTEX
8
Layer 1
10
140.833040
20
284.423020
70
0
0
VERTEX
8
Layer 1
10
141.252094
20
288.416757
70
0
0
VERTEX
8
Layer 1
10
141.973030
20
292.870290
70
0
0
VERTEX
8
Layer 1
10
142.354958
20
295.517771
70
0
0
VERTEX
8
Layer 1
10
142.286360
20
297.955890
70
0
0
VERTEX
8
Layer 1
10
142.227260
20
301.131420
70
0
0
VERTEX
8
Layer 1
10
142.224260
20
303.618120
70
0
0
VERTEX
8
Layer 1
10
142.195360
20
305.356490
70
0
0
VERTEX
8
Layer 1
10
142.184260
20
306.022830
70
0
0
VERTEX
8
Layer 1
10
142.064742
20
306.812878
70
0
0
VERTEX
8
Layer 1
10
142.111944
20
308.659380
70
0
0
VERTEX
8
Layer 1
10
142.700160
20
315.404790
70
0
0
VERTEX
8
Layer 1
10
143.626586
20
325.454980
70
0
0
VERTEX
8
Layer 1
10
143.888760
20
330.491030
70
0
0
VERTEX
8
Layer 1
10
143.889280
20
330.491140
70
0
0
SEQEND
8
Layer 1
0
POLYLINE
8
Layer 1
62
7
70
0
10
0.000000
20
0.000000
66
1
0
VERTEX
8
Layer 1
10
106.125000
20
290.074170
70
0
0
VERTEX
8
Layer 1
10
106.554614
20
289.165476
70
0
0
VERTEX
8
Layer 1
10
106.745360
20
288.110540
70
0
0
VERTEX
8
Layer 1
10
106.623462
20
287.619735
70
0
0
VERTEX
8
Layer 1
10
106.327665
20
287.091759
70
0
0
VERTEX
8
Layer 1
10
105.458260
20
286.272470
70
0
0
VERTEX
8
Layer 1
10
104.344690
20
286.082380
70
0
0
VERTEX
8
Layer 1
10
103.806079
20
286.191924
70
0
0
VERTEX
8
Layer 1
10
103.281790
20
286.464426
70
0
0
VERTEX
8
Layer 1
10
102.832043
20
286.858671
70
0
0
VERTEX
8
Layer 1
10
102.517060
20
287.333440
70
0
0
VERTEX
8
Layer 1
10
102.507511
20
287.772585
70
0
0
VERTEX
8
Layer 1
10
102.719841
20
288.368573
70
0
0
VERTEX
8
Layer 1
10
103.087453
20
288.982473
70
0
0
VERTEX
8
Layer 1
10
103.543750
20
289.475360
70
0
0
VERTEX
8
Layer 1
10
104.868041
20
290.103849
70
0
0
VERTEX
8
Layer 1
10
105.547728
20
290.240778
70
0
0
VERTEX
8
Layer 1
10
106.000310
20
290.190020
70
0
0
VERTEX
8
Layer 1
10
106.125010
20
290.074180
70
0
0
VERTEX
8
Layer 1
10
106.125000
20
290.074170
70
0
0
SEQEND
8
Layer 1
0
POLYLINE
8
Layer 1
62
7
70
0
10
0.000000
20
0.000000
66
1
0
VERTEX
8
Layer 1
10
24.194920
20
224.448220
70
0
0
VERTEX
8
Layer 1
10
24.702890
20
224.986170
70
0
0
VERTEX
8
Layer 1
10
25.177758
20
225.369967
70
0
0
VERTEX
8
Layer 1
10
25.646386
20
225.512736
70
0
0
VERTEX
8
Layer 1
10
26.103317
20
225.414172
70
0
0
VERTEX
8
Layer 1
10
26.543090
20
225.073970
70
0
0
VERTEX
8
Layer 1
10
27.090404
20
224.701126
70
0
0
VERTEX
8
Layer 1
10
28.259760
20
224.705510
70
0
0
VERTEX
8
Layer 1
10
30.032790
20
224.978380
70
0
0
VERTEX
8
Layer 1
10
30.300746
20
225.111708
70
0
0
VERTEX
8
Layer 1
10
30.441217
20
225.316324
70
0
0
VERTEX
8
Layer 1
10
30.495810
20
226.427900
70
0
0
VERTEX
8
Layer 1
10
30.321660
20
228.637590
70
0
0
VERTEX
8
Layer 1
10
29.473640
20
235.556520
70
0
0
VERTEX
8
Layer 1
10
29.148100
20
238.237520
70
0
0
VERTEX
8
Layer 1
10
28.253040
20
247.231790
70
0
0
VERTEX
8
Layer 1
10
27.633155
20
253.072527
70
0
0
VERTEX
8
Layer 1
10
26.935810
20
257.414120
70
0
0
VERTEX
8
Layer 1
10
26.576556
20
258.989151
70
0
0
VERTEX
8
Layer 1
10
26.669375
20
259.347560
70
0
0
VERTEX
8
Layer 1
10
26.944810
20
259.654800
70
0
0
VERTEX
8
Layer 1
10
27.506935
20
259.959242
70
0
0
VERTEX
8
Layer 1
10
28.449135
20
260.161899
70
0
0
VERTEX
8
Layer 1
10
31.632380
20
260.283190
70
0
0
VERTEX
8
Layer 1
10
34.732960
20
260.458370
70
0
0
VERTEX
8
Layer 1
10
37.163820
20
260.543670
70
0
0
VERTEX
8
Layer 1
10
37.890500
20
260.511264
70
0
0
VERTEX
8
Layer 1
10
38.236120
20
260.665120
70
0
0
VERTEX
8
Layer 1
10
38.534556
20
261.935449
70
0
0
VERTEX
8
Layer 1
10
38.724663
20
264.444046
70
0
0
VERTEX
8
Layer 1
10
38.777335
20
267.521040
70
0
0
VERTEX
8
Layer 1
10
38.663470
20
270.496560
70
0
0
VERTEX
8
Layer 1
10
38.508502
20
271.765561
70
0
0
VERTEX
8
Layer 1
10
38.366914
20
271.921008
70
0
0
VERTEX
8
Layer 1
10
38.118800
20
271.923850
70
0
0
VERTEX
8
Layer 1
10
28.092550
20
271.364200
70
0
0
VERTEX
8
Layer 1
10
25.094222
20
271.159472
70
0
0
VERTEX
8
Layer 1
10
24.088660
20
270.911500
70
0
0
VERTEX
8
Layer 1
10
23.926651
20
270.792309
70
0
0
VERTEX
8
Layer 1
10
23.823202
20
270.830385
70
0
0
VERTEX
8
Layer 1
10
23.672660
20
271.566770
70
0
0
VERTEX
8
Layer 1
10
23.229800
20
273.523760
70
0
0
VERTEX
8
Layer 1
10
22.657740
20
276.118420
70
0
0
VERTEX
8
Layer 1
10
22.062430
20
279.663950
70
0
0
VERTEX
8
Layer 1
10
21.619040
20
283.383110
70
0
0
VERTEX
8
Layer 1
10
21.262460
20
286.090440
70
0
0
VERTEX
8
Layer 1
10
21.022265
20
287.791326
70
0
0
VERTEX
8
Layer 1
10
20.820685
20
290.517024
70
0
0
VERTEX
8
Layer 1
10
20.699190
20
296.096530
70
0
0
VERTEX
8
Layer 1
10
20.897126
20
299.667466
70
0
0
VERTEX
8
Layer 1
10
21.218721
20
302.824580
70
0
0
VERTEX
8
Layer 1
10
21.657146
20
305.514909
70
0
0
VERTEX
8
Layer 1
10
22.205570
20
307.685490
70
0
0
VERTEX
8
Layer 1
10
22.552310
20
309.415100
70
0
0
VERTEX
8
Layer 1
10
23.176560
20
311.798410
70
0
0
VERTEX
8
Layer 1
10
23.535980
20
313.137304
70
0
0
VERTEX
8
Layer 1
10
23.774470
20
315.025610
70
0
0
VERTEX
8
Layer 1
10
23.846911
20
317.881049
70
0
0
VERTEX
8
Layer 1
10
23.410140
20
322.561080
70
0
0
VERTEX
8
Layer 1
10
22.847042
20
325.375498
70
0
0
VERTEX
8
Layer 1
10
22.111010
20
327.478600
70
0
0
VERTEX
8
Layer 1
10
21.875206
20
327.768608
70
0
0
VERTEX
8
Layer 1
10
21.515696
20
327.892760
70
0
0
VERTEX
8
Layer 1
10
19.522540
20
327.732330
70
0
0
VERTEX
8
Layer 1
10
18.020705
20
327.626525
70
0
0
VERTEX
8
Layer 1
10
16.984710
20
327.862030
70
0
0
VERTEX
8
Layer 1
10
15.690461
20
328.120463
70
0
0
VERTEX
8
Layer 1
10
13.210770
20
328.182440
70
0
0
VERTEX
8
Layer 1
10
10.643518
20
328.244230
70
0
0
VERTEX
8
Layer 1
10
10.075572
20
328.377819
70
0
0
VERTEX
8
Layer 1
10
9.578440
20
328.629960
70
0
0
VERTEX
8
Layer 1
10
8.699940
20
328.976190
70
0
0
VERTEX
8
Layer 1
10
8.321397
20
326.150036
70
0
0
VERTEX
8
Layer 1
10
7.933050
20
321.696000
70
0
0
VERTEX
8
Layer 1
10
7.715164
20
319.179688
70
0
0
VERTEX
8
Layer 1
10
7.079370
20
314.431330
70
0
0
VERTEX
8
Layer 1
10
6.732129
20
310.831988
70
0
0
VERTEX
8
Layer 1
10
6.822010
20
303.880040
70
0
0
VERTEX
8
Layer 1
10
7.063085
20
296.617474
70
0
0
VERTEX
8
Layer 1
10
7.240156
20
294.838374
70
0
0
VERTEX
8
Layer 1
10
7.501560
20
293.588170
70
0
0
VERTEX
8
Layer 1
10
7.808014
20
291.734561
70
0
0
VERTEX
8
Layer 1
10
8.074907
20
288.811934
70
0
0
VERTEX
8
Layer 1
10
8.354740
20
281.653480
70
0
0
VERTEX
8
Layer 1
10
8.550580
20
277.501800
70
0
0
VERTEX
8
Layer 1
10
9.064770
20
272.745510
70
0
0
VERTEX
8
Layer 1
10
9.641490
20
268.161820
70
0
0
VERTEX
8
Layer 1
10
10.198310
20
262.910333
70
0
0
VERTEX
8
Layer 1
10
10.533941
20
255.782338
70
0
0
VERTEX
8
Layer 1
10
10.596979
20
248.621203
70
0
0
VERTEX
8
Layer 1
10
10.336020
20
243.270300
70
0
0
VERTEX
8
Layer 1
10
10.145702
20
240.931370
70
0
0
VERTEX
8
Layer 1
10
10.260020
20
238.929490
70
0
0
VERTEX
8
Layer 1
10
10.706864
20
233.831128
70
0
0
VERTEX
8
Layer 1
10
10.739070
20
229.588980
70
0
0
VERTEX
8
Layer 1
10
10.773670
20
225.697230
70
0
0
VERTEX
8
Layer 1
10
10.891520
20
225.264690
70
0
0
VERTEX
8
Layer 1
10
14.516100
20
225.259690
70
0
0
VERTEX
8
Layer 1
10
17.632750
20
225.193879
70
0
0
VERTEX
8
Layer 1
10
19.373690
20
224.963600
70
0
0
VERTEX
8
Layer 1
10
22.400370
20
224.560000
70
0
0
VERTEX
8
Layer 1
10
24.194920
20
224.448220
70
0
0
SEQEND
8
Layer 1
0
POLYLINE
8
Layer 1
62
7
70
0
10
0.000000
20
0.000000
66
1
0
VERTEX
8
Layer 1
10
35.629360
20
264.105740
70
0
0
VERTEX
8
Layer 1
10
34.680060
20
264.421470
70
0
0
VERTEX
8
Layer 1
10
34.339126
20
264.861151
70
0
0
VERTEX
8
Layer 1
10
34.182940
20
265.618810
70
0
0
VERTEX
8
Layer 1
10
34.244301
20
266.984840
70
0
0
VERTEX
8
Layer 1
10
34.481114
20
267.407754
70
0
0
VERTEX
8
Layer 1
10
34.880560
20
267.733950
70
0
0
VERTEX
8
Layer 1
10
35.781379
20
268.055386
70
0
0
VERTEX
8
Layer 1
10
36.675290
20
267.740950
70
0
0
VERTEX
8
Layer 1
10
37.217262
20
267.152005
70
0
0
VERTEX
8
Layer 1
10
37.407245
20
266.372839
70
0
0
VERTEX
8
Layer 1
10
37.242501
20
265.573248
70
0
0
VERTEX
8
Layer 1
10
36.720290
20
264.923030
70
0
0
VERTEX
8
Layer 1
10
36.216440
20
264.323590
70
0
0
VERTEX
8
Layer 1
10
36.044327
20
264.142960
70
0
0
VERTEX
8
Layer 1
10
35.629410
20
264.105520
70
0
0
VERTEX
8
Layer 1
10
35.629360
20
264.105740
70
0
0
SEQEND
8
Layer 1
0
POLYLINE
8
Layer 1
62
7
70
0
10
0.000000
20
0.000000
66
1
0
VERTEX
8
Layer 1
10
228.308870
20
430.923791
70
0
0
VERTEX
8
Layer 1
10
253.708870
20
430.923791
70
0
0
VERTEX
8
Layer 1
10
253.708870
20
405.523791
70
0
0
VERTEX
8
Layer 1
10
228.308870
20
405.523791
70
0
0
VERTEX
8
Layer 1
10
228.308870
20
430.923791
70
0
0
SEQEND
8
Layer 1
0
POLYLINE
8
Layer 1
62
7
70
0
10
0.000000
20
0.000000
66
1
0
VERTEX
8
Layer 1
10
224.227207
20
429.414585
70
0
0
VERTEX
8
Layer 1
10
224.227207
20
407.068131
70
0
0
VERTEX
8
Layer 1
10
225.396484
20
407.068131
70
0
0
VERTEX
8
Layer 1
10
225.396484
20
405.685518
70
0
0
VERTEX
8
Layer 1
10
221.917879
20
405.685518
70
0
0
VERTEX
8
Layer 1
10
221.917879
20
407.068131
70
0
0
VERTEX
8
Layer 1
10
223.087156
20
407.068131
70
0
0
VERTEX
8
Layer 1
10
223.087156
20
429.414585
70
0
0
VERTEX
8
Layer 1
10
221.917879
20
429.414585
70
0
0
VERTEX
8
Layer 1
10
221.917879
20
430.797196
70
0
0
VERTEX
8
Layer 1
10
225.396484
20
430.797196
70
0
0
VERTEX
8
Layer 1
10
225.396484
20
429.414585
70
0
0
VERTEX
8
Layer 1
10
224.227207
20
429.414585
70
0
0
SEQEND
8
Layer 1
0
POLYLINE
8
Layer 1
62
7
70
0
10
0.000000
20
0.000000
66
1
0
VERTEX
8
Layer 1
10
229.929728
20
435.302555
70
0
0
VERTEX
8
Layer 1
10
252.276179
20
435.302555
70
0
0
VERTEX
8
Layer 1
10
252.276179
20
436.471833
70
0
0
VERTEX
8
Layer 1
10
253.658786
20
436.471833
70
0
0
VERTEX
8
Layer 1
10
253.658786
20
432.993232
70
0
0
VERTEX
8
Layer 1
10
252.276179
20
432.993232
70
0
0
VERTEX
8
Layer 1
10
252.276179
20
434.162509
70
0
0
VERTEX
8
Layer 1
10
229.929728
20
434.162509
70
0
0
VERTEX
8
Layer 1
10
229.929728
20
432.993232
70
0
0
VERTEX
8
Layer 1
10
228.547121
20
432.993232
70
0
0
VERTEX
8
Layer 1
10
228.547121
20
436.471833
70
0
0
VERTEX
8
Layer 1
10
229.929728
20
436.471833
70
0
0
VERTEX
8
Layer 1
10
229.929728
20
435.302555
70
0
0
SEQEND
8
Layer 1
0
POLYLINE
8
Layer 1
62
7
70
0
10
0.000000
20
0.000000
66
1
0
VERTEX
8
Layer 1
10
217.113030
20
416.228748
70
0
0
VERTEX
8
Layer 1
10
214.317220
20
416.228748
70
0
0
VERTEX
8
Layer 1
10
214.317220
20
416.755997
70
0
0
VERTEX
8
Layer 1
10
215.392530
20
416.755997
70
0
0
VERTEX
8
Layer 1
10
215.392530
20
420.217804
70
0
0
VERTEX
8
Layer 1
10
214.317220
20
420.217804
70
0
0
VERTEX
8
Layer 1
10
214.317220
20
420.689554
70
0
0
VERTEX
8
Layer 1
10
214.785500
20
420.724244
70
0
0
VERTEX
8
Layer 1
10
215.163590
20
420.831775
70
0
0
VERTEX
8
Layer 1
10
215.413340
20
421.050306
70
0
0
VERTEX
8
Layer 1
10
215.520870
20
421.411056
70
0
0
VERTEX
8
Layer 1
10
216.058530
20
421.411056
70
0
0
VERTEX
8
Layer 1
10
216.058530
20
416.756000
70
0
0
VERTEX
8
Layer 1
10
217.113030
20
416.756000
70
0
0
VERTEX
8
Layer 1
10
217.113030
20
416.228748
70
0
0
SEQEND
8
Layer 1
0
POLYLINE
8
Layer 1
62
7
70
0
10
0.000000
20
0.000000
66
1
0
VERTEX
8
Layer 1
10
220.547080
20
421.626115
70
0
0
VERTEX
8
Layer 1
10
220.397930
20
419.617712
70
0
0
VERTEX
8
Layer 1
10
219.940050
20
419.617712
70
0
0
VERTEX
8
Layer 1
10
219.790900
20
421.626115
70
0
0
VERTEX
8
Layer 1
10
220.547080
20
421.626115
70
0
0
SEQEND
8
Layer 1
0
POLYLINE
8
Layer 1
62
7
70
0
10
0.000000
20
0.000000
66
1
0
VERTEX
8
Layer 1
10
219.208150
20
421.626115
70
0
0
VERTEX
8
Layer 1
10
219.058990
20
419.617712
70
0
0
VERTEX
8
Layer 1
10
218.601120
20
419.617712
70
0
0
VERTEX
8
Layer 1
10
218.451960
20
421.626115
70
0
0
VERTEX
8
Layer 1
10
219.208150
20
421.626115
70
0
0
SEQEND
8
Layer 1
0
POLYLINE
8
Layer 1
62
7
70
0
10
0.000000
20
0.000000
66
1
0
VERTEX
8
Layer 1
10
240.958090
20
437.140546
70
0
0
VERTEX
8
Layer 1
10
238.162280
20
437.140546
70
0
0
VERTEX
8
Layer 1
10
238.162280
20
437.667795
70
0
0
VERTEX
8
Layer 1
10
239.237590
20
437.667795
70
0
0
VERTEX
8
Layer 1
10
239.237590
20
441.129603
70
0
0
VERTEX
8
Layer 1
10
238.162280
20
441.129603
70
0
0
VERTEX
8
Layer 1
10
238.162280
20
441.601352
70
0
0
VERTEX
8
Layer 1
10
238.630560
20
441.636042
70
0
0
VERTEX
8
Layer 1
10
239.008650
20
441.743573
70
0
0
VERTEX
8
Layer 1
10
239.258400
20
441.962104
70
0
0
VERTEX
8
Layer 1
10
239.365930
20
442.322853
70
0
0
VERTEX
8
Layer 1
10
239.903590
20
442.322853
70
0
0
VERTEX
8
Layer 1
10
239.903590
20
437.667797
70
0
0
VERTEX
8
Layer 1
10
240.958090
20
437.667797
70
0
0
VERTEX
8
Layer 1
10
240.958090
20
437.140546
70
0
0
SEQEND
8
Layer 1
0
POLYLINE
8
Layer 1
62
7
70
0
10
0.000000
20
0.000000
66
1
0
VERTEX
8
Layer 1
10
244.392150
20
442.537913
70
0
0
VERTEX
8
Layer 1
10
244.242990
20
440.529510
70
0
0
VERTEX
8
Layer 1
10
243.785110
20
440.529510
70
0
0
VERTEX
8
Layer 1
10
243.635960
20
442.537913
70
0
0
VERTEX
8
Layer 1
10
244.392150
20
442.537913
70
0
0
SEQEND
8
Layer 1
0
POLYLINE
8
Layer 1
62
7
70
0
10
0.000000
20
0.000000
66
1
0
VERTEX
8
Layer 1
10
243.053210
20
442.537913
70
0
0
VERTEX
8
Layer 1
10
242.904050
20
440.529510
70
0
0
VERTEX
8
Layer 1
10
242.446180
20
440.529510
70
0
0
VERTEX
8
Layer 1
10
242.297020
20
442.537913
70
0
0
VERTEX
8
Layer 1
10
243.053210
20
442.537913
70
0
0
SEQEND
8
Layer 1
 0 
ENDSEC
 0 
EOF